0
SECTION
2
HEADER
9
$INSUNITS
70
4
0
ENDSEC
0
SECTION
2
TABLES
0
TABLE
2
LTYPE
0
LTYPE
72
65
70
64
2
CONTINUOUS
3
______
73
0
40
0
0
ENDTAB
0
TABLE
2
LAYER
0
ENDTAB
0
ENDSEC
0
SECTION
2
ENTITIES
0
LINE
8
0
10
-9
20
-9.5
11
8.7939154
21
-9.5
0
LINE
8
0
10
-10
20
-8.5
11
-10
21
42.5
0
LINE
8
0
10
8
20
43.5
11
-9
21
43.5
0
LINE
8
0
10
27
20
48.6
11
10
21
48.6
0
LINE
8
0
10
9
20
47.6
11
9
21
44.5
0
LINE
8
0
10
48
20
49.6
11
48
21
51.85
0
LINE
8
0
10
47
20
52.85
11
29
21
52.85
0
LINE
8
0
10
28
20
51.85
11
28
21
49.6
0
LINE
8
0
10
67
20
47.05
11
67
21
47.6
0
LINE
8
0
10
66
20
48.6
11
49
21
48.6
0
LINE
8
0
10
86
20
35.55
11
86
21
45.05
0
LINE
8
0
10
85
20
46.05
11
68
21
46.05
0
LINE
8
0
10
44.5704362
20
-24.7563221
11
101.329821
21
-29.7221249
0
LINE
8
0
10
9.1892925
20
-9.5814811
11
44.2622148
21
-24.6786463
0
LINE
8
0
10
87
20
34.55
11
107
21
34.55
0
LINE
8
0
10
108
20
33.55
11
108
21
-5.3323244
0
LINE
8
0
10
107.9726832
20
-5.564461
11
102.3896599
21
-28.9580668
0
ARC
8
0
10
8.7939154
20
-10.5
40
1
50
66.7105054
51
90
0
ARC
8
0
10
44.6575919
20
-23.7601274
40
1
50
246.7105054
51
265.0000024
0
ARC
8
0
10
101.4169767
20
-28.7259302
40
1
50
265.0000024
51
346.577105
0
ARC
8
0
10
107
20
-5.3323244
40
1
50
346.577105
51
0
0
ARC
8
0
10
107
20
33.55
40
1
50
0
51
90
0
ARC
8
0
10
87
20
35.55
40
1
50
180
51
270
0
ARC
8
0
10
85
20
45.05
40
1
50
0
51
90
0
ARC
8
0
10
68
20
47.05
40
1
50
180
51
270
0
ARC
8
0
10
66
20
47.6
40
1
50
0
51
90
0
ARC
8
0
10
49
20
49.6
40
1
50
180
51
270
0
ARC
8
0
10
47
20
51.85
40
1
50
0
51
90
0
ARC
8
0
10
29
20
51.85
40
1
50
90
51
180
0
ARC
8
0
10
27
20
49.6
40
1
50
270
51
0
0
ARC
8
0
10
10
20
47.6
40
1
50
90
51
180
0
ARC
8
0
10
8
20
44.5
40
1
50
270
51
0
0
ARC
8
0
10
-9
20
42.5
40
1
50
90
51
180
0
ARC
8
0
10
-9
20
-8.5
40
1
50
180
51
270
0
ENDSEC
0
EOF