0
SECTION
2
HEADER
9
$INSUNITS
70
4
0
ENDSEC
0
SECTION
2
TABLES
0
TABLE
2
LTYPE
0
LTYPE
72
65
70
64
2
CONTINUOUS
3
______
73
0
40
0
0
ENDTAB
0
TABLE
2
LAYER
0
ENDTAB
0
ENDSEC
0
SECTION
2
ENTITIES
0
LINE
8
0
10
-8.75
20
-8.25
11
8.75
21
-8.25
0
LINE
8
0
10
8.75
20
-8.25
11
8.75
21
8.25
0
LINE
8
0
10
8.75
20
8.25
11
-8.75
21
8.25
0
LINE
8
0
10
-8.75
20
8.25
11
-8.75
21
-8.25
0
LINE
8
0
10
-8.75
20
8.75
11
8.75
21
8.75
0
LINE
8
0
10
8.75
20
8.75
11
8.75
21
25.25
0
LINE
8
0
10
8.75
20
25.25
11
-8.75
21
25.25
0
LINE
8
0
10
-8.75
20
25.25
11
-8.75
21
8.75
0
LINE
8
0
10
-8.75
20
25.75
11
8.75
21
25.75
0
LINE
8
0
10
8.75
20
25.75
11
8.75
21
42.25
0
LINE
8
0
10
8.75
20
42.25
11
-8.75
21
42.25
0
LINE
8
0
10
-8.75
20
42.25
11
-8.75
21
25.75
0
LINE
8
0
10
10.25
20
-3.15
11
27.75
21
-3.15
0
LINE
8
0
10
27.75
20
-3.15
11
27.75
21
13.35
0
LINE
8
0
10
27.75
20
13.35
11
10.25
21
13.35
0
LINE
8
0
10
10.25
20
13.35
11
10.25
21
-3.15
0
LINE
8
0
10
10.25
20
13.85
11
27.75
21
13.85
0
LINE
8
0
10
27.75
20
13.85
11
27.75
21
30.35
0
LINE
8
0
10
27.75
20
30.35
11
10.25
21
30.35
0
LINE
8
0
10
10.25
20
30.35
11
10.25
21
13.85
0
LINE
8
0
10
10.25
20
30.85
11
27.75
21
30.85
0
LINE
8
0
10
27.75
20
30.85
11
27.75
21
47.35
0
LINE
8
0
10
27.75
20
47.35
11
10.25
21
47.35
0
LINE
8
0
10
10.25
20
47.35
11
10.25
21
30.85
0
LINE
8
0
10
29.25
20
1.1
11
46.75
21
1.1
0
LINE
8
0
10
46.75
20
1.1
11
46.75
21
17.6
0
LINE
8
0
10
46.75
20
17.6
11
29.25
21
17.6
0
LINE
8
0
10
29.25
20
17.6
11
29.25
21
1.1
0
LINE
8
0
10
29.25
20
18.1
11
46.75
21
18.1
0
LINE
8
0
10
46.75
20
18.1
11
46.75
21
34.6
0
LINE
8
0
10
46.75
20
34.6
11
29.25
21
34.6
0
LINE
8
0
10
29.25
20
34.6
11
29.25
21
18.1
0
LINE
8
0
10
29.25
20
35.1
11
46.75
21
35.1
0
LINE
8
0
10
46.75
20
35.1
11
46.75
21
51.6
0
LINE
8
0
10
46.75
20
51.6
11
29.25
21
51.6
0
LINE
8
0
10
29.25
20
51.6
11
29.25
21
35.1
0
LINE
8
0
10
48.25
20
-3.15
11
65.75
21
-3.15
0
LINE
8
0
10
65.75
20
-3.15
11
65.75
21
13.35
0
LINE
8
0
10
65.75
20
13.35
11
48.25
21
13.35
0
LINE
8
0
10
48.25
20
13.35
11
48.25
21
-3.15
0
LINE
8
0
10
48.25
20
13.85
11
65.75
21
13.85
0
LINE
8
0
10
65.75
20
13.85
11
65.75
21
30.35
0
LINE
8
0
10
65.75
20
30.35
11
48.25
21
30.35
0
LINE
8
0
10
48.25
20
30.35
11
48.25
21
13.85
0
LINE
8
0
10
48.25
20
30.85
11
65.75
21
30.85
0
LINE
8
0
10
65.75
20
30.85
11
65.75
21
47.35
0
LINE
8
0
10
65.75
20
47.35
11
48.25
21
47.35
0
LINE
8
0
10
48.25
20
47.35
11
48.25
21
30.85
0
LINE
8
0
10
67.25
20
-5.7
11
84.75
21
-5.7
0
LINE
8
0
10
84.75
20
-5.7
11
84.75
21
10.8
0
LINE
8
0
10
84.75
20
10.8
11
67.25
21
10.8
0
LINE
8
0
10
67.25
20
10.8
11
67.25
21
-5.7
0
LINE
8
0
10
67.25
20
11.3
11
84.75
21
11.3
0
LINE
8
0
10
84.75
20
11.3
11
84.75
21
27.8
0
LINE
8
0
10
84.75
20
27.8
11
67.25
21
27.8
0
LINE
8
0
10
67.25
20
27.8
11
67.25
21
11.3
0
LINE
8
0
10
67.25
20
28.3
11
84.75
21
28.3
0
LINE
8
0
10
84.75
20
28.3
11
84.75
21
44.8
0
LINE
8
0
10
84.75
20
44.8
11
67.25
21
44.8
0
LINE
8
0
10
67.25
20
44.8
11
67.25
21
28.3
0
LINE
8
0
10
45.7642615
20
-23.6059935
11
63.1976687
21
-25.131219
0
LINE
8
0
10
63.1976687
20
-25.131219
11
64.6357385
21
-8.6940065
0
LINE
8
0
10
64.6357385
20
-8.6940065
11
47.2023313
21
-7.168781
0
LINE
8
0
10
47.2023313
20
-7.168781
11
45.7642615
21
-23.6059935
0
LINE
8
0
10
64.6919608
20
-25.2619526
11
82.125368
21
-26.7871781
0
LINE
8
0
10
82.125368
20
-26.7871781
11
83.5634378
21
-10.3499656
0
LINE
8
0
10
83.5634378
20
-10.3499656
11
66.1300306
21
-8.8247401
0
LINE
8
0
10
66.1300306
20
-8.8247401
11
64.6919608
21
-25.2619526
0
LINE
8
0
10
83.61966
20
-26.9179117
11
101.0530672
21
-28.4431372
0
LINE
8
0
10
101.0530672
20
-28.4431372
11
102.491137
21
-12.0059247
0
LINE
8
0
10
102.491137
20
-12.0059247
11
85.0577298
21
-10.4806992
0
LINE
8
0
10
85.0577298
20
-10.4806992
11
83.61966
21
-26.9179117
0
ENDSEC
0
EOF