0
SECTION
2
HEADER
9
$INSUNITS
70
4
0
ENDSEC
0
SECTION
2
TABLES
0
TABLE
2
LTYPE
0
LTYPE
72
65
70
64
2
CONTINUOUS
3
______
73
0
40
0
0
ENDTAB
0
TABLE
2
LAYER
0
ENDTAB
0
ENDSEC
0
SECTION
2
ENTITIES
0
LINE
8
0
10
-9
20
-9.5
11
8.8824399
21
-9.5
0
LINE
8
0
10
-10
20
-8.5
11
-10
21
42.5
0
LINE
8
0
10
8
20
43.5
11
-9
21
43.5
0
LINE
8
0
10
27
20
55.4
11
10
21
55.4
0
LINE
8
0
10
9
20
54.4
11
9
21
44.5
0
LINE
8
0
10
48
20
56.4
11
48
21
58.65
0
LINE
8
0
10
47
20
59.65
11
29
21
59.65
0
LINE
8
0
10
28
20
58.65
11
28
21
56.4
0
LINE
8
0
10
67
20
53.85
11
67
21
54.4
0
LINE
8
0
10
66
20
55.4
11
49
21
55.4
0
LINE
8
0
10
86
20
42.35
11
86
21
51.85
0
LINE
8
0
10
85
20
52.85
11
68
21
52.85
0
LINE
8
0
10
44.4833156
20
-17.9487001
11
101.2586959
21
-22.9159022
0
LINE
8
0
10
9.1143548
20
-9.5272639
11
44.3385564
21
-17.9252415
0
LINE
8
0
10
87
20
41.35
11
105
21
41.35
0
LINE
8
0
10
106
20
40.35
11
106
21
1.4277822
0
LINE
8
0
10
105.9879726
20
1.2731532
11
102.3338242
21
-22.0743365
0
ARC
8
0
10
8.8824399
20
-10.5
40
1
50
76.5901641
51
90
0
ARC
8
0
10
44.5704713
20
-16.9525054
40
1
50
256.5901641
51
265.0000024
0
ARC
8
0
10
101.3458516
20
-21.9197075
40
1
50
265.0000024
51
351.1047198
0
ARC
8
0
10
105
20
1.4277822
40
1
50
351.1047198
51
0
0
ARC
8
0
10
105
20
40.35
40
1
50
0
51
90
0
ARC
8
0
10
87
20
42.35
40
1
50
180
51
270
0
ARC
8
0
10
85
20
51.85
40
1
50
0
51
90
0
ARC
8
0
10
68
20
53.85
40
1
50
180
51
270
0
ARC
8
0
10
66
20
54.4
40
1
50
0
51
90
0
ARC
8
0
10
49
20
56.4
40
1
50
180
51
270
0
ARC
8
0
10
47
20
58.65
40
1
50
0
51
90
0
ARC
8
0
10
29
20
58.65
40
1
50
90
51
180
0
ARC
8
0
10
27
20
56.4
40
1
50
270
51
0
0
ARC
8
0
10
10
20
54.4
40
1
50
90
51
180
0
ARC
8
0
10
8
20
44.5
40
1
50
270
51
0
0
ARC
8
0
10
-9
20
42.5
40
1
50
90
51
180
0
ARC
8
0
10
-9
20
-8.5
40
1
50
180
51
270
0
ENDSEC
0
EOF