0
SECTION
2
HEADER
9
$INSUNITS
70
4
0
ENDSEC
0
SECTION
2
TABLES
0
TABLE
2
LTYPE
0
LTYPE
72
65
70
64
2
CONTINUOUS
3
______
73
0
40
0
0
ENDTAB
0
TABLE
2
LAYER
0
ENDTAB
0
ENDSEC
0
SECTION
2
ENTITIES
0
LINE
8
0
10
-8.75
20
-8.25
11
8.75
21
-8.25
0
LINE
8
0
10
8.75
20
-8.25
11
8.75
21
8.25
0
LINE
8
0
10
8.75
20
8.25
11
-8.75
21
8.25
0
LINE
8
0
10
-8.75
20
8.25
11
-8.75
21
-8.25
0
LINE
8
0
10
-8.75
20
8.75
11
8.75
21
8.75
0
LINE
8
0
10
8.75
20
8.75
11
8.75
21
25.25
0
LINE
8
0
10
8.75
20
25.25
11
-8.75
21
25.25
0
LINE
8
0
10
-8.75
20
25.25
11
-8.75
21
8.75
0
LINE
8
0
10
-8.75
20
25.75
11
8.75
21
25.75
0
LINE
8
0
10
8.75
20
25.75
11
8.75
21
42.25
0
LINE
8
0
10
8.75
20
42.25
11
-8.75
21
42.25
0
LINE
8
0
10
-8.75
20
42.25
11
-8.75
21
25.75
0
LINE
8
0
10
10.25
20
3.65
11
27.75
21
3.65
0
LINE
8
0
10
27.75
20
3.65
11
27.75
21
20.15
0
LINE
8
0
10
27.75
20
20.15
11
10.25
21
20.15
0
LINE
8
0
10
10.25
20
20.15
11
10.25
21
3.65
0
LINE
8
0
10
10.25
20
20.65
11
27.75
21
20.65
0
LINE
8
0
10
27.75
20
20.65
11
27.75
21
37.15
0
LINE
8
0
10
27.75
20
37.15
11
10.25
21
37.15
0
LINE
8
0
10
10.25
20
37.15
11
10.25
21
20.65
0
LINE
8
0
10
10.25
20
37.65
11
27.75
21
37.65
0
LINE
8
0
10
27.75
20
37.65
11
27.75
21
54.15
0
LINE
8
0
10
27.75
20
54.15
11
10.25
21
54.15
0
LINE
8
0
10
10.25
20
54.15
11
10.25
21
37.65
0
LINE
8
0
10
29.25
20
7.9
11
46.75
21
7.9
0
LINE
8
0
10
46.75
20
7.9
11
46.75
21
24.4
0
LINE
8
0
10
46.75
20
24.4
11
29.25
21
24.4
0
LINE
8
0
10
29.25
20
24.4
11
29.25
21
7.9
0
LINE
8
0
10
29.25
20
24.9
11
46.75
21
24.9
0
LINE
8
0
10
46.75
20
24.9
11
46.75
21
41.4
0
LINE
8
0
10
46.75
20
41.4
11
29.25
21
41.4
0
LINE
8
0
10
29.25
20
41.4
11
29.25
21
24.9
0
LINE
8
0
10
29.25
20
41.9
11
46.75
21
41.9
0
LINE
8
0
10
46.75
20
41.9
11
46.75
21
58.4
0
LINE
8
0
10
46.75
20
58.4
11
29.25
21
58.4
0
LINE
8
0
10
29.25
20
58.4
11
29.25
21
41.9
0
LINE
8
0
10
48.25
20
3.65
11
65.75
21
3.65
0
LINE
8
0
10
65.75
20
3.65
11
65.75
21
20.15
0
LINE
8
0
10
65.75
20
20.15
11
48.25
21
20.15
0
LINE
8
0
10
48.25
20
20.15
11
48.25
21
3.65
0
LINE
8
0
10
48.25
20
20.65
11
65.75
21
20.65
0
LINE
8
0
10
65.75
20
20.65
11
65.75
21
37.15
0
LINE
8
0
10
65.75
20
37.15
11
48.25
21
37.15
0
LINE
8
0
10
48.25
20
37.15
11
48.25
21
20.65
0
LINE
8
0
10
48.25
20
37.65
11
65.75
21
37.65
0
LINE
8
0
10
65.75
20
37.65
11
65.75
21
54.15
0
LINE
8
0
10
65.75
20
54.15
11
48.25
21
54.15
0
LINE
8
0
10
48.25
20
54.15
11
48.25
21
37.65
0
LINE
8
0
10
67.25
20
1.1
11
84.75
21
1.1
0
LINE
8
0
10
84.75
20
1.1
11
84.75
21
17.6
0
LINE
8
0
10
84.75
20
17.6
11
67.25
21
17.6
0
LINE
8
0
10
67.25
20
17.6
11
67.25
21
1.1
0
LINE
8
0
10
67.25
20
18.1
11
84.75
21
18.1
0
LINE
8
0
10
84.75
20
18.1
11
84.75
21
34.6
0
LINE
8
0
10
84.75
20
34.6
11
67.25
21
34.6
0
LINE
8
0
10
67.25
20
34.6
11
67.25
21
18.1
0
LINE
8
0
10
67.25
20
35.1
11
84.75
21
35.1
0
LINE
8
0
10
84.75
20
35.1
11
84.75
21
51.6
0
LINE
8
0
10
84.75
20
51.6
11
67.25
21
51.6
0
LINE
8
0
10
67.25
20
51.6
11
67.25
21
35.1
0
LINE
8
0
10
45.7642615
20
-16.8059935
11
63.1976687
21
-18.331219
0
LINE
8
0
10
63.1976687
20
-18.331219
11
64.6357385
21
-1.8940065
0
LINE
8
0
10
64.6357385
20
-1.8940065
11
47.2023313
21
-0.368781
0
LINE
8
0
10
47.2023313
20
-0.368781
11
45.7642615
21
-16.8059935
0
LINE
8
0
10
64.6919608
20
-18.4619526
11
82.125368
21
-19.9871781
0
LINE
8
0
10
82.125368
20
-19.9871781
11
83.5634378
21
-3.5499656
0
LINE
8
0
10
83.5634378
20
-3.5499656
11
66.1300306
21
-2.0247401
0
LINE
8
0
10
66.1300306
20
-2.0247401
11
64.6919608
21
-18.4619526
0
LINE
8
0
10
83.61966
20
-20.1179117
11
101.0530672
21
-21.6431372
0
LINE
8
0
10
101.0530672
20
-21.6431372
11
102.491137
21
-5.2059247
0
LINE
8
0
10
102.491137
20
-5.2059247
11
85.0577298
21
-3.6806992
0
LINE
8
0
10
85.0577298
20
-3.6806992
11
83.61966
21
-20.1179117
0
ENDSEC
0
EOF