M48
; DRILL file {KiCad (6.0.7-1)-1} date Sunday, 21 August 2022 at 12:28:09 am
; FORMAT={-:-/ absolute / inch / decimal}
; #@! TF.CreationDate,2022-08-21T00:28:09+10:00
; #@! TF.GenerationSoftware,Kicad,Pcbnew,(6.0.7-1)-1
; #@! TF.FileFunction,NonPlated,1,2,NPTH
FMAT,2
INCH
; #@! TA.AperFunction,NonPlated,NPTH,ComponentDrill
T1C0.0354
; #@! TA.AperFunction,NonPlated,NPTH,ComponentDrill
T2C0.0670
; #@! TA.AperFunction,NonPlated,NPTH,ComponentDrill
T3C0.1181
; #@! TA.AperFunction,NonPlated,NPTH,ComponentDrill
T4C0.1350
%
G90
G05
T1
X3.7205Y1.5622
X3.7205Y1.5622
X3.8386Y1.5622
X3.8386Y1.5622
T2
X-0.2165Y1.3386
X-0.2165Y0.6693
X-0.2165Y0.0
X0.2165Y1.3386
X0.2165Y0.6693
X0.2165Y0.0
X0.5315Y1.8071
X0.5315Y1.1378
X0.5315Y0.4685
X0.9646Y1.8071
X0.9646Y1.1378
X0.9646Y0.4685
X1.2795Y1.9744
X1.2795Y1.3051
X1.2795Y0.6358
X1.7126Y1.9744
X1.7126Y1.3051
X1.7126Y0.6358
X1.9575Y-0.3492
X2.0276Y1.8071
X2.0276Y1.1378
X2.0276Y0.4685
X2.3889Y-0.387
X2.4606Y1.8071
X2.4606Y1.1378
X2.4606Y0.4685
X2.7027Y-0.4144
X2.7756Y1.7067
X2.7756Y1.0374
X2.7756Y0.3681
X3.1341Y-0.4522
X3.2087Y1.7067
X3.2087Y1.0374
X3.2087Y0.3681
X3.4479Y-0.4796
X3.8793Y-0.5174
T3
X-0.1969Y1.4862
X-0.1969Y0.8169
X-0.1969Y0.1476
X0.0Y1.5728
X0.0Y1.5728
X0.0Y0.9035
X0.0Y0.9035
X0.0Y0.2343
X0.0Y0.2343
X0.1969Y1.4862
X0.1969Y0.8169
X0.1969Y0.1476
X0.5512Y1.9547
X0.5512Y1.2854
X0.5512Y0.6161
X0.748Y2.0413
X0.748Y2.0413
X0.748Y1.372
X0.748Y1.372
X0.748Y0.7028
X0.748Y0.7028
X0.9449Y1.9547
X0.9449Y1.2854
X0.9449Y0.6161
X1.2992Y2.122
X1.2992Y1.4528
X1.2992Y0.7835
X1.4961Y2.2087
X1.4961Y2.2087
X1.4961Y1.5394
X1.4961Y1.5394
X1.4961Y0.8701
X1.4961Y0.8701
X1.6929Y2.122
X1.6929Y1.4528
X1.6929Y0.7835
X1.99Y-0.2039
X2.0472Y1.9547
X2.0472Y1.2854
X2.0472Y0.6161
X2.1936Y-0.1347
X2.1936Y-0.1347
X2.2441Y2.0413
X2.2441Y2.0413
X2.2441Y1.372
X2.2441Y1.372
X2.2441Y0.7028
X2.2441Y0.7028
X2.3822Y-0.2382
X2.4409Y1.9547
X2.4409Y1.2854
X2.4409Y0.6161
X2.7352Y-0.2691
X2.7953Y1.8543
X2.7953Y1.185
X2.7953Y0.5157
X2.9388Y-0.1999
X2.9388Y-0.1999
X2.9921Y1.9409
X2.9921Y1.9409
X2.9921Y1.2717
X2.9921Y1.2717
X2.9921Y0.6024
X2.9921Y0.6024
X3.1274Y-0.3034
X3.189Y1.8543
X3.189Y1.185
X3.189Y0.5157
X3.4804Y-0.3343
X3.684Y-0.2651
X3.684Y-0.2651
X3.8726Y-0.3686
T4
X0.0Y1.3386
X0.0Y0.6693
X0.0Y0.0
X0.748Y1.8071
X0.748Y1.1378
X0.748Y0.4685
X1.4961Y1.9744
X1.4961Y1.3051
X1.4961Y0.6358
X2.1732Y-0.3681
X2.2441Y1.8071
X2.2441Y1.1378
X2.2441Y0.4685
X2.9184Y-0.4333
X2.9921Y1.7067
X2.9921Y1.0374
X2.9921Y0.3681
X3.6636Y-0.4985
T0
M30
