%TF.GenerationSoftware,KiCad,Pcbnew,(6.0.7-1)-1*%
%TF.CreationDate,2022-08-21T13:44:39+10:00*%
%TF.ProjectId,buckyboard_v1,6275636b-7962-46f6-9172-645f76312e6b,v1.0.0*%
%TF.SameCoordinates,Original*%
%TF.FileFunction,Paste,Bot*%
%TF.FilePolarity,Positive*%
%FSLAX46Y46*%
G04 Gerber Fmt 4.6, Leading zero omitted, Abs format (unit mm)*
G04 Created by KiCad (PCBNEW (6.0.7-1)-1) date 2022-08-21 13:44:39*
%MOMM*%
%LPD*%
G01*
G04 APERTURE LIST*
G04 Aperture macros list*
%AMRotRect*
0 Rectangle, with rotation*
0 The origin of the aperture is its center*
0 $1 length*
0 $2 width*
0 $3 Rotation angle, in degrees counterclockwise*
0 Add horizontal line*
21,1,$1,$2,0,0,$3*%
G04 Aperture macros list end*
%ADD10R,2.600000X2.600000*%
%ADD11R,0.900000X1.700000*%
%ADD12RotRect,2.600000X2.600000X355.000000*%
%ADD13R,1.000000X0.800000*%
%ADD14R,0.700000X1.500000*%
G04 APERTURE END LIST*
D10*
%TO.C,S1*%
X-3275000Y5950000D03*
X8275000Y3750000D03*
%TD*%
%TO.C,S2*%
X-3275000Y22950000D03*
X8275000Y20750000D03*
%TD*%
%TO.C,S15*%
X72725000Y49300000D03*
X84275000Y47100000D03*
%TD*%
%TO.C,S5*%
X15725000Y34850000D03*
X27275000Y32650000D03*
%TD*%
%TO.C,S12*%
X53725000Y51850000D03*
X65275000Y49650000D03*
%TD*%
%TO.C,S14*%
X72725000Y32300000D03*
X84275000Y30100000D03*
%TD*%
%TO.C,S11*%
X53725000Y34850000D03*
X65275000Y32650000D03*
%TD*%
%TO.C,S6*%
X15725000Y51850000D03*
X27275000Y49650000D03*
%TD*%
D11*
%TO.C,*%
X88000000Y40050000D03*
X88000000Y36650000D03*
%TD*%
D10*
%TO.C,S7*%
X34725000Y22100000D03*
X46275000Y19900000D03*
%TD*%
D12*
%TO.C,S17*%
X71383738Y-4793165D03*
X82698044Y-7991443D03*
%TD*%
%TO.C,S18*%
X90311438Y-6449124D03*
X101625744Y-9647402D03*
%TD*%
D13*
%TO.C,*%
X92350000Y38570000D03*
X99650000Y38570000D03*
X99650000Y40780000D03*
X92350000Y40780000D03*
D14*
X93750000Y37920000D03*
X96750000Y37920000D03*
X98250000Y37920000D03*
%TD*%
D10*
%TO.C,S4*%
X15725000Y17850000D03*
X27275000Y15650000D03*
%TD*%
%TO.C,S3*%
X-3275000Y39950000D03*
X8275000Y37750000D03*
%TD*%
%TO.C,S8*%
X34725000Y39100000D03*
X46275000Y36900000D03*
%TD*%
%TO.C,S13*%
X72725000Y15300000D03*
X84275000Y13100000D03*
%TD*%
%TO.C,S9*%
X34725000Y56100000D03*
X46275000Y53900000D03*
%TD*%
%TO.C,S10*%
X53725000Y17850000D03*
X65275000Y15650000D03*
%TD*%
D12*
%TO.C,S16*%
X52456039Y-3137206D03*
X63770345Y-6335484D03*
%TD*%
M02*
