M48
; DRILL file {KiCad (6.0.7-1)-1} date Sunday, 21 August 2022 at 01:44:37 pm
; FORMAT={-:-/ absolute / inch / decimal}
; #@! TF.CreationDate,2022-08-21T13:44:37+10:00
; #@! TF.GenerationSoftware,Kicad,Pcbnew,(6.0.7-1)-1
; #@! TF.FileFunction,Plated,1,2,PTH
FMAT,2
INCH
; #@! TA.AperFunction,Plated,PTH,ViaDrill
T1C0.0157
; #@! TA.AperFunction,Plated,PTH,ComponentDrill
T2C0.0157
; #@! TA.AperFunction,Plated,PTH,ComponentDrill
T3C0.0276
; #@! TA.AperFunction,Plated,PTH,ComponentDrill
T4C0.0433
%
G90
G05
T1
X0.0Y1.45
X0.0Y0.78
X0.0Y0.11
X0.75Y1.24
X0.75Y0.58
X0.76Y1.92
X1.5Y2.08
X1.5Y1.42
X1.5Y0.74
X2.18Y-0.27
X2.25Y1.92
X2.25Y1.25
X2.25Y0.58
X2.4202Y1.0202
X2.5717Y0.8713
X2.93Y-0.33
X2.9807Y0.1516
X2.9823Y0.1043
X2.99Y0.48
X3.0Y1.82
X3.0Y1.15
X3.0575Y0.2304
X3.1142Y0.2598
X3.1382Y0.9295
X3.2256Y0.8427
X3.2406Y0.2598
X3.3Y0.9
X3.3693Y0.2697
X3.4327Y0.653
X3.4327Y0.653
X3.47Y1.51
X3.67Y-0.39
T2
X3.7495Y1.2134
X3.7495Y1.1134
X3.7495Y1.0134
X3.7495Y0.9134
X3.7495Y0.8134
X3.7495Y0.7134
X3.7495Y0.6134
X3.7495Y0.5134
X3.7495Y0.4134
X3.7495Y0.3134
X3.7495Y0.2134
X3.7495Y0.1134
X3.8095Y1.2134
X3.8095Y1.1134
X3.8095Y1.0134
X3.8095Y0.9134
X3.8095Y0.8134
X3.8095Y0.7134
X3.8095Y0.6134
X3.8095Y0.5134
X3.8095Y0.4134
X3.8095Y0.3134
X3.8095Y0.2134
X3.8095Y0.1134
T3
X4.0256Y1.5492
X4.0846Y1.5492
T4
X3.4795Y1.2134
X3.4795Y1.2134
X3.4795Y1.1134
X3.4795Y1.0134
X3.4795Y0.9134
X3.4795Y0.8134
X3.4795Y0.7134
X3.4795Y0.6134
X3.4795Y0.5134
X3.4795Y0.4134
X3.4795Y0.3134
X3.4795Y0.2134
X3.4795Y0.1134
X4.0795Y1.2134
X4.0795Y1.2134
X4.0795Y1.1134
X4.0795Y1.0134
X4.0795Y0.9134
X4.0795Y0.8134
X4.0795Y0.7134
X4.0795Y0.6134
X4.0795Y0.5134
X4.0795Y0.4134
X4.0795Y0.3134
X4.0795Y0.2134
X4.0795Y0.1134
T0
M30
