%TF.GenerationSoftware,KiCad,Pcbnew,(6.0.7-1)-1*%
%TF.CreationDate,2022-08-21T13:44:39+10:00*%
%TF.ProjectId,buckyboard_v1,6275636b-7962-46f6-9172-645f76312e6b,v1.0.0*%
%TF.SameCoordinates,Original*%
%TF.FileFunction,Copper,L2,Bot*%
%TF.FilePolarity,Positive*%
%FSLAX46Y46*%
G04 Gerber Fmt 4.6, Leading zero omitted, Abs format (unit mm)*
G04 Created by KiCad (PCBNEW (6.0.7-1)-1) date 2022-08-21 13:44:39*
%MOMM*%
%LPD*%
G01*
G04 APERTURE LIST*
G04 Aperture macros list*
%AMRotRect*
0 Rectangle, with rotation*
0 The origin of the aperture is its center*
0 $1 length*
0 $2 width*
0 $3 Rotation angle, in degrees counterclockwise*
0 Add horizontal line*
21,1,$1,$2,0,0,$3*%
%AMFreePoly0*
4,1,5,0.125000,-0.500000,-0.125000,-0.500000,-0.125000,0.500000,0.125000,0.500000,0.125000,-0.500000,0.125000,-0.500000,$1*%
%AMFreePoly1*
4,1,6,0.600000,0.200000,0.000000,-0.400000,-0.600000,0.200000,-0.600000,0.400000,0.600000,0.400000,0.600000,0.200000,0.600000,0.200000,$1*%
%AMFreePoly2*
4,1,49,0.004773,0.123721,0.009154,0.124665,0.028961,0.117240,0.062500,0.108253,0.068237,0.102516,0.075053,0.099961,0.087617,0.083136,0.108253,0.062500,0.111178,0.051584,0.117161,0.043572,0.118539,0.024114,0.125000,0.000000,0.121239,-0.014035,0.122131,-0.026629,0.113759,-0.041951,0.108253,-0.062500,0.095644,-0.075109,0.088389,-0.088388,-0.641000,-0.817776,-0.641000,-4.770224,
0.088389,-5.499612,0.109852,-5.528356,0.124665,-5.597154,0.099961,-5.663053,0.043572,-5.705161,-0.026629,-5.710131,-0.088388,-5.676389,-0.854388,-4.910388,-0.867707,-4.892552,-0.871189,-4.889530,-0.871982,-4.886826,-0.875852,-4.881644,-0.882331,-4.851549,-0.891000,-4.822000,-0.891000,-0.766000,-0.887805,-0.743969,-0.888131,-0.739371,-0.886780,-0.736898,-0.885852,-0.730498,-0.869151,-0.704632,
-0.854388,-0.677612,-0.088388,0.088389,-0.064606,0.106147,-0.062500,0.108253,-0.061385,0.108552,-0.059644,0.109852,-0.043806,0.113262,0.000000,0.125000,0.004773,0.123721,0.004773,0.123721,$1*%
%AMFreePoly3*
4,1,6,0.600000,-0.250000,-0.600000,-0.250000,-0.600000,1.000000,0.000000,0.400000,0.600000,1.000000,0.600000,-0.250000,0.600000,-0.250000,$1*%
G04 Aperture macros list end*
%TA.AperFunction,ComponentPad*%
%ADD10C,1.000000*%
%TD*%
%TA.AperFunction,SMDPad,CuDef*%
%ADD11R,2.600000X2.600000*%
%TD*%
%TA.AperFunction,SMDPad,CuDef*%
%ADD12R,0.900000X1.700000*%
%TD*%
%TA.AperFunction,SMDPad,CuDef*%
%ADD13RotRect,2.600000X2.600000X355.000000*%
%TD*%
%TA.AperFunction,ComponentPad*%
%ADD14C,1.600000*%
%TD*%
%TA.AperFunction,SMDPad,CuDef*%
%ADD15FreePoly0,90.000000*%
%TD*%
%TA.AperFunction,SMDPad,CuDef*%
%ADD16FreePoly1,270.000000*%
%TD*%
%TA.AperFunction,ComponentPad*%
%ADD17R,1.600000X1.600000*%
%TD*%
%TA.AperFunction,SMDPad,CuDef*%
%ADD18FreePoly0,270.000000*%
%TD*%
%TA.AperFunction,SMDPad,CuDef*%
%ADD19FreePoly1,90.000000*%
%TD*%
%TA.AperFunction,SMDPad,CuDef*%
%ADD20FreePoly2,270.000000*%
%TD*%
%TA.AperFunction,SMDPad,CuDef*%
%ADD21FreePoly3,90.000000*%
%TD*%
%TA.AperFunction,ComponentPad*%
%ADD22C,0.800000*%
%TD*%
%TA.AperFunction,SMDPad,CuDef*%
%ADD23FreePoly2,90.000000*%
%TD*%
%TA.AperFunction,SMDPad,CuDef*%
%ADD24FreePoly3,270.000000*%
%TD*%
%TA.AperFunction,SMDPad,CuDef*%
%ADD25R,1.000000X0.800000*%
%TD*%
%TA.AperFunction,SMDPad,CuDef*%
%ADD26R,0.700000X1.500000*%
%TD*%
%TA.AperFunction,ViaPad*%
%ADD27C,0.800000*%
%TD*%
%TA.AperFunction,Conductor*%
%ADD28C,0.250000*%
%TD*%
G04 APERTURE END LIST*
D10*
%TO.P,,2*%
%TO.N,GND*%
X103750000Y39350000D03*
%TO.P,,1*%
%TO.N,pos*%
X102250000Y39350000D03*
%TD*%
D11*
%TO.P,S1,1*%
%TO.N,matrix_pinky_bottom*%
X-3275000Y5950000D03*
%TO.P,S1,2*%
%TO.N,GND*%
X8275000Y3750000D03*
%TD*%
%TO.P,S2,1*%
%TO.N,matrix_pinky_home*%
X-3275000Y22950000D03*
%TO.P,S2,2*%
%TO.N,GND*%
X8275000Y20750000D03*
%TD*%
%TO.P,S15,1*%
%TO.N,matrix_inner_top*%
X72725000Y49300000D03*
%TO.P,S15,2*%
%TO.N,GND*%
X84275000Y47100000D03*
%TD*%
%TO.P,S5,1*%
%TO.N,matrix_ring_home*%
X15725000Y34850000D03*
%TO.P,S5,2*%
%TO.N,GND*%
X27275000Y32650000D03*
%TD*%
%TO.P,S12,1*%
%TO.N,matrix_index_top*%
X53725000Y51850000D03*
%TO.P,S12,2*%
%TO.N,GND*%
X65275000Y49650000D03*
%TD*%
%TO.P,S14,1*%
%TO.N,matrix_inner_home*%
X72725000Y32300000D03*
%TO.P,S14,2*%
%TO.N,GND*%
X84275000Y30100000D03*
%TD*%
%TO.P,S11,1*%
%TO.N,matrix_index_home*%
X53725000Y34850000D03*
%TO.P,S11,2*%
%TO.N,GND*%
X65275000Y32650000D03*
%TD*%
%TO.P,S6,1*%
%TO.N,matrix_ring_top*%
X15725000Y51850000D03*
%TO.P,S6,2*%
%TO.N,GND*%
X27275000Y49650000D03*
%TD*%
D12*
%TO.P,,1*%
%TO.N,RST*%
X88000000Y40050000D03*
%TO.P,,2*%
%TO.N,GND*%
X88000000Y36650000D03*
%TD*%
D11*
%TO.P,S7,1*%
%TO.N,matrix_middle_bottom*%
X34725000Y22100000D03*
%TO.P,S7,2*%
%TO.N,GND*%
X46275000Y19900000D03*
%TD*%
D13*
%TO.P,S17,1*%
%TO.N,thumbs_home*%
X71383738Y-4793165D03*
%TO.P,S17,2*%
%TO.N,GND*%
X82698044Y-7991443D03*
%TD*%
%TO.P,S18,1*%
%TO.N,thumbs_far*%
X90311438Y-6449124D03*
%TO.P,S18,2*%
%TO.N,GND*%
X101625744Y-9647402D03*
%TD*%
D14*
%TO.P,MCU1,*%
%TO.N,*%
X103620000Y13040000D03*
X88380000Y18120000D03*
D15*
X89650000Y10500000D03*
D14*
X103620000Y18120000D03*
D16*
X101842000Y25740000D03*
D15*
X89650000Y18120000D03*
D14*
X103620000Y28280000D03*
D16*
X101842000Y2880000D03*
D14*
X103620000Y2880000D03*
X103620000Y5420000D03*
D15*
X89650000Y5420000D03*
D14*
X88380000Y13040000D03*
D16*
X101842000Y5420000D03*
D15*
X89650000Y28280000D03*
X89650000Y15580000D03*
D14*
X88380000Y10500000D03*
D17*
X103620000Y30820000D03*
D14*
X103620000Y15580000D03*
D18*
X102350000Y25740000D03*
D14*
X103620000Y25740000D03*
D15*
X89650000Y7960000D03*
D14*
X103620000Y7960000D03*
D18*
X102350000Y7960000D03*
D14*
X88380000Y30820000D03*
D19*
X90158000Y23200000D03*
D18*
X102350000Y5420000D03*
D15*
X89650000Y2880000D03*
D14*
X88380000Y5420000D03*
D18*
X102350000Y10500000D03*
D19*
X90158000Y15580000D03*
D15*
X89650000Y23200000D03*
D14*
X88380000Y25740000D03*
D16*
X101842000Y28280000D03*
D18*
X102350000Y15580000D03*
D14*
X103620000Y20660000D03*
X88380000Y7960000D03*
D18*
X102350000Y23200000D03*
D19*
X90158000Y2880000D03*
D18*
X102350000Y13040000D03*
D19*
X90158000Y10500000D03*
D14*
X88380000Y2880000D03*
D16*
X101842000Y15580000D03*
D18*
X102350000Y30820000D03*
D14*
X103620000Y30820000D03*
X88380000Y20660000D03*
D18*
X102350000Y28280000D03*
D19*
X90158000Y13040000D03*
X90158000Y5420000D03*
D16*
X101842000Y30820000D03*
D18*
X102350000Y20660000D03*
D15*
X89650000Y13040000D03*
D14*
X103620000Y23200000D03*
X88380000Y23200000D03*
D16*
X101842000Y18120000D03*
D19*
X90158000Y25740000D03*
D14*
X88380000Y28280000D03*
D19*
X90158000Y20660000D03*
X90158000Y30820000D03*
X90158000Y28280000D03*
D16*
X101842000Y20660000D03*
D15*
X89650000Y20660000D03*
D19*
X90158000Y18120000D03*
D16*
X101842000Y7960000D03*
X101842000Y10500000D03*
D15*
X89650000Y30820000D03*
X89650000Y25740000D03*
D19*
X90158000Y7960000D03*
D18*
X102350000Y18120000D03*
D14*
X88380000Y15580000D03*
D16*
X101842000Y13040000D03*
D18*
X102350000Y2880000D03*
D16*
X101842000Y23200000D03*
D14*
X103620000Y10500000D03*
D20*
%TO.P,MCU1,1*%
%TO.N,RAW*%
X96762000Y30820000D03*
D21*
X91174000Y30820000D03*
D22*
X96762000Y30820000D03*
%TO.P,MCU1,2*%
%TO.N,GND*%
X96762000Y28280000D03*
D21*
%TO.N,N/C*%
X91174000Y28280000D03*
D20*
%TO.N,GND*%
X96762000Y28280000D03*
%TO.P,MCU1,3*%
%TO.N,RST*%
X96762000Y25740000D03*
D22*
X96762000Y25740000D03*
D21*
X91174000Y25740000D03*
%TO.P,MCU1,4*%
%TO.N,VCC*%
X91174000Y23200000D03*
D22*
X96762000Y23200000D03*
D20*
X96762000Y23200000D03*
D22*
%TO.P,MCU1,5*%
%TO.N,matrix_ring_top*%
X96762000Y20660000D03*
D21*
X91174000Y20660000D03*
D20*
X96762000Y20660000D03*
D21*
%TO.P,MCU1,6*%
%TO.N,matrix_pinky_home*%
X91174000Y18120000D03*
D20*
X96762000Y18120000D03*
D22*
X96762000Y18120000D03*
%TO.P,MCU1,7*%
%TO.N,matrix_middle_home*%
X96762000Y15580000D03*
D21*
X91174000Y15580000D03*
D20*
X96762000Y15580000D03*
D22*
%TO.P,MCU1,8*%
%TO.N,matrix_inner_home*%
X96762000Y13040000D03*
D21*
X91174000Y13040000D03*
D20*
X96762000Y13040000D03*
D22*
%TO.P,MCU1,9*%
%TO.N,matrix_ring_bottom*%
X96762000Y10500000D03*
D20*
X96762000Y10500000D03*
D21*
X91174000Y10500000D03*
D20*
%TO.P,MCU1,10*%
%TO.N,matrix_index_bottom*%
X96762000Y7960000D03*
D22*
X96762000Y7960000D03*
D21*
X91174000Y7960000D03*
%TO.P,MCU1,11*%
%TO.N,thumbs_home*%
X91174000Y5420000D03*
D20*
X96762000Y5420000D03*
D22*
X96762000Y5420000D03*
%TO.P,MCU1,12*%
%TO.N,thumbs_far*%
X96762000Y2880000D03*
D20*
X96762000Y2880000D03*
D21*
X91174000Y2880000D03*
D23*
%TO.P,MCU1,13*%
%TO.N,thumbs_near*%
X95238000Y2880000D03*
D22*
X95238000Y2880000D03*
D24*
X100826000Y2880000D03*
D23*
%TO.P,MCU1,14*%
%TO.N,matrix_inner_bottom*%
X95238000Y5420000D03*
D24*
X100826000Y5420000D03*
D22*
X95238000Y5420000D03*
D24*
%TO.P,MCU1,15*%
%TO.N,matrix_middle_bottom*%
X100826000Y7960000D03*
D23*
X95238000Y7960000D03*
D22*
X95238000Y7960000D03*
%TO.P,MCU1,16*%
%TO.N,matrix_pinky_bottom*%
X95238000Y10500000D03*
D24*
X100826000Y10500000D03*
D23*
X95238000Y10500000D03*
D22*
%TO.P,MCU1,17*%
%TO.N,matrix_index_home*%
X95238000Y13040000D03*
D23*
X95238000Y13040000D03*
D24*
X100826000Y13040000D03*
%TO.P,MCU1,18*%
%TO.N,matrix_ring_home*%
X100826000Y15580000D03*
D23*
X95238000Y15580000D03*
D22*
X95238000Y15580000D03*
%TO.P,MCU1,19*%
%TO.N,matrix_pinky_top*%
X95238000Y18120000D03*
D24*
X100826000Y18120000D03*
D23*
X95238000Y18120000D03*
D22*
%TO.P,MCU1,20*%
%TO.N,matrix_middle_top*%
X95238000Y20660000D03*
D23*
X95238000Y20660000D03*
D24*
X100826000Y20660000D03*
D22*
%TO.P,MCU1,21*%
%TO.N,GND*%
X95238000Y23200000D03*
D23*
X95238000Y23200000D03*
D24*
X100826000Y23200000D03*
%TO.P,MCU1,22*%
X100826000Y25740000D03*
D23*
X95238000Y25740000D03*
D22*
X95238000Y25740000D03*
D23*
%TO.P,MCU1,23*%
%TO.N,matrix_index_top*%
X95238000Y28280000D03*
D22*
X95238000Y28280000D03*
D24*
X100826000Y28280000D03*
D22*
%TO.P,MCU1,24*%
%TO.N,matrix_inner_top*%
X95238000Y30820000D03*
D24*
X100826000Y30820000D03*
D23*
X95238000Y30820000D03*
%TD*%
D25*
%TO.P,,*%
%TO.N,*%
X92350000Y38570000D03*
X99650000Y38570000D03*
X99650000Y40780000D03*
X92350000Y40780000D03*
D26*
%TO.P,,1*%
%TO.N,pos*%
X93750000Y37920000D03*
%TO.P,,2*%
%TO.N,RAW*%
X96750000Y37920000D03*
%TO.P,,3*%
%TO.N,N/C*%
X98250000Y37920000D03*
%TD*%
D11*
%TO.P,S4,1*%
%TO.N,matrix_ring_bottom*%
X15725000Y17850000D03*
%TO.P,S4,2*%
%TO.N,GND*%
X27275000Y15650000D03*
%TD*%
%TO.P,S3,1*%
%TO.N,matrix_pinky_top*%
X-3275000Y39950000D03*
%TO.P,S3,2*%
%TO.N,GND*%
X8275000Y37750000D03*
%TD*%
%TO.P,S8,1*%
%TO.N,matrix_middle_home*%
X34725000Y39100000D03*
%TO.P,S8,2*%
%TO.N,GND*%
X46275000Y36900000D03*
%TD*%
%TO.P,S13,1*%
%TO.N,matrix_inner_bottom*%
X72725000Y15300000D03*
%TO.P,S13,2*%
%TO.N,GND*%
X84275000Y13100000D03*
%TD*%
%TO.P,S9,1*%
%TO.N,matrix_middle_top*%
X34725000Y56100000D03*
%TO.P,S9,2*%
%TO.N,GND*%
X46275000Y53900000D03*
%TD*%
%TO.P,S10,1*%
%TO.N,matrix_index_bottom*%
X53725000Y17850000D03*
%TO.P,S10,2*%
%TO.N,GND*%
X65275000Y15650000D03*
%TD*%
D13*
%TO.P,S16,1*%
%TO.N,thumbs_near*%
X52456039Y-3137206D03*
%TO.P,S16,2*%
%TO.N,GND*%
X63770345Y-6335484D03*
%TD*%
D27*
%TO.N,matrix_pinky_bottom*%
X0Y2794000D03*
%TO.N,matrix_pinky_home*%
X0Y19812000D03*
X65320000Y22130000D03*
%TO.N,matrix_pinky_top*%
X83820500Y22860500D03*
X0Y36830000D03*
X61472300Y25912300D03*
%TO.N,matrix_ring_bottom*%
X75750000Y2650000D03*
X19050000Y14732000D03*
%TO.N,matrix_ring_home*%
X19050000Y31496000D03*
%TO.N,matrix_ring_top*%
X19304000Y48768000D03*
%TO.N,matrix_middle_bottom*%
X38100000Y18796000D03*
X75710000Y3850000D03*
%TO.N,matrix_middle_home*%
X81930000Y21405500D03*
X87189910Y16586898D03*
X87189910Y16586898D03*
X38100000Y36068000D03*
X79710000Y23610000D03*
%TO.N,matrix_middle_top*%
X38100000Y52832000D03*
%TO.N,matrix_index_bottom*%
X77659514Y5853265D03*
X85580000Y6850000D03*
X57150000Y14732000D03*
%TO.N,matrix_index_home*%
X57150000Y31750000D03*
%TO.N,matrix_index_top*%
X57150000Y48768000D03*
%TO.N,matrix_inner_bottom*%
X75946000Y12192000D03*
X79100000Y6600000D03*
X82310000Y6600000D03*
%TO.N,matrix_inner_home*%
X76200000Y29210000D03*
%TO.N,matrix_inner_top*%
X76200000Y46228000D03*
%TO.N,thumbs_near*%
X55372000Y-6858000D03*
%TO.N,thumbs_home*%
X74422000Y-8382000D03*
%TO.N,thumbs_far*%
X93218000Y-9906000D03*
%TO.N,RST*%
X88138000Y38354000D03*
%TD*%
D28*
%TO.N,matrix_pinky_top*%
X83820855Y22859148D02*
G75*
G02*
X83820500Y22860000I845J852D01*
G01*
X87299998Y19380000D02*
X99566000Y19380000D01*
X83820500Y22860500D02*
X83820500Y22860000D01*
X85551206Y21128792D02*
X87299998Y19380000D01*
X83820853Y22859146D02*
X85551206Y21128792D01*
X99566000Y19380000D02*
X100826000Y18120000D01*
%TO.N,GND*%
X43416764Y56758229D02*
G75*
G02*
X43416764Y56758229I0J0D01*
G01*
X84275000Y47100000D02*
X84275000Y46325000D01*
X43730471Y56444522D02*
X43416764Y56758229D01*
X43416764Y56758229D02*
X43730471Y56444522D01*
X84275000Y47681250D02*
X84275000Y47293750D01*
X43259911Y56915083D02*
G75*
G02*
X43259911Y56915083I0J0D01*
G01*
X43416764Y56758229D02*
X43259911Y56915083D01*
X43416764Y56758229D02*
X43259911Y56915083D01*
X84275000Y47100000D02*
X84275000Y47293750D01*
%TO.N,matrix_pinky_bottom*%
X-161072Y2836072D02*
X-3275000Y5950000D01*
X-59500Y2794000D02*
X0Y2794000D01*
X-161072Y2836072D02*
G75*
G03*
X-59500Y2794000I101572J101573D01*
G01*
%TO.N,GND*%
X62618792Y18306207D02*
X65275000Y15650000D01*
X19921036Y37750000D02*
X8929073Y37750000D01*
X42789352Y57385645D02*
X42946205Y57228791D01*
X10350000Y47936580D02*
X10350000Y41232497D01*
X-4553948Y13970000D02*
X4284417Y13970000D01*
X82698044Y-7991443D02*
X82698044Y-10771648D01*
X63770345Y-8270469D02*
X63770345Y-6987967D01*
X42475646Y57699353D02*
X42632499Y57542499D01*
X8018673Y38731326D02*
X5963792Y40786207D01*
X65275000Y32650000D02*
X66814151Y34189151D01*
X24670792Y52254207D02*
X26479504Y50445494D01*
X-7296207Y-4133792D02*
X-6419792Y-5010206D01*
X65138586Y-11573695D02*
X69751098Y-16186207D01*
X31911207Y22536207D02*
X28070495Y18695495D01*
X46275000Y53900000D02*
X43730471Y56444522D01*
X42475646Y57699353D02*
X42303750Y57871250D01*
X19921036Y20750000D02*
X8275000Y20750000D01*
X11268036Y3750000D02*
X8275000Y3750000D01*
X84275000Y47875000D02*
X84275000Y47681250D01*
X-6862887Y40786207D02*
X-7296206Y40352887D01*
X23768792Y36156207D02*
X26833234Y33091764D01*
X80240490Y17134509D02*
X84275000Y13100000D01*
X65275000Y32650000D02*
X62618792Y35306207D01*
X60837591Y-13138207D02*
X62402103Y-11573694D01*
X-3015131Y42380000D02*
X2116036Y42380000D01*
X56989835Y-14732000D02*
X34257963Y-14732000D01*
X43103058Y57071937D02*
X43259911Y56915083D01*
X84155274Y-15025186D02*
X84112256Y-14982168D01*
X46275000Y36900000D02*
X42240490Y40934509D01*
X82698044Y-11507120D02*
X82698044Y-7991443D01*
X79358532Y51530000D02*
X68484360Y51530000D01*
X62618792Y52306207D02*
X64334999Y50589999D01*
X96425621Y-16482417D02*
X87673340Y-16482417D01*
X35758963Y24130000D02*
X39791036Y24130000D01*
X15115792Y2156207D02*
X30410207Y-13138207D01*
X85868792Y38781207D02*
X88000000Y36650000D01*
X101625744Y-11541829D02*
X101625744Y-9647402D01*
X26479504Y16445495D02*
X23768792Y19156207D01*
X8275000Y17960582D02*
X8275000Y20750000D01*
X42475646Y57699353D02*
X42318792Y57856207D01*
X80079792Y-16186207D02*
X81240813Y-15025186D01*
X65275000Y15650000D02*
X66814151Y17189151D01*
X-2572036Y-6604000D02*
X4121609Y-6604000D01*
X42789352Y57385645D02*
X42946205Y57228791D01*
X8275000Y38112500D02*
X8275000Y37758750D01*
X8275000Y38404073D02*
X8275000Y38525000D01*
X76392734Y35728302D02*
X70529990Y35728302D01*
X11614603Y50989603D02*
X12879207Y52254207D01*
X95800500Y25177500D02*
X95238000Y25740000D01*
X-8890000Y36505131D02*
X-8890000Y9633948D01*
X100286181Y-14775818D02*
X100102663Y-14959336D01*
X58771036Y36900000D02*
X46275000Y36900000D01*
X46275000Y19900000D02*
X43638792Y22536207D01*
X84275000Y46325000D02*
X84275000Y42628963D01*
X41510077Y58200000D02*
X33563750Y58200000D01*
X42946205Y57228791D02*
X43103058Y57071937D01*
X42789352Y57385645D02*
X42632499Y57542499D01*
X43103058Y57071937D02*
X43259911Y56915083D01*
X83726992Y49198007D02*
X82834999Y50089999D01*
X27275000Y33274750D02*
X27275000Y33899500D01*
X46275000Y19900000D02*
X58771036Y19900000D01*
X73598854Y-17780000D02*
X76232036Y-17780000D01*
X-8890000Y9633948D02*
X-8890000Y-286036D01*
X20823036Y53848000D02*
X16726963Y53848000D01*
X42789352Y57385645D02*
X42632499Y57542499D01*
X46275000Y53900000D02*
X58771036Y53900000D01*
X8322374Y37762374D02*
X9330000Y38770000D01*
X76392734Y18728302D02*
X70529990Y18728302D01*
X42946205Y57228791D02*
X43103058Y57071937D01*
X36908265Y42528302D02*
X38392734Y42528302D01*
X80240490Y34134509D02*
X84275000Y30100000D01*
X63770345Y-6987967D02*
X63770345Y-7640450D01*
X33544545Y58169545D02*
X28070495Y52695495D01*
X42475646Y57699353D02*
X42632499Y57542499D01*
X8275000Y3750000D02*
X8275000Y-2450609D01*
X8283750Y37750000D02*
X8292500Y37750000D01*
X28158529Y36032529D02*
X33060509Y40934509D01*
X-6419792Y-5010206D02*
G75*
G03*
X-2572036Y-6604000I3847759J3847760D01*
G01*
X7058497Y-5387497D02*
G75*
G02*
X4121609Y-6604000I-2936897J2936897D01*
G01*
X43103058Y57071937D02*
G75*
G02*
X43103058Y57071937I0J0D01*
G01*
X42946205Y57228791D02*
G75*
G02*
X42946205Y57228791I0J0D01*
G01*
X70529990Y18728305D02*
G75*
G03*
X66814151Y17189151I10J-5255005D01*
G01*
X31911215Y22536199D02*
G75*
G02*
X35758963Y24130000I3847785J-3847799D01*
G01*
X56989835Y-14732009D02*
G75*
G03*
X60837591Y-13138207I-35J5441609D01*
G01*
X69751110Y-16186195D02*
G75*
G03*
X73598854Y-17780000I3847790J3847795D01*
G01*
X42475646Y57699353D02*
G75*
G02*
X42475646Y57699353I0J0D01*
G01*
X80240484Y17134503D02*
G75*
G03*
X76392734Y18728302I-3847784J-3847803D01*
G01*
X58771036Y53900010D02*
G75*
G02*
X62618792Y52306207I-36J-5441610D01*
G01*
X11614605Y50989601D02*
G75*
G03*
X10350000Y47936580I3053015J-3053021D01*
G01*
X64335001Y50590001D02*
G75*
G03*
X66214999Y50590001I939999J939999D01*
G01*
X33552523Y58188750D02*
G75*
G02*
X33544545Y58169545I-27223J50D01*
G01*
X27275003Y16775000D02*
G75*
G02*
X28070495Y18695495I2715997J0D01*
G01*
X76232036Y-17780010D02*
G75*
G03*
X80079792Y-16186207I-36J5441610D01*
G01*
X81240813Y-15025186D02*
G75*
G03*
X82698044Y-11507120I-3518113J3518086D01*
G01*
X8929073Y37750000D02*
G75*
G02*
X8275000Y38404073I-3J654070D01*
G01*
X62618785Y35306200D02*
G75*
G03*
X58771036Y36900000I-3847785J-3847800D01*
G01*
X83726989Y49198004D02*
G75*
G02*
X84275000Y47875000I-1322989J-1323004D01*
G01*
X76392734Y35728310D02*
G75*
G02*
X80240490Y34134509I-34J-5441610D01*
G01*
X63770364Y-8270469D02*
G75*
G03*
X65138586Y-11573695I4671436J-31D01*
G01*
X84274960Y42628963D02*
G75*
G03*
X85868793Y38781208I5441540J37D01*
G01*
X12879210Y52254204D02*
G75*
G02*
X16726963Y53848000I3847760J-3847754D01*
G01*
X-4553948Y13969999D02*
G75*
G03*
X-7619999Y12699999I4J-4336062D01*
G01*
X28070493Y52695497D02*
G75*
G03*
X27275000Y50775000I1920507J-1920497D01*
G01*
X62402115Y-11573706D02*
G75*
G03*
X63770345Y-8270469I-3303215J3303206D01*
G01*
X39791036Y24130010D02*
G75*
G02*
X43638792Y22536207I-36J-5441610D01*
G01*
X8275007Y17960582D02*
G75*
G02*
X7106185Y15138814I-3990607J18D01*
G01*
X23768791Y19156206D02*
G75*
G03*
X19921036Y20750000I-3847761J-3847766D01*
G01*
X10350000Y41232497D02*
G75*
G02*
X9329999Y38770001I-3482500J3D01*
G01*
X-7296206Y40352887D02*
G75*
G03*
X-8890000Y36505131I3847760J-3847759D01*
G01*
X7058497Y-5387497D02*
G75*
G03*
X8275000Y-2450609I-2936897J2936897D01*
G01*
X42632499Y57542499D02*
G75*
G02*
X42632499Y57542499I0J0D01*
G01*
X8929073Y37750010D02*
G75*
G02*
X8737501Y38212499I-3J270920D01*
G01*
X26479493Y50445483D02*
G75*
G03*
X27275000Y50775000I329507J329517D01*
G01*
X33563750Y58200000D02*
G75*
G03*
X33552500Y58188750I50J-11300D01*
G01*
X26833236Y33091766D02*
G75*
G03*
X27275000Y33274750I182964J183034D01*
G01*
X8737506Y38212494D02*
G75*
G02*
X8275000Y38404073I-191576J191576D01*
G01*
X41510077Y58199990D02*
G75*
G02*
X42303750Y57871250I23J-1122390D01*
G01*
X8292500Y37749986D02*
G75*
G03*
X8322374Y37762374I0J42214D01*
G01*
X24670791Y52254206D02*
G75*
G03*
X20823036Y53848000I-3847761J-3847766D01*
G01*
X63770345Y-6987967D02*
G75*
G02*
X63770345Y-6987967I0J0D01*
G01*
X-6862887Y40786207D02*
G75*
G02*
X-3015131Y42380000I3847760J-3847766D01*
G01*
X82834990Y50089990D02*
G75*
G03*
X79358532Y51530000I-3476490J-3476490D01*
G01*
X58771036Y19900010D02*
G75*
G02*
X62618792Y18306207I-36J-5441610D01*
G01*
X8274985Y38112500D02*
G75*
G03*
X8018673Y38731326I-875185J0D01*
G01*
X87673340Y-16482382D02*
G75*
G02*
X84155274Y-15025186I-40J4975282D01*
G01*
X34257963Y-14732010D02*
G75*
G02*
X30410208Y-13138206I37J5441610D01*
G01*
X96425621Y-16482433D02*
G75*
G03*
X100102663Y-14959336I-21J5200133D01*
G01*
X15115791Y2156206D02*
G75*
G03*
X11268036Y3750000I-3847761J-3847766D01*
G01*
X23768791Y36156206D02*
G75*
G03*
X19921036Y37750000I-3847761J-3847766D01*
G01*
X27274984Y16775000D02*
G75*
G02*
X26479504Y16445495I-465984J0D01*
G01*
X84112243Y-14982181D02*
G75*
G02*
X82698044Y-11507120I3488557J3444981D01*
G01*
X-8889999Y-286036D02*
G75*
G03*
X-7296207Y-4133792I5441558J4D01*
G01*
X33060515Y40934503D02*
G75*
G02*
X36908265Y42528302I3847785J-3847803D01*
G01*
X66215011Y50589989D02*
G75*
G02*
X68484360Y51530000I2269389J-2269389D01*
G01*
X27275012Y33899500D02*
G75*
G02*
X28158529Y36032529I3016588J0D01*
G01*
X2116036Y42380000D02*
G75*
G02*
X5963791Y40786206I-6J-5441560D01*
G01*
X4284417Y13969999D02*
G75*
G03*
X7106184Y15138815I3J3990571D01*
G01*
X8275000Y37758750D02*
G75*
G03*
X8283750Y37750000I8700J-50D01*
G01*
X101625765Y-11541829D02*
G75*
G02*
X100286180Y-14775817I-4573565J29D01*
G01*
X70529990Y35728305D02*
G75*
G03*
X66814151Y34189151I10J-5255005D01*
G01*
X-7620000Y12700000D02*
G75*
G03*
X-8890000Y9633948I3066063J-3066056D01*
G01*
X38392734Y42528310D02*
G75*
G02*
X42240490Y40934509I-34J-5441610D01*
G01*
X42789352Y57385645D02*
G75*
G02*
X42789352Y57385645I0J0D01*
G01*
%TO.N,matrix_pinky_home*%
X0Y19812000D02*
X-3089563Y22901563D01*
X58706036Y25400000D02*
X907411Y25400000D01*
X64775000Y22130000D02*
X65320000Y22130000D01*
X-3226563Y22998436D02*
X-2049999Y24174999D01*
X62553792Y23806206D02*
X63844626Y22515373D01*
X-3206500Y22950000D02*
G75*
G02*
X-3089563Y22901563I-3J-165380D01*
G01*
X58706036Y25400009D02*
G75*
G02*
X62553792Y23806206I-36J-5441609D01*
G01*
X-3206500Y22950000D02*
G75*
G02*
X-3226563Y22998436I0J28373D01*
G01*
X907411Y25400000D02*
G75*
G03*
X-2049999Y24174999I5J-4182417D01*
G01*
X63844636Y22515383D02*
G75*
G03*
X64775000Y22130000I930364J930317D01*
G01*
%TO.N,matrix_pinky_top*%
X-3065199Y39895199D02*
X0Y36830000D01*
X11901663Y25912300D02*
X61472300Y25912300D01*
X1585723Y36830000D02*
X0Y36830000D01*
X-3197500Y39950000D02*
X-3275000Y39950000D01*
X2540000Y34645499D02*
X2540000Y35875723D01*
X8053907Y27506092D02*
X3689401Y31870598D01*
X2260498Y36550498D02*
G75*
G02*
X2540000Y35875723I-674778J-674778D01*
G01*
X3689401Y31870598D02*
G75*
G02*
X2540000Y34645499I2774894J2774897D01*
G01*
X-3197500Y39950000D02*
G75*
G02*
X-3065199Y39895199I-3J-187108D01*
G01*
X2260498Y36550498D02*
G75*
G03*
X1585723Y36830000I-674778J-674778D01*
G01*
X11901663Y25912302D02*
G75*
G02*
X8053907Y27506092I-3J5441548D01*
G01*
%TO.N,matrix_ring_bottom*%
X75750000Y2650000D02*
X75367500Y3032500D01*
X16005185Y17776814D02*
X19050000Y14732000D01*
X90569000Y9895000D02*
X91174000Y10500000D01*
X89108400Y9290000D02*
X85149992Y9290000D01*
X74985000Y3955936D02*
X74985000Y4085000D01*
X15828500Y17850000D02*
X15725000Y17850000D01*
X81721809Y7870000D02*
X80302637Y7870000D01*
X76542500Y6312500D02*
X75458761Y5228761D01*
X75458766Y5228756D02*
G75*
G03*
X74985000Y4085000I1143734J-1143756D01*
G01*
X81721809Y7869996D02*
G75*
G03*
X83435901Y8580000I-9J2424104D01*
G01*
X15828500Y17849990D02*
G75*
G02*
X16005184Y17776813I0J-249890D01*
G01*
X85149992Y9290002D02*
G75*
G03*
X83435902Y8579999I8J-2424102D01*
G01*
X74985016Y3955936D02*
G75*
G03*
X75367501Y3032501I1305884J-36D01*
G01*
X90569000Y9895000D02*
G75*
G02*
X89108400Y9290000I-1460600J1460600D01*
G01*
X76542489Y6312511D02*
G75*
G02*
X80302637Y7870000I3760111J-3760111D01*
G01*
%TO.N,matrix_ring_home*%
X19050000Y31510500D02*
X19050000Y31496000D01*
X19039746Y31535253D02*
X15725000Y34850000D01*
X19039745Y31535252D02*
G75*
G02*
X19050000Y31510500I-24745J-24752D01*
G01*
%TO.N,matrix_ring_top*%
X15973500Y51850000D02*
X15725000Y51850000D01*
X19304000Y48768000D02*
X16397716Y51674283D01*
X16397710Y51674277D02*
G75*
G03*
X15973500Y51850000I-424210J-424177D01*
G01*
%TO.N,matrix_middle_bottom*%
X38003897Y18821102D02*
X34725000Y22100000D01*
X89173502Y6800000D02*
X93257756Y6800000D01*
X38100000Y18796000D02*
X38064500Y18796000D01*
X75710000Y3850000D02*
X76335735Y4475735D01*
X77360000Y4900000D02*
X77960000Y4900000D01*
X84586497Y4900000D02*
X77960000Y4900000D01*
X94658000Y7380000D02*
X95238000Y7960000D01*
X93257756Y6800019D02*
G75*
G03*
X94657999Y7380001I44J1980181D01*
G01*
X77360000Y4900008D02*
G75*
G03*
X76335735Y4475735I0J-1448508D01*
G01*
X86879999Y5850001D02*
G75*
G02*
X89173502Y6800000I2293501J-2293501D01*
G01*
X38064500Y18795998D02*
G75*
G02*
X38003897Y18821102I0J85702D01*
G01*
X84586497Y4900002D02*
G75*
G03*
X86879999Y5850001I3J3243498D01*
G01*
%TO.N,matrix_middle_home*%
X87818467Y16910000D02*
X88903547Y16910000D01*
X81930000Y21405500D02*
X81922250Y21405500D01*
X87428449Y16748449D02*
X87294117Y16614117D01*
X38100000Y36068000D02*
X37928500Y36068000D01*
X87189910Y16586898D02*
X87228404Y16586898D01*
X81909019Y21410980D02*
X79710000Y23610000D01*
X37635731Y36189268D02*
X34725000Y39100000D01*
X90509000Y16245000D02*
X91174000Y15580000D01*
X81922250Y21405532D02*
G75*
G02*
X81909019Y21410980I-50J18668D01*
G01*
X37928500Y36067989D02*
G75*
G02*
X37635732Y36189269I0J414011D01*
G01*
X90508986Y16244986D02*
G75*
G03*
X88903547Y16910000I-1605486J-1605486D01*
G01*
X87294109Y16614125D02*
G75*
G02*
X87228404Y16586898I-65709J65675D01*
G01*
X87428459Y16748439D02*
G75*
G02*
X87818467Y16910000I390041J-390039D01*
G01*
%TO.N,matrix_middle_top*%
X34778500Y56100000D02*
X34725000Y56100000D01*
X38100000Y52832000D02*
X34869830Y56062169D01*
X34869839Y56062178D02*
G75*
G03*
X34778500Y56100000I-91339J-91378D01*
G01*
%TO.N,matrix_index_bottom*%
X85550000Y6850000D02*
X85580000Y6850000D01*
X56996500Y14732000D02*
X57150000Y14732000D01*
X56734459Y14840540D02*
X53725000Y17850000D01*
X83818466Y5853265D02*
X77659514Y5853265D01*
X85021632Y6351632D02*
X85498786Y6828786D01*
X85498791Y6828781D02*
G75*
G02*
X85550000Y6850000I51209J-51181D01*
G01*
X85021649Y6351615D02*
G75*
G02*
X83818466Y5853265I-1203149J1203185D01*
G01*
X56734456Y14840537D02*
G75*
G03*
X56996500Y14732000I262044J262063D01*
G01*
%TO.N,matrix_index_home*%
X56710095Y31864904D02*
X53725000Y34850000D01*
X88394510Y11716000D02*
X92977790Y11716000D01*
X71975661Y19178302D02*
X79659734Y19178302D01*
X86614000Y13618499D02*
X86614000Y13496510D01*
X83507490Y17584509D02*
X86006241Y15085758D01*
X57150000Y31750000D02*
X68127905Y20772094D01*
X94576000Y12378000D02*
X95238000Y13040000D01*
X57150000Y31750000D02*
X56987500Y31750000D01*
X92977790Y11716004D02*
G75*
G03*
X94576000Y12378000I10J2260196D01*
G01*
X56987500Y31749997D02*
G75*
G02*
X56710095Y31864904I0J392303D01*
G01*
X86614004Y13496510D02*
G75*
G03*
X87135499Y12237499I1780496J-10D01*
G01*
X87135496Y12237496D02*
G75*
G03*
X88394510Y11716000I1259004J1259004D01*
G01*
X68127935Y20772124D02*
G75*
G03*
X71975661Y19178302I3847765J3847676D01*
G01*
X86006238Y15085755D02*
G75*
G02*
X86614000Y13618499I-1467238J-1467255D01*
G01*
X83507484Y17584503D02*
G75*
G03*
X79659734Y19178302I-3847784J-3847803D01*
G01*
%TO.N,matrix_index_top*%
X56685731Y48889268D02*
X53725000Y51850000D01*
X56978500Y48768000D02*
X57150000Y48768000D01*
X56685739Y48889276D02*
G75*
G03*
X56978500Y48768000I292761J292724D01*
G01*
%TO.N,matrix_inner_bottom*%
X79100000Y6600000D02*
X82310000Y6600000D01*
X75946000Y12192000D02*
X72877951Y15260048D01*
X72781500Y15300000D02*
X72725000Y15300000D01*
X72781500Y15300000D02*
G75*
G02*
X72877951Y15260048I0J-136400D01*
G01*
%TO.N,matrix_inner_home*%
X87363550Y14866449D02*
X87047499Y15182499D01*
X73246118Y32163881D02*
X76200000Y29210000D01*
X90611500Y13602500D02*
X91174000Y13040000D01*
X89253504Y14165000D02*
X89057000Y14165000D01*
X72917500Y32300000D02*
X72725000Y32300000D01*
X86030000Y17638962D02*
X86030000Y18509481D01*
X85414450Y19995549D02*
X76200000Y29210000D01*
X89253504Y14165002D02*
G75*
G02*
X90611500Y13602500I-4J-1920502D01*
G01*
X89057000Y14165000D02*
G75*
G02*
X87363550Y14866449I0J2394900D01*
G01*
X73246111Y32163874D02*
G75*
G03*
X72917500Y32300000I-328611J-328574D01*
G01*
X87047511Y15182511D02*
G75*
G02*
X86030000Y17638962I2456489J2456489D01*
G01*
X86029991Y18509481D02*
G75*
G03*
X85414450Y19995549I-2101591J19D01*
G01*
%TO.N,matrix_inner_top*%
X76200000Y46228000D02*
X75998500Y46228000D01*
X75654517Y46370482D02*
X72725000Y49300000D01*
X75654510Y46370475D02*
G75*
G03*
X75998500Y46228000I343990J344025D01*
G01*
%TO.N,thumbs_near*%
X55372000Y-6858000D02*
X52740590Y-4226590D01*
X52456039Y-3539622D02*
X52456039Y-3137206D01*
X52456036Y-3539622D02*
G75*
G03*
X52740591Y-4226589I971564J22D01*
G01*
%TO.N,thumbs_home*%
X71578394Y-5538394D02*
X74422000Y-8382000D01*
X71578394Y-4598507D02*
X72764320Y-3412582D01*
X103620001Y6545000D02*
X98682495Y6545000D01*
X104745000Y-131990D02*
X104745000Y5420001D01*
X102844990Y-2032000D02*
X76097341Y-2032000D01*
X97324500Y5982500D02*
X96762000Y5420000D01*
X104415495Y6215495D02*
G75*
G03*
X103620001Y6545000I-795495J-795495D01*
G01*
X104188503Y-1475503D02*
G75*
G03*
X104745000Y-131990I-1343503J1343503D01*
G01*
X71383762Y-5068451D02*
G75*
G03*
X71578395Y-5538393I664538J-49D01*
G01*
X104744999Y5420001D02*
G75*
G03*
X104415494Y6215494I-1124999J-1D01*
G01*
X71578377Y-4598490D02*
G75*
G03*
X71383738Y-5068451I469923J-469910D01*
G01*
X72764300Y-3412562D02*
G75*
G02*
X76097341Y-2032000I3333000J-3333038D01*
G01*
X102844990Y-2031995D02*
G75*
G03*
X104188499Y-1475499I10J1899995D01*
G01*
X98682495Y6545002D02*
G75*
G03*
X97324500Y5982500I5J-1920502D01*
G01*
%TO.N,thumbs_far*%
X90311438Y-6724281D02*
X90311438Y-6449124D01*
X93218000Y-9906000D02*
X90506003Y-7194003D01*
X90311444Y-6724281D02*
G75*
G03*
X90506003Y-7194003I664256J-19D01*
G01*
%TO.N,RAW*%
X96756000Y30826000D02*
X96762000Y30820000D01*
X96750000Y30840485D02*
X96750000Y37920000D01*
X96749994Y30840485D02*
G75*
G03*
X96756000Y30826000I20506J15D01*
G01*
%TO.N,RST*%
X88000000Y38589580D02*
X88000000Y40050000D01*
X88069000Y38423000D02*
X88138000Y38354000D01*
X87999993Y38589580D02*
G75*
G03*
X88069001Y38423001I235607J20D01*
G01*
%TO.N,pos*%
X93448653Y39394787D02*
X93448653Y38434431D01*
X100404709Y39350000D02*
X102250000Y39350000D01*
X93599326Y38070673D02*
X93750000Y37920000D01*
X97616289Y40505001D02*
X94558866Y40505001D01*
X99010497Y39927498D02*
G75*
G03*
X100404709Y39350000I1394203J1394202D01*
G01*
X93773814Y40179840D02*
G75*
G03*
X93448653Y39394787I785086J-785040D01*
G01*
X99010503Y39927504D02*
G75*
G03*
X97616289Y40505001I-1394203J-1394204D01*
G01*
X93773846Y40179808D02*
G75*
G02*
X94558866Y40505001I785054J-785008D01*
G01*
X93448680Y38434431D02*
G75*
G03*
X93599327Y38070674I514420J-31D01*
G01*
%TD*%
%TA.AperFunction,Conductor*%
%TO.N,pos*%
G36*
X102038162Y39794128D02*
G01*
X102130550Y39705283D01*
X102364952Y39479870D01*
X102491231Y39358433D01*
X102494819Y39350229D01*
X102491231Y39341567D01*
X102038160Y38905870D01*
X102029823Y38902606D01*
X102024573Y38903967D01*
X101942709Y38947363D01*
X101942032Y38947751D01*
X101866747Y38994416D01*
X101866288Y38994716D01*
X101800445Y39039932D01*
X101800320Y39040019D01*
X101739881Y39082685D01*
X101739878Y39082687D01*
X101739786Y39082752D01*
X101739683Y39082820D01*
X101680780Y39121702D01*
X101680774Y39121706D01*
X101680581Y39121833D01*
X101618613Y39156168D01*
X101618311Y39156293D01*
X101618307Y39156295D01*
X101590815Y39167683D01*
X101549726Y39184704D01*
X101498302Y39198650D01*
X101470115Y39206294D01*
X101470112Y39206295D01*
X101469764Y39206389D01*
X101374574Y39220172D01*
X101311396Y39222834D01*
X101271207Y39224528D01*
X101263086Y39228301D01*
X101260000Y39236218D01*
X101260000Y39463782D01*
X101263427Y39472055D01*
X101271207Y39475472D01*
X101305516Y39476918D01*
X101374574Y39479827D01*
X101469764Y39493610D01*
X101470112Y39493704D01*
X101470115Y39493705D01*
X101498302Y39501349D01*
X101549726Y39515295D01*
X101590815Y39532316D01*
X101618307Y39543704D01*
X101618311Y39543706D01*
X101618613Y39543831D01*
X101680581Y39578166D01*
X101680774Y39578293D01*
X101680780Y39578297D01*
X101739683Y39617179D01*
X101739786Y39617247D01*
X101739881Y39617314D01*
X101800320Y39659980D01*
X101800445Y39660067D01*
X101866288Y39705283D01*
X101866747Y39705583D01*
X101942032Y39752248D01*
X101942709Y39752636D01*
X101967738Y39765904D01*
X102024572Y39796032D01*
X102033487Y39796879D01*
X102038162Y39794128D01*
G37*
%TD.AperFunction*%
%TD*%
%TA.AperFunction,Conductor*%
%TO.N,matrix_pinky_top*%
G36*
X84190182Y22991265D02*
G01*
X84198380Y22987663D01*
X84201096Y22983067D01*
X84222091Y22916083D01*
X84222256Y22915507D01*
X84239488Y22848714D01*
X84239573Y22848360D01*
X84253245Y22787614D01*
X84265949Y22731205D01*
X84280267Y22677559D01*
X84298821Y22624908D01*
X84324234Y22571486D01*
X84359128Y22515526D01*
X84359316Y22515285D01*
X84359318Y22515282D01*
X84386560Y22480350D01*
X84406127Y22455259D01*
X84460166Y22397183D01*
X84463293Y22388793D01*
X84459874Y22380941D01*
X84299059Y22220125D01*
X84290786Y22216698D01*
X84282815Y22219833D01*
X84282502Y22220125D01*
X84258212Y22242729D01*
X84224842Y22273783D01*
X84224834Y22273790D01*
X84224649Y22273962D01*
X84224451Y22274117D01*
X84224441Y22274125D01*
X84164549Y22320860D01*
X84164540Y22320866D01*
X84164311Y22321045D01*
X84135895Y22338788D01*
X84108576Y22355847D01*
X84108570Y22355850D01*
X84108295Y22356022D01*
X84054830Y22381524D01*
X84002148Y22400182D01*
X84001948Y22400236D01*
X84001941Y22400238D01*
X83948577Y22414601D01*
X83948560Y22414605D01*
X83948479Y22414627D01*
X83948379Y22414650D01*
X83948366Y22414653D01*
X83924076Y22420190D01*
X83892056Y22427489D01*
X83892054Y22427491D01*
X83892054Y22427490D01*
X83831248Y22441368D01*
X83830942Y22441443D01*
X83777360Y22455459D01*
X83764152Y22458914D01*
X83763574Y22459081D01*
X83696557Y22480350D01*
X83689708Y22486119D01*
X83688398Y22491294D01*
X83679551Y22990011D01*
X83682830Y22998344D01*
X83691499Y23001916D01*
X84190182Y22991265D01*
G37*
%TD.AperFunction*%
%TD*%
%TA.AperFunction,Conductor*%
%TO.N,matrix_pinky_bottom*%
G36*
X-524042Y3376450D02*
G01*
X-523693Y3376128D01*
X-470373Y3326886D01*
X-470160Y3326725D01*
X-470153Y3326719D01*
X-421221Y3289694D01*
X-413542Y3283884D01*
X-384516Y3267025D01*
X-360562Y3253111D01*
X-360557Y3253108D01*
X-360210Y3252907D01*
X-308779Y3231792D01*
X-257650Y3218372D01*
X-257343Y3218326D01*
X-257339Y3218325D01*
X-237402Y3215325D01*
X-205226Y3210483D01*
X-205028Y3210467D01*
X-205021Y3210466D01*
X-149976Y3205965D01*
X-149952Y3205963D01*
X-149909Y3205960D01*
X-90100Y3202638D01*
X-44008Y3199640D01*
X-24417Y3198366D01*
X-24003Y3198332D01*
X41072Y3191776D01*
X48960Y3187537D01*
X51291Y3182804D01*
X130316Y2845510D01*
X165084Y2697112D01*
X163634Y2688275D01*
X155914Y2682956D01*
X41703Y2660867D01*
X-333800Y2588243D01*
X-342574Y2590036D01*
X-346203Y2593964D01*
X-384101Y2660880D01*
X-384412Y2661469D01*
X-396117Y2685266D01*
X-416978Y2727676D01*
X-417185Y2728124D01*
X-443531Y2788591D01*
X-443621Y2788804D01*
X-466822Y2845511D01*
X-466843Y2845561D01*
X-489807Y2900048D01*
X-489810Y2900054D01*
X-489859Y2900171D01*
X-515753Y2954577D01*
X-547562Y3010609D01*
X-588347Y3070152D01*
X-641166Y3135088D01*
X-690491Y3187537D01*
X-701306Y3199037D01*
X-704477Y3207411D01*
X-701056Y3215325D01*
X-540253Y3376128D01*
X-531980Y3379555D01*
X-524042Y3376450D01*
G37*
%TD.AperFunction*%
%TD*%
%TA.AperFunction,Conductor*%
%TO.N,matrix_pinky_bottom*%
G36*
X-3258814Y6400318D02*
G01*
X-2055618Y6376796D01*
X-2047415Y6373209D01*
X-2044607Y6368345D01*
X-1968779Y6105751D01*
X-1968504Y6104574D01*
X-1924815Y5861422D01*
X-1924685Y5860480D01*
X-1903207Y5638531D01*
X-1903171Y5638047D01*
X-1891800Y5431552D01*
X-1878404Y5235016D01*
X-1850824Y5043023D01*
X-1796887Y4849898D01*
X-1796691Y4849475D01*
X-1796691Y4849474D01*
X-1704618Y4650394D01*
X-1704615Y4650389D01*
X-1704420Y4649967D01*
X-1704159Y4649580D01*
X-1704158Y4649578D01*
X-1661534Y4586339D01*
X-1561251Y4437553D01*
X-1362576Y4215230D01*
X-1359618Y4206779D01*
X-1363027Y4199162D01*
X-1524162Y4038027D01*
X-1532435Y4034600D01*
X-1540230Y4037575D01*
X-1762553Y4236251D01*
X-1974967Y4379420D01*
X-1975389Y4379615D01*
X-1975394Y4379618D01*
X-2174474Y4471691D01*
X-2174475Y4471691D01*
X-2174898Y4471887D01*
X-2175343Y4472011D01*
X-2175345Y4472012D01*
X-2367664Y4525724D01*
X-2367668Y4525725D01*
X-2368023Y4525824D01*
X-2560016Y4553404D01*
X-2560236Y4553419D01*
X-2756489Y4566796D01*
X-2756513Y4566797D01*
X-2756552Y4566800D01*
X-2874601Y4573300D01*
X-2963047Y4578171D01*
X-2963531Y4578207D01*
X-3121774Y4593520D01*
X-3185483Y4599685D01*
X-3186422Y4599815D01*
X-3429576Y4643504D01*
X-3430751Y4643779D01*
X-3503014Y4664646D01*
X-3509552Y4669471D01*
X-3607341Y4818625D01*
X-3702788Y4925564D01*
X-3705755Y4933122D01*
X-3734381Y6397454D01*
X-3731116Y6405793D01*
X-3722454Y6409381D01*
X-3258814Y6400318D01*
G37*
%TD.AperFunction*%
%TD*%
%TA.AperFunction,Conductor*%
%TO.N,GND*%
G36*
X63540230Y17562424D02*
G01*
X63762553Y17363748D01*
X63974967Y17220578D01*
X63975389Y17220383D01*
X63975394Y17220380D01*
X64100659Y17162446D01*
X64174898Y17128111D01*
X64175343Y17127987D01*
X64175345Y17127986D01*
X64367664Y17074274D01*
X64367668Y17074273D01*
X64368023Y17074174D01*
X64560016Y17046594D01*
X64560236Y17046579D01*
X64756490Y17033203D01*
X64756514Y17033202D01*
X64756553Y17033199D01*
X64874592Y17026699D01*
X64963047Y17021828D01*
X64963531Y17021792D01*
X65121774Y17006479D01*
X65185483Y17000314D01*
X65186420Y17000184D01*
X65430169Y16956388D01*
X65701628Y16878001D01*
X65734268Y15208344D01*
X65734313Y15206017D01*
X65734313Y15206016D01*
X65734381Y15202545D01*
X65731116Y15194207D01*
X65722454Y15190619D01*
X65319322Y15198500D01*
X64055618Y15223204D01*
X64047415Y15226791D01*
X64044607Y15231655D01*
X63968779Y15494248D01*
X63968504Y15495425D01*
X63924815Y15738577D01*
X63924685Y15739519D01*
X63903207Y15961468D01*
X63903171Y15961952D01*
X63891802Y16168403D01*
X63891800Y16168447D01*
X63878404Y16364983D01*
X63850824Y16556976D01*
X63796887Y16750101D01*
X63796691Y16750525D01*
X63704618Y16949606D01*
X63704615Y16949611D01*
X63704420Y16950033D01*
X63561251Y17162446D01*
X63362576Y17384770D01*
X63359618Y17393221D01*
X63363027Y17400838D01*
X63524162Y17561972D01*
X63532435Y17565399D01*
X63540230Y17562424D01*
G37*
%TD.AperFunction*%
%TD*%
%TA.AperFunction,Conductor*%
%TO.N,GND*%
G36*
X9090476Y38782888D02*
G01*
X9295535Y38640888D01*
X9469485Y38498550D01*
X9624982Y38360424D01*
X9774680Y38231063D01*
X9931232Y38115016D01*
X9931558Y38114834D01*
X9931563Y38114831D01*
X10023154Y38063755D01*
X10107293Y38016835D01*
X10315518Y37941072D01*
X10568559Y37892276D01*
X10568948Y37892254D01*
X10568951Y37892254D01*
X10709910Y37884412D01*
X10868024Y37875615D01*
X10876093Y37871734D01*
X10879073Y37863933D01*
X10879073Y37636067D01*
X10875646Y37627794D01*
X10868023Y37624385D01*
X10723031Y37616318D01*
X10568951Y37607745D01*
X10568948Y37607745D01*
X10568559Y37607723D01*
X10315518Y37558927D01*
X10107293Y37483164D01*
X10023154Y37436244D01*
X9931563Y37385168D01*
X9931558Y37385165D01*
X9931232Y37384983D01*
X9774680Y37268936D01*
X9624982Y37139575D01*
X9490970Y37020533D01*
X9469665Y37001609D01*
X9469304Y37001301D01*
X9295893Y36859404D01*
X9295161Y36858852D01*
X9090966Y36717450D01*
X9089952Y36716822D01*
X8849202Y36584158D01*
X8840302Y36583166D01*
X8835447Y36585971D01*
X7625000Y37750000D01*
X8841656Y38920000D01*
X9090476Y38782888D01*
G37*
%TD.AperFunction*%
%TD*%
%TA.AperFunction,Conductor*%
%TO.N,GND*%
G36*
X82706477Y-7350212D02*
G01*
X83862067Y-8551884D01*
X83865332Y-8560223D01*
X83863878Y-8565647D01*
X83731815Y-8804946D01*
X83731177Y-8805973D01*
X83590136Y-9008800D01*
X83589562Y-9009558D01*
X83447807Y-9181688D01*
X83447490Y-9182056D01*
X83309516Y-9336110D01*
X83180016Y-9484555D01*
X83063758Y-9639816D01*
X82965338Y-9814516D01*
X82889348Y-10021273D01*
X82840386Y-10272708D01*
X82840364Y-10273100D01*
X82823664Y-10570399D01*
X82819778Y-10578467D01*
X82811982Y-10581443D01*
X82584106Y-10581443D01*
X82575833Y-10578016D01*
X82572424Y-10570399D01*
X82555723Y-10273100D01*
X82555701Y-10272708D01*
X82506739Y-10021273D01*
X82430749Y-9814516D01*
X82332329Y-9639816D01*
X82216071Y-9484555D01*
X82086571Y-9336110D01*
X81948597Y-9182056D01*
X81948280Y-9181688D01*
X81806525Y-9009558D01*
X81805951Y-9008800D01*
X81664910Y-8805973D01*
X81664272Y-8804946D01*
X81532210Y-8565647D01*
X81531213Y-8556748D01*
X81534021Y-8551884D01*
X82689611Y-7350212D01*
X82697815Y-7346624D01*
X82706477Y-7350212D01*
G37*
%TD.AperFunction*%
%TD*%
%TA.AperFunction,Conductor*%
%TO.N,GND*%
G36*
X63780908Y-5715441D02*
G01*
X63781371Y-5716559D01*
X64400546Y-7461608D01*
X64400083Y-7470550D01*
X64395440Y-7475612D01*
X64346033Y-7504596D01*
X64345907Y-7504679D01*
X64345896Y-7504686D01*
X64282329Y-7546647D01*
X64282146Y-7546768D01*
X64281984Y-7546891D01*
X64281972Y-7546900D01*
X64227723Y-7588263D01*
X64214996Y-7597967D01*
X64147460Y-7658924D01*
X64082418Y-7730368D01*
X64022747Y-7813030D01*
X64022579Y-7813339D01*
X64022574Y-7813347D01*
X63971517Y-7907289D01*
X63971326Y-7907641D01*
X63931033Y-8014930D01*
X63904746Y-8135629D01*
X63904717Y-8136049D01*
X63896104Y-8259583D01*
X63892110Y-8267598D01*
X63884432Y-8270469D01*
X63656258Y-8270469D01*
X63647985Y-8267042D01*
X63644586Y-8259583D01*
X63635972Y-8136049D01*
X63635943Y-8135629D01*
X63609656Y-8014930D01*
X63569363Y-7907641D01*
X63569172Y-7907289D01*
X63518115Y-7813347D01*
X63518110Y-7813339D01*
X63517942Y-7813030D01*
X63458271Y-7730368D01*
X63393229Y-7658924D01*
X63325693Y-7597967D01*
X63312966Y-7588263D01*
X63258717Y-7546900D01*
X63258705Y-7546891D01*
X63258543Y-7546768D01*
X63258360Y-7546647D01*
X63194793Y-7504686D01*
X63194782Y-7504679D01*
X63194656Y-7504596D01*
X63145250Y-7475612D01*
X63139848Y-7468470D01*
X63140144Y-7461608D01*
X63759319Y-5716559D01*
X63765315Y-5709908D01*
X63774257Y-5709445D01*
X63780908Y-5715441D01*
G37*
%TD.AperFunction*%
%TD*%
%TA.AperFunction,Conductor*%
%TO.N,GND*%
G36*
X6969803Y39957755D02*
G01*
X7217293Y39733693D01*
X7217565Y39733497D01*
X7217568Y39733495D01*
X7418624Y39588925D01*
X7452308Y39564704D01*
X7671302Y39443644D01*
X7878982Y39355895D01*
X8080059Y39286840D01*
X8080130Y39286817D01*
X8279009Y39221937D01*
X8279477Y39221773D01*
X8480733Y39146531D01*
X8481703Y39146118D01*
X8690744Y39045669D01*
X8912487Y38905220D01*
X9151167Y38710380D01*
X8516214Y37146415D01*
X7811963Y37464936D01*
X7811963Y37464937D01*
X7283482Y37703960D01*
X6986031Y37838493D01*
X6979906Y37845023D01*
X6979229Y37850482D01*
X7006425Y38088253D01*
X7006549Y38089077D01*
X7048126Y38311003D01*
X7048217Y38311441D01*
X7094320Y38514358D01*
X7094323Y38514373D01*
X7094339Y38514443D01*
X7135879Y38702633D01*
X7135879Y38702636D01*
X7135916Y38702801D01*
X7136251Y38704929D01*
X7163879Y38880885D01*
X7163937Y38881253D01*
X7165308Y38924982D01*
X7166366Y38958760D01*
X7169364Y39054424D01*
X7143179Y39227021D01*
X7142961Y39227598D01*
X7076571Y39403205D01*
X7076570Y39403207D01*
X7076364Y39403752D01*
X7051329Y39443644D01*
X6960152Y39588925D01*
X6959901Y39589325D01*
X6959595Y39589673D01*
X6959592Y39589677D01*
X6792019Y39780210D01*
X6789129Y39788686D01*
X6792532Y39796210D01*
X6953677Y39957355D01*
X6961950Y39960782D01*
X6969803Y39957755D01*
G37*
%TD.AperFunction*%
%TD*%
%TA.AperFunction,Conductor*%
%TO.N,GND*%
G36*
X67779037Y35083329D02*
G01*
X67895520Y34888129D01*
X67896817Y34879271D01*
X67891967Y34872404D01*
X67560798Y34651431D01*
X67560525Y34651195D01*
X67560519Y34651190D01*
X67369744Y34485946D01*
X67303077Y34428201D01*
X67113762Y34204220D01*
X67113513Y34203797D01*
X67113512Y34203796D01*
X67105941Y34190950D01*
X66978554Y33974823D01*
X66978388Y33974405D01*
X66978387Y33974404D01*
X66948064Y33898281D01*
X66883160Y33735343D01*
X66813281Y33481114D01*
X66813245Y33480945D01*
X66754622Y33207468D01*
X66754615Y33207434D01*
X66692927Y32909936D01*
X66692842Y32909557D01*
X66613861Y32583607D01*
X66613672Y32582920D01*
X66505491Y32231463D01*
X66499782Y32224564D01*
X66494538Y32223207D01*
X66190023Y32217254D01*
X65230678Y32198500D01*
X64827546Y32190619D01*
X64819207Y32193884D01*
X64815619Y32202545D01*
X64815687Y32206016D01*
X64815687Y32206017D01*
X64848372Y33878001D01*
X65201927Y33997398D01*
X65203327Y33997871D01*
X65203329Y33997871D01*
X65212009Y34000803D01*
X65216795Y34002419D01*
X65216891Y34002451D01*
X65532862Y34103968D01*
X65809797Y34190955D01*
X65852199Y34204592D01*
X66060897Y34271712D01*
X66060922Y34271720D01*
X66060961Y34271733D01*
X66299683Y34354647D01*
X66299790Y34354689D01*
X66299799Y34354692D01*
X66365268Y34380211D01*
X66539289Y34448040D01*
X66793107Y34560254D01*
X66976676Y34651190D01*
X67074368Y34699584D01*
X67074385Y34699593D01*
X67074466Y34699633D01*
X67215547Y34776204D01*
X67396638Y34874491D01*
X67396649Y34874497D01*
X67396691Y34874520D01*
X67763114Y35087448D01*
X67771987Y35088642D01*
X67779037Y35083329D01*
G37*
%TD.AperFunction*%
%TD*%
%TA.AperFunction,Conductor*%
%TO.N,GND*%
G36*
X25529623Y51573021D02*
G01*
X25753236Y51372964D01*
X25966734Y51228458D01*
X25967146Y51228266D01*
X25967149Y51228264D01*
X26087609Y51172047D01*
X26167602Y51134715D01*
X26168048Y51134588D01*
X26168054Y51134586D01*
X26361199Y51079677D01*
X26361572Y51079571D01*
X26452234Y51066070D01*
X26554148Y51050893D01*
X26554155Y51050892D01*
X26554378Y51050859D01*
X26751755Y51036415D01*
X26959434Y51024072D01*
X27183150Y51001666D01*
X27428636Y50957031D01*
X27701626Y50878002D01*
X27729280Y49463499D01*
X27729327Y49461075D01*
X27729327Y49461074D01*
X27734381Y49202547D01*
X27731116Y49194208D01*
X27722454Y49190620D01*
X27576412Y49193475D01*
X27454442Y49195859D01*
X27086679Y49203048D01*
X26983649Y49205062D01*
X26055613Y49223203D01*
X26047409Y49226791D01*
X26044603Y49231647D01*
X25968132Y49495794D01*
X25967860Y49496955D01*
X25923418Y49741379D01*
X25923287Y49742306D01*
X25900948Y49965342D01*
X25900911Y49965814D01*
X25888583Y50173241D01*
X25874155Y50370395D01*
X25874139Y50370618D01*
X25845427Y50563424D01*
X25845321Y50563797D01*
X25790412Y50756943D01*
X25790410Y50756949D01*
X25790283Y50757395D01*
X25730669Y50885133D01*
X25696734Y50957847D01*
X25696732Y50957850D01*
X25696540Y50958262D01*
X25680504Y50981955D01*
X25552252Y51171438D01*
X25552252Y51171439D01*
X25552034Y51171760D01*
X25351978Y51395375D01*
X25349016Y51403826D01*
X25352425Y51411449D01*
X25513549Y51572574D01*
X25521822Y51576001D01*
X25529623Y51573021D01*
G37*
%TD.AperFunction*%
%TD*%
%TA.AperFunction,Conductor*%
%TO.N,GND*%
G36*
X44540227Y55812423D02*
G01*
X44762550Y55613747D01*
X44974964Y55470577D01*
X44975386Y55470382D01*
X44975391Y55470379D01*
X45100660Y55412444D01*
X45174896Y55378111D01*
X45175341Y55377987D01*
X45175343Y55377986D01*
X45367662Y55324274D01*
X45367666Y55324273D01*
X45368021Y55324174D01*
X45560014Y55296594D01*
X45560234Y55296579D01*
X45756487Y55283202D01*
X45756511Y55283201D01*
X45756550Y55283198D01*
X45874764Y55276689D01*
X45963044Y55271828D01*
X45963528Y55271792D01*
X46093892Y55259177D01*
X46185485Y55250313D01*
X46186415Y55250185D01*
X46429574Y55206496D01*
X46430748Y55206221D01*
X46693343Y55130394D01*
X46700341Y55124806D01*
X46701795Y55119384D01*
X46704127Y55000099D01*
X46734620Y53440382D01*
X46089840Y53452986D01*
X45859744Y53457484D01*
X45055619Y53473202D01*
X45047415Y53476790D01*
X45044607Y53481654D01*
X44968779Y53744246D01*
X44968504Y53745423D01*
X44924814Y53988575D01*
X44924684Y53989517D01*
X44903206Y54211467D01*
X44903170Y54211951D01*
X44891801Y54418401D01*
X44891799Y54418445D01*
X44878403Y54614981D01*
X44850822Y54806974D01*
X44813329Y54941222D01*
X44797010Y54999652D01*
X44797009Y54999654D01*
X44796885Y55000099D01*
X44736625Y55130394D01*
X44704616Y55199604D01*
X44704613Y55199609D01*
X44704418Y55200031D01*
X44700061Y55206496D01*
X44561472Y55412111D01*
X44561248Y55412444D01*
X44362573Y55634768D01*
X44359615Y55643219D01*
X44363024Y55650836D01*
X44524159Y55811971D01*
X44532432Y55815398D01*
X44540227Y55812423D01*
G37*
%TD.AperFunction*%
%TD*%
%TA.AperFunction,Conductor*%
%TO.N,GND*%
G36*
X8849204Y21915834D02*
G01*
X9088503Y21783771D01*
X9089530Y21783133D01*
X9292364Y21642087D01*
X9293109Y21641523D01*
X9426958Y21531294D01*
X9465245Y21499763D01*
X9465613Y21499446D01*
X9619667Y21361472D01*
X9619693Y21361450D01*
X9619718Y21361427D01*
X9767949Y21232114D01*
X9768112Y21231972D01*
X9923373Y21115714D01*
X10098073Y21017294D01*
X10304830Y20941304D01*
X10439188Y20915140D01*
X10555874Y20892418D01*
X10555876Y20892418D01*
X10556265Y20892342D01*
X10556657Y20892320D01*
X10853956Y20875620D01*
X10862024Y20871734D01*
X10865000Y20863938D01*
X10865000Y20636062D01*
X10861573Y20627789D01*
X10853956Y20624380D01*
X10571410Y20608508D01*
X10556265Y20607657D01*
X10555876Y20607581D01*
X10555874Y20607581D01*
X10439188Y20584859D01*
X10304830Y20558695D01*
X10098073Y20482705D01*
X9923373Y20384285D01*
X9768112Y20268027D01*
X9619667Y20138527D01*
X9619625Y20138489D01*
X9465613Y20000553D01*
X9465245Y20000236D01*
X9293109Y19858476D01*
X9292364Y19857912D01*
X9089034Y19716521D01*
X8841656Y19580000D01*
X7633770Y20741567D01*
X7630181Y20749770D01*
X7633769Y20758433D01*
X7751588Y20871734D01*
X8404332Y21499446D01*
X8835441Y21914023D01*
X8843780Y21917288D01*
X8849204Y21915834D01*
G37*
%TD.AperFunction*%
%TD*%
%TA.AperFunction,Conductor*%
%TO.N,GND*%
G36*
X8849204Y4915834D02*
G01*
X9088503Y4783771D01*
X9089530Y4783133D01*
X9292364Y4642087D01*
X9293109Y4641523D01*
X9426958Y4531294D01*
X9465245Y4499763D01*
X9465613Y4499446D01*
X9619667Y4361472D01*
X9619693Y4361450D01*
X9619718Y4361427D01*
X9767949Y4232114D01*
X9768112Y4231972D01*
X9923373Y4115714D01*
X10098073Y4017294D01*
X10304830Y3941304D01*
X10439188Y3915140D01*
X10555874Y3892418D01*
X10555876Y3892418D01*
X10556265Y3892342D01*
X10556657Y3892320D01*
X10853956Y3875620D01*
X10862024Y3871734D01*
X10865000Y3863938D01*
X10865000Y3636062D01*
X10861573Y3627789D01*
X10853956Y3624380D01*
X10571410Y3608508D01*
X10556265Y3607657D01*
X10555876Y3607581D01*
X10555874Y3607581D01*
X10439188Y3584859D01*
X10304830Y3558695D01*
X10098073Y3482705D01*
X9923373Y3384285D01*
X9768112Y3268027D01*
X9619667Y3138527D01*
X9619625Y3138489D01*
X9465613Y3000553D01*
X9465245Y3000236D01*
X9293109Y2858476D01*
X9292364Y2857912D01*
X9089034Y2716521D01*
X8841656Y2580000D01*
X7633770Y3741567D01*
X7630181Y3749770D01*
X7633769Y3758433D01*
X7751588Y3871734D01*
X8404332Y4499446D01*
X8835441Y4914023D01*
X8843780Y4917288D01*
X8849204Y4915834D01*
G37*
%TD.AperFunction*%
%TD*%
%TA.AperFunction,Conductor*%
%TO.N,GND*%
G36*
X25529800Y34572844D02*
G01*
X25753392Y34372810D01*
X25753706Y34372598D01*
X25753713Y34372592D01*
X25966486Y34228587D01*
X25966872Y34228326D01*
X26167723Y34134605D01*
X26284075Y34101537D01*
X26361319Y34079583D01*
X26361324Y34079582D01*
X26361679Y34079481D01*
X26554472Y34050788D01*
X26751835Y34036361D01*
X26959499Y34024035D01*
X27183197Y34001643D01*
X27428662Y33957020D01*
X27701626Y33878002D01*
X27729160Y32469625D01*
X27729206Y32467267D01*
X27734381Y32202547D01*
X27731116Y32194208D01*
X27722454Y32190620D01*
X27584705Y32193313D01*
X27077014Y32203237D01*
X26910642Y32206489D01*
X26055613Y32223203D01*
X26047409Y32226791D01*
X26044603Y32231648D01*
X26029380Y32284234D01*
X25968141Y32495774D01*
X25967871Y32496926D01*
X25923441Y32741333D01*
X25923310Y32742261D01*
X25900986Y32965277D01*
X25900949Y32965749D01*
X25888637Y33173161D01*
X25874225Y33370317D01*
X25874210Y33370524D01*
X25845517Y33563317D01*
X25790392Y33757273D01*
X25696671Y33958125D01*
X25680551Y33981943D01*
X25552405Y34171284D01*
X25552399Y34171291D01*
X25552187Y34171605D01*
X25352154Y34395198D01*
X25349192Y34403649D01*
X25352601Y34411272D01*
X25513726Y34572397D01*
X25521999Y34575824D01*
X25529800Y34572844D01*
G37*
%TD.AperFunction*%
%TD*%
%TA.AperFunction,Conductor*%
%TO.N,GND*%
G36*
X82540230Y15012425D02*
G01*
X82762553Y14813748D01*
X82974967Y14670579D01*
X82975389Y14670384D01*
X82975394Y14670381D01*
X83100661Y14612446D01*
X83174898Y14578112D01*
X83175343Y14577988D01*
X83175345Y14577987D01*
X83367664Y14524275D01*
X83367668Y14524274D01*
X83368023Y14524175D01*
X83560016Y14496595D01*
X83560236Y14496580D01*
X83756489Y14483203D01*
X83756513Y14483202D01*
X83756552Y14483199D01*
X83874601Y14476699D01*
X83963047Y14471828D01*
X83963531Y14471792D01*
X84121774Y14456479D01*
X84185483Y14450314D01*
X84186420Y14450184D01*
X84429576Y14406495D01*
X84430750Y14406220D01*
X84693345Y14330393D01*
X84700343Y14324805D01*
X84701796Y14319383D01*
X84704137Y14199654D01*
X84734381Y12652546D01*
X84731116Y12644207D01*
X84722454Y12640619D01*
X84258814Y12649682D01*
X83055618Y12673204D01*
X83047415Y12676791D01*
X83044607Y12681655D01*
X82968779Y12944248D01*
X82968504Y12945425D01*
X82924815Y13188577D01*
X82924685Y13189519D01*
X82903207Y13411468D01*
X82903171Y13411952D01*
X82891802Y13618403D01*
X82891800Y13618447D01*
X82878404Y13814983D01*
X82850824Y14006976D01*
X82796887Y14200101D01*
X82741721Y14319381D01*
X82704618Y14399606D01*
X82704615Y14399611D01*
X82704420Y14400033D01*
X82561251Y14612446D01*
X82362576Y14834770D01*
X82359618Y14843221D01*
X82363027Y14850838D01*
X82524162Y15011973D01*
X82532435Y15015400D01*
X82540230Y15012425D01*
G37*
%TD.AperFunction*%
%TD*%
%TA.AperFunction,Conductor*%
%TO.N,GND*%
G36*
X63540230Y34562424D02*
G01*
X63762553Y34363748D01*
X63974967Y34220578D01*
X63975389Y34220383D01*
X63975394Y34220380D01*
X64100659Y34162446D01*
X64174898Y34128111D01*
X64175343Y34127987D01*
X64175345Y34127986D01*
X64367664Y34074274D01*
X64367668Y34074273D01*
X64368023Y34074174D01*
X64560016Y34046594D01*
X64560236Y34046579D01*
X64756490Y34033203D01*
X64756514Y34033202D01*
X64756553Y34033199D01*
X64874592Y34026699D01*
X64963047Y34021828D01*
X64963531Y34021792D01*
X65121774Y34006479D01*
X65185483Y34000314D01*
X65186420Y34000184D01*
X65430169Y33956388D01*
X65701628Y33878001D01*
X65734268Y32208344D01*
X65734313Y32206017D01*
X65734313Y32206016D01*
X65734381Y32202545D01*
X65731116Y32194207D01*
X65722454Y32190619D01*
X65319322Y32198500D01*
X64055618Y32223204D01*
X64047415Y32226791D01*
X64044607Y32231655D01*
X63968779Y32494248D01*
X63968504Y32495425D01*
X63924815Y32738577D01*
X63924685Y32739519D01*
X63903207Y32961468D01*
X63903171Y32961952D01*
X63891802Y33168403D01*
X63891800Y33168447D01*
X63878404Y33364983D01*
X63850824Y33556976D01*
X63796887Y33750101D01*
X63796691Y33750525D01*
X63704618Y33949606D01*
X63704615Y33949611D01*
X63704420Y33950033D01*
X63561251Y34162446D01*
X63362576Y34384770D01*
X63359618Y34393221D01*
X63363027Y34400838D01*
X63524162Y34561972D01*
X63532435Y34565399D01*
X63540230Y34562424D01*
G37*
%TD.AperFunction*%
%TD*%
%TA.AperFunction,Conductor*%
%TO.N,GND*%
G36*
X44540230Y38812425D02*
G01*
X44762553Y38613748D01*
X44974967Y38470579D01*
X44975389Y38470384D01*
X44975394Y38470381D01*
X45100661Y38412446D01*
X45174898Y38378112D01*
X45175343Y38377988D01*
X45175345Y38377987D01*
X45367664Y38324275D01*
X45367668Y38324274D01*
X45368023Y38324175D01*
X45560016Y38296595D01*
X45560236Y38296580D01*
X45756489Y38283203D01*
X45756513Y38283202D01*
X45756552Y38283199D01*
X45874601Y38276699D01*
X45963047Y38271828D01*
X45963531Y38271792D01*
X46121774Y38256479D01*
X46185483Y38250314D01*
X46186420Y38250184D01*
X46429576Y38206495D01*
X46430750Y38206220D01*
X46693345Y38130393D01*
X46700343Y38124805D01*
X46701796Y38119383D01*
X46734619Y36440381D01*
X46089840Y36452986D01*
X45055618Y36473204D01*
X45047415Y36476791D01*
X45044607Y36481655D01*
X44968779Y36744248D01*
X44968504Y36745425D01*
X44924815Y36988577D01*
X44924685Y36989519D01*
X44903207Y37211468D01*
X44903171Y37211952D01*
X44891802Y37418403D01*
X44891800Y37418447D01*
X44878404Y37614983D01*
X44850824Y37806976D01*
X44813331Y37941224D01*
X44797012Y37999654D01*
X44797011Y37999656D01*
X44796887Y38000101D01*
X44741721Y38119381D01*
X44704618Y38199606D01*
X44704615Y38199611D01*
X44704420Y38200033D01*
X44561251Y38412446D01*
X44362576Y38634770D01*
X44359618Y38643221D01*
X44363027Y38650838D01*
X44524162Y38811973D01*
X44532435Y38815400D01*
X44540230Y38812425D01*
G37*
%TD.AperFunction*%
%TD*%
%TA.AperFunction,Conductor*%
%TO.N,GND*%
G36*
X82706477Y-7350212D02*
G01*
X83862067Y-8551884D01*
X83865332Y-8560223D01*
X83863878Y-8565647D01*
X83731815Y-8804946D01*
X83731177Y-8805973D01*
X83590136Y-9008800D01*
X83589562Y-9009558D01*
X83447807Y-9181688D01*
X83447490Y-9182056D01*
X83309516Y-9336110D01*
X83180016Y-9484555D01*
X83063758Y-9639816D01*
X82965338Y-9814516D01*
X82889348Y-10021273D01*
X82840386Y-10272708D01*
X82840364Y-10273100D01*
X82823664Y-10570399D01*
X82819778Y-10578467D01*
X82811982Y-10581443D01*
X82584106Y-10581443D01*
X82575833Y-10578016D01*
X82572424Y-10570399D01*
X82555723Y-10273100D01*
X82555701Y-10272708D01*
X82506739Y-10021273D01*
X82430749Y-9814516D01*
X82332329Y-9639816D01*
X82216071Y-9484555D01*
X82086571Y-9336110D01*
X81948597Y-9182056D01*
X81948280Y-9181688D01*
X81806525Y-9009558D01*
X81805951Y-9008800D01*
X81664910Y-8805973D01*
X81664272Y-8804946D01*
X81532210Y-8565647D01*
X81531213Y-8556748D01*
X81534021Y-8551884D01*
X82689611Y-7350212D01*
X82697815Y-7346624D01*
X82706477Y-7350212D01*
G37*
%TD.AperFunction*%
%TD*%
%TA.AperFunction,Conductor*%
%TO.N,GND*%
G36*
X87467324Y37360079D02*
G01*
X87509452Y37321151D01*
X87534406Y37298092D01*
X87603032Y37245851D01*
X87666921Y37207834D01*
X87728051Y37180888D01*
X87728357Y37180792D01*
X87728361Y37180790D01*
X87777769Y37165211D01*
X87788399Y37161859D01*
X87849946Y37147592D01*
X87850041Y37147573D01*
X87850043Y37147573D01*
X87914584Y37134951D01*
X87914668Y37134935D01*
X87984337Y37120774D01*
X87984754Y37120681D01*
X88036109Y37108077D01*
X88061221Y37101913D01*
X88061903Y37101723D01*
X88139616Y37077581D01*
X88146500Y37071854D01*
X88147843Y37066637D01*
X88158861Y36503067D01*
X88155596Y36494728D01*
X88146934Y36491140D01*
X87676481Y36500336D01*
X87583362Y36502156D01*
X87575158Y36505744D01*
X87572418Y36510383D01*
X87548276Y36588095D01*
X87548086Y36588777D01*
X87529323Y36665223D01*
X87529220Y36665682D01*
X87515064Y36735330D01*
X87515048Y36735414D01*
X87502425Y36799955D01*
X87502425Y36799957D01*
X87502406Y36800052D01*
X87488140Y36861599D01*
X87469110Y36921947D01*
X87442164Y36983077D01*
X87404147Y37046966D01*
X87351906Y37115592D01*
X87309154Y37161859D01*
X87289920Y37182675D01*
X87286822Y37191077D01*
X87290240Y37198888D01*
X87451111Y37359759D01*
X87459384Y37363186D01*
X87467324Y37360079D01*
G37*
%TD.AperFunction*%
%TD*%
%TA.AperFunction,Conductor*%
%TO.N,GND*%
G36*
X101634177Y-9006171D02*
G01*
X102790004Y-10208089D01*
X102793269Y-10216428D01*
X102792024Y-10221455D01*
X102634843Y-10534032D01*
X102634685Y-10534334D01*
X102489563Y-10803140D01*
X102489437Y-10803368D01*
X102357154Y-11035857D01*
X102235006Y-11246431D01*
X102120300Y-11449489D01*
X102010290Y-11659528D01*
X101902225Y-11891045D01*
X101793359Y-12158539D01*
X101680941Y-12476507D01*
X101625342Y-12655852D01*
X101565633Y-12848452D01*
X101559910Y-12855340D01*
X101551177Y-12856219D01*
X101332848Y-12792433D01*
X101325868Y-12786823D01*
X101324725Y-12778585D01*
X101394024Y-12476641D01*
X101404796Y-12429705D01*
X101429001Y-12125144D01*
X101402649Y-11863513D01*
X101333514Y-11632668D01*
X101229374Y-11420465D01*
X101157321Y-11307642D01*
X101098083Y-11214884D01*
X101098075Y-11214872D01*
X101098004Y-11214761D01*
X100947180Y-11003411D01*
X100784821Y-10774476D01*
X100784528Y-10774041D01*
X100618516Y-10515579D01*
X100618064Y-10514813D01*
X100459799Y-10221571D01*
X100458885Y-10212663D01*
X100461662Y-10207904D01*
X101617311Y-9006171D01*
X101625515Y-9002583D01*
X101634177Y-9006171D01*
G37*
%TD.AperFunction*%
%TD*%
%TA.AperFunction,Conductor*%
%TO.N,GND*%
G36*
X25529623Y17573022D02*
G01*
X25753237Y17372965D01*
X25966735Y17228459D01*
X25967147Y17228267D01*
X25967150Y17228265D01*
X26087609Y17172048D01*
X26167602Y17134716D01*
X26168048Y17134589D01*
X26168054Y17134587D01*
X26361199Y17079678D01*
X26361572Y17079572D01*
X26471555Y17063194D01*
X26554149Y17050894D01*
X26554156Y17050893D01*
X26554379Y17050860D01*
X26668925Y17042477D01*
X26751755Y17036416D01*
X26959435Y17024073D01*
X27183151Y17001667D01*
X27428637Y16957031D01*
X27701627Y16878002D01*
X27729280Y15463499D01*
X27729327Y15461075D01*
X27729327Y15461074D01*
X27734381Y15202546D01*
X27731116Y15194207D01*
X27722454Y15190619D01*
X27618055Y15192660D01*
X26510840Y15214304D01*
X26055613Y15223204D01*
X26047409Y15226792D01*
X26044603Y15231648D01*
X25968132Y15495795D01*
X25967860Y15496956D01*
X25923418Y15741380D01*
X25923287Y15742307D01*
X25900948Y15965343D01*
X25900911Y15965815D01*
X25888583Y16173243D01*
X25874155Y16370396D01*
X25874139Y16370619D01*
X25845427Y16563425D01*
X25790282Y16757396D01*
X25733885Y16878240D01*
X25696733Y16957848D01*
X25696731Y16957851D01*
X25696539Y16958263D01*
X25650078Y17026907D01*
X25552251Y17171439D01*
X25552251Y17171440D01*
X25552033Y17171761D01*
X25351977Y17395376D01*
X25349015Y17403827D01*
X25352424Y17411450D01*
X25513549Y17572575D01*
X25521822Y17576002D01*
X25529623Y17573022D01*
G37*
%TD.AperFunction*%
%TD*%
%TA.AperFunction,Conductor*%
%TO.N,GND*%
G36*
X8283433Y21391230D02*
G01*
X9445000Y20183344D01*
X9308478Y19935965D01*
X9167092Y19732642D01*
X9166518Y19731884D01*
X9024763Y19559754D01*
X9024446Y19559386D01*
X8886472Y19405332D01*
X8756972Y19256887D01*
X8640714Y19101626D01*
X8542294Y18926926D01*
X8466304Y18720169D01*
X8417342Y18468734D01*
X8417320Y18468342D01*
X8400620Y18171044D01*
X8396734Y18162976D01*
X8388938Y18160000D01*
X8161062Y18160000D01*
X8152789Y18163427D01*
X8149380Y18171044D01*
X8132679Y18468342D01*
X8132657Y18468734D01*
X8083695Y18720169D01*
X8007705Y18926926D01*
X7909285Y19101626D01*
X7793027Y19256887D01*
X7663527Y19405332D01*
X7525553Y19559386D01*
X7525236Y19559754D01*
X7383481Y19731884D01*
X7382907Y19732642D01*
X7332123Y19805674D01*
X7241866Y19935469D01*
X7241228Y19936496D01*
X7109166Y20175796D01*
X7108169Y20184695D01*
X7110977Y20189559D01*
X7636336Y20735868D01*
X8266567Y21391231D01*
X8274771Y21394819D01*
X8283433Y21391230D01*
G37*
%TD.AperFunction*%
%TD*%
%TA.AperFunction,Conductor*%
%TO.N,GND*%
G36*
X67779037Y18083329D02*
G01*
X67895520Y17888129D01*
X67896817Y17879271D01*
X67891967Y17872404D01*
X67560798Y17651431D01*
X67560525Y17651195D01*
X67560519Y17651190D01*
X67369744Y17485946D01*
X67303077Y17428201D01*
X67113762Y17204220D01*
X67113513Y17203797D01*
X67113512Y17203796D01*
X67105941Y17190950D01*
X66978554Y16974823D01*
X66978388Y16974405D01*
X66978387Y16974404D01*
X66948064Y16898281D01*
X66883160Y16735343D01*
X66813281Y16481114D01*
X66813245Y16480945D01*
X66754622Y16207468D01*
X66754615Y16207434D01*
X66692927Y15909936D01*
X66692842Y15909557D01*
X66613861Y15583607D01*
X66613672Y15582920D01*
X66505491Y15231463D01*
X66499782Y15224564D01*
X66494538Y15223207D01*
X66190023Y15217254D01*
X65230678Y15198500D01*
X64827546Y15190619D01*
X64819207Y15193884D01*
X64815619Y15202545D01*
X64815687Y15206016D01*
X64815687Y15206017D01*
X64848372Y16878001D01*
X65201927Y16997398D01*
X65203327Y16997871D01*
X65203329Y16997871D01*
X65212009Y17000803D01*
X65216795Y17002419D01*
X65216891Y17002451D01*
X65532862Y17103968D01*
X65809797Y17190955D01*
X65852199Y17204592D01*
X66060897Y17271712D01*
X66060922Y17271720D01*
X66060961Y17271733D01*
X66299683Y17354647D01*
X66299790Y17354689D01*
X66299799Y17354692D01*
X66365268Y17380211D01*
X66539289Y17448040D01*
X66793107Y17560254D01*
X66976676Y17651190D01*
X67074368Y17699584D01*
X67074385Y17699593D01*
X67074466Y17699633D01*
X67215547Y17776204D01*
X67396638Y17874491D01*
X67396649Y17874497D01*
X67396691Y17874520D01*
X67763114Y18087448D01*
X67771987Y18088642D01*
X67779037Y18083329D01*
G37*
%TD.AperFunction*%
%TD*%
%TA.AperFunction,Conductor*%
%TO.N,GND*%
G36*
X46849204Y38065834D02*
G01*
X47088503Y37933771D01*
X47089530Y37933133D01*
X47292364Y37792087D01*
X47293109Y37791523D01*
X47426958Y37681294D01*
X47465245Y37649763D01*
X47465613Y37649446D01*
X47619667Y37511472D01*
X47619693Y37511450D01*
X47619718Y37511427D01*
X47767949Y37382114D01*
X47768112Y37381972D01*
X47923373Y37265714D01*
X48098073Y37167294D01*
X48304830Y37091304D01*
X48439188Y37065140D01*
X48555874Y37042418D01*
X48555876Y37042418D01*
X48556265Y37042342D01*
X48556657Y37042320D01*
X48853956Y37025620D01*
X48862024Y37021734D01*
X48865000Y37013938D01*
X48865000Y36786062D01*
X48861573Y36777789D01*
X48853956Y36774380D01*
X48571410Y36758508D01*
X48556265Y36757657D01*
X48555876Y36757581D01*
X48555874Y36757581D01*
X48439188Y36734859D01*
X48304830Y36708695D01*
X48098073Y36632705D01*
X47923373Y36534285D01*
X47768112Y36418027D01*
X47619667Y36288527D01*
X47619625Y36288489D01*
X47465613Y36150553D01*
X47465245Y36150236D01*
X47293109Y36008476D01*
X47292364Y36007912D01*
X47126689Y35892705D01*
X47089530Y35866866D01*
X47088503Y35866228D01*
X46849204Y35734166D01*
X46840305Y35733169D01*
X46835441Y35735977D01*
X46091432Y36451455D01*
X46091431Y36451455D01*
X45625000Y36900000D01*
X46705325Y37938897D01*
X46835440Y38064023D01*
X46843780Y38067288D01*
X46849204Y38065834D01*
G37*
%TD.AperFunction*%
%TD*%
%TA.AperFunction,Conductor*%
%TO.N,GND*%
G36*
X44540230Y21812424D02*
G01*
X44762553Y21613748D01*
X44974967Y21470578D01*
X44975389Y21470383D01*
X44975394Y21470380D01*
X45100659Y21412446D01*
X45174898Y21378111D01*
X45175343Y21377987D01*
X45175345Y21377986D01*
X45367664Y21324274D01*
X45367668Y21324273D01*
X45368023Y21324174D01*
X45560016Y21296594D01*
X45560236Y21296579D01*
X45756490Y21283203D01*
X45756514Y21283202D01*
X45756553Y21283199D01*
X45874592Y21276699D01*
X45963047Y21271828D01*
X45963531Y21271792D01*
X46121774Y21256479D01*
X46185483Y21250314D01*
X46186420Y21250184D01*
X46429576Y21206495D01*
X46430750Y21206220D01*
X46693345Y21130393D01*
X46700343Y21124805D01*
X46701796Y21119383D01*
X46734619Y19440381D01*
X46089840Y19452986D01*
X45055618Y19473204D01*
X45047415Y19476791D01*
X45044607Y19481655D01*
X44968779Y19744248D01*
X44968504Y19745425D01*
X44924815Y19988577D01*
X44924685Y19989519D01*
X44903207Y20211468D01*
X44903171Y20211952D01*
X44891802Y20418403D01*
X44891800Y20418447D01*
X44878404Y20614983D01*
X44850824Y20806976D01*
X44813331Y20941224D01*
X44797012Y20999654D01*
X44797011Y20999656D01*
X44796887Y21000101D01*
X44741721Y21119381D01*
X44704618Y21199606D01*
X44704615Y21199611D01*
X44704420Y21200033D01*
X44561251Y21412446D01*
X44362576Y21634770D01*
X44359618Y21643221D01*
X44363027Y21650838D01*
X44524162Y21811972D01*
X44532435Y21815399D01*
X44540230Y21812424D01*
G37*
%TD.AperFunction*%
%TD*%
%TA.AperFunction,Conductor*%
%TO.N,GND*%
G36*
X84777270Y47227701D02*
G01*
X85439028Y46539554D01*
X85442293Y46531215D01*
X85440842Y46525798D01*
X85308142Y46284959D01*
X85307515Y46283945D01*
X85166090Y46079662D01*
X85165526Y46078915D01*
X85023627Y45905427D01*
X85023338Y45905088D01*
X84885355Y45749666D01*
X84885301Y45749603D01*
X84756156Y45600064D01*
X84756147Y45600053D01*
X84756003Y45599886D01*
X84639970Y45443249D01*
X84541805Y45267098D01*
X84466056Y45058777D01*
X84417272Y44805630D01*
X84417250Y44805239D01*
X84417250Y44805237D01*
X84400614Y44506050D01*
X84396733Y44497980D01*
X84388932Y44495000D01*
X84161068Y44495000D01*
X84152795Y44498427D01*
X84149386Y44506050D01*
X84132749Y44805237D01*
X84132749Y44805239D01*
X84132727Y44805630D01*
X84083943Y45058777D01*
X84008194Y45267098D01*
X83910029Y45443249D01*
X83793996Y45599886D01*
X83793852Y45600053D01*
X83793843Y45600064D01*
X83664698Y45749603D01*
X83664644Y45749666D01*
X83526661Y45905088D01*
X83526372Y45905427D01*
X83384473Y46078915D01*
X83383909Y46079662D01*
X83242484Y46283945D01*
X83241857Y46284959D01*
X83109158Y46525798D01*
X83108166Y46534698D01*
X83110972Y46539554D01*
X83601757Y47049910D01*
X84275000Y47750000D01*
X84777270Y47227701D01*
G37*
%TD.AperFunction*%
%TD*%
%TA.AperFunction,Conductor*%
%TO.N,GND*%
G36*
X46849204Y21065834D02*
G01*
X47088503Y20933771D01*
X47089530Y20933133D01*
X47292364Y20792087D01*
X47293109Y20791523D01*
X47426958Y20681294D01*
X47465245Y20649763D01*
X47465613Y20649446D01*
X47619667Y20511472D01*
X47619693Y20511450D01*
X47619718Y20511427D01*
X47767949Y20382114D01*
X47768112Y20381972D01*
X47923373Y20265714D01*
X48098073Y20167294D01*
X48304830Y20091304D01*
X48439188Y20065140D01*
X48555874Y20042418D01*
X48555876Y20042418D01*
X48556265Y20042342D01*
X48556657Y20042320D01*
X48853956Y20025620D01*
X48862024Y20021734D01*
X48865000Y20013938D01*
X48865000Y19786062D01*
X48861573Y19777789D01*
X48853956Y19774380D01*
X48571410Y19758508D01*
X48556265Y19757657D01*
X48555876Y19757581D01*
X48555874Y19757581D01*
X48439188Y19734859D01*
X48304830Y19708695D01*
X48098073Y19632705D01*
X47923373Y19534285D01*
X47768112Y19418027D01*
X47619667Y19288527D01*
X47619625Y19288489D01*
X47465613Y19150553D01*
X47465245Y19150236D01*
X47293109Y19008476D01*
X47292364Y19007912D01*
X47126689Y18892705D01*
X47089530Y18866866D01*
X47088503Y18866228D01*
X46849204Y18734166D01*
X46840305Y18733169D01*
X46835441Y18735977D01*
X46091432Y19451455D01*
X46091431Y19451455D01*
X45625000Y19900000D01*
X46705325Y20938897D01*
X46835440Y21064023D01*
X46843780Y21067288D01*
X46849204Y21065834D01*
G37*
%TD.AperFunction*%
%TD*%
%TA.AperFunction,Conductor*%
%TO.N,GND*%
G36*
X46849204Y55065834D02*
G01*
X47088503Y54933771D01*
X47089530Y54933133D01*
X47292364Y54792087D01*
X47293109Y54791523D01*
X47426958Y54681294D01*
X47465245Y54649763D01*
X47465613Y54649446D01*
X47619667Y54511472D01*
X47619693Y54511450D01*
X47619718Y54511427D01*
X47767949Y54382114D01*
X47768112Y54381972D01*
X47923373Y54265714D01*
X48098073Y54167294D01*
X48304830Y54091304D01*
X48439188Y54065140D01*
X48555874Y54042418D01*
X48555876Y54042418D01*
X48556265Y54042342D01*
X48556657Y54042320D01*
X48853956Y54025620D01*
X48862024Y54021734D01*
X48865000Y54013938D01*
X48865000Y53786062D01*
X48861573Y53777789D01*
X48853956Y53774380D01*
X48571410Y53758508D01*
X48556265Y53757657D01*
X48555876Y53757581D01*
X48555874Y53757581D01*
X48439188Y53734859D01*
X48304830Y53708695D01*
X48098073Y53632705D01*
X47923373Y53534285D01*
X47768112Y53418027D01*
X47619667Y53288527D01*
X47619625Y53288489D01*
X47465613Y53150553D01*
X47465245Y53150236D01*
X47293109Y53008476D01*
X47292364Y53007912D01*
X47126689Y52892705D01*
X47089530Y52866866D01*
X47088503Y52866228D01*
X46849204Y52734166D01*
X46840305Y52733169D01*
X46835441Y52735977D01*
X46091432Y53451455D01*
X46091431Y53451455D01*
X45625000Y53900000D01*
X46705323Y54938895D01*
X46835440Y55064023D01*
X46843780Y55067288D01*
X46849204Y55065834D01*
G37*
%TD.AperFunction*%
%TD*%
%TA.AperFunction,Conductor*%
%TO.N,GND*%
G36*
X9953856Y39883348D02*
G01*
X10162521Y39792134D01*
X10168729Y39785681D01*
X10168667Y39776992D01*
X10104106Y39618843D01*
X10039229Y39459921D01*
X9942250Y39178545D01*
X9873746Y38932660D01*
X9825423Y38711489D01*
X9788984Y38504259D01*
X9788973Y38504193D01*
X9788970Y38504173D01*
X9756148Y38300295D01*
X9756117Y38300111D01*
X9718571Y38088523D01*
X9668005Y37858469D01*
X9596138Y37599258D01*
X9494673Y37300116D01*
X8091347Y37299352D01*
X7818897Y37299204D01*
X7810622Y37302626D01*
X7807200Y37311355D01*
X7813014Y37462095D01*
X7813104Y37464421D01*
X7813103Y37464421D01*
X7871783Y38985886D01*
X8149734Y39058923D01*
X8410693Y39099971D01*
X8552481Y39113012D01*
X8552482Y39113012D01*
X8631430Y39120274D01*
X8655087Y39122449D01*
X8655257Y39122463D01*
X8678941Y39124261D01*
X8883391Y39139785D01*
X8883411Y39139787D01*
X8883543Y39139797D01*
X8883676Y39139813D01*
X8883686Y39139814D01*
X9096059Y39165384D01*
X9096066Y39165385D01*
X9096388Y39165424D01*
X9150540Y39178386D01*
X9293620Y39212634D01*
X9293621Y39212634D01*
X9294150Y39212761D01*
X9477306Y39295231D01*
X9646334Y39426261D01*
X9801710Y39619273D01*
X9938832Y39878106D01*
X9945732Y39883812D01*
X9953856Y39883348D01*
G37*
%TD.AperFunction*%
%TD*%
%TA.AperFunction,Conductor*%
%TO.N,GND*%
G36*
X82540230Y32012425D02*
G01*
X82762553Y31813748D01*
X82974967Y31670579D01*
X82975389Y31670384D01*
X82975394Y31670381D01*
X83100661Y31612446D01*
X83174898Y31578112D01*
X83175343Y31577988D01*
X83175345Y31577987D01*
X83367664Y31524275D01*
X83367668Y31524274D01*
X83368023Y31524175D01*
X83560016Y31496595D01*
X83560236Y31496580D01*
X83756489Y31483203D01*
X83756513Y31483202D01*
X83756552Y31483199D01*
X83874601Y31476699D01*
X83963047Y31471828D01*
X83963531Y31471792D01*
X84121774Y31456479D01*
X84185483Y31450314D01*
X84186420Y31450184D01*
X84429576Y31406495D01*
X84430750Y31406220D01*
X84693345Y31330393D01*
X84700343Y31324805D01*
X84701796Y31319383D01*
X84704137Y31199654D01*
X84734381Y29652546D01*
X84731116Y29644207D01*
X84722454Y29640619D01*
X84258814Y29649682D01*
X83055618Y29673204D01*
X83047415Y29676791D01*
X83044607Y29681655D01*
X82968779Y29944248D01*
X82968504Y29945425D01*
X82924815Y30188577D01*
X82924685Y30189519D01*
X82903207Y30411468D01*
X82903171Y30411952D01*
X82891802Y30618403D01*
X82891800Y30618447D01*
X82878404Y30814983D01*
X82850824Y31006976D01*
X82796887Y31200101D01*
X82741721Y31319381D01*
X82704618Y31399606D01*
X82704615Y31399611D01*
X82704420Y31400033D01*
X82561251Y31612446D01*
X82362576Y31834770D01*
X82359618Y31843221D01*
X82363027Y31850838D01*
X82524162Y32011973D01*
X82532435Y32015400D01*
X82540230Y32012425D01*
G37*
%TD.AperFunction*%
%TD*%
%TA.AperFunction,Conductor*%
%TO.N,GND*%
G36*
X63897340Y-7629266D02*
G01*
X63897281Y-7629426D01*
X63897128Y-7629884D01*
X63896904Y-7630608D01*
X63896633Y-7631567D01*
X63896338Y-7632728D01*
X63896044Y-7634059D01*
X63895774Y-7635529D01*
X63895551Y-7637105D01*
X63895400Y-7638756D01*
X63895345Y-7640450D01*
X63645345Y-7640450D01*
X63645289Y-7638756D01*
X63645138Y-7637105D01*
X63644915Y-7635529D01*
X63644645Y-7634059D01*
X63644351Y-7632728D01*
X63644056Y-7631567D01*
X63643785Y-7630608D01*
X63643561Y-7629884D01*
X63643408Y-7629426D01*
X63643350Y-7629266D01*
X63768761Y-5709730D01*
X63771918Y-5709566D01*
X63897340Y-7629266D01*
G37*
%TD.AperFunction*%
%TD*%
%TA.AperFunction,Conductor*%
%TO.N,GND*%
G36*
X8283433Y4391230D02*
G01*
X9445000Y3183344D01*
X9308478Y2935965D01*
X9167092Y2732642D01*
X9166518Y2731884D01*
X9024763Y2559754D01*
X9024446Y2559386D01*
X8886472Y2405332D01*
X8756972Y2256887D01*
X8640714Y2101626D01*
X8542294Y1926926D01*
X8466304Y1720169D01*
X8417342Y1468734D01*
X8417320Y1468342D01*
X8400620Y1171044D01*
X8396734Y1162976D01*
X8388938Y1160000D01*
X8161062Y1160000D01*
X8152789Y1163427D01*
X8149380Y1171044D01*
X8132679Y1468342D01*
X8132657Y1468734D01*
X8083695Y1720169D01*
X8007705Y1926926D01*
X7909285Y2101626D01*
X7793027Y2256887D01*
X7663527Y2405332D01*
X7525553Y2559386D01*
X7525236Y2559754D01*
X7383481Y2731884D01*
X7382907Y2732642D01*
X7332123Y2805674D01*
X7241866Y2935469D01*
X7241228Y2936496D01*
X7109166Y3175796D01*
X7108169Y3184695D01*
X7110977Y3189559D01*
X7636336Y3735868D01*
X8266567Y4391231D01*
X8274771Y4394819D01*
X8283433Y4391230D01*
G37*
%TD.AperFunction*%
%TD*%
%TA.AperFunction,Conductor*%
%TO.N,GND*%
G36*
X27571304Y18241665D02*
G01*
X27766107Y18123588D01*
X27771405Y18116370D01*
X27770547Y18108432D01*
X27654843Y17872434D01*
X27654693Y17871773D01*
X27654692Y17871771D01*
X27606426Y17659427D01*
X27606239Y17658604D01*
X27618282Y17468937D01*
X27679809Y17295813D01*
X27779656Y17131618D01*
X27906659Y16968734D01*
X27906726Y16968654D01*
X27906742Y16968635D01*
X28049563Y16799652D01*
X28049726Y16799455D01*
X28070611Y16773585D01*
X28197204Y16616771D01*
X28197721Y16616081D01*
X28338585Y16412332D01*
X28339289Y16411174D01*
X28458852Y16185714D01*
X28459701Y16176799D01*
X28456680Y16171851D01*
X27262785Y15009220D01*
X27254467Y15005903D01*
X27246240Y15009439D01*
X27245592Y15010162D01*
X26163281Y16323854D01*
X26318994Y16570026D01*
X26460020Y16773585D01*
X26590540Y16946027D01*
X26668925Y17042477D01*
X26714695Y17098796D01*
X26714818Y17098944D01*
X26836801Y17243551D01*
X26960908Y17391626D01*
X26960929Y17391652D01*
X27091188Y17554504D01*
X27091245Y17554575D01*
X27167959Y17657760D01*
X27231920Y17743793D01*
X27231928Y17743804D01*
X27231994Y17743893D01*
X27387340Y17971078D01*
X27555338Y18237894D01*
X27562646Y18243069D01*
X27571304Y18241665D01*
G37*
%TD.AperFunction*%
%TD*%
%TA.AperFunction,Conductor*%
%TO.N,GND*%
G36*
X83554592Y49547302D02*
G01*
X83766890Y49338013D01*
X83955562Y49157830D01*
X84119608Y49006292D01*
X84119682Y49006224D01*
X84266458Y48874634D01*
X84266466Y48874627D01*
X84403326Y48754300D01*
X84537541Y48636616D01*
X84537608Y48636556D01*
X84676334Y48513005D01*
X84676461Y48512891D01*
X84827221Y48374631D01*
X84827372Y48374490D01*
X84997383Y48212961D01*
X84997531Y48212818D01*
X85188031Y48025347D01*
X85191524Y48017102D01*
X85190168Y48011540D01*
X84368222Y46456720D01*
X83601898Y47052733D01*
X83601898Y47052734D01*
X83042710Y47487646D01*
X83038283Y47495431D01*
X83038989Y47501125D01*
X83125788Y47724201D01*
X83126284Y47725303D01*
X83234226Y47935505D01*
X83234563Y47936115D01*
X83283719Y48019239D01*
X83349399Y48130308D01*
X83459495Y48312427D01*
X83553114Y48486337D01*
X83553242Y48486668D01*
X83618474Y48655621D01*
X83618475Y48655623D01*
X83618700Y48656207D01*
X83618795Y48656828D01*
X83644563Y48825354D01*
X83644563Y48825357D01*
X83644693Y48826207D01*
X83619536Y49000506D01*
X83531672Y49183273D01*
X83376351Y49370474D01*
X83373705Y49379029D01*
X83377082Y49386218D01*
X83538106Y49547242D01*
X83546379Y49550669D01*
X83554592Y49547302D01*
G37*
%TD.AperFunction*%
%TD*%
%TA.AperFunction,Conductor*%
%TO.N,GND*%
G36*
X27571301Y52241665D02*
G01*
X27766104Y52123588D01*
X27771402Y52116370D01*
X27770544Y52108433D01*
X27703241Y51971156D01*
X27654840Y51872433D01*
X27654690Y51871775D01*
X27654689Y51871771D01*
X27625646Y51743994D01*
X27606237Y51658604D01*
X27618280Y51468936D01*
X27679808Y51295813D01*
X27779655Y51131618D01*
X27906658Y50968734D01*
X27906725Y50968654D01*
X27906741Y50968635D01*
X28049562Y50799652D01*
X28049730Y50799449D01*
X28197204Y50616771D01*
X28197721Y50616081D01*
X28338585Y50412332D01*
X28339289Y50411174D01*
X28394033Y50307943D01*
X28458852Y50185714D01*
X28459701Y50176799D01*
X28456680Y50171851D01*
X27454442Y49195859D01*
X27263010Y49009439D01*
X27262785Y49009220D01*
X27254467Y49005903D01*
X27246240Y49009439D01*
X27245592Y49010162D01*
X27093950Y49194222D01*
X26163280Y50323853D01*
X26318993Y50570026D01*
X26460018Y50773585D01*
X26590538Y50946027D01*
X26714693Y51098796D01*
X26714816Y51098944D01*
X26742379Y51131618D01*
X26836799Y51243550D01*
X26960906Y51391626D01*
X27091242Y51554574D01*
X27169196Y51659427D01*
X27231918Y51743793D01*
X27231926Y51743804D01*
X27231992Y51743893D01*
X27387338Y51971078D01*
X27555335Y52237894D01*
X27562643Y52243069D01*
X27571301Y52241665D01*
G37*
%TD.AperFunction*%
%TD*%
%TA.AperFunction,Conductor*%
%TO.N,GND*%
G36*
X27474169Y35263395D02*
G01*
X27679251Y35164117D01*
X27685204Y35157428D01*
X27685074Y35149387D01*
X27615983Y34969677D01*
X27588467Y34898106D01*
X27554434Y34674680D01*
X27554522Y34673910D01*
X27554522Y34673908D01*
X27571440Y34525932D01*
X27576642Y34480430D01*
X27611460Y34391773D01*
X27644683Y34307178D01*
X27644685Y34307174D01*
X27644896Y34306637D01*
X27749002Y34144581D01*
X27878765Y33985541D01*
X27878836Y33985461D01*
X28023907Y33820893D01*
X28024089Y33820681D01*
X28174205Y33641966D01*
X28174743Y33641274D01*
X28272315Y33505671D01*
X28319656Y33439877D01*
X28320380Y33438738D01*
X28446243Y33212797D01*
X28447276Y33203902D01*
X28444375Y33198911D01*
X27460558Y32195739D01*
X27277145Y32008718D01*
X27268907Y32005211D01*
X27260281Y32008883D01*
X27084634Y32195156D01*
X26110613Y33228102D01*
X26251749Y33492437D01*
X26386061Y33708964D01*
X26515622Y33890585D01*
X26638113Y34044674D01*
X26642412Y34050082D01*
X26642607Y34050321D01*
X26721694Y34144581D01*
X26768797Y34200720D01*
X26896562Y34355038D01*
X27027881Y34526058D01*
X27164829Y34726684D01*
X27309481Y34969816D01*
X27458681Y35258241D01*
X27465525Y35264013D01*
X27474169Y35263395D01*
G37*
%TD.AperFunction*%
%TD*%
%TA.AperFunction,Conductor*%
%TO.N,matrix_pinky_home*%
G36*
X-461963Y20451315D02*
G01*
X-431318Y20422807D01*
X-403949Y20397346D01*
X-403763Y20397201D01*
X-403756Y20397195D01*
X-343980Y20350604D01*
X-343975Y20350601D01*
X-343737Y20350415D01*
X-343476Y20350252D01*
X-343474Y20350251D01*
X-288109Y20315760D01*
X-288102Y20315756D01*
X-287824Y20315583D01*
X-234449Y20290222D01*
X-234163Y20290121D01*
X-234155Y20290118D01*
X-182068Y20271784D01*
X-181846Y20271706D01*
X-128254Y20257407D01*
X-71914Y20244700D01*
X-71910Y20244697D01*
X-71910Y20244699D01*
X-11202Y20230987D01*
X-10843Y20230899D01*
X55787Y20213623D01*
X56367Y20213457D01*
X123253Y20192373D01*
X130114Y20186617D01*
X131434Y20181443D01*
X141183Y19682744D01*
X137918Y19674405D01*
X129256Y19670817D01*
X-369443Y19680566D01*
X-377647Y19684154D01*
X-380373Y19688747D01*
X-401458Y19755637D01*
X-401624Y19756217D01*
X-418899Y19822843D01*
X-418987Y19823202D01*
X-432699Y19883910D01*
X-432698Y19883910D01*
X-432700Y19883914D01*
X-445376Y19940116D01*
X-445407Y19940254D01*
X-459706Y19993846D01*
X-459784Y19994068D01*
X-478118Y20046155D01*
X-478121Y20046163D01*
X-478222Y20046449D01*
X-503583Y20099824D01*
X-503756Y20100102D01*
X-503760Y20100109D01*
X-538251Y20155474D01*
X-538252Y20155476D01*
X-538415Y20155737D01*
X-558451Y20181443D01*
X-585195Y20215756D01*
X-585201Y20215763D01*
X-585346Y20215949D01*
X-623914Y20257407D01*
X-639315Y20273963D01*
X-642441Y20282354D01*
X-639022Y20290205D01*
X-478205Y20451022D01*
X-469932Y20454449D01*
X-461963Y20451315D01*
G37*
%TD.AperFunction*%
%TD*%
%TA.AperFunction,Conductor*%
%TO.N,matrix_pinky_home*%
G36*
X-1981121Y23194556D02*
G01*
X-1926492Y22980216D01*
X-1926492Y22980215D01*
X-1926167Y22978940D01*
X-1918788Y22949990D01*
X-1918581Y22948996D01*
X-1881917Y22725746D01*
X-1881838Y22725177D01*
X-1858034Y22516710D01*
X-1834455Y22317514D01*
X-1798430Y22122156D01*
X-1737257Y21924911D01*
X-1638235Y21720054D01*
X-1488662Y21501862D01*
X-1283235Y21272861D01*
X-1280261Y21264415D01*
X-1283671Y21256776D01*
X-1444795Y21095652D01*
X-1453068Y21092225D01*
X-1460859Y21095197D01*
X-1679194Y21290092D01*
X-1679196Y21290094D01*
X-1679499Y21290364D01*
X-1888689Y21430414D01*
X-1889121Y21430609D01*
X-1889124Y21430611D01*
X-1953211Y21459591D01*
X-2085886Y21519586D01*
X-2086360Y21519710D01*
X-2086366Y21519712D01*
X-2276398Y21569379D01*
X-2276405Y21569380D01*
X-2276794Y21569482D01*
X-2277200Y21569529D01*
X-2277203Y21569530D01*
X-2466874Y21591677D01*
X-2466880Y21591677D01*
X-2467116Y21591705D01*
X-2467354Y21591712D01*
X-2467361Y21591713D01*
X-2597900Y21595821D01*
X-2662556Y21597856D01*
X-2751109Y21598579D01*
X-2868642Y21599538D01*
X-2869010Y21599547D01*
X-3016610Y21605387D01*
X-3091189Y21608337D01*
X-3092021Y21608401D01*
X-3336074Y21635842D01*
X-3337179Y21636022D01*
X-3405006Y21650407D01*
X-3507202Y21672081D01*
X-3514560Y21677111D01*
X-3607104Y21818264D01*
X-3607106Y21818267D01*
X-3607341Y21818625D01*
X-3620377Y21833231D01*
X-3623297Y21839928D01*
X-3684247Y22489044D01*
X-3730366Y22980215D01*
X-3766237Y23362230D01*
X-3763598Y23370786D01*
X-3755226Y23375006D01*
X-3719607Y23376950D01*
X-3719606Y23376950D01*
X-3717285Y23377077D01*
X-2081940Y23466339D01*
X-1981121Y23194556D01*
G37*
%TD.AperFunction*%
%TD*%
%TA.AperFunction,Conductor*%
%TO.N,matrix_pinky_home*%
G36*
X65151701Y22484176D02*
G01*
X65272120Y22368375D01*
X65360283Y22283593D01*
X65511231Y22138433D01*
X65514819Y22130229D01*
X65511231Y22121567D01*
X65390893Y22005844D01*
X65151488Y21775619D01*
X65143149Y21772354D01*
X65138331Y21773497D01*
X65054181Y21813734D01*
X65054170Y21813739D01*
X65054141Y21813753D01*
X64975064Y21850227D01*
X64974986Y21850263D01*
X64904399Y21881152D01*
X64871041Y21894780D01*
X64838846Y21907933D01*
X64838829Y21907940D01*
X64838757Y21907969D01*
X64800495Y21922422D01*
X64774504Y21932240D01*
X64774486Y21932247D01*
X64774400Y21932279D01*
X64707664Y21955650D01*
X64634890Y21979648D01*
X64552453Y22005828D01*
X64552414Y22005840D01*
X64552402Y22005844D01*
X64456576Y22035791D01*
X64354893Y22067576D01*
X64348019Y22073314D01*
X64347220Y22082245D01*
X64415216Y22298970D01*
X64420962Y22305838D01*
X64429335Y22306788D01*
X64432973Y22305838D01*
X64517978Y22283640D01*
X64603752Y22271913D01*
X64678766Y22272750D01*
X64745915Y22284480D01*
X64746337Y22284622D01*
X64746340Y22284623D01*
X64788915Y22298970D01*
X64808091Y22305432D01*
X64868187Y22333933D01*
X64929097Y22368312D01*
X64955951Y22384348D01*
X64993637Y22406851D01*
X64993785Y22406938D01*
X65064699Y22447882D01*
X65065150Y22448130D01*
X65138192Y22486123D01*
X65147113Y22486900D01*
X65151701Y22484176D01*
G37*
%TD.AperFunction*%
%TD*%
%TA.AperFunction,Conductor*%
%TO.N,matrix_pinky_home*%
G36*
X-1055651Y25038771D02*
G01*
X-974653Y24881104D01*
X-951670Y24836367D01*
X-950938Y24827443D01*
X-956075Y24820978D01*
X-1243271Y24649346D01*
X-1461264Y24466050D01*
X-1614568Y24274561D01*
X-1717119Y24072719D01*
X-1782853Y23858366D01*
X-1825705Y23629343D01*
X-1859610Y23383491D01*
X-1892935Y23156566D01*
X-1898458Y23118961D01*
X-1898563Y23118359D01*
X-1956322Y22832664D01*
X-2046999Y22523372D01*
X-3709324Y22490875D01*
X-3722455Y22490619D01*
X-3730793Y22493884D01*
X-3734381Y22502546D01*
X-3725966Y22932961D01*
X-3725966Y22932968D01*
X-3725960Y22933288D01*
X-3725960Y22933292D01*
X-3701790Y24169689D01*
X-3698202Y24177892D01*
X-3693722Y24180581D01*
X-3407324Y24274028D01*
X-3377472Y24283768D01*
X-3377041Y24283900D01*
X-3279452Y24311628D01*
X-3097327Y24363376D01*
X-3097009Y24363460D01*
X-2907853Y24410567D01*
X-2850006Y24424973D01*
X-2849796Y24425024D01*
X-2623666Y24476913D01*
X-2407075Y24527398D01*
X-2407006Y24527414D01*
X-2188287Y24584801D01*
X-1955912Y24657363D01*
X-1698285Y24753387D01*
X-1403811Y24881162D01*
X-1403684Y24881224D01*
X-1071200Y25043933D01*
X-1062263Y25044492D01*
X-1055651Y25038771D01*
G37*
%TD.AperFunction*%
%TD*%
%TA.AperFunction,Conductor*%
%TO.N,matrix_pinky_top*%
G36*
X-461963Y37469315D02*
G01*
X-431318Y37440807D01*
X-403949Y37415346D01*
X-403763Y37415201D01*
X-403756Y37415195D01*
X-343980Y37368604D01*
X-343975Y37368601D01*
X-343737Y37368415D01*
X-343476Y37368252D01*
X-343474Y37368251D01*
X-288109Y37333760D01*
X-288102Y37333756D01*
X-287824Y37333583D01*
X-234449Y37308222D01*
X-234163Y37308121D01*
X-234155Y37308118D01*
X-182068Y37289784D01*
X-181846Y37289706D01*
X-128254Y37275407D01*
X-71914Y37262700D01*
X-71910Y37262697D01*
X-71910Y37262699D01*
X-11202Y37248987D01*
X-10843Y37248899D01*
X55787Y37231623D01*
X56367Y37231457D01*
X123253Y37210373D01*
X130114Y37204617D01*
X131434Y37199443D01*
X132302Y37155095D01*
X132331Y37153596D01*
X141421Y36688579D01*
X-259908Y36696424D01*
X-369443Y36698566D01*
X-377647Y36702154D01*
X-380373Y36706747D01*
X-401458Y36773637D01*
X-401624Y36774217D01*
X-418899Y36840843D01*
X-418987Y36841202D01*
X-432699Y36901910D01*
X-432698Y36901910D01*
X-432700Y36901914D01*
X-445376Y36958116D01*
X-445407Y36958254D01*
X-459706Y37011846D01*
X-459784Y37012068D01*
X-478118Y37064155D01*
X-478121Y37064163D01*
X-478222Y37064449D01*
X-503583Y37117824D01*
X-503756Y37118102D01*
X-503760Y37118109D01*
X-538251Y37173474D01*
X-538252Y37173476D01*
X-538415Y37173737D01*
X-558451Y37199443D01*
X-585195Y37233756D01*
X-585201Y37233763D01*
X-585346Y37233949D01*
X-623914Y37275407D01*
X-639315Y37291963D01*
X-642441Y37300354D01*
X-639022Y37308205D01*
X-478205Y37469022D01*
X-469932Y37472449D01*
X-461963Y37469315D01*
G37*
%TD.AperFunction*%
%TD*%
%TA.AperFunction,Conductor*%
%TO.N,matrix_pinky_top*%
G36*
X-2087410Y40475065D02*
G01*
X-2084201Y40470450D01*
X-1984060Y40208386D01*
X-1983677Y40207196D01*
X-1919494Y39964054D01*
X-1919274Y39963044D01*
X-1881115Y39740337D01*
X-1881032Y39739762D01*
X-1856180Y39531641D01*
X-1831917Y39332621D01*
X-1795499Y39137310D01*
X-1734147Y38940023D01*
X-1635080Y38735076D01*
X-1592171Y38672448D01*
X-1485732Y38517093D01*
X-1485727Y38517087D01*
X-1485519Y38516783D01*
X-1280082Y38287710D01*
X-1277109Y38279264D01*
X-1280519Y38271626D01*
X-1441647Y38110498D01*
X-1449920Y38107071D01*
X-1457708Y38110039D01*
X-1674950Y38303790D01*
X-1882940Y38442536D01*
X-2079094Y38530444D01*
X-2109875Y38538318D01*
X-2268678Y38578939D01*
X-2268682Y38578940D01*
X-2269078Y38579041D01*
X-2312544Y38583814D01*
X-2458310Y38599822D01*
X-2458320Y38599823D01*
X-2458560Y38599849D01*
X-2458803Y38599855D01*
X-2458808Y38599855D01*
X-2551220Y38602013D01*
X-2653203Y38604395D01*
X-2653240Y38604395D01*
X-2687603Y38604363D01*
X-2858503Y38604202D01*
X-2858838Y38604207D01*
X-3080228Y38610783D01*
X-3081045Y38610836D01*
X-3219416Y38624952D01*
X-3324205Y38635642D01*
X-3325327Y38635812D01*
X-3507341Y38672448D01*
X-3514817Y38677503D01*
X-3607104Y38818264D01*
X-3607106Y38818267D01*
X-3607341Y38818625D01*
X-3607632Y38818951D01*
X-3607635Y38818955D01*
X-3607922Y38819277D01*
X-3610831Y38825855D01*
X-3770425Y40357187D01*
X-3767874Y40365771D01*
X-3759545Y40370075D01*
X-2547964Y40448636D01*
X-2095887Y40477949D01*
X-2087410Y40475065D01*
G37*
%TD.AperFunction*%
%TD*%
%TA.AperFunction,Conductor*%
%TO.N,matrix_pinky_top*%
G36*
X61304002Y26266475D02*
G01*
X61542316Y26037300D01*
X61663531Y25920733D01*
X61667119Y25912529D01*
X61663531Y25903867D01*
X61304003Y25558126D01*
X61295664Y25554861D01*
X61290491Y25556181D01*
X61228294Y25588563D01*
X61227765Y25588856D01*
X61219039Y25593988D01*
X61168361Y25623796D01*
X61168085Y25623966D01*
X61115490Y25657181D01*
X61115488Y25657184D01*
X61115487Y25657183D01*
X61066737Y25687989D01*
X61066727Y25687995D01*
X61066659Y25688038D01*
X61018652Y25715823D01*
X61018450Y25715920D01*
X61018444Y25715923D01*
X60968639Y25739793D01*
X60968364Y25739925D01*
X60912689Y25759735D01*
X60886857Y25765736D01*
X60848824Y25774571D01*
X60848821Y25774571D01*
X60848522Y25774641D01*
X60848213Y25774679D01*
X60848209Y25774680D01*
X60804186Y25780137D01*
X60772761Y25784033D01*
X60726512Y25785703D01*
X60693578Y25786893D01*
X60685434Y25790616D01*
X60682300Y25798585D01*
X60682300Y26026015D01*
X60685727Y26034288D01*
X60693578Y26037707D01*
X60717170Y26038559D01*
X60772761Y26040566D01*
X60804186Y26044462D01*
X60848209Y26049919D01*
X60848213Y26049920D01*
X60848522Y26049958D01*
X60848821Y26050028D01*
X60848824Y26050028D01*
X60912370Y26064790D01*
X60912368Y26064790D01*
X60912689Y26064864D01*
X60968364Y26084674D01*
X60988066Y26094117D01*
X61018444Y26108676D01*
X61018450Y26108679D01*
X61018652Y26108776D01*
X61066659Y26136561D01*
X61115487Y26167416D01*
X61168085Y26200633D01*
X61168361Y26200803D01*
X61227765Y26235743D01*
X61228294Y26236036D01*
X61290491Y26268419D01*
X61299412Y26269200D01*
X61304002Y26266475D01*
G37*
%TD.AperFunction*%
%TD*%
%TA.AperFunction,Conductor*%
%TO.N,matrix_pinky_top*%
G36*
X181809Y37186119D02*
G01*
X244005Y37153736D01*
X244534Y37153443D01*
X303938Y37118503D01*
X304214Y37118333D01*
X356809Y37085118D01*
X356811Y37085115D01*
X356812Y37085116D01*
X405640Y37054261D01*
X453647Y37026476D01*
X453849Y37026379D01*
X453855Y37026376D01*
X484233Y37011817D01*
X503935Y37002374D01*
X559610Y36982564D01*
X559931Y36982490D01*
X559929Y36982490D01*
X623475Y36967728D01*
X623478Y36967728D01*
X623777Y36967658D01*
X624086Y36967620D01*
X624090Y36967619D01*
X668113Y36962162D01*
X699538Y36958266D01*
X755541Y36956244D01*
X778722Y36955407D01*
X786866Y36951684D01*
X790000Y36943715D01*
X790000Y36716285D01*
X786573Y36708012D01*
X778722Y36704593D01*
X746068Y36703413D01*
X699538Y36701733D01*
X668113Y36697837D01*
X624090Y36692380D01*
X624086Y36692379D01*
X623777Y36692341D01*
X623478Y36692271D01*
X623475Y36692271D01*
X585442Y36683436D01*
X559610Y36677435D01*
X503935Y36657625D01*
X503660Y36657493D01*
X453855Y36633623D01*
X453849Y36633620D01*
X453647Y36633523D01*
X405640Y36605738D01*
X356812Y36574883D01*
X304214Y36541666D01*
X303938Y36541496D01*
X253260Y36511688D01*
X244534Y36506556D01*
X244005Y36506263D01*
X181809Y36473881D01*
X172889Y36473100D01*
X168297Y36475826D01*
X4434Y36633405D01*
X-200000Y36830000D01*
X132407Y37149661D01*
X157444Y37173737D01*
X168297Y37184175D01*
X176635Y37187439D01*
X181809Y37186119D01*
G37*
%TD.AperFunction*%
%TD*%
%TA.AperFunction,Conductor*%
%TO.N,matrix_ring_bottom*%
G36*
X75248579Y3401920D02*
G01*
X75294433Y3323318D01*
X75346408Y3254769D01*
X75399727Y3202671D01*
X75455234Y3163801D01*
X75455636Y3163603D01*
X75455639Y3163601D01*
X75489663Y3146822D01*
X75513767Y3134935D01*
X75514094Y3134819D01*
X75514097Y3134818D01*
X75547993Y3122822D01*
X75576169Y3112850D01*
X75643279Y3094322D01*
X75715918Y3076132D01*
X75715971Y3076119D01*
X75770282Y3061633D01*
X75794737Y3055110D01*
X75795239Y3054964D01*
X75873253Y3030373D01*
X75880114Y3024617D01*
X75881434Y3019443D01*
X75891183Y2520744D01*
X75887918Y2512405D01*
X75879256Y2508817D01*
X75380261Y2518572D01*
X75372057Y2522160D01*
X75369456Y2526378D01*
X75338564Y2613954D01*
X75308629Y2695365D01*
X75308618Y2695394D01*
X75308586Y2695481D01*
X75280737Y2766991D01*
X75280734Y2766998D01*
X75280723Y2767026D01*
X75253557Y2832125D01*
X75253540Y2832166D01*
X75225512Y2894686D01*
X75195174Y2958232D01*
X75195168Y2958245D01*
X75195156Y2958269D01*
X75161045Y3026486D01*
X75121645Y3103128D01*
X75075495Y3191839D01*
X75026521Y3285913D01*
X75025740Y3294834D01*
X75031506Y3301698D01*
X75233080Y3406407D01*
X75242000Y3407179D01*
X75248579Y3401920D01*
G37*
%TD.AperFunction*%
%TD*%
%TA.AperFunction,Conductor*%
%TO.N,matrix_ring_bottom*%
G36*
X18588037Y15371315D02*
G01*
X18616807Y15344551D01*
X18646050Y15317346D01*
X18646236Y15317201D01*
X18646243Y15317195D01*
X18706019Y15270604D01*
X18706024Y15270601D01*
X18706262Y15270415D01*
X18706523Y15270252D01*
X18706525Y15270251D01*
X18761890Y15235760D01*
X18761897Y15235756D01*
X18762175Y15235583D01*
X18815550Y15210222D01*
X18815836Y15210121D01*
X18815844Y15210118D01*
X18867931Y15191784D01*
X18868153Y15191706D01*
X18921745Y15177407D01*
X18978085Y15164700D01*
X18978089Y15164697D01*
X18978089Y15164699D01*
X19038797Y15150987D01*
X19039130Y15150906D01*
X19105811Y15133617D01*
X19106367Y15133457D01*
X19173253Y15112373D01*
X19180114Y15106617D01*
X19181434Y15101443D01*
X19191183Y14602744D01*
X19187918Y14594405D01*
X19179256Y14590817D01*
X18680557Y14600566D01*
X18672353Y14604154D01*
X18669627Y14608746D01*
X18648541Y14675637D01*
X18648375Y14676218D01*
X18631100Y14742843D01*
X18631012Y14743202D01*
X18617300Y14803910D01*
X18617301Y14803910D01*
X18617299Y14803914D01*
X18604623Y14860116D01*
X18604592Y14860254D01*
X18590293Y14913846D01*
X18590215Y14914068D01*
X18571881Y14966155D01*
X18571878Y14966163D01*
X18571777Y14966449D01*
X18546416Y15019824D01*
X18546243Y15020102D01*
X18546239Y15020109D01*
X18511748Y15075474D01*
X18511747Y15075476D01*
X18511584Y15075737D01*
X18491548Y15101443D01*
X18464804Y15135756D01*
X18464798Y15135763D01*
X18464653Y15135949D01*
X18410683Y15193964D01*
X18407558Y15202353D01*
X18410977Y15210204D01*
X18571795Y15371022D01*
X18580068Y15374449D01*
X18588037Y15371315D01*
G37*
%TD.AperFunction*%
%TD*%
%TA.AperFunction,Conductor*%
%TO.N,matrix_ring_bottom*%
G36*
X16897517Y18407914D02*
G01*
X16900853Y18403391D01*
X16962228Y18255302D01*
X17009239Y18141870D01*
X17009657Y18140682D01*
X17080860Y17897843D01*
X17081112Y17896816D01*
X17125059Y17674086D01*
X17125164Y17673466D01*
X17154771Y17464966D01*
X17154767Y17464965D01*
X17154773Y17464955D01*
X17182933Y17265211D01*
X17222573Y17068833D01*
X17286659Y16870153D01*
X17388160Y16663491D01*
X17388404Y16663137D01*
X17491068Y16514211D01*
X17540042Y16443168D01*
X17540286Y16442896D01*
X17540291Y16442890D01*
X17747865Y16211753D01*
X17750843Y16203307D01*
X17747433Y16195662D01*
X17586309Y16034538D01*
X17578036Y16031111D01*
X17570251Y16034077D01*
X17354833Y16226090D01*
X17354831Y16226091D01*
X17354522Y16226367D01*
X17147832Y16363829D01*
X16969111Y16443168D01*
X16953237Y16450215D01*
X16953235Y16450216D01*
X16952777Y16450419D01*
X16952288Y16450541D01*
X16952287Y16450541D01*
X16892815Y16465333D01*
X16763705Y16497444D01*
X16763288Y16497485D01*
X16763285Y16497486D01*
X16670014Y16506760D01*
X16574964Y16516212D01*
X16413372Y16517728D01*
X16381021Y16518031D01*
X16381015Y16518031D01*
X16380905Y16518032D01*
X16176032Y16514213D01*
X16175745Y16514211D01*
X16080397Y16515004D01*
X15954619Y16516051D01*
X15953816Y16516086D01*
X15853336Y16523838D01*
X15710848Y16534830D01*
X15709769Y16534965D01*
X15607566Y16552673D01*
X15492868Y16572546D01*
X15485080Y16577659D01*
X15429038Y16663137D01*
X15428838Y16663443D01*
X15427026Y16668316D01*
X15218434Y18243242D01*
X15220745Y18251892D01*
X15228951Y18256427D01*
X16888963Y18410561D01*
X16897517Y18407914D01*
G37*
%TD.AperFunction*%
%TD*%
%TA.AperFunction,Conductor*%
%TO.N,matrix_ring_home*%
G36*
X18591927Y32160384D02*
G01*
X18652548Y32103687D01*
X18714865Y32054168D01*
X18715097Y32054018D01*
X18715102Y32054014D01*
X18749898Y32031458D01*
X18772474Y32016823D01*
X18772729Y32016693D01*
X18772736Y32016689D01*
X18806824Y31999320D01*
X18827236Y31988919D01*
X18827489Y31988819D01*
X18827494Y31988817D01*
X18880828Y31967795D01*
X18881011Y31967723D01*
X18881189Y31967667D01*
X18881200Y31967663D01*
X18935548Y31950538D01*
X18935563Y31950534D01*
X18935660Y31950503D01*
X18935770Y31950473D01*
X18935778Y31950470D01*
X18993008Y31934536D01*
X18993044Y31934526D01*
X19054840Y31917110D01*
X19055201Y31917002D01*
X19123181Y31895456D01*
X19123720Y31895271D01*
X19192348Y31869659D01*
X19198898Y31863557D01*
X19199948Y31858338D01*
X19187603Y31460768D01*
X19184467Y31359770D01*
X19180785Y31351607D01*
X19171953Y31348462D01*
X18674359Y31383417D01*
X18666346Y31387415D01*
X18663865Y31392109D01*
X18659069Y31410322D01*
X18645915Y31460278D01*
X18645797Y31460768D01*
X18631160Y31528613D01*
X18631105Y31528882D01*
X18619316Y31590507D01*
X18607920Y31647457D01*
X18607917Y31647470D01*
X18607900Y31647555D01*
X18594364Y31701692D01*
X18576194Y31754707D01*
X18550876Y31808389D01*
X18515895Y31864529D01*
X18468736Y31924915D01*
X18468564Y31925100D01*
X18414580Y31983074D01*
X18411450Y31991464D01*
X18414870Y31999320D01*
X18575662Y32160112D01*
X18583935Y32163539D01*
X18591927Y32160384D01*
G37*
%TD.AperFunction*%
%TD*%
%TA.AperFunction,Conductor*%
%TO.N,matrix_ring_home*%
G36*
X15741186Y35300318D02*
G01*
X16944382Y35276796D01*
X16952585Y35273209D01*
X16955393Y35268345D01*
X17031220Y35005751D01*
X17031495Y35004574D01*
X17075184Y34761422D01*
X17075314Y34760480D01*
X17096792Y34538531D01*
X17096828Y34538047D01*
X17108199Y34331553D01*
X17121594Y34135016D01*
X17149174Y33943023D01*
X17203111Y33749898D01*
X17203307Y33749475D01*
X17203307Y33749474D01*
X17295380Y33550394D01*
X17295383Y33550389D01*
X17295578Y33549967D01*
X17438748Y33337553D01*
X17637423Y33115230D01*
X17640381Y33106779D01*
X17636972Y33099162D01*
X17475838Y32938027D01*
X17467565Y32934600D01*
X17459770Y32937576D01*
X17237446Y33136251D01*
X17025033Y33279420D01*
X17024611Y33279615D01*
X17024606Y33279618D01*
X16825525Y33371691D01*
X16825524Y33371691D01*
X16825101Y33371887D01*
X16824656Y33372011D01*
X16824654Y33372012D01*
X16632335Y33425724D01*
X16632331Y33425725D01*
X16631976Y33425824D01*
X16439983Y33453404D01*
X16439763Y33453419D01*
X16243510Y33466796D01*
X16243486Y33466797D01*
X16243447Y33466800D01*
X16125398Y33473300D01*
X16036952Y33478171D01*
X16036468Y33478207D01*
X15878225Y33493520D01*
X15814516Y33499685D01*
X15813577Y33499815D01*
X15570423Y33543504D01*
X15569248Y33543779D01*
X15496987Y33564646D01*
X15490448Y33569472D01*
X15392896Y33718264D01*
X15392894Y33718267D01*
X15392659Y33718625D01*
X15297212Y33825564D01*
X15294245Y33833122D01*
X15265619Y35297454D01*
X15268884Y35305793D01*
X15277546Y35309381D01*
X15741186Y35300318D01*
G37*
%TD.AperFunction*%
%TD*%
%TA.AperFunction,Conductor*%
%TO.N,matrix_ring_top*%
G36*
X18842037Y49407315D02*
G01*
X18870807Y49380551D01*
X18900050Y49353346D01*
X18900236Y49353201D01*
X18900243Y49353195D01*
X18960019Y49306604D01*
X18960024Y49306601D01*
X18960262Y49306415D01*
X18960523Y49306252D01*
X18960525Y49306251D01*
X19015890Y49271760D01*
X19015897Y49271756D01*
X19016175Y49271583D01*
X19069550Y49246222D01*
X19069836Y49246121D01*
X19069844Y49246118D01*
X19121931Y49227784D01*
X19122153Y49227706D01*
X19175745Y49213407D01*
X19232085Y49200700D01*
X19232089Y49200697D01*
X19232089Y49200699D01*
X19292797Y49186987D01*
X19293130Y49186906D01*
X19359811Y49169617D01*
X19360367Y49169457D01*
X19427253Y49148373D01*
X19434114Y49142617D01*
X19435434Y49137443D01*
X19445183Y48638744D01*
X19441918Y48630405D01*
X19433256Y48626817D01*
X18934557Y48636566D01*
X18926353Y48640154D01*
X18923627Y48644746D01*
X18902541Y48711637D01*
X18902375Y48712218D01*
X18885100Y48778843D01*
X18885012Y48779202D01*
X18871300Y48839910D01*
X18871301Y48839910D01*
X18871299Y48839914D01*
X18858623Y48896116D01*
X18858592Y48896254D01*
X18844293Y48949846D01*
X18844215Y48950068D01*
X18825881Y49002155D01*
X18825878Y49002163D01*
X18825777Y49002449D01*
X18800416Y49055824D01*
X18800243Y49056102D01*
X18800239Y49056109D01*
X18765748Y49111474D01*
X18765747Y49111476D01*
X18765584Y49111737D01*
X18745548Y49137443D01*
X18718804Y49171756D01*
X18718798Y49171763D01*
X18718653Y49171949D01*
X18664683Y49229964D01*
X18661558Y49238353D01*
X18664977Y49246204D01*
X18825795Y49407022D01*
X18834068Y49410449D01*
X18842037Y49407315D01*
G37*
%TD.AperFunction*%
%TD*%
%TA.AperFunction,Conductor*%
%TO.N,matrix_ring_top*%
G36*
X16793733Y52587463D02*
G01*
X16797752Y52583521D01*
X16951245Y52334264D01*
X16951879Y52333089D01*
X17033939Y52157579D01*
X17061248Y52099170D01*
X17061708Y52098036D01*
X17136795Y51880706D01*
X17137044Y51879886D01*
X17191777Y51673668D01*
X17191844Y51673407D01*
X17240149Y51472866D01*
X17295874Y51273106D01*
X17372961Y51068919D01*
X17485374Y50854998D01*
X17485592Y50854690D01*
X17646875Y50626326D01*
X17646881Y50626319D01*
X17647077Y50626041D01*
X17717040Y50548508D01*
X17864587Y50384995D01*
X17867586Y50376557D01*
X17864174Y50368884D01*
X17703042Y50207753D01*
X17694769Y50204326D01*
X17687013Y50207267D01*
X17583424Y50299001D01*
X17484281Y50386799D01*
X17484277Y50386802D01*
X17483945Y50387096D01*
X17288030Y50513668D01*
X17102251Y50589736D01*
X17021934Y50605549D01*
X16921829Y50625257D01*
X16921828Y50625257D01*
X16921351Y50625351D01*
X16861838Y50627064D01*
X16740393Y50630559D01*
X16740389Y50630559D01*
X16740073Y50630568D01*
X16652221Y50623457D01*
X16553289Y50615450D01*
X16553270Y50615448D01*
X16553159Y50615439D01*
X16553037Y50615423D01*
X16553034Y50615423D01*
X16355380Y50590022D01*
X16355282Y50590010D01*
X16141699Y50564393D01*
X16141092Y50564336D01*
X16061216Y50558958D01*
X15906496Y50548540D01*
X15905550Y50548515D01*
X15770089Y50550593D01*
X15652555Y50552396D01*
X15644335Y50555950D01*
X15641528Y50560732D01*
X15245630Y51879886D01*
X15162290Y52157580D01*
X15163194Y52166488D01*
X15170573Y52172271D01*
X16784866Y52588715D01*
X16793733Y52587463D01*
G37*
%TD.AperFunction*%
%TD*%
%TA.AperFunction,Conductor*%
%TO.N,matrix_middle_bottom*%
G36*
X37591430Y19410935D02*
G01*
X37647848Y19358546D01*
X37647856Y19358540D01*
X37648035Y19358373D01*
X37707223Y19312667D01*
X37707499Y19312499D01*
X37707504Y19312496D01*
X37762145Y19279322D01*
X37762463Y19279129D01*
X37815485Y19255403D01*
X37868016Y19239132D01*
X37868283Y19239077D01*
X37868285Y19239076D01*
X37894806Y19233566D01*
X37921789Y19227960D01*
X37921933Y19227939D01*
X37921942Y19227937D01*
X37963395Y19221777D01*
X37978531Y19219528D01*
X37978562Y19219524D01*
X38039918Y19211487D01*
X38040107Y19211460D01*
X38107599Y19201494D01*
X38108062Y19201417D01*
X38175651Y19188659D01*
X38183145Y19183757D01*
X38185061Y19178828D01*
X38211786Y18992783D01*
X38255988Y18685061D01*
X38253772Y18676384D01*
X38245617Y18671760D01*
X37749488Y18620188D01*
X37740905Y18622741D01*
X37737640Y18626954D01*
X37706225Y18695557D01*
X37705983Y18696124D01*
X37679166Y18763917D01*
X37679013Y18764327D01*
X37657256Y18825974D01*
X37657214Y18826095D01*
X37637649Y18883520D01*
X37617510Y18938306D01*
X37617451Y18938467D01*
X37593758Y18992783D01*
X37563688Y19048372D01*
X37524358Y19107140D01*
X37472887Y19170991D01*
X37472734Y19171154D01*
X37414150Y19233566D01*
X37410987Y19241943D01*
X37414408Y19249846D01*
X37575196Y19410634D01*
X37583469Y19414061D01*
X37591430Y19410935D01*
G37*
%TD.AperFunction*%
%TD*%
%TA.AperFunction,Conductor*%
%TO.N,matrix_middle_bottom*%
G36*
X34741186Y22550318D02*
G01*
X35944382Y22526796D01*
X35952585Y22523209D01*
X35955393Y22518345D01*
X36031220Y22255751D01*
X36031495Y22254574D01*
X36075184Y22011422D01*
X36075314Y22010480D01*
X36096792Y21788531D01*
X36096828Y21788047D01*
X36108199Y21581553D01*
X36121594Y21385016D01*
X36149174Y21193023D01*
X36203111Y20999898D01*
X36203307Y20999475D01*
X36203307Y20999474D01*
X36295380Y20800394D01*
X36295383Y20800389D01*
X36295578Y20799967D01*
X36438748Y20587553D01*
X36637423Y20365230D01*
X36640381Y20356779D01*
X36636972Y20349162D01*
X36475838Y20188027D01*
X36467565Y20184600D01*
X36459770Y20187576D01*
X36237446Y20386251D01*
X36025033Y20529420D01*
X36024611Y20529615D01*
X36024606Y20529618D01*
X35825525Y20621691D01*
X35825524Y20621691D01*
X35825101Y20621887D01*
X35824656Y20622011D01*
X35824654Y20622012D01*
X35632335Y20675724D01*
X35632331Y20675725D01*
X35631976Y20675824D01*
X35439983Y20703404D01*
X35439763Y20703419D01*
X35243510Y20716796D01*
X35243486Y20716797D01*
X35243447Y20716800D01*
X35125398Y20723300D01*
X35036952Y20728171D01*
X35036468Y20728207D01*
X34878225Y20743520D01*
X34814516Y20749685D01*
X34813577Y20749815D01*
X34570423Y20793504D01*
X34569248Y20793779D01*
X34496987Y20814646D01*
X34490448Y20819472D01*
X34392896Y20968264D01*
X34392894Y20968267D01*
X34392659Y20968625D01*
X34297212Y21075564D01*
X34294245Y21083122D01*
X34265619Y22547454D01*
X34268884Y22555793D01*
X34277546Y22559381D01*
X34741186Y22550318D01*
G37*
%TD.AperFunction*%
%TD*%
%TA.AperFunction,Conductor*%
%TO.N,matrix_middle_bottom*%
G36*
X76188205Y4489022D02*
G01*
X76349022Y4328205D01*
X76352449Y4319932D01*
X76349315Y4311963D01*
X76333914Y4295407D01*
X76295346Y4253949D01*
X76295201Y4253763D01*
X76295195Y4253756D01*
X76274845Y4227647D01*
X76248415Y4193737D01*
X76248252Y4193476D01*
X76248251Y4193474D01*
X76213760Y4138109D01*
X76213756Y4138102D01*
X76213583Y4137824D01*
X76188222Y4084449D01*
X76188121Y4084163D01*
X76188118Y4084155D01*
X76169784Y4032068D01*
X76169706Y4031846D01*
X76155407Y3978254D01*
X76155376Y3978116D01*
X76142700Y3921914D01*
X76142697Y3921910D01*
X76142699Y3921910D01*
X76128987Y3861202D01*
X76128899Y3860843D01*
X76111624Y3794217D01*
X76111458Y3793637D01*
X76090373Y3726747D01*
X76084617Y3719886D01*
X76079443Y3718566D01*
X75580744Y3708817D01*
X75572405Y3712082D01*
X75568817Y3720744D01*
X75578566Y4219443D01*
X75582154Y4227647D01*
X75586747Y4230373D01*
X75653637Y4251458D01*
X75654217Y4251624D01*
X75720843Y4268899D01*
X75721202Y4268987D01*
X75781910Y4282699D01*
X75781910Y4282698D01*
X75781914Y4282700D01*
X75838254Y4295407D01*
X75891846Y4309706D01*
X75892068Y4309784D01*
X75944155Y4328118D01*
X75944163Y4328121D01*
X75944449Y4328222D01*
X75997824Y4353583D01*
X75998102Y4353756D01*
X75998109Y4353760D01*
X76053474Y4388251D01*
X76053476Y4388252D01*
X76053737Y4388415D01*
X76053975Y4388601D01*
X76053980Y4388604D01*
X76113756Y4435195D01*
X76113763Y4435201D01*
X76113949Y4435346D01*
X76141318Y4460807D01*
X76171963Y4489315D01*
X76180354Y4492441D01*
X76188205Y4489022D01*
G37*
%TD.AperFunction*%
%TD*%
%TA.AperFunction,Conductor*%
%TO.N,matrix_middle_bottom*%
G36*
X94703982Y7602874D02*
G01*
X94707068Y7599236D01*
X94711725Y7590673D01*
X94712092Y7590181D01*
X94712236Y7590015D01*
X94712238Y7590012D01*
X94760483Y7534238D01*
X94760492Y7534228D01*
X94760616Y7534085D01*
X94873017Y7421684D01*
X94876444Y7413411D01*
X94873017Y7405138D01*
X94871937Y7404183D01*
X94834243Y7374804D01*
X94834236Y7374798D01*
X94834050Y7374653D01*
X94806812Y7349314D01*
X94776037Y7320685D01*
X94767646Y7317559D01*
X94759795Y7320978D01*
X94598978Y7481795D01*
X94595551Y7490068D01*
X94598685Y7498037D01*
X94632084Y7533940D01*
X94652653Y7556050D01*
X94652802Y7556241D01*
X94652813Y7556254D01*
X94687562Y7600838D01*
X94695351Y7605257D01*
X94703982Y7602874D01*
G37*
%TD.AperFunction*%
%TD*%
%TA.AperFunction,Conductor*%
%TO.N,matrix_middle_home*%
G36*
X81447057Y22050274D02*
G01*
X81505947Y21995342D01*
X81506110Y21995190D01*
X81567212Y21947167D01*
X81623924Y21911347D01*
X81624213Y21911207D01*
X81624217Y21911205D01*
X81641747Y21902728D01*
X81678067Y21885163D01*
X81678358Y21885059D01*
X81678360Y21885058D01*
X81689125Y21881205D01*
X81731465Y21866050D01*
X81731700Y21865987D01*
X81785820Y21851474D01*
X81785839Y21851469D01*
X81785941Y21851442D01*
X81786040Y21851420D01*
X81786061Y21851415D01*
X81843301Y21838775D01*
X81843319Y21838771D01*
X81905307Y21825497D01*
X81905590Y21825432D01*
X81946956Y21815495D01*
X81973825Y21809040D01*
X81974318Y21808910D01*
X82016502Y21796723D01*
X82043041Y21789056D01*
X82050038Y21783468D01*
X82051481Y21778358D01*
X82074597Y21280075D01*
X82071558Y21271652D01*
X82062995Y21267833D01*
X81564196Y21264209D01*
X81555898Y21267576D01*
X81553058Y21272072D01*
X81529123Y21341015D01*
X81528951Y21341553D01*
X81508871Y21409867D01*
X81508779Y21410198D01*
X81492510Y21472231D01*
X81477404Y21529772D01*
X81460827Y21584504D01*
X81440096Y21638290D01*
X81412531Y21692991D01*
X81375450Y21750470D01*
X81326172Y21812587D01*
X81326002Y21812769D01*
X81269744Y21872941D01*
X81266597Y21881325D01*
X81270017Y21889205D01*
X81430803Y22049991D01*
X81439076Y22053418D01*
X81447057Y22050274D01*
G37*
%TD.AperFunction*%
%TD*%
%TA.AperFunction,Conductor*%
%TO.N,matrix_middle_home*%
G36*
X80079443Y23741434D02*
G01*
X80087647Y23737846D01*
X80090373Y23733253D01*
X80111457Y23666367D01*
X80111617Y23665811D01*
X80128900Y23599155D01*
X80128987Y23598797D01*
X80142699Y23538089D01*
X80142698Y23538089D01*
X80142700Y23538085D01*
X80155407Y23481745D01*
X80169706Y23428153D01*
X80169783Y23427934D01*
X80169784Y23427931D01*
X80188118Y23375844D01*
X80188121Y23375836D01*
X80188222Y23375550D01*
X80213583Y23322175D01*
X80213756Y23321897D01*
X80213760Y23321890D01*
X80248251Y23266525D01*
X80248415Y23266262D01*
X80248601Y23266024D01*
X80248604Y23266019D01*
X80295195Y23206243D01*
X80295201Y23206236D01*
X80295346Y23206050D01*
X80309336Y23191012D01*
X80349315Y23148037D01*
X80352441Y23139646D01*
X80349022Y23131795D01*
X80188204Y22970977D01*
X80179931Y22967550D01*
X80171964Y22970683D01*
X80113949Y23024653D01*
X80113763Y23024798D01*
X80113756Y23024804D01*
X80053980Y23071395D01*
X80053975Y23071398D01*
X80053737Y23071584D01*
X80053474Y23071748D01*
X79998109Y23106239D01*
X79998102Y23106243D01*
X79997824Y23106416D01*
X79944449Y23131777D01*
X79944163Y23131878D01*
X79944155Y23131881D01*
X79892068Y23150215D01*
X79892065Y23150216D01*
X79891846Y23150293D01*
X79838254Y23164592D01*
X79781914Y23177299D01*
X79781910Y23177302D01*
X79781910Y23177300D01*
X79721202Y23191012D01*
X79720843Y23191100D01*
X79654218Y23208375D01*
X79653637Y23208541D01*
X79586746Y23229627D01*
X79579886Y23235383D01*
X79578566Y23240557D01*
X79568817Y23739256D01*
X79572082Y23747595D01*
X79580744Y23751183D01*
X80079443Y23741434D01*
G37*
%TD.AperFunction*%
%TD*%
%TA.AperFunction,Conductor*%
%TO.N,matrix_middle_home*%
G36*
X34741186Y39550318D02*
G01*
X35944382Y39526796D01*
X35952585Y39523209D01*
X35955393Y39518345D01*
X36031220Y39255751D01*
X36031495Y39254574D01*
X36075184Y39011422D01*
X36075314Y39010480D01*
X36096792Y38788531D01*
X36096828Y38788047D01*
X36108199Y38581553D01*
X36121594Y38385016D01*
X36149174Y38193023D01*
X36203111Y37999898D01*
X36203307Y37999475D01*
X36203307Y37999474D01*
X36295380Y37800394D01*
X36295383Y37800389D01*
X36295578Y37799967D01*
X36438748Y37587553D01*
X36637423Y37365230D01*
X36640381Y37356779D01*
X36636972Y37349162D01*
X36475838Y37188027D01*
X36467565Y37184600D01*
X36459770Y37187576D01*
X36237446Y37386251D01*
X36025033Y37529420D01*
X36024611Y37529615D01*
X36024606Y37529618D01*
X35825525Y37621691D01*
X35825524Y37621691D01*
X35825101Y37621887D01*
X35824656Y37622011D01*
X35824654Y37622012D01*
X35632335Y37675724D01*
X35632331Y37675725D01*
X35631976Y37675824D01*
X35439983Y37703404D01*
X35439763Y37703419D01*
X35243510Y37716796D01*
X35243486Y37716797D01*
X35243447Y37716800D01*
X35125398Y37723300D01*
X35036952Y37728171D01*
X35036468Y37728207D01*
X34878225Y37743520D01*
X34814516Y37749685D01*
X34813577Y37749815D01*
X34570423Y37793504D01*
X34569248Y37793779D01*
X34496987Y37814646D01*
X34490448Y37819472D01*
X34392896Y37968264D01*
X34392894Y37968267D01*
X34392659Y37968625D01*
X34297212Y38075564D01*
X34294245Y38083122D01*
X34265619Y39547454D01*
X34268884Y39555793D01*
X34277546Y39559381D01*
X34741186Y39550318D01*
G37*
%TD.AperFunction*%
%TD*%
%TA.AperFunction,Conductor*%
%TO.N,matrix_middle_home*%
G36*
X37502685Y36500083D02*
G01*
X37545236Y36462656D01*
X37549989Y36458475D01*
X37602317Y36425445D01*
X37652510Y36406004D01*
X37653102Y36405907D01*
X37653104Y36405906D01*
X37675281Y36402256D01*
X37701647Y36397917D01*
X37702187Y36397928D01*
X37702191Y36397928D01*
X37724543Y36398397D01*
X37750811Y36398948D01*
X37773191Y36402472D01*
X37800866Y36406830D01*
X37800870Y36406831D01*
X37801081Y36406864D01*
X37801289Y36406914D01*
X37801300Y36406916D01*
X37832008Y36414271D01*
X37853537Y36419428D01*
X37853604Y36419446D01*
X37853616Y36419449D01*
X37909150Y36434374D01*
X37909325Y36434420D01*
X37969058Y36449489D01*
X37969626Y36449617D01*
X38012675Y36458225D01*
X38026553Y36461000D01*
X38035337Y36459262D01*
X38039015Y36455316D01*
X38071111Y36398940D01*
X38285570Y36022248D01*
X38286685Y36013363D01*
X38280435Y36005898D01*
X37948592Y35847783D01*
X37824703Y35788753D01*
X37815760Y35788288D01*
X37811311Y35791128D01*
X37756006Y35847594D01*
X37755825Y35847783D01*
X37704552Y35902534D01*
X37704422Y35902677D01*
X37660225Y35951997D01*
X37660090Y35952150D01*
X37620164Y35998302D01*
X37620096Y35998381D01*
X37607365Y36013363D01*
X37581675Y36043593D01*
X37542094Y36089968D01*
X37498637Y36139668D01*
X37448570Y36194877D01*
X37389158Y36257777D01*
X37325794Y36322282D01*
X37322441Y36330585D01*
X37325868Y36338754D01*
X37486685Y36499571D01*
X37494958Y36502998D01*
X37502685Y36500083D01*
G37*
%TD.AperFunction*%
%TD*%
%TA.AperFunction,Conductor*%
%TO.N,matrix_middle_home*%
G36*
X87901732Y17031524D02*
G01*
X87905272Y17023139D01*
X87905272Y16795780D01*
X87901845Y16787507D01*
X87894529Y16784119D01*
X87858015Y16781126D01*
X87830375Y16778861D01*
X87830373Y16778861D01*
X87829768Y16778811D01*
X87770247Y16761147D01*
X87769612Y16760767D01*
X87769610Y16760766D01*
X87724479Y16733745D01*
X87723843Y16733364D01*
X87687689Y16696816D01*
X87658921Y16652858D01*
X87634672Y16602843D01*
X87612077Y16548128D01*
X87590049Y16494402D01*
X87588374Y16490317D01*
X87588169Y16489847D01*
X87583792Y16480420D01*
X87560600Y16430472D01*
X87560136Y16429576D01*
X87529856Y16376810D01*
X87522766Y16371340D01*
X87517143Y16371218D01*
X87219867Y16438070D01*
X87031546Y16480420D01*
X87024226Y16485579D01*
X87022698Y16494402D01*
X87023035Y16495598D01*
X87187259Y16979093D01*
X87193164Y16985824D01*
X87198150Y16987029D01*
X87274702Y16988244D01*
X87315239Y16990279D01*
X87347433Y16991895D01*
X87347442Y16991896D01*
X87347529Y16991900D01*
X87411771Y16997288D01*
X87411860Y16997298D01*
X87411872Y16997299D01*
X87470786Y17003826D01*
X87470787Y17003826D01*
X87470813Y17003829D01*
X87490949Y17006334D01*
X87527999Y17010944D01*
X87528037Y17010949D01*
X87586708Y17018054D01*
X87586906Y17018076D01*
X87650453Y17024598D01*
X87650701Y17024620D01*
X87707640Y17028877D01*
X87722424Y17029982D01*
X87722786Y17030004D01*
X87806226Y17033645D01*
X87806577Y17033655D01*
X87893413Y17034838D01*
X87901732Y17031524D01*
G37*
%TD.AperFunction*%
%TD*%
%TA.AperFunction,Conductor*%
%TO.N,matrix_middle_home*%
G36*
X87901732Y17031524D02*
G01*
X87905272Y17023139D01*
X87905272Y16795780D01*
X87901845Y16787507D01*
X87894529Y16784119D01*
X87858015Y16781126D01*
X87830375Y16778861D01*
X87830373Y16778861D01*
X87829768Y16778811D01*
X87770247Y16761147D01*
X87769612Y16760767D01*
X87769610Y16760766D01*
X87724479Y16733745D01*
X87723843Y16733364D01*
X87687689Y16696816D01*
X87658921Y16652858D01*
X87634672Y16602843D01*
X87612077Y16548128D01*
X87590049Y16494402D01*
X87588374Y16490317D01*
X87588169Y16489847D01*
X87583792Y16480420D01*
X87560600Y16430472D01*
X87560136Y16429576D01*
X87529856Y16376810D01*
X87522766Y16371340D01*
X87517143Y16371218D01*
X87219867Y16438070D01*
X87031546Y16480420D01*
X87024226Y16485579D01*
X87022698Y16494402D01*
X87023035Y16495598D01*
X87187259Y16979093D01*
X87193164Y16985824D01*
X87198150Y16987029D01*
X87274702Y16988244D01*
X87315239Y16990279D01*
X87347433Y16991895D01*
X87347442Y16991896D01*
X87347529Y16991900D01*
X87411771Y16997288D01*
X87411860Y16997298D01*
X87411872Y16997299D01*
X87470786Y17003826D01*
X87470787Y17003826D01*
X87470813Y17003829D01*
X87490949Y17006334D01*
X87527999Y17010944D01*
X87528037Y17010949D01*
X87586708Y17018054D01*
X87586906Y17018076D01*
X87650453Y17024598D01*
X87650701Y17024620D01*
X87707640Y17028877D01*
X87722424Y17029982D01*
X87722786Y17030004D01*
X87806226Y17033645D01*
X87806577Y17033655D01*
X87893413Y17034838D01*
X87901732Y17031524D01*
G37*
%TD.AperFunction*%
%TD*%
%TA.AperFunction,Conductor*%
%TO.N,matrix_middle_top*%
G36*
X37638037Y53471315D02*
G01*
X37666807Y53444551D01*
X37696050Y53417346D01*
X37696236Y53417201D01*
X37696243Y53417195D01*
X37756019Y53370604D01*
X37756024Y53370601D01*
X37756262Y53370415D01*
X37756523Y53370252D01*
X37756525Y53370251D01*
X37811890Y53335760D01*
X37811897Y53335756D01*
X37812175Y53335583D01*
X37865550Y53310222D01*
X37865836Y53310121D01*
X37865844Y53310118D01*
X37917931Y53291784D01*
X37918153Y53291706D01*
X37971745Y53277407D01*
X38028085Y53264700D01*
X38028089Y53264697D01*
X38028089Y53264699D01*
X38088797Y53250987D01*
X38089130Y53250906D01*
X38155811Y53233617D01*
X38156367Y53233457D01*
X38223253Y53212373D01*
X38230114Y53206617D01*
X38231434Y53201443D01*
X38241183Y52702744D01*
X38237918Y52694405D01*
X38229256Y52690817D01*
X37730557Y52700566D01*
X37722353Y52704154D01*
X37719627Y52708746D01*
X37698541Y52775637D01*
X37698375Y52776218D01*
X37681100Y52842843D01*
X37681012Y52843202D01*
X37667300Y52903910D01*
X37667301Y52903910D01*
X37667299Y52903914D01*
X37654623Y52960116D01*
X37654592Y52960254D01*
X37640293Y53013846D01*
X37640215Y53014068D01*
X37621881Y53066155D01*
X37621878Y53066163D01*
X37621777Y53066449D01*
X37596416Y53119824D01*
X37596243Y53120102D01*
X37596239Y53120109D01*
X37561748Y53175474D01*
X37561747Y53175476D01*
X37561584Y53175737D01*
X37541548Y53201443D01*
X37514804Y53235756D01*
X37514798Y53235763D01*
X37514653Y53235949D01*
X37460683Y53293964D01*
X37457558Y53302353D01*
X37460977Y53310204D01*
X37621795Y53471022D01*
X37630068Y53474449D01*
X37638037Y53471315D01*
G37*
%TD.AperFunction*%
%TD*%
%TA.AperFunction,Conductor*%
%TO.N,matrix_middle_top*%
G36*
X35925903Y56593863D02*
G01*
X35928988Y56589171D01*
X35950388Y56528504D01*
X36021707Y56326318D01*
X36022055Y56325134D01*
X36080016Y56081494D01*
X36080207Y56080507D01*
X36113343Y55857648D01*
X36113410Y55857108D01*
X36134254Y55649152D01*
X36155338Y55450638D01*
X36189231Y55256126D01*
X36248527Y55059911D01*
X36248715Y55059517D01*
X36248716Y55059515D01*
X36345624Y54856696D01*
X36345627Y54856691D01*
X36345819Y54856289D01*
X36346073Y54855917D01*
X36493490Y54639865D01*
X36493496Y54639857D01*
X36493703Y54639554D01*
X36697381Y54412253D01*
X36700349Y54403806D01*
X36696940Y54396173D01*
X36535812Y54235045D01*
X36527539Y54231618D01*
X36519748Y54234590D01*
X36300919Y54429928D01*
X36300612Y54430202D01*
X36090991Y54570625D01*
X36090557Y54570822D01*
X35893887Y54660018D01*
X35893885Y54660019D01*
X35893439Y54660221D01*
X35702266Y54710718D01*
X35701874Y54710766D01*
X35701872Y54710766D01*
X35626107Y54719963D01*
X35511781Y54733841D01*
X35511530Y54733851D01*
X35511525Y54733851D01*
X35316373Y54741314D01*
X35316368Y54741314D01*
X35316293Y54741317D01*
X35110296Y54744869D01*
X35109948Y54744880D01*
X34985140Y54751251D01*
X34887980Y54756210D01*
X34887110Y54756287D01*
X34643470Y54787051D01*
X34642334Y54787252D01*
X34493171Y54821283D01*
X34485988Y54826275D01*
X34392896Y54968264D01*
X34392894Y54968267D01*
X34392659Y54968625D01*
X34360816Y55004302D01*
X34357880Y55011185D01*
X34240382Y56519990D01*
X34243156Y56528504D01*
X34251595Y56532589D01*
X35917503Y56596968D01*
X35925903Y56593863D01*
G37*
%TD.AperFunction*%
%TD*%
%TA.AperFunction,Conductor*%
%TO.N,matrix_index_bottom*%
G36*
X53741186Y18300318D02*
G01*
X54944382Y18276796D01*
X54952585Y18273209D01*
X54955393Y18268345D01*
X55031220Y18005751D01*
X55031495Y18004574D01*
X55075184Y17761422D01*
X55075314Y17760480D01*
X55096792Y17538531D01*
X55096828Y17538047D01*
X55108199Y17331553D01*
X55121594Y17135016D01*
X55149174Y16943023D01*
X55203111Y16749898D01*
X55203307Y16749475D01*
X55203307Y16749474D01*
X55295380Y16550394D01*
X55295383Y16550389D01*
X55295578Y16549967D01*
X55438748Y16337553D01*
X55637423Y16115230D01*
X55640381Y16106779D01*
X55636972Y16099162D01*
X55475838Y15938027D01*
X55467565Y15934600D01*
X55459770Y15937576D01*
X55237446Y16136251D01*
X55025033Y16279420D01*
X55024611Y16279615D01*
X55024606Y16279618D01*
X54825525Y16371691D01*
X54825524Y16371691D01*
X54825101Y16371887D01*
X54824656Y16372011D01*
X54824654Y16372012D01*
X54632335Y16425724D01*
X54632331Y16425725D01*
X54631976Y16425824D01*
X54439983Y16453404D01*
X54439763Y16453419D01*
X54243510Y16466796D01*
X54243486Y16466797D01*
X54243447Y16466800D01*
X54125398Y16473300D01*
X54036952Y16478171D01*
X54036468Y16478207D01*
X53878225Y16493520D01*
X53814516Y16499685D01*
X53813577Y16499815D01*
X53570423Y16543504D01*
X53569248Y16543779D01*
X53496987Y16564646D01*
X53490448Y16569472D01*
X53392896Y16718264D01*
X53392894Y16718267D01*
X53392659Y16718625D01*
X53297212Y16825564D01*
X53294245Y16833122D01*
X53265619Y18297454D01*
X53268884Y18305793D01*
X53277546Y18309381D01*
X53741186Y18300318D01*
G37*
%TD.AperFunction*%
%TD*%
%TA.AperFunction,Conductor*%
%TO.N,matrix_index_bottom*%
G36*
X77841323Y6209384D02*
G01*
X77903519Y6177001D01*
X77904048Y6176708D01*
X77963452Y6141768D01*
X77963728Y6141598D01*
X78016323Y6108383D01*
X78016325Y6108380D01*
X78016326Y6108381D01*
X78065154Y6077526D01*
X78113161Y6049741D01*
X78113363Y6049644D01*
X78113369Y6049641D01*
X78143747Y6035082D01*
X78163449Y6025639D01*
X78219124Y6005829D01*
X78219445Y6005755D01*
X78219443Y6005755D01*
X78282989Y5990993D01*
X78282992Y5990993D01*
X78283291Y5990923D01*
X78283600Y5990885D01*
X78283604Y5990884D01*
X78327627Y5985427D01*
X78359052Y5981531D01*
X78415055Y5979509D01*
X78438236Y5978672D01*
X78446380Y5974949D01*
X78449514Y5966980D01*
X78449514Y5739550D01*
X78446087Y5731277D01*
X78438236Y5727858D01*
X78405582Y5726678D01*
X78359052Y5724998D01*
X78327627Y5721102D01*
X78283604Y5715645D01*
X78283600Y5715644D01*
X78283291Y5715606D01*
X78282992Y5715536D01*
X78282989Y5715536D01*
X78244956Y5706701D01*
X78219124Y5700700D01*
X78163449Y5680890D01*
X78163174Y5680758D01*
X78113369Y5656888D01*
X78113363Y5656885D01*
X78113161Y5656788D01*
X78065154Y5629003D01*
X78016326Y5598148D01*
X77963728Y5564931D01*
X77963452Y5564761D01*
X77912774Y5534953D01*
X77904048Y5529821D01*
X77903519Y5529528D01*
X77841323Y5497146D01*
X77832403Y5496365D01*
X77827811Y5499091D01*
X77468283Y5844832D01*
X77464695Y5853036D01*
X77468283Y5861698D01*
X77589498Y5978265D01*
X77827811Y6207439D01*
X77836149Y6210704D01*
X77841323Y6209384D01*
G37*
%TD.AperFunction*%
%TD*%
%TA.AperFunction,Conductor*%
%TO.N,matrix_index_bottom*%
G36*
X85723347Y6976853D02*
G01*
X85731297Y6972733D01*
X85733957Y6963742D01*
X85671920Y6468373D01*
X85667492Y6460590D01*
X85663221Y6458495D01*
X85555357Y6430821D01*
X85510943Y6416839D01*
X85457819Y6400116D01*
X85457804Y6400111D01*
X85457627Y6400055D01*
X85373204Y6367207D01*
X85373036Y6367127D01*
X85373026Y6367123D01*
X85297719Y6331395D01*
X85297711Y6331391D01*
X85297549Y6331314D01*
X85297388Y6331224D01*
X85297384Y6331222D01*
X85226253Y6291480D01*
X85226240Y6291472D01*
X85226125Y6291408D01*
X85225992Y6291325D01*
X85225989Y6291323D01*
X85217866Y6286240D01*
X85154396Y6246526D01*
X85100890Y6211012D01*
X85077823Y6195702D01*
X85077734Y6195644D01*
X84991891Y6137985D01*
X84991791Y6137918D01*
X84892070Y6072411D01*
X84891876Y6072287D01*
X84783690Y6004223D01*
X84774863Y6002718D01*
X84767487Y6008008D01*
X84648855Y6201370D01*
X84647450Y6210213D01*
X84652377Y6217249D01*
X84756767Y6286240D01*
X84756973Y6286376D01*
X84757159Y6286523D01*
X84757168Y6286529D01*
X84847646Y6357799D01*
X84847654Y6357806D01*
X84847880Y6357984D01*
X84848089Y6358187D01*
X84848098Y6358195D01*
X84891170Y6400055D01*
X84919621Y6427705D01*
X84922110Y6430773D01*
X84975947Y6497151D01*
X84976159Y6497412D01*
X85021455Y6568976D01*
X85059473Y6644269D01*
X85094173Y6725162D01*
X85129520Y6813528D01*
X85169420Y6911106D01*
X85169557Y6911424D01*
X85214610Y7012555D01*
X85221106Y7018718D01*
X85226296Y7019451D01*
X85723347Y6976853D01*
G37*
%TD.AperFunction*%
%TD*%
%TA.AperFunction,Conductor*%
%TO.N,matrix_index_bottom*%
G36*
X56563136Y15189585D02*
G01*
X56611527Y15146750D01*
X56611532Y15146747D01*
X56611853Y15146462D01*
X56612217Y15146226D01*
X56612219Y15146225D01*
X56664871Y15112157D01*
X56664874Y15112155D01*
X56665326Y15111863D01*
X56665826Y15111657D01*
X56665830Y15111655D01*
X56715948Y15091015D01*
X56715951Y15091014D01*
X56716483Y15090795D01*
X56766493Y15080966D01*
X56816526Y15080088D01*
X56816906Y15080131D01*
X56816909Y15080131D01*
X56867542Y15085845D01*
X56867552Y15085847D01*
X56867751Y15085869D01*
X56896678Y15091349D01*
X56921299Y15096012D01*
X56921326Y15096018D01*
X56921339Y15096020D01*
X56921360Y15096024D01*
X56921382Y15096029D01*
X56978367Y15108230D01*
X56978584Y15108274D01*
X57021943Y15116703D01*
X57039987Y15120211D01*
X57040582Y15120310D01*
X57099604Y15128609D01*
X57108274Y15126367D01*
X57111721Y15122209D01*
X57332769Y14675123D01*
X57333364Y14666188D01*
X57327053Y14659254D01*
X56871528Y14455784D01*
X56862576Y14455539D01*
X56858254Y14458431D01*
X56803411Y14516474D01*
X56803125Y14516788D01*
X56753233Y14573589D01*
X56752967Y14573902D01*
X56710624Y14625660D01*
X56710426Y14625908D01*
X56672645Y14674739D01*
X56672556Y14674856D01*
X56636414Y14722802D01*
X56598984Y14771901D01*
X56557430Y14824069D01*
X56557424Y14824076D01*
X56557382Y14824129D01*
X56557321Y14824201D01*
X56508729Y14881461D01*
X56508716Y14881476D01*
X56508664Y14881537D01*
X56449890Y14946179D01*
X56386147Y15011835D01*
X56382843Y15020158D01*
X56386269Y15028258D01*
X56547108Y15189097D01*
X56555381Y15192524D01*
X56563136Y15189585D01*
G37*
%TD.AperFunction*%
%TD*%
%TA.AperFunction,Conductor*%
%TO.N,matrix_index_home*%
G36*
X53741186Y35300318D02*
G01*
X54944382Y35276796D01*
X54952585Y35273209D01*
X54955393Y35268345D01*
X55031220Y35005751D01*
X55031495Y35004574D01*
X55075184Y34761422D01*
X55075314Y34760480D01*
X55096792Y34538531D01*
X55096828Y34538047D01*
X55108199Y34331553D01*
X55121594Y34135016D01*
X55149174Y33943023D01*
X55203111Y33749898D01*
X55203307Y33749475D01*
X55203307Y33749474D01*
X55295380Y33550394D01*
X55295383Y33550389D01*
X55295578Y33549967D01*
X55438748Y33337553D01*
X55637423Y33115230D01*
X55640381Y33106779D01*
X55636972Y33099162D01*
X55475838Y32938027D01*
X55467565Y32934600D01*
X55459770Y32937576D01*
X55237446Y33136251D01*
X55025033Y33279420D01*
X55024611Y33279615D01*
X55024606Y33279618D01*
X54825525Y33371691D01*
X54825524Y33371691D01*
X54825101Y33371887D01*
X54824656Y33372011D01*
X54824654Y33372012D01*
X54632335Y33425724D01*
X54632331Y33425725D01*
X54631976Y33425824D01*
X54439983Y33453404D01*
X54439763Y33453419D01*
X54243510Y33466796D01*
X54243486Y33466797D01*
X54243447Y33466800D01*
X54125398Y33473300D01*
X54036952Y33478171D01*
X54036468Y33478207D01*
X53878225Y33493520D01*
X53814516Y33499685D01*
X53813577Y33499815D01*
X53570423Y33543504D01*
X53569248Y33543779D01*
X53496987Y33564646D01*
X53490448Y33569472D01*
X53392896Y33718264D01*
X53392894Y33718267D01*
X53392659Y33718625D01*
X53297212Y33825564D01*
X53294245Y33833122D01*
X53265619Y35297454D01*
X53268884Y35305793D01*
X53277546Y35309381D01*
X53741186Y35300318D01*
G37*
%TD.AperFunction*%
%TD*%
%TA.AperFunction,Conductor*%
%TO.N,matrix_index_home*%
G36*
X57420980Y31883359D02*
G01*
X57519443Y31881434D01*
X57527647Y31877846D01*
X57530373Y31873253D01*
X57551457Y31806367D01*
X57551617Y31805811D01*
X57568900Y31739155D01*
X57568987Y31738797D01*
X57582699Y31678089D01*
X57582698Y31678089D01*
X57582700Y31678085D01*
X57595407Y31621745D01*
X57609706Y31568153D01*
X57609783Y31567934D01*
X57609784Y31567931D01*
X57628118Y31515844D01*
X57628121Y31515836D01*
X57628222Y31515550D01*
X57653583Y31462175D01*
X57653756Y31461897D01*
X57653760Y31461890D01*
X57688251Y31406525D01*
X57688415Y31406262D01*
X57688601Y31406024D01*
X57688604Y31406019D01*
X57735195Y31346243D01*
X57735201Y31346236D01*
X57735346Y31346050D01*
X57749336Y31331012D01*
X57789315Y31288037D01*
X57792441Y31279646D01*
X57789022Y31271795D01*
X57628204Y31110977D01*
X57619931Y31107550D01*
X57611964Y31110683D01*
X57553949Y31164653D01*
X57553763Y31164798D01*
X57553756Y31164804D01*
X57493980Y31211395D01*
X57493975Y31211398D01*
X57493737Y31211584D01*
X57493474Y31211748D01*
X57438109Y31246239D01*
X57438102Y31246243D01*
X57437824Y31246416D01*
X57384449Y31271777D01*
X57384163Y31271878D01*
X57384155Y31271881D01*
X57332068Y31290215D01*
X57332065Y31290216D01*
X57331846Y31290293D01*
X57278254Y31304592D01*
X57221914Y31317299D01*
X57221910Y31317302D01*
X57221910Y31317300D01*
X57161202Y31331012D01*
X57160843Y31331100D01*
X57094218Y31348375D01*
X57093637Y31348541D01*
X57026746Y31369627D01*
X57019886Y31375383D01*
X57018566Y31380557D01*
X57017883Y31415458D01*
X57008579Y31891421D01*
X57420980Y31883359D01*
G37*
%TD.AperFunction*%
%TD*%
%TA.AperFunction,Conductor*%
%TO.N,matrix_index_home*%
G36*
X56557909Y32194835D02*
G01*
X56605843Y32152526D01*
X56658675Y32118726D01*
X56659188Y32118521D01*
X56659191Y32118519D01*
X56695517Y32103970D01*
X56709288Y32098455D01*
X56709862Y32098351D01*
X56709861Y32098351D01*
X56758289Y32089556D01*
X56758291Y32089556D01*
X56758802Y32089463D01*
X56759325Y32089463D01*
X56787119Y32089483D01*
X56808343Y32089498D01*
X56823614Y32091550D01*
X56858812Y32096280D01*
X56858819Y32096281D01*
X56859033Y32096310D01*
X56911995Y32107647D01*
X56959098Y32119024D01*
X56968269Y32121239D01*
X56968459Y32121283D01*
X57028927Y32134827D01*
X57029506Y32134942D01*
X57087418Y32144875D01*
X57096151Y32142896D01*
X57099718Y32138850D01*
X57340161Y31688044D01*
X57015518Y31536440D01*
X56879940Y31473127D01*
X56874700Y31470680D01*
X56865753Y31470284D01*
X56861358Y31473127D01*
X56805814Y31530288D01*
X56805566Y31530552D01*
X56754685Y31586265D01*
X56754450Y31586530D01*
X56710969Y31637136D01*
X56710788Y31637352D01*
X56671839Y31684958D01*
X56671749Y31685069D01*
X56634402Y31731866D01*
X56595942Y31779767D01*
X56595934Y31779776D01*
X56595872Y31779854D01*
X56553325Y31831093D01*
X56553230Y31831202D01*
X56503976Y31887586D01*
X56503958Y31887607D01*
X56503890Y31887684D01*
X56502611Y31889068D01*
X56444733Y31951697D01*
X56444719Y31951712D01*
X56444702Y31951730D01*
X56380962Y32017059D01*
X56377637Y32025374D01*
X56381063Y32033503D01*
X56541895Y32194335D01*
X56550168Y32197762D01*
X56557909Y32194835D01*
G37*
%TD.AperFunction*%
%TD*%
%TA.AperFunction,Conductor*%
%TO.N,matrix_index_top*%
G36*
X53741186Y52300318D02*
G01*
X54944382Y52276796D01*
X54952585Y52273209D01*
X54955393Y52268345D01*
X55031220Y52005751D01*
X55031495Y52004574D01*
X55075184Y51761422D01*
X55075314Y51760480D01*
X55096792Y51538531D01*
X55096828Y51538047D01*
X55108199Y51331553D01*
X55121594Y51135016D01*
X55149174Y50943023D01*
X55203111Y50749898D01*
X55203307Y50749475D01*
X55203307Y50749474D01*
X55295380Y50550394D01*
X55295383Y50550389D01*
X55295578Y50549967D01*
X55438748Y50337553D01*
X55637423Y50115230D01*
X55640381Y50106779D01*
X55636972Y50099162D01*
X55475838Y49938027D01*
X55467565Y49934600D01*
X55459770Y49937576D01*
X55237446Y50136251D01*
X55025033Y50279420D01*
X55024611Y50279615D01*
X55024606Y50279618D01*
X54825525Y50371691D01*
X54825524Y50371691D01*
X54825101Y50371887D01*
X54824656Y50372011D01*
X54824654Y50372012D01*
X54632335Y50425724D01*
X54632331Y50425725D01*
X54631976Y50425824D01*
X54439983Y50453404D01*
X54439763Y50453419D01*
X54243510Y50466796D01*
X54243486Y50466797D01*
X54243447Y50466800D01*
X54125398Y50473300D01*
X54036952Y50478171D01*
X54036468Y50478207D01*
X53878225Y50493520D01*
X53814516Y50499685D01*
X53813577Y50499815D01*
X53570423Y50543504D01*
X53569248Y50543779D01*
X53496987Y50564646D01*
X53490448Y50569472D01*
X53392896Y50718264D01*
X53392894Y50718267D01*
X53392659Y50718625D01*
X53297212Y50825564D01*
X53294245Y50833122D01*
X53265619Y52297454D01*
X53268884Y52305793D01*
X53277546Y52309381D01*
X53741186Y52300318D01*
G37*
%TD.AperFunction*%
%TD*%
%TA.AperFunction,Conductor*%
%TO.N,matrix_index_top*%
G36*
X56552678Y49200090D02*
G01*
X56599983Y49158481D01*
X56652312Y49125450D01*
X56667857Y49119429D01*
X56700157Y49106918D01*
X56702506Y49106008D01*
X56703098Y49105911D01*
X56703100Y49105910D01*
X56725157Y49102280D01*
X56751644Y49097920D01*
X56752184Y49097931D01*
X56752188Y49097931D01*
X56774538Y49098400D01*
X56800809Y49098951D01*
X56815386Y49101246D01*
X56850865Y49106832D01*
X56850872Y49106833D01*
X56851079Y49106866D01*
X56851287Y49106916D01*
X56851298Y49106918D01*
X56881934Y49114255D01*
X56903537Y49119429D01*
X56903604Y49119447D01*
X56903616Y49119450D01*
X56959150Y49134375D01*
X56959325Y49134421D01*
X57019060Y49149489D01*
X57019628Y49149617D01*
X57063958Y49158481D01*
X57076556Y49161000D01*
X57085340Y49159262D01*
X57089017Y49155317D01*
X57117090Y49106008D01*
X57335570Y48722247D01*
X57336685Y48713362D01*
X57330435Y48705897D01*
X56998198Y48547595D01*
X56874703Y48488753D01*
X56865760Y48488288D01*
X56861311Y48491128D01*
X56806005Y48547595D01*
X56805824Y48547784D01*
X56754550Y48602536D01*
X56754420Y48602679D01*
X56710223Y48651999D01*
X56710088Y48652152D01*
X56670161Y48698305D01*
X56670093Y48698384D01*
X56663710Y48705896D01*
X56631672Y48743596D01*
X56592090Y48789972D01*
X56548632Y48839673D01*
X56498565Y48894882D01*
X56439152Y48957783D01*
X56375787Y49022289D01*
X56372434Y49030592D01*
X56375861Y49038761D01*
X56536678Y49199578D01*
X56544951Y49203005D01*
X56552678Y49200090D01*
G37*
%TD.AperFunction*%
%TD*%
%TA.AperFunction,Conductor*%
%TO.N,matrix_inner_bottom*%
G36*
X79281809Y6956119D02*
G01*
X79344005Y6923736D01*
X79344534Y6923443D01*
X79403938Y6888503D01*
X79404214Y6888333D01*
X79456809Y6855118D01*
X79456811Y6855115D01*
X79456812Y6855116D01*
X79505640Y6824261D01*
X79553647Y6796476D01*
X79553849Y6796379D01*
X79553855Y6796376D01*
X79584233Y6781817D01*
X79603935Y6772374D01*
X79659610Y6752564D01*
X79659931Y6752490D01*
X79659929Y6752490D01*
X79723475Y6737728D01*
X79723478Y6737728D01*
X79723777Y6737658D01*
X79724086Y6737620D01*
X79724090Y6737619D01*
X79768113Y6732162D01*
X79799538Y6728266D01*
X79855541Y6726244D01*
X79878722Y6725407D01*
X79886866Y6721684D01*
X79890000Y6713715D01*
X79890000Y6486285D01*
X79886573Y6478012D01*
X79878722Y6474593D01*
X79846068Y6473413D01*
X79799538Y6471733D01*
X79768113Y6467837D01*
X79724090Y6462380D01*
X79724086Y6462379D01*
X79723777Y6462341D01*
X79723478Y6462271D01*
X79723475Y6462271D01*
X79685442Y6453436D01*
X79659610Y6447435D01*
X79603935Y6427625D01*
X79603660Y6427493D01*
X79553855Y6403623D01*
X79553849Y6403620D01*
X79553647Y6403523D01*
X79505640Y6375738D01*
X79456812Y6344883D01*
X79404214Y6311666D01*
X79403938Y6311496D01*
X79353260Y6281688D01*
X79344534Y6276556D01*
X79344005Y6276263D01*
X79281809Y6243881D01*
X79272889Y6243100D01*
X79268297Y6245826D01*
X78908769Y6591567D01*
X78905181Y6599771D01*
X78908769Y6608433D01*
X79029984Y6725000D01*
X79268297Y6954174D01*
X79276635Y6957439D01*
X79281809Y6956119D01*
G37*
%TD.AperFunction*%
%TD*%
%TA.AperFunction,Conductor*%
%TO.N,matrix_inner_bottom*%
G36*
X82141702Y6954175D02*
G01*
X82380016Y6725000D01*
X82501231Y6608433D01*
X82504819Y6600229D01*
X82501231Y6591567D01*
X82141703Y6245826D01*
X82133364Y6242561D01*
X82128191Y6243881D01*
X82065994Y6276263D01*
X82065465Y6276556D01*
X82056739Y6281688D01*
X82006061Y6311496D01*
X82005785Y6311666D01*
X81953190Y6344881D01*
X81953188Y6344884D01*
X81953187Y6344883D01*
X81904437Y6375689D01*
X81904427Y6375695D01*
X81904359Y6375738D01*
X81856352Y6403523D01*
X81856150Y6403620D01*
X81856144Y6403623D01*
X81806339Y6427493D01*
X81806064Y6427625D01*
X81750389Y6447435D01*
X81724557Y6453436D01*
X81686524Y6462271D01*
X81686521Y6462271D01*
X81686222Y6462341D01*
X81685913Y6462379D01*
X81685909Y6462380D01*
X81641886Y6467837D01*
X81610461Y6471733D01*
X81564212Y6473403D01*
X81531278Y6474593D01*
X81523134Y6478316D01*
X81520000Y6486285D01*
X81520000Y6713715D01*
X81523427Y6721988D01*
X81531278Y6725407D01*
X81554870Y6726259D01*
X81610461Y6728266D01*
X81641886Y6732162D01*
X81685909Y6737619D01*
X81685913Y6737620D01*
X81686222Y6737658D01*
X81686521Y6737728D01*
X81686524Y6737728D01*
X81750070Y6752490D01*
X81750068Y6752490D01*
X81750389Y6752564D01*
X81806064Y6772374D01*
X81825766Y6781817D01*
X81856144Y6796376D01*
X81856150Y6796379D01*
X81856352Y6796476D01*
X81904359Y6824261D01*
X81953187Y6855116D01*
X82005785Y6888333D01*
X82006061Y6888503D01*
X82065465Y6923443D01*
X82065994Y6923736D01*
X82128191Y6956119D01*
X82137112Y6956900D01*
X82141702Y6954175D01*
G37*
%TD.AperFunction*%
%TD*%
%TA.AperFunction,Conductor*%
%TO.N,matrix_inner_bottom*%
G36*
X75484037Y12831315D02*
G01*
X75512807Y12804551D01*
X75542050Y12777346D01*
X75542236Y12777201D01*
X75542243Y12777195D01*
X75602019Y12730604D01*
X75602024Y12730601D01*
X75602262Y12730415D01*
X75602523Y12730252D01*
X75602525Y12730251D01*
X75657890Y12695760D01*
X75657897Y12695756D01*
X75658175Y12695583D01*
X75711550Y12670222D01*
X75711836Y12670121D01*
X75711844Y12670118D01*
X75763931Y12651784D01*
X75764153Y12651706D01*
X75817745Y12637407D01*
X75874085Y12624700D01*
X75874089Y12624697D01*
X75874089Y12624699D01*
X75934797Y12610987D01*
X75935130Y12610906D01*
X76001811Y12593617D01*
X76002367Y12593457D01*
X76069253Y12572373D01*
X76076114Y12566617D01*
X76077434Y12561443D01*
X76087183Y12062744D01*
X76083918Y12054405D01*
X76075256Y12050817D01*
X75576557Y12060566D01*
X75568353Y12064154D01*
X75565627Y12068746D01*
X75544541Y12135637D01*
X75544375Y12136218D01*
X75527100Y12202843D01*
X75527012Y12203202D01*
X75513300Y12263910D01*
X75513301Y12263910D01*
X75513299Y12263914D01*
X75500623Y12320116D01*
X75500592Y12320254D01*
X75486293Y12373846D01*
X75486215Y12374068D01*
X75467881Y12426155D01*
X75467878Y12426163D01*
X75467777Y12426449D01*
X75442416Y12479824D01*
X75442243Y12480102D01*
X75442239Y12480109D01*
X75407748Y12535474D01*
X75407747Y12535476D01*
X75407584Y12535737D01*
X75387548Y12561443D01*
X75360804Y12595756D01*
X75360798Y12595763D01*
X75360653Y12595949D01*
X75306683Y12653964D01*
X75303558Y12662353D01*
X75306977Y12670204D01*
X75467795Y12831022D01*
X75476068Y12834449D01*
X75484037Y12831315D01*
G37*
%TD.AperFunction*%
%TD*%
%TA.AperFunction,Conductor*%
%TO.N,matrix_inner_bottom*%
G36*
X73924461Y15797362D02*
G01*
X73927560Y15792681D01*
X73949648Y15730703D01*
X74021469Y15529175D01*
X74021820Y15527998D01*
X74080901Y15283786D01*
X74081094Y15282804D01*
X74115259Y15059470D01*
X74115329Y15058928D01*
X74137137Y14850530D01*
X74159134Y14651580D01*
X74193904Y14456611D01*
X74254055Y14259890D01*
X74352196Y14055683D01*
X74352443Y14055322D01*
X74486337Y13859604D01*
X74500939Y13838259D01*
X74562632Y13769458D01*
X74705496Y13610133D01*
X74708468Y13601686D01*
X74705058Y13594049D01*
X74543935Y13432926D01*
X74535662Y13429499D01*
X74527869Y13432472D01*
X74308590Y13628298D01*
X74308585Y13628302D01*
X74308287Y13628568D01*
X74193516Y13705568D01*
X74098687Y13769190D01*
X74098684Y13769192D01*
X74098287Y13769458D01*
X73900398Y13859479D01*
X73807393Y13884178D01*
X73709298Y13910228D01*
X73709293Y13910229D01*
X73708905Y13910332D01*
X73708508Y13910381D01*
X73708501Y13910382D01*
X73518330Y13933691D01*
X73518320Y13933692D01*
X73518090Y13933720D01*
X73322238Y13941345D01*
X73270560Y13942236D01*
X73115825Y13944904D01*
X73115440Y13944917D01*
X73019458Y13949737D01*
X72892978Y13956089D01*
X72892141Y13956162D01*
X72778257Y13970345D01*
X72647864Y13986585D01*
X72646737Y13986782D01*
X72493106Y14021421D01*
X72485894Y14026419D01*
X72392896Y14168264D01*
X72392894Y14168267D01*
X72392659Y14168625D01*
X72364212Y14200497D01*
X72361279Y14207346D01*
X72356999Y14260318D01*
X72239159Y15718576D01*
X72241908Y15727098D01*
X72250335Y15731208D01*
X73916053Y15800442D01*
X73924461Y15797362D01*
G37*
%TD.AperFunction*%
%TD*%
%TA.AperFunction,Conductor*%
%TO.N,matrix_inner_home*%
G36*
X75738037Y29849315D02*
G01*
X75766807Y29822551D01*
X75796050Y29795346D01*
X75796236Y29795201D01*
X75796243Y29795195D01*
X75856019Y29748604D01*
X75856024Y29748601D01*
X75856262Y29748415D01*
X75856523Y29748252D01*
X75856525Y29748251D01*
X75911890Y29713760D01*
X75911897Y29713756D01*
X75912175Y29713583D01*
X75965550Y29688222D01*
X75965836Y29688121D01*
X75965844Y29688118D01*
X76017931Y29669784D01*
X76018153Y29669706D01*
X76071745Y29655407D01*
X76128085Y29642700D01*
X76128089Y29642697D01*
X76128089Y29642699D01*
X76188797Y29628987D01*
X76189130Y29628906D01*
X76255811Y29611617D01*
X76256367Y29611457D01*
X76323253Y29590373D01*
X76330114Y29584617D01*
X76331434Y29579443D01*
X76341421Y29068579D01*
X75934568Y29076532D01*
X75830557Y29078566D01*
X75822353Y29082154D01*
X75819627Y29086746D01*
X75798541Y29153637D01*
X75798375Y29154218D01*
X75781100Y29220843D01*
X75781012Y29221202D01*
X75767300Y29281910D01*
X75767301Y29281910D01*
X75767299Y29281914D01*
X75754623Y29338116D01*
X75754592Y29338254D01*
X75740293Y29391846D01*
X75740215Y29392068D01*
X75721881Y29444155D01*
X75721878Y29444163D01*
X75721777Y29444449D01*
X75696416Y29497824D01*
X75696243Y29498102D01*
X75696239Y29498109D01*
X75661748Y29553474D01*
X75661747Y29553476D01*
X75661584Y29553737D01*
X75641548Y29579443D01*
X75614804Y29613756D01*
X75614798Y29613763D01*
X75614653Y29613949D01*
X75560683Y29671964D01*
X75557558Y29680353D01*
X75560977Y29688204D01*
X75721795Y29849022D01*
X75730068Y29852449D01*
X75738037Y29849315D01*
G37*
%TD.AperFunction*%
%TD*%
%TA.AperFunction,Conductor*%
%TO.N,matrix_inner_home*%
G36*
X73837115Y32970256D02*
G01*
X73840883Y32966074D01*
X73976850Y32711361D01*
X73977403Y32710165D01*
X74071788Y32472249D01*
X74072164Y32471145D01*
X74134871Y32251327D01*
X74135055Y32250589D01*
X74179678Y32043100D01*
X74219725Y31842653D01*
X74268726Y31644153D01*
X74340293Y31442131D01*
X74448037Y31231122D01*
X74605569Y31005659D01*
X74605802Y31005400D01*
X74605803Y31005399D01*
X74819072Y30768526D01*
X74822061Y30760084D01*
X74818650Y30752424D01*
X74657519Y30591294D01*
X74649246Y30587867D01*
X74641481Y30590816D01*
X74459424Y30752424D01*
X74434139Y30774869D01*
X74434136Y30774871D01*
X74433813Y30775158D01*
X74234014Y30905609D01*
X74044899Y30985386D01*
X73861038Y31025027D01*
X73677005Y31035065D01*
X73676711Y31035051D01*
X73487472Y31026042D01*
X73487465Y31026042D01*
X73487370Y31026037D01*
X73487265Y31026028D01*
X73487253Y31026027D01*
X73342614Y31013371D01*
X73286810Y31008488D01*
X73286642Y31008474D01*
X73256741Y31006333D01*
X73069927Y30992951D01*
X73069239Y30992922D01*
X72973979Y30991721D01*
X72831078Y30989919D01*
X72830074Y30989951D01*
X72572808Y31009332D01*
X72564817Y31013371D01*
X72562296Y31018332D01*
X72560495Y31026027D01*
X72182297Y32641644D01*
X72183748Y32650480D01*
X72191470Y32655798D01*
X73828342Y32972052D01*
X73837115Y32970256D01*
G37*
%TD.AperFunction*%
%TD*%
%TA.AperFunction,Conductor*%
%TO.N,matrix_inner_home*%
G36*
X76465432Y29343468D02*
G01*
X76569443Y29341434D01*
X76577647Y29337846D01*
X76580373Y29333253D01*
X76601457Y29266367D01*
X76601617Y29265811D01*
X76618900Y29199155D01*
X76618987Y29198797D01*
X76632699Y29138089D01*
X76632698Y29138089D01*
X76632700Y29138085D01*
X76645407Y29081745D01*
X76659706Y29028153D01*
X76659783Y29027934D01*
X76659784Y29027931D01*
X76678118Y28975844D01*
X76678121Y28975836D01*
X76678222Y28975550D01*
X76703583Y28922175D01*
X76703756Y28921897D01*
X76703760Y28921890D01*
X76738251Y28866525D01*
X76738415Y28866262D01*
X76738601Y28866024D01*
X76738604Y28866019D01*
X76785195Y28806243D01*
X76785201Y28806236D01*
X76785346Y28806050D01*
X76799336Y28791012D01*
X76839315Y28748037D01*
X76842441Y28739646D01*
X76839022Y28731795D01*
X76678204Y28570977D01*
X76669931Y28567550D01*
X76661964Y28570683D01*
X76603949Y28624653D01*
X76603763Y28624798D01*
X76603756Y28624804D01*
X76543980Y28671395D01*
X76543975Y28671398D01*
X76543737Y28671584D01*
X76543474Y28671748D01*
X76488109Y28706239D01*
X76488102Y28706243D01*
X76487824Y28706416D01*
X76434449Y28731777D01*
X76434163Y28731878D01*
X76434155Y28731881D01*
X76382068Y28750215D01*
X76382065Y28750216D01*
X76381846Y28750293D01*
X76328254Y28764592D01*
X76271914Y28777299D01*
X76271910Y28777302D01*
X76271910Y28777300D01*
X76211202Y28791012D01*
X76210843Y28791100D01*
X76144218Y28808375D01*
X76143637Y28808541D01*
X76076746Y28829627D01*
X76069886Y28835383D01*
X76068566Y28840557D01*
X76065921Y28975844D01*
X76058579Y29351421D01*
X76465432Y29343468D01*
G37*
%TD.AperFunction*%
%TD*%
%TA.AperFunction,Conductor*%
%TO.N,matrix_inner_top*%
G36*
X72741186Y49750318D02*
G01*
X73944382Y49726796D01*
X73952585Y49723209D01*
X73955393Y49718345D01*
X74031220Y49455751D01*
X74031495Y49454574D01*
X74075184Y49211422D01*
X74075314Y49210480D01*
X74096792Y48988531D01*
X74096828Y48988047D01*
X74108199Y48781553D01*
X74121594Y48585016D01*
X74149174Y48393023D01*
X74203111Y48199898D01*
X74203307Y48199475D01*
X74203307Y48199474D01*
X74295380Y48000394D01*
X74295383Y48000389D01*
X74295578Y47999967D01*
X74438748Y47787553D01*
X74637423Y47565230D01*
X74640381Y47556779D01*
X74636972Y47549162D01*
X74475838Y47388027D01*
X74467565Y47384600D01*
X74459770Y47387576D01*
X74237446Y47586251D01*
X74025033Y47729420D01*
X74024611Y47729615D01*
X74024606Y47729618D01*
X73825525Y47821691D01*
X73825524Y47821691D01*
X73825101Y47821887D01*
X73824656Y47822011D01*
X73824654Y47822012D01*
X73632335Y47875724D01*
X73632331Y47875725D01*
X73631976Y47875824D01*
X73439983Y47903404D01*
X73439763Y47903419D01*
X73243510Y47916796D01*
X73243486Y47916797D01*
X73243447Y47916800D01*
X73125398Y47923300D01*
X73036952Y47928171D01*
X73036468Y47928207D01*
X72878225Y47943520D01*
X72814516Y47949685D01*
X72813577Y47949815D01*
X72570423Y47993504D01*
X72569248Y47993779D01*
X72496987Y48014646D01*
X72490448Y48019472D01*
X72392896Y48168264D01*
X72392894Y48168267D01*
X72392659Y48168625D01*
X72297212Y48275564D01*
X72294245Y48283122D01*
X72265619Y49747454D01*
X72268884Y49755793D01*
X72277546Y49759381D01*
X72741186Y49750318D01*
G37*
%TD.AperFunction*%
%TD*%
%TA.AperFunction,Conductor*%
%TO.N,matrix_inner_top*%
G36*
X75589967Y46612918D02*
G01*
X75606671Y46598466D01*
X75635426Y46573587D01*
X75635874Y46573322D01*
X75635876Y46573321D01*
X75684731Y46544469D01*
X75686248Y46543573D01*
X75686857Y46543375D01*
X75734522Y46527878D01*
X75734526Y46527877D01*
X75735157Y46527672D01*
X75757253Y46525778D01*
X75782539Y46523611D01*
X75782541Y46523611D01*
X75783113Y46523562D01*
X75821746Y46527878D01*
X75830680Y46528876D01*
X75830681Y46528876D01*
X75831073Y46528920D01*
X75879995Y46541423D01*
X75907590Y46550826D01*
X75930800Y46558735D01*
X75930890Y46558767D01*
X75984432Y46578526D01*
X75984643Y46578602D01*
X76041811Y46598466D01*
X76042431Y46598662D01*
X76096310Y46614088D01*
X76105206Y46613071D01*
X76109219Y46609399D01*
X76133230Y46573929D01*
X76388153Y46197355D01*
X76389953Y46188583D01*
X76385023Y46181107D01*
X76383730Y46180348D01*
X75924687Y45948953D01*
X75915757Y45948289D01*
X75911177Y45951100D01*
X75857183Y46004738D01*
X75805249Y46055600D01*
X75759071Y46100200D01*
X75716362Y46140992D01*
X75674842Y46180427D01*
X75674836Y46180432D01*
X75632209Y46220973D01*
X75632177Y46221004D01*
X75586238Y46265029D01*
X75586189Y46265076D01*
X75534557Y46315131D01*
X75534503Y46315183D01*
X75474906Y46373711D01*
X75474854Y46373763D01*
X75413279Y46434991D01*
X75409829Y46443254D01*
X75413256Y46451560D01*
X75574039Y46612343D01*
X75582312Y46615770D01*
X75589967Y46612918D01*
G37*
%TD.AperFunction*%
%TD*%
%TA.AperFunction,Conductor*%
%TO.N,thumbs_near*%
G36*
X54910037Y-6218685D02*
G01*
X54940812Y-6247314D01*
X54968050Y-6272653D01*
X54968236Y-6272798D01*
X54968243Y-6272804D01*
X55028019Y-6319395D01*
X55028024Y-6319398D01*
X55028262Y-6319584D01*
X55028523Y-6319747D01*
X55028525Y-6319748D01*
X55083890Y-6354239D01*
X55083897Y-6354243D01*
X55084175Y-6354416D01*
X55137550Y-6379777D01*
X55137836Y-6379878D01*
X55137844Y-6379881D01*
X55189931Y-6398215D01*
X55190153Y-6398293D01*
X55243745Y-6412592D01*
X55300085Y-6425299D01*
X55300089Y-6425302D01*
X55300089Y-6425300D01*
X55360797Y-6439012D01*
X55361156Y-6439100D01*
X55427781Y-6456375D01*
X55428362Y-6456541D01*
X55495254Y-6477627D01*
X55502114Y-6483383D01*
X55503434Y-6488557D01*
X55513183Y-6987256D01*
X55509918Y-6995595D01*
X55501256Y-6999183D01*
X55002557Y-6989434D01*
X54994353Y-6985846D01*
X54991627Y-6981254D01*
X54970541Y-6914362D01*
X54970375Y-6913781D01*
X54953100Y-6847156D01*
X54953012Y-6846797D01*
X54939300Y-6786089D01*
X54939301Y-6786089D01*
X54939299Y-6786085D01*
X54926623Y-6729883D01*
X54926592Y-6729745D01*
X54912293Y-6676153D01*
X54912215Y-6675931D01*
X54893881Y-6623844D01*
X54893878Y-6623836D01*
X54893777Y-6623550D01*
X54868416Y-6570175D01*
X54868243Y-6569897D01*
X54868239Y-6569890D01*
X54833748Y-6514525D01*
X54833747Y-6514523D01*
X54833584Y-6514262D01*
X54809516Y-6483383D01*
X54786804Y-6454243D01*
X54786798Y-6454236D01*
X54786653Y-6454050D01*
X54748085Y-6412592D01*
X54732685Y-6396037D01*
X54729559Y-6387646D01*
X54732978Y-6379795D01*
X54893795Y-6218978D01*
X54902068Y-6215551D01*
X54910037Y-6218685D01*
G37*
%TD.AperFunction*%
%TD*%
%TA.AperFunction,Conductor*%
%TO.N,thumbs_near*%
G36*
X52254298Y-2528488D02*
G01*
X53739439Y-3286171D01*
X53745251Y-3292983D01*
X53745674Y-3298446D01*
X53708489Y-3530228D01*
X53708340Y-3530994D01*
X53658506Y-3747977D01*
X53658418Y-3748334D01*
X53605791Y-3947207D01*
X53559089Y-4132201D01*
X53527022Y-4307648D01*
X53527003Y-4308023D01*
X53527002Y-4308029D01*
X53525983Y-4327855D01*
X53518261Y-4478039D01*
X53541472Y-4647866D01*
X53605326Y-4821617D01*
X53718492Y-5003786D01*
X53839306Y-5141491D01*
X53882410Y-5190622D01*
X53885290Y-5199101D01*
X53881888Y-5206611D01*
X53720740Y-5367759D01*
X53712467Y-5371186D01*
X53704607Y-5368152D01*
X53526501Y-5206611D01*
X53454911Y-5141680D01*
X53454656Y-5141495D01*
X53454651Y-5141491D01*
X53218151Y-4969968D01*
X53218143Y-4969963D01*
X53217884Y-4969775D01*
X52997297Y-4845157D01*
X52788665Y-4753058D01*
X52788492Y-4752994D01*
X52788482Y-4752990D01*
X52587503Y-4678713D01*
X52389592Y-4607448D01*
X52389059Y-4607241D01*
X52262372Y-4554492D01*
X52190172Y-4524429D01*
X52189167Y-4523953D01*
X52169561Y-4513496D01*
X52164442Y-4508071D01*
X52081361Y-4327855D01*
X52081360Y-4327853D01*
X52081175Y-4327452D01*
X52080938Y-4327091D01*
X52080935Y-4327085D01*
X51938757Y-4110227D01*
X51938755Y-4110224D01*
X51938520Y-4109866D01*
X51906310Y-4073777D01*
X51765555Y-3916075D01*
X51765553Y-3916073D01*
X51765270Y-3915756D01*
X51653872Y-3823107D01*
X51649702Y-3815183D01*
X51650727Y-3809215D01*
X52238355Y-2534013D01*
X52244930Y-2527934D01*
X52254298Y-2528488D01*
G37*
%TD.AperFunction*%
%TD*%
%TA.AperFunction,Conductor*%
%TO.N,thumbs_home*%
G36*
X73960037Y-7742685D02*
G01*
X73990812Y-7771314D01*
X74018050Y-7796653D01*
X74018236Y-7796798D01*
X74018243Y-7796804D01*
X74078019Y-7843395D01*
X74078024Y-7843398D01*
X74078262Y-7843584D01*
X74078523Y-7843747D01*
X74078525Y-7843748D01*
X74133890Y-7878239D01*
X74133897Y-7878243D01*
X74134175Y-7878416D01*
X74187550Y-7903777D01*
X74187836Y-7903878D01*
X74187844Y-7903881D01*
X74239931Y-7922215D01*
X74240153Y-7922293D01*
X74293745Y-7936592D01*
X74350085Y-7949299D01*
X74350089Y-7949302D01*
X74350089Y-7949300D01*
X74410797Y-7963012D01*
X74411156Y-7963100D01*
X74477781Y-7980375D01*
X74478362Y-7980541D01*
X74545254Y-8001627D01*
X74552114Y-8007383D01*
X74553434Y-8012557D01*
X74563183Y-8511256D01*
X74559918Y-8519595D01*
X74551256Y-8523183D01*
X74052557Y-8513434D01*
X74044353Y-8509846D01*
X74041627Y-8505254D01*
X74020541Y-8438362D01*
X74020375Y-8437781D01*
X74003100Y-8371156D01*
X74003012Y-8370797D01*
X73989300Y-8310089D01*
X73989301Y-8310089D01*
X73989299Y-8310085D01*
X73976623Y-8253883D01*
X73976592Y-8253745D01*
X73962293Y-8200153D01*
X73962215Y-8199931D01*
X73943881Y-8147844D01*
X73943878Y-8147836D01*
X73943777Y-8147550D01*
X73918416Y-8094175D01*
X73918243Y-8093897D01*
X73918239Y-8093890D01*
X73883748Y-8038525D01*
X73883747Y-8038523D01*
X73883584Y-8038262D01*
X73859516Y-8007383D01*
X73836804Y-7978243D01*
X73836798Y-7978236D01*
X73836653Y-7978050D01*
X73798085Y-7936592D01*
X73782685Y-7920037D01*
X73779559Y-7911646D01*
X73782978Y-7903795D01*
X73943795Y-7742978D01*
X73952068Y-7739551D01*
X73960037Y-7742685D01*
G37*
%TD.AperFunction*%
%TD*%
%TA.AperFunction,Conductor*%
%TO.N,thumbs_home*%
G36*
X72683104Y-4752598D02*
G01*
X72679456Y-4994736D01*
X72679444Y-4995545D01*
X72679214Y-5010800D01*
X72679162Y-5011737D01*
X72657008Y-5243515D01*
X72656939Y-5244085D01*
X72626241Y-5455257D01*
X72626208Y-5455312D01*
X72626232Y-5455316D01*
X72596767Y-5650971D01*
X72578394Y-5835896D01*
X72580919Y-6015227D01*
X72614149Y-6194103D01*
X72614364Y-6194638D01*
X72662495Y-6314442D01*
X72687892Y-6377660D01*
X72688187Y-6378119D01*
X72688187Y-6378120D01*
X72735815Y-6452357D01*
X72811954Y-6571034D01*
X72812251Y-6571370D01*
X72988854Y-6771122D01*
X72991767Y-6779590D01*
X72988362Y-6787145D01*
X72827227Y-6948280D01*
X72818954Y-6951707D01*
X72811113Y-6948691D01*
X72568895Y-6730003D01*
X72568890Y-6729999D01*
X72568643Y-6729776D01*
X72338337Y-6566559D01*
X72123272Y-6452357D01*
X72122951Y-6452233D01*
X72122945Y-6452230D01*
X71977919Y-6396111D01*
X71918274Y-6373030D01*
X71718170Y-6314442D01*
X71718114Y-6314428D01*
X71718098Y-6314423D01*
X71648332Y-6296324D01*
X71517914Y-6262490D01*
X71517685Y-6262428D01*
X71363696Y-6217901D01*
X71312378Y-6203062D01*
X71311519Y-6202777D01*
X71096066Y-6121967D01*
X71094911Y-6121461D01*
X71069392Y-6108606D01*
X71064031Y-6103055D01*
X71009060Y-5983814D01*
X71009059Y-5983812D01*
X71008874Y-5983411D01*
X71008637Y-5983050D01*
X71008634Y-5983044D01*
X70866456Y-5766186D01*
X70866454Y-5766183D01*
X70866219Y-5765825D01*
X70834009Y-5729736D01*
X70693178Y-5571949D01*
X70690226Y-5563495D01*
X70690674Y-5560884D01*
X70926227Y-4752733D01*
X70934446Y-4724536D01*
X70934446Y-4724535D01*
X71082293Y-4217292D01*
X72683104Y-4752598D01*
G37*
%TD.AperFunction*%
%TD*%
%TA.AperFunction,Conductor*%
%TO.N,thumbs_home*%
G36*
X73742538Y-2531840D02*
G01*
X73853479Y-2730367D01*
X73854524Y-2739260D01*
X73849544Y-2745947D01*
X73716211Y-2830739D01*
X73540488Y-2942487D01*
X73302831Y-3145961D01*
X73131767Y-3353853D01*
X73131508Y-3354324D01*
X73078791Y-3450211D01*
X73013163Y-3569580D01*
X72932885Y-3796559D01*
X72876801Y-4038205D01*
X72876778Y-4038333D01*
X72876775Y-4038349D01*
X72830780Y-4297924D01*
X72830778Y-4297935D01*
X72780724Y-4578928D01*
X72780624Y-4579424D01*
X72712470Y-4884907D01*
X72712263Y-4885702D01*
X72611740Y-5219792D01*
X70924119Y-5252784D01*
X70937288Y-4579165D01*
X70956948Y-3573430D01*
X70960536Y-3565227D01*
X70964956Y-3562557D01*
X71302888Y-3450257D01*
X71303178Y-3450165D01*
X71600616Y-3359822D01*
X71600827Y-3359760D01*
X71620014Y-3354324D01*
X71862631Y-3285584D01*
X72101071Y-3219306D01*
X72101088Y-3219301D01*
X72101160Y-3219281D01*
X72101180Y-3219275D01*
X72101184Y-3219274D01*
X72169406Y-3199274D01*
X72328583Y-3152610D01*
X72328601Y-3152604D01*
X72328732Y-3152566D01*
X72413776Y-3124553D01*
X72557631Y-3077167D01*
X72557638Y-3077164D01*
X72557767Y-3077122D01*
X72800683Y-2984637D01*
X72896359Y-2942758D01*
X73069771Y-2866852D01*
X73069774Y-2866850D01*
X73069901Y-2866795D01*
X73102182Y-2850912D01*
X73377720Y-2715340D01*
X73377739Y-2715330D01*
X73377839Y-2715281D01*
X73726776Y-2527247D01*
X73735683Y-2526339D01*
X73742538Y-2531840D01*
G37*
%TD.AperFunction*%
%TD*%
%TA.AperFunction,Conductor*%
%TO.N,thumbs_home*%
G36*
X97572892Y6328810D02*
G01*
X97620329Y6255949D01*
X97667292Y6183817D01*
X97696646Y6138730D01*
X97698288Y6129927D01*
X97693501Y6122726D01*
X97587912Y6049628D01*
X97587752Y6049499D01*
X97531328Y6004116D01*
X97495143Y5975012D01*
X97421117Y5903120D01*
X97362407Y5831722D01*
X97362224Y5831436D01*
X97362221Y5831432D01*
X97320532Y5766313D01*
X97313185Y5761193D01*
X97304370Y5762767D01*
X97300400Y5767031D01*
X97288476Y5788957D01*
X97288275Y5789327D01*
X97287908Y5789819D01*
X97287762Y5789988D01*
X97239517Y5845762D01*
X97239508Y5845772D01*
X97239384Y5845915D01*
X97089456Y5995843D01*
X97086029Y6004116D01*
X97089456Y6012389D01*
X97091581Y6014070D01*
X97092343Y6014540D01*
X97167065Y6064596D01*
X97247062Y6120496D01*
X97273005Y6138730D01*
X97337063Y6183753D01*
X97337155Y6183817D01*
X97441895Y6255949D01*
X97442056Y6256058D01*
X97556612Y6332171D01*
X97565399Y6333895D01*
X97572892Y6328810D01*
G37*
%TD.AperFunction*%
%TD*%
%TA.AperFunction,Conductor*%
%TO.N,thumbs_far*%
G36*
X92756037Y-9266685D02*
G01*
X92786812Y-9295314D01*
X92814050Y-9320653D01*
X92814236Y-9320798D01*
X92814243Y-9320804D01*
X92874019Y-9367395D01*
X92874024Y-9367398D01*
X92874262Y-9367584D01*
X92874523Y-9367747D01*
X92874525Y-9367748D01*
X92929890Y-9402239D01*
X92929897Y-9402243D01*
X92930175Y-9402416D01*
X92983550Y-9427777D01*
X92983836Y-9427878D01*
X92983844Y-9427881D01*
X93035931Y-9446215D01*
X93036153Y-9446293D01*
X93089745Y-9460592D01*
X93146085Y-9473299D01*
X93146089Y-9473302D01*
X93146089Y-9473300D01*
X93206797Y-9487012D01*
X93207156Y-9487100D01*
X93273781Y-9504375D01*
X93274362Y-9504541D01*
X93341254Y-9525627D01*
X93348114Y-9531383D01*
X93349434Y-9536557D01*
X93359183Y-10035256D01*
X93355918Y-10043595D01*
X93347256Y-10047183D01*
X92848557Y-10037434D01*
X92840353Y-10033846D01*
X92837627Y-10029254D01*
X92816541Y-9962362D01*
X92816375Y-9961781D01*
X92799100Y-9895156D01*
X92799012Y-9894797D01*
X92785300Y-9834089D01*
X92785301Y-9834089D01*
X92785299Y-9834085D01*
X92772623Y-9777883D01*
X92772592Y-9777745D01*
X92758293Y-9724153D01*
X92758215Y-9723931D01*
X92739881Y-9671844D01*
X92739878Y-9671836D01*
X92739777Y-9671550D01*
X92714416Y-9618175D01*
X92714243Y-9617897D01*
X92714239Y-9617890D01*
X92679748Y-9562525D01*
X92679747Y-9562523D01*
X92679584Y-9562262D01*
X92655516Y-9531383D01*
X92632804Y-9502243D01*
X92632798Y-9502236D01*
X92632653Y-9502050D01*
X92594085Y-9460592D01*
X92578685Y-9444037D01*
X92575559Y-9435646D01*
X92578978Y-9427795D01*
X92739795Y-9266978D01*
X92748068Y-9263551D01*
X92756037Y-9266685D01*
G37*
%TD.AperFunction*%
%TD*%
%TA.AperFunction,Conductor*%
%TO.N,thumbs_far*%
G36*
X91602684Y-6405762D02*
G01*
X91609443Y-6411635D01*
X91610673Y-6417034D01*
X91606925Y-6666643D01*
X91606873Y-6667580D01*
X91584726Y-6899327D01*
X91584659Y-6899879D01*
X91553953Y-7111099D01*
X91524485Y-7306728D01*
X91506104Y-7491629D01*
X91508617Y-7670938D01*
X91541831Y-7849790D01*
X91615553Y-8033322D01*
X91712319Y-8184162D01*
X91736635Y-8222065D01*
X91739590Y-8226672D01*
X91739887Y-8227008D01*
X91916463Y-8426731D01*
X91919376Y-8435199D01*
X91915971Y-8442754D01*
X91754835Y-8603890D01*
X91746562Y-8607317D01*
X91738722Y-8604301D01*
X91551420Y-8435199D01*
X91496282Y-8385419D01*
X91271726Y-8226298D01*
X91266303Y-8222455D01*
X91266299Y-8222452D01*
X91265999Y-8222240D01*
X91050951Y-8108075D01*
X90845966Y-8028787D01*
X90645872Y-7970240D01*
X90645795Y-7970220D01*
X90445636Y-7918332D01*
X90445324Y-7918246D01*
X90364215Y-7894808D01*
X90240085Y-7858939D01*
X90239248Y-7858662D01*
X90023804Y-7777892D01*
X90022648Y-7777387D01*
X89997063Y-7764503D01*
X89991703Y-7758955D01*
X89936574Y-7639370D01*
X89936337Y-7639009D01*
X89936334Y-7639003D01*
X89794156Y-7422145D01*
X89794154Y-7422142D01*
X89793919Y-7421784D01*
X89620923Y-7227958D01*
X89617971Y-7219505D01*
X89618419Y-7216895D01*
X90006553Y-5884951D01*
X90012158Y-5877967D01*
X90021496Y-5877128D01*
X91602684Y-6405762D01*
G37*
%TD.AperFunction*%
%TD*%
%TA.AperFunction,Conductor*%
%TO.N,RAW*%
G36*
X96758433Y38086231D02*
G01*
X97059208Y37773462D01*
X97062473Y37765123D01*
X97061182Y37760006D01*
X97034288Y37707647D01*
X97034088Y37707276D01*
X97015737Y37674807D01*
X97005004Y37655816D01*
X97004885Y37655612D01*
X96977717Y37609732D01*
X96977694Y37609693D01*
X96952798Y37566768D01*
X96930658Y37524371D01*
X96920421Y37500413D01*
X96911779Y37480189D01*
X96911776Y37480180D01*
X96911665Y37479921D01*
X96896211Y37430839D01*
X96884688Y37374545D01*
X96877487Y37308459D01*
X96877480Y37308235D01*
X96875359Y37241329D01*
X96871672Y37233169D01*
X96863665Y37230000D01*
X96636335Y37230000D01*
X96628062Y37233427D01*
X96624641Y37241329D01*
X96622519Y37308235D01*
X96622512Y37308459D01*
X96615311Y37374545D01*
X96603788Y37430839D01*
X96588334Y37479921D01*
X96588223Y37480180D01*
X96588220Y37480189D01*
X96579578Y37500413D01*
X96569341Y37524371D01*
X96547201Y37566768D01*
X96522305Y37609693D01*
X96522282Y37609732D01*
X96495114Y37655612D01*
X96494995Y37655816D01*
X96465922Y37707257D01*
X96465701Y37707668D01*
X96438818Y37760006D01*
X96438086Y37768931D01*
X96440792Y37773462D01*
X96741567Y38086231D01*
X96749771Y38089819D01*
X96758433Y38086231D01*
G37*
%TD.AperFunction*%
%TD*%
%TA.AperFunction,Conductor*%
%TO.N,RST*%
G36*
X88122075Y39126153D02*
G01*
X88125491Y39118393D01*
X88128428Y39051477D01*
X88128474Y39051174D01*
X88128475Y39051169D01*
X88133684Y39017241D01*
X88138480Y38985999D01*
X88154811Y38930855D01*
X88177073Y38883755D01*
X88177316Y38883394D01*
X88177319Y38883389D01*
X88189088Y38865916D01*
X88204920Y38842410D01*
X88205162Y38842133D01*
X88205165Y38842129D01*
X88237834Y38804721D01*
X88237841Y38804714D01*
X88238004Y38804527D01*
X88238185Y38804352D01*
X88242200Y38800471D01*
X88275978Y38767816D01*
X88276055Y38767748D01*
X88276062Y38767741D01*
X88318497Y38729988D01*
X88365115Y38688838D01*
X88365313Y38688658D01*
X88372171Y38682293D01*
X88409680Y38647477D01*
X88413412Y38639337D01*
X88412433Y38634199D01*
X88310773Y38402668D01*
X88211868Y38177412D01*
X88205404Y38171215D01*
X88196037Y38171595D01*
X87747527Y38389814D01*
X87741587Y38396515D01*
X87741044Y38401848D01*
X87751360Y38480958D01*
X87751481Y38481698D01*
X87766059Y38555982D01*
X87766209Y38556644D01*
X87782992Y38621874D01*
X87783118Y38622325D01*
X87801110Y38682227D01*
X87801147Y38682348D01*
X87803174Y38688838D01*
X87819317Y38740542D01*
X87836557Y38800471D01*
X87851797Y38865709D01*
X87862502Y38930855D01*
X87863954Y38939690D01*
X87863955Y38939701D01*
X87863986Y38939887D01*
X87868249Y38985619D01*
X87872055Y39026460D01*
X87872055Y39026466D01*
X87872071Y39026634D01*
X87874677Y39118213D01*
X87878338Y39126385D01*
X87886372Y39129580D01*
X88113802Y39129580D01*
X88122075Y39126153D01*
G37*
%TD.AperFunction*%
%TD*%
%TA.AperFunction,Conductor*%
%TO.N,RST*%
G36*
X88008433Y40266231D02*
G01*
X88399148Y39859935D01*
X88402413Y39851596D01*
X88401070Y39846379D01*
X88363190Y39774357D01*
X88362842Y39773740D01*
X88322048Y39706407D01*
X88321796Y39706011D01*
X88282611Y39646833D01*
X88282563Y39646760D01*
X88245747Y39592044D01*
X88245721Y39592002D01*
X88245709Y39591984D01*
X88212435Y39538629D01*
X88212315Y39538436D01*
X88183098Y39482307D01*
X88158927Y39420028D01*
X88140632Y39347970D01*
X88129046Y39262503D01*
X88129035Y39262218D01*
X88125444Y39171239D01*
X88121693Y39163107D01*
X88113753Y39160000D01*
X87886247Y39160000D01*
X87877974Y39163427D01*
X87874556Y39171238D01*
X87870964Y39262218D01*
X87870953Y39262503D01*
X87859367Y39347970D01*
X87841072Y39420028D01*
X87816901Y39482307D01*
X87787684Y39538436D01*
X87787564Y39538629D01*
X87754290Y39591984D01*
X87754278Y39592002D01*
X87754252Y39592044D01*
X87717436Y39646760D01*
X87717388Y39646833D01*
X87678203Y39706011D01*
X87677951Y39706407D01*
X87637157Y39773740D01*
X87636809Y39774357D01*
X87598929Y39846379D01*
X87598111Y39855296D01*
X87600850Y39859933D01*
X87991567Y40266231D01*
X87999771Y40269819D01*
X88008433Y40266231D01*
G37*
%TD.AperFunction*%
%TD*%
%TA.AperFunction,Conductor*%
%TO.N,pos*%
G36*
X102038162Y39794128D02*
G01*
X102130550Y39705283D01*
X102364952Y39479870D01*
X102491231Y39358433D01*
X102494819Y39350229D01*
X102491231Y39341567D01*
X102038160Y38905870D01*
X102029823Y38902606D01*
X102024573Y38903967D01*
X101942709Y38947363D01*
X101942032Y38947751D01*
X101866747Y38994416D01*
X101866288Y38994716D01*
X101800445Y39039932D01*
X101800320Y39040019D01*
X101739881Y39082685D01*
X101739878Y39082687D01*
X101739786Y39082752D01*
X101739683Y39082820D01*
X101680780Y39121702D01*
X101680774Y39121706D01*
X101680581Y39121833D01*
X101618613Y39156168D01*
X101618311Y39156293D01*
X101618307Y39156295D01*
X101590815Y39167683D01*
X101549726Y39184704D01*
X101498302Y39198650D01*
X101470115Y39206294D01*
X101470112Y39206295D01*
X101469764Y39206389D01*
X101374574Y39220172D01*
X101311396Y39222834D01*
X101271207Y39224528D01*
X101263086Y39228301D01*
X101260000Y39236218D01*
X101260000Y39463782D01*
X101263427Y39472055D01*
X101271207Y39475472D01*
X101305516Y39476918D01*
X101374574Y39479827D01*
X101469764Y39493610D01*
X101470112Y39493704D01*
X101470115Y39493705D01*
X101498302Y39501349D01*
X101549726Y39515295D01*
X101590815Y39532316D01*
X101618307Y39543704D01*
X101618311Y39543706D01*
X101618613Y39543831D01*
X101680581Y39578166D01*
X101680774Y39578293D01*
X101680780Y39578297D01*
X101739683Y39617179D01*
X101739786Y39617247D01*
X101739881Y39617314D01*
X101800320Y39659980D01*
X101800445Y39660067D01*
X101866288Y39705283D01*
X101866747Y39705583D01*
X101942032Y39752248D01*
X101942709Y39752636D01*
X101967738Y39765904D01*
X102024572Y39796032D01*
X102033487Y39796879D01*
X102038162Y39794128D01*
G37*
%TD.AperFunction*%
%TD*%
%TA.AperFunction,Conductor*%
%TO.N,pos*%
G36*
X93571124Y38526981D02*
G01*
X93574514Y38519641D01*
X93578506Y38469694D01*
X93592402Y38421225D01*
X93614350Y38382975D01*
X93643355Y38352921D01*
X93678423Y38329037D01*
X93718563Y38309299D01*
X93738758Y38301252D01*
X93762723Y38291703D01*
X93762742Y38291696D01*
X93762779Y38291681D01*
X93762825Y38291664D01*
X93810002Y38274189D01*
X93810213Y38274108D01*
X93859167Y38254830D01*
X93859766Y38254573D01*
X93886733Y38242074D01*
X93902241Y38234885D01*
X93908306Y38228297D01*
X93908936Y38222861D01*
X93856909Y37794051D01*
X93852510Y37786251D01*
X93843885Y37783845D01*
X93841859Y37784276D01*
X93587280Y37862474D01*
X93408011Y37917539D01*
X93401109Y37923244D01*
X93399752Y37928375D01*
X93397869Y37991716D01*
X93397868Y37991730D01*
X93397863Y37991902D01*
X93392060Y38053692D01*
X93383509Y38108258D01*
X93373126Y38158485D01*
X93361843Y38207191D01*
X93361856Y38207268D01*
X93361827Y38207261D01*
X93350569Y38257286D01*
X93350490Y38257667D01*
X93344014Y38291681D01*
X93340194Y38311744D01*
X93340101Y38312314D01*
X93331640Y38373411D01*
X93331567Y38374074D01*
X93325816Y38445268D01*
X93325782Y38445915D01*
X93323955Y38518413D01*
X93327172Y38526770D01*
X93335651Y38530408D01*
X93562851Y38530408D01*
X93571124Y38526981D01*
G37*
%TD.AperFunction*%
%TD*%
M02*
