%TF.GenerationSoftware,KiCad,Pcbnew,(6.0.7-1)-1*%
%TF.CreationDate,2022-08-21T00:28:12+10:00*%
%TF.ProjectId,buckyboard_v1,6275636b-7962-46f6-9172-645f76312e6b,v1.0.0*%
%TF.SameCoordinates,Original*%
%TF.FileFunction,Soldermask,Top*%
%TF.FilePolarity,Negative*%
%FSLAX46Y46*%
G04 Gerber Fmt 4.6, Leading zero omitted, Abs format (unit mm)*
G04 Created by KiCad (PCBNEW (6.0.7-1)-1) date 2022-08-21 00:28:12*
%MOMM*%
%LPD*%
G01*
G04 APERTURE LIST*
G04 Aperture macros list*
%AMRoundRect*
0 Rectangle with rounded corners*
0 $1 Rounding radius*
0 $2 $3 $4 $5 $6 $7 $8 $9 X,Y pos of 4 corners*
0 Add a 4 corners polygon primitive as box body*
4,1,4,$2,$3,$4,$5,$6,$7,$8,$9,$2,$3,0*
0 Add four circle primitives for the rounded corners*
1,1,$1+$1,$2,$3*
1,1,$1+$1,$4,$5*
1,1,$1+$1,$6,$7*
1,1,$1+$1,$8,$9*
0 Add four rect primitives between the rounded corners*
20,1,$1+$1,$2,$3,$4,$5,0*
20,1,$1+$1,$4,$5,$6,$7,0*
20,1,$1+$1,$6,$7,$8,$9,0*
20,1,$1+$1,$8,$9,$2,$3,0*%
%AMFreePoly0*
4,1,14,0.635355,0.435355,0.650000,0.400000,0.650000,0.200000,0.635355,0.164645,0.035355,-0.435355,0.000000,-0.450000,-0.035355,-0.435355,-0.635355,0.164645,-0.650000,0.200000,-0.650000,0.400000,-0.635355,0.435355,-0.600000,0.450000,0.600000,0.450000,0.635355,0.435355,0.635355,0.435355,$1*%
%AMFreePoly1*
4,1,16,0.635355,1.035355,0.650000,1.000000,0.650000,-0.250000,0.635355,-0.285355,0.600000,-0.300000,-0.600000,-0.300000,-0.635355,-0.285355,-0.650000,-0.250000,-0.650000,1.000000,-0.635355,1.035355,-0.600000,1.050000,-0.564645,1.035355,0.000000,0.470710,0.564645,1.035355,0.600000,1.050000,0.635355,1.035355,0.635355,1.035355,$1*%
G04 Aperture macros list end*
%ADD10C,0.250000*%
%ADD11C,0.100000*%
%ADD12C,1.100000*%
%ADD13C,3.100000*%
%ADD14C,1.801800*%
%ADD15C,3.529000*%
%ADD16RoundRect,0.050000X-1.300000X-1.300000X1.300000X-1.300000X1.300000X1.300000X-1.300000X1.300000X0*%
%ADD17RoundRect,0.050000X-0.450000X-0.850000X0.450000X-0.850000X0.450000X0.850000X-0.450000X0.850000X0*%
%ADD18RoundRect,0.050000X-1.408356X-1.181751X1.181751X-1.408356X1.408356X1.181751X-1.181751X1.408356X0*%
%ADD19C,1.700000*%
%ADD20FreePoly0,90.000000*%
%ADD21FreePoly0,270.000000*%
%ADD22RoundRect,0.050000X-0.800000X0.800000X-0.800000X-0.800000X0.800000X-0.800000X0.800000X0.800000X0*%
%ADD23FreePoly1,270.000000*%
%ADD24FreePoly1,90.000000*%
%ADD25RoundRect,0.050000X-0.500000X-0.400000X0.500000X-0.400000X0.500000X0.400000X-0.500000X0.400000X0*%
%ADD26C,1.000000*%
%ADD27RoundRect,0.050000X-0.350000X-0.750000X0.350000X-0.750000X0.350000X0.750000X-0.350000X0.750000X0*%
G04 APERTURE END LIST*
D10*
%TO.C,MCU1*%
X96887000Y28280000D02*
G75*
G03*
X96887000Y28280000I-125000J0D01*
G01*
X95363000Y28280000D02*
G75*
G03*
X95363000Y28280000I-125000J0D01*
G01*
X95363000Y15580000D02*
G75*
G03*
X95363000Y15580000I-125000J0D01*
G01*
X95363000Y20660000D02*
G75*
G03*
X95363000Y20660000I-125000J0D01*
G01*
X96887000Y15580000D02*
G75*
G03*
X96887000Y15580000I-125000J0D01*
G01*
X95363000Y30820000D02*
G75*
G03*
X95363000Y30820000I-125000J0D01*
G01*
X95363000Y18120000D02*
G75*
G03*
X95363000Y18120000I-125000J0D01*
G01*
X96887000Y25740000D02*
G75*
G03*
X96887000Y25740000I-125000J0D01*
G01*
X95363000Y13040000D02*
G75*
G03*
X95363000Y13040000I-125000J0D01*
G01*
X95363000Y5420000D02*
G75*
G03*
X95363000Y5420000I-125000J0D01*
G01*
X96887000Y5420000D02*
G75*
G03*
X96887000Y5420000I-125000J0D01*
G01*
X95363000Y10500000D02*
G75*
G03*
X95363000Y10500000I-125000J0D01*
G01*
X96887000Y2880000D02*
G75*
G03*
X96887000Y2880000I-125000J0D01*
G01*
X96887000Y30820000D02*
G75*
G03*
X96887000Y30820000I-125000J0D01*
G01*
X95363000Y7960000D02*
G75*
G03*
X95363000Y7960000I-125000J0D01*
G01*
X95363000Y25740000D02*
G75*
G03*
X95363000Y25740000I-125000J0D01*
G01*
X96887000Y18120000D02*
G75*
G03*
X96887000Y18120000I-125000J0D01*
G01*
X96887000Y23200000D02*
G75*
G03*
X96887000Y23200000I-125000J0D01*
G01*
X95363000Y2880000D02*
G75*
G03*
X95363000Y2880000I-125000J0D01*
G01*
X96887000Y13040000D02*
G75*
G03*
X96887000Y13040000I-125000J0D01*
G01*
X96887000Y20660000D02*
G75*
G03*
X96887000Y20660000I-125000J0D01*
G01*
X95363000Y23200000D02*
G75*
G03*
X95363000Y23200000I-125000J0D01*
G01*
X96887000Y10500000D02*
G75*
G03*
X96887000Y10500000I-125000J0D01*
G01*
X96887000Y7960000D02*
G75*
G03*
X96887000Y7960000I-125000J0D01*
G01*
G36*
X90920000Y7452000D02*
G01*
X89904000Y7452000D01*
X89904000Y8468000D01*
X90920000Y8468000D01*
X90920000Y7452000D01*
G37*
D11*
X90920000Y7452000D02*
X89904000Y7452000D01*
X89904000Y8468000D01*
X90920000Y8468000D01*
X90920000Y7452000D01*
G36*
X90920000Y30312000D02*
G01*
X89904000Y30312000D01*
X89904000Y31328000D01*
X90920000Y31328000D01*
X90920000Y30312000D01*
G37*
X90920000Y30312000D02*
X89904000Y30312000D01*
X89904000Y31328000D01*
X90920000Y31328000D01*
X90920000Y30312000D01*
G36*
X102096000Y27772000D02*
G01*
X101080000Y27772000D01*
X101080000Y28788000D01*
X102096000Y28788000D01*
X102096000Y27772000D01*
G37*
X102096000Y27772000D02*
X101080000Y27772000D01*
X101080000Y28788000D01*
X102096000Y28788000D01*
X102096000Y27772000D01*
G36*
X102096000Y15072000D02*
G01*
X101080000Y15072000D01*
X101080000Y16088000D01*
X102096000Y16088000D01*
X102096000Y15072000D01*
G37*
X102096000Y15072000D02*
X101080000Y15072000D01*
X101080000Y16088000D01*
X102096000Y16088000D01*
X102096000Y15072000D01*
G36*
X90920000Y17612000D02*
G01*
X89904000Y17612000D01*
X89904000Y18628000D01*
X90920000Y18628000D01*
X90920000Y17612000D01*
G37*
X90920000Y17612000D02*
X89904000Y17612000D01*
X89904000Y18628000D01*
X90920000Y18628000D01*
X90920000Y17612000D01*
G36*
X102096000Y17612000D02*
G01*
X101080000Y17612000D01*
X101080000Y18628000D01*
X102096000Y18628000D01*
X102096000Y17612000D01*
G37*
X102096000Y17612000D02*
X101080000Y17612000D01*
X101080000Y18628000D01*
X102096000Y18628000D01*
X102096000Y17612000D01*
G36*
X102096000Y12532000D02*
G01*
X101080000Y12532000D01*
X101080000Y13548000D01*
X102096000Y13548000D01*
X102096000Y12532000D01*
G37*
X102096000Y12532000D02*
X101080000Y12532000D01*
X101080000Y13548000D01*
X102096000Y13548000D01*
X102096000Y12532000D01*
G36*
X90920000Y4912000D02*
G01*
X89904000Y4912000D01*
X89904000Y5928000D01*
X90920000Y5928000D01*
X90920000Y4912000D01*
G37*
X90920000Y4912000D02*
X89904000Y4912000D01*
X89904000Y5928000D01*
X90920000Y5928000D01*
X90920000Y4912000D01*
G36*
X90920000Y9992000D02*
G01*
X89904000Y9992000D01*
X89904000Y11008000D01*
X90920000Y11008000D01*
X90920000Y9992000D01*
G37*
X90920000Y9992000D02*
X89904000Y9992000D01*
X89904000Y11008000D01*
X90920000Y11008000D01*
X90920000Y9992000D01*
G36*
X90920000Y25232000D02*
G01*
X89904000Y25232000D01*
X89904000Y26248000D01*
X90920000Y26248000D01*
X90920000Y25232000D01*
G37*
X90920000Y25232000D02*
X89904000Y25232000D01*
X89904000Y26248000D01*
X90920000Y26248000D01*
X90920000Y25232000D01*
G36*
X102096000Y30312000D02*
G01*
X101080000Y30312000D01*
X101080000Y31328000D01*
X102096000Y31328000D01*
X102096000Y30312000D01*
G37*
X102096000Y30312000D02*
X101080000Y30312000D01*
X101080000Y31328000D01*
X102096000Y31328000D01*
X102096000Y30312000D01*
G36*
X90920000Y22692000D02*
G01*
X89904000Y22692000D01*
X89904000Y23708000D01*
X90920000Y23708000D01*
X90920000Y22692000D01*
G37*
X90920000Y22692000D02*
X89904000Y22692000D01*
X89904000Y23708000D01*
X90920000Y23708000D01*
X90920000Y22692000D01*
G36*
X102096000Y4912000D02*
G01*
X101080000Y4912000D01*
X101080000Y5928000D01*
X102096000Y5928000D01*
X102096000Y4912000D01*
G37*
X102096000Y4912000D02*
X101080000Y4912000D01*
X101080000Y5928000D01*
X102096000Y5928000D01*
X102096000Y4912000D01*
G36*
X90920000Y12532000D02*
G01*
X89904000Y12532000D01*
X89904000Y13548000D01*
X90920000Y13548000D01*
X90920000Y12532000D01*
G37*
X90920000Y12532000D02*
X89904000Y12532000D01*
X89904000Y13548000D01*
X90920000Y13548000D01*
X90920000Y12532000D01*
G36*
X102096000Y25232000D02*
G01*
X101080000Y25232000D01*
X101080000Y26248000D01*
X102096000Y26248000D01*
X102096000Y25232000D01*
G37*
X102096000Y25232000D02*
X101080000Y25232000D01*
X101080000Y26248000D01*
X102096000Y26248000D01*
X102096000Y25232000D01*
G36*
X102096000Y7452000D02*
G01*
X101080000Y7452000D01*
X101080000Y8468000D01*
X102096000Y8468000D01*
X102096000Y7452000D01*
G37*
X102096000Y7452000D02*
X101080000Y7452000D01*
X101080000Y8468000D01*
X102096000Y8468000D01*
X102096000Y7452000D01*
G36*
X90920000Y2372000D02*
G01*
X89904000Y2372000D01*
X89904000Y3388000D01*
X90920000Y3388000D01*
X90920000Y2372000D01*
G37*
X90920000Y2372000D02*
X89904000Y2372000D01*
X89904000Y3388000D01*
X90920000Y3388000D01*
X90920000Y2372000D01*
G36*
X102096000Y20152000D02*
G01*
X101080000Y20152000D01*
X101080000Y21168000D01*
X102096000Y21168000D01*
X102096000Y20152000D01*
G37*
X102096000Y20152000D02*
X101080000Y20152000D01*
X101080000Y21168000D01*
X102096000Y21168000D01*
X102096000Y20152000D01*
G36*
X90920000Y27772000D02*
G01*
X89904000Y27772000D01*
X89904000Y28788000D01*
X90920000Y28788000D01*
X90920000Y27772000D01*
G37*
X90920000Y27772000D02*
X89904000Y27772000D01*
X89904000Y28788000D01*
X90920000Y28788000D01*
X90920000Y27772000D01*
G36*
X90920000Y20152000D02*
G01*
X89904000Y20152000D01*
X89904000Y21168000D01*
X90920000Y21168000D01*
X90920000Y20152000D01*
G37*
X90920000Y20152000D02*
X89904000Y20152000D01*
X89904000Y21168000D01*
X90920000Y21168000D01*
X90920000Y20152000D01*
G36*
X102096000Y9992000D02*
G01*
X101080000Y9992000D01*
X101080000Y11008000D01*
X102096000Y11008000D01*
X102096000Y9992000D01*
G37*
X102096000Y9992000D02*
X101080000Y9992000D01*
X101080000Y11008000D01*
X102096000Y11008000D01*
X102096000Y9992000D01*
G36*
X102096000Y2372000D02*
G01*
X101080000Y2372000D01*
X101080000Y3388000D01*
X102096000Y3388000D01*
X102096000Y2372000D01*
G37*
X102096000Y2372000D02*
X101080000Y2372000D01*
X101080000Y3388000D01*
X102096000Y3388000D01*
X102096000Y2372000D01*
G36*
X102096000Y22692000D02*
G01*
X101080000Y22692000D01*
X101080000Y23708000D01*
X102096000Y23708000D01*
X102096000Y22692000D01*
G37*
X102096000Y22692000D02*
X101080000Y22692000D01*
X101080000Y23708000D01*
X102096000Y23708000D01*
X102096000Y22692000D01*
G36*
X90920000Y15072000D02*
G01*
X89904000Y15072000D01*
X89904000Y16088000D01*
X90920000Y16088000D01*
X90920000Y15072000D01*
G37*
X90920000Y15072000D02*
X89904000Y15072000D01*
X89904000Y16088000D01*
X90920000Y16088000D01*
X90920000Y15072000D01*
%TD*%
D12*
%TO.C,*%
X102250000Y39350000D03*
X103750000Y39350000D03*
%TD*%
D13*
%TO.C,S1*%
X5000000Y3750000D03*
D14*
X-5500000Y0D03*
D13*
X0Y5950000D03*
D14*
X5500000Y0D03*
D13*
X0Y5950000D03*
X-5000000Y3750000D03*
D15*
X0Y0D03*
D16*
X3275000Y5950000D03*
X-8275000Y3750000D03*
%TD*%
D13*
%TO.C,S2*%
X0Y22950000D03*
D14*
X5500000Y17000000D03*
D13*
X-5000000Y20750000D03*
X0Y22950000D03*
D14*
X-5500000Y17000000D03*
D15*
X0Y17000000D03*
D13*
X5000000Y20750000D03*
D16*
X3275000Y22950000D03*
X-8275000Y20750000D03*
%TD*%
D13*
%TO.C,S15*%
X76000000Y49300000D03*
D15*
X76000000Y43350000D03*
D14*
X70500000Y43350000D03*
D13*
X71000000Y47100000D03*
X76000000Y49300000D03*
X81000000Y47100000D03*
D14*
X81500000Y43350000D03*
D16*
X79275000Y49300000D03*
X67725000Y47100000D03*
%TD*%
D13*
%TO.C,S5*%
X14000000Y32650000D03*
X19000000Y34850000D03*
D14*
X24500000Y28900000D03*
D13*
X24000000Y32650000D03*
D15*
X19000000Y28900000D03*
D14*
X13500000Y28900000D03*
D13*
X19000000Y34850000D03*
D16*
X22275000Y34850000D03*
X10725000Y32650000D03*
%TD*%
D13*
%TO.C,S12*%
X52000000Y49650000D03*
X57000000Y51850000D03*
X62000000Y49650000D03*
D14*
X51500000Y45900000D03*
X62500000Y45900000D03*
D13*
X57000000Y51850000D03*
D15*
X57000000Y45900000D03*
D16*
X60275000Y51850000D03*
X48725000Y49650000D03*
%TD*%
D14*
%TO.C,S14*%
X81500000Y26350000D03*
D13*
X71000000Y30100000D03*
X76000000Y32300000D03*
X81000000Y30100000D03*
D15*
X76000000Y26350000D03*
D13*
X76000000Y32300000D03*
D14*
X70500000Y26350000D03*
D16*
X79275000Y32300000D03*
X67725000Y30100000D03*
%TD*%
D13*
%TO.C,S11*%
X57000000Y34850000D03*
X52000000Y32650000D03*
D14*
X51500000Y28900000D03*
D13*
X62000000Y32650000D03*
D14*
X62500000Y28900000D03*
D13*
X57000000Y34850000D03*
D15*
X57000000Y28900000D03*
D16*
X60275000Y34850000D03*
X48725000Y32650000D03*
%TD*%
D13*
%TO.C,S6*%
X19000000Y51850000D03*
D14*
X24500000Y45900000D03*
D13*
X19000000Y51850000D03*
X14000000Y49650000D03*
D15*
X19000000Y45900000D03*
D14*
X13500000Y45900000D03*
D13*
X24000000Y49650000D03*
D16*
X22275000Y51850000D03*
X10725000Y49650000D03*
%TD*%
D17*
%TO.C,*%
X88000000Y36650000D03*
X88000000Y40050000D03*
%TD*%
D13*
%TO.C,S7*%
X33000000Y19900000D03*
X43000000Y19900000D03*
D15*
X38000000Y16150000D03*
D13*
X38000000Y22100000D03*
D14*
X32500000Y16150000D03*
D13*
X38000000Y22100000D03*
D14*
X43500000Y16150000D03*
D16*
X41275000Y22100000D03*
X29725000Y19900000D03*
%TD*%
D13*
%TO.C,S17*%
X74646276Y-5078601D03*
D14*
X79606770Y-11485316D03*
D13*
X79435507Y-7706008D03*
D15*
X74127699Y-11005959D03*
D13*
X74646276Y-5078601D03*
D14*
X68648628Y-10526602D03*
D13*
X69473560Y-6834450D03*
D18*
X77908813Y-5364036D03*
X66211022Y-6549015D03*
%TD*%
D13*
%TO.C,S18*%
X88401260Y-8490409D03*
X98363207Y-9361967D03*
X93573976Y-6734560D03*
D14*
X87576328Y-12182561D03*
D13*
X93573976Y-6734560D03*
D14*
X98534470Y-13141275D03*
D15*
X93055399Y-12661918D03*
D18*
X96836513Y-7019995D03*
X85138722Y-8204974D03*
%TD*%
D19*
%TO.C,MCU1*%
X103620000Y13040000D03*
X88380000Y18120000D03*
X103620000Y18120000D03*
D20*
X90158000Y23200000D03*
D21*
X101842000Y15580000D03*
D22*
X88380000Y30820000D03*
D19*
X103620000Y28280000D03*
X103620000Y2880000D03*
X103620000Y5420000D03*
D20*
X90158000Y30820000D03*
D19*
X88380000Y13040000D03*
X88380000Y10500000D03*
X103620000Y15580000D03*
D20*
X90158000Y20660000D03*
D19*
X103620000Y25740000D03*
X103620000Y7960000D03*
D21*
X101842000Y18120000D03*
D19*
X88380000Y30820000D03*
X88380000Y5420000D03*
D20*
X90158000Y13040000D03*
D21*
X101842000Y7960000D03*
D20*
X90158000Y25740000D03*
D21*
X101842000Y28280000D03*
D19*
X88380000Y25740000D03*
X103620000Y20660000D03*
D20*
X90158000Y10500000D03*
D19*
X88380000Y7960000D03*
D21*
X101842000Y2880000D03*
D19*
X88380000Y2880000D03*
D20*
X90158000Y7960000D03*
D19*
X103620000Y30820000D03*
X88380000Y20660000D03*
X103620000Y23200000D03*
X88380000Y23200000D03*
D20*
X90158000Y18120000D03*
X90158000Y5420000D03*
D21*
X101842000Y20660000D03*
D19*
X88380000Y28280000D03*
D21*
X101842000Y25740000D03*
D20*
X90158000Y28280000D03*
D21*
X101842000Y10500000D03*
X101842000Y13040000D03*
D20*
X90158000Y15580000D03*
D19*
X88380000Y15580000D03*
D21*
X101842000Y5420000D03*
X101842000Y30820000D03*
X101842000Y23200000D03*
D19*
X103620000Y10500000D03*
D20*
X90158000Y2880000D03*
D23*
X100826000Y30820000D03*
X100826000Y28280000D03*
X100826000Y25740000D03*
X100826000Y23200000D03*
X100826000Y20660000D03*
X100826000Y18120000D03*
X100826000Y15580000D03*
X100826000Y13040000D03*
X100826000Y10500000D03*
X100826000Y7960000D03*
X100826000Y5420000D03*
X100826000Y2880000D03*
D24*
X91174000Y2880000D03*
X91174000Y5420000D03*
X91174000Y7960000D03*
X91174000Y10500000D03*
X91174000Y13040000D03*
X91174000Y15580000D03*
X91174000Y18120000D03*
X91174000Y20660000D03*
X91174000Y23200000D03*
X91174000Y25740000D03*
X91174000Y28280000D03*
X91174000Y30820000D03*
%TD*%
D25*
%TO.C,*%
X92350000Y38570000D03*
D26*
X94500000Y39680000D03*
D25*
X99650000Y40780000D03*
X99650000Y38570000D03*
D26*
X97500000Y39680000D03*
X94500000Y39680000D03*
X97500000Y39680000D03*
D25*
X92350000Y40780000D03*
D27*
X98250000Y37920000D03*
X95250000Y37920000D03*
X93750000Y37920000D03*
%TD*%
D13*
%TO.C,S4*%
X19000000Y17850000D03*
D15*
X19000000Y11900000D03*
D13*
X24000000Y15650000D03*
D14*
X13500000Y11900000D03*
D13*
X14000000Y15650000D03*
D14*
X24500000Y11900000D03*
D13*
X19000000Y17850000D03*
D16*
X22275000Y17850000D03*
X10725000Y15650000D03*
%TD*%
D13*
%TO.C,S3*%
X0Y39950000D03*
D14*
X5500000Y34000000D03*
D13*
X-5000000Y37750000D03*
D14*
X-5500000Y34000000D03*
D13*
X0Y39950000D03*
D15*
X0Y34000000D03*
D13*
X5000000Y37750000D03*
D16*
X3275000Y39950000D03*
X-8275000Y37750000D03*
%TD*%
D13*
%TO.C,S8*%
X38000000Y39100000D03*
X33000000Y36900000D03*
D14*
X43500000Y33150000D03*
X32500000Y33150000D03*
D13*
X38000000Y39100000D03*
X43000000Y36900000D03*
D15*
X38000000Y33150000D03*
D16*
X41275000Y39100000D03*
X29725000Y36900000D03*
%TD*%
D14*
%TO.C,S13*%
X81500000Y9350000D03*
X70500000Y9350000D03*
D13*
X81000000Y13100000D03*
X76000000Y15300000D03*
D15*
X76000000Y9350000D03*
D13*
X71000000Y13100000D03*
X76000000Y15300000D03*
D16*
X79275000Y15300000D03*
X67725000Y13100000D03*
%TD*%
D14*
%TO.C,S9*%
X32500000Y50150000D03*
X43500000Y50150000D03*
D13*
X38000000Y56100000D03*
X33000000Y53900000D03*
D15*
X38000000Y50150000D03*
D13*
X38000000Y56100000D03*
X43000000Y53900000D03*
D16*
X41275000Y56100000D03*
X29725000Y53900000D03*
%TD*%
D13*
%TO.C,S10*%
X62000000Y15650000D03*
X57000000Y17850000D03*
D14*
X62500000Y11900000D03*
D13*
X52000000Y15650000D03*
X57000000Y17850000D03*
D15*
X57000000Y11900000D03*
D14*
X51500000Y11900000D03*
D16*
X60275000Y17850000D03*
X48725000Y15650000D03*
%TD*%
D13*
%TO.C,S16*%
X60507808Y-6050049D03*
X50545861Y-5178491D03*
X55718577Y-3422642D03*
D14*
X60679071Y-9829357D03*
D13*
X55718577Y-3422642D03*
D15*
X55200000Y-9350000D03*
D14*
X49720929Y-8870643D03*
D18*
X58981114Y-3708077D03*
X47283323Y-4893056D03*
%TD*%
M02*
