%TF.GenerationSoftware,KiCad,Pcbnew,(6.0.7-1)-1*%
%TF.CreationDate,2022-08-21T00:28:12+10:00*%
%TF.ProjectId,buckyboard_v1,6275636b-7962-46f6-9172-645f76312e6b,v1.0.0*%
%TF.SameCoordinates,Original*%
%TF.FileFunction,Copper,L1,Top*%
%TF.FilePolarity,Positive*%
%FSLAX46Y46*%
G04 Gerber Fmt 4.6, Leading zero omitted, Abs format (unit mm)*
G04 Created by KiCad (PCBNEW (6.0.7-1)-1) date 2022-08-21 00:28:12*
%MOMM*%
%LPD*%
G01*
G04 APERTURE LIST*
G04 Aperture macros list*
%AMRotRect*
0 Rectangle, with rotation*
0 The origin of the aperture is its center*
0 $1 length*
0 $2 width*
0 $3 Rotation angle, in degrees counterclockwise*
0 Add horizontal line*
21,1,$1,$2,0,0,$3*%
%AMFreePoly0*
4,1,6,0.600000,0.200000,0.000000,-0.400000,-0.600000,0.200000,-0.600000,0.400000,0.600000,0.400000,0.600000,0.200000,0.600000,0.200000,$1*%
%AMFreePoly1*
4,1,5,0.125000,-0.500000,-0.125000,-0.500000,-0.125000,0.500000,0.125000,0.500000,0.125000,-0.500000,0.125000,-0.500000,$1*%
%AMFreePoly2*
4,1,49,0.088388,4.152388,0.854389,3.386388,0.867708,3.368551,0.871189,3.365530,0.871982,3.362827,0.875852,3.357644,0.882333,3.327543,0.891000,3.298000,0.891000,0.766000,0.887805,0.743969,0.888131,0.739371,0.886780,0.736898,0.885852,0.730498,0.869154,0.704638,0.854389,0.677612,0.088388,-0.088388,0.064607,-0.106146,0.062500,-0.108253,0.061385,-0.108552,0.059644,-0.109852,
0.043810,-0.113261,0.000000,-0.125000,-0.004774,-0.123721,-0.009154,-0.124664,-0.028953,-0.117242,-0.062500,-0.108253,-0.068237,-0.102516,-0.075052,-0.099961,-0.087614,-0.083139,-0.108253,-0.062500,-0.111178,-0.051584,-0.117161,-0.043572,-0.118539,-0.024114,-0.125000,0.000000,-0.121239,0.014035,-0.122131,0.026629,-0.113759,0.041953,-0.108253,0.062500,-0.095642,0.075111,-0.088388,0.088388,
0.641000,0.817777,0.641000,3.246223,-0.088388,3.975612,-0.109852,4.004356,-0.124664,4.073154,-0.099961,4.139052,-0.043572,4.181161,0.026629,4.186131,0.088388,4.152388,0.088388,4.152388,$1*%
%AMFreePoly3*
4,1,6,0.600000,-0.250000,-0.600000,-0.250000,-0.600000,1.000000,0.000000,0.400000,0.600000,1.000000,0.600000,-0.250000,0.600000,-0.250000,$1*%
%AMFreePoly4*
4,1,49,0.088388,4.152388,0.850389,3.390388,0.863708,3.372551,0.867189,3.369530,0.867982,3.366827,0.871852,3.361644,0.878333,3.331543,0.887000,3.302000,0.887000,0.762000,0.883805,0.739969,0.884131,0.735371,0.882780,0.732898,0.881852,0.726498,0.865154,0.700638,0.850389,0.673612,0.088388,-0.088388,0.064607,-0.106146,0.062500,-0.108253,0.061385,-0.108552,0.059644,-0.109852,
0.043810,-0.113261,0.000000,-0.125000,-0.004774,-0.123721,-0.009154,-0.124664,-0.028953,-0.117242,-0.062500,-0.108253,-0.068237,-0.102516,-0.075052,-0.099961,-0.087614,-0.083139,-0.108253,-0.062500,-0.111178,-0.051584,-0.117161,-0.043572,-0.118539,-0.024114,-0.125000,0.000000,-0.121239,0.014035,-0.122131,0.026629,-0.113759,0.041953,-0.108253,0.062500,-0.095642,0.075111,-0.088388,0.088388,
0.637000,0.813777,0.637000,3.250223,-0.088388,3.975612,-0.109852,4.004356,-0.124664,4.073154,-0.099961,4.139052,-0.043572,4.181161,0.026629,4.186131,0.088388,4.152388,0.088388,4.152388,$1*%
G04 Aperture macros list end*
%TA.AperFunction,ComponentPad*%
%ADD10C,1.000000*%
%TD*%
%TA.AperFunction,SMDPad,CuDef*%
%ADD11R,2.600000X2.600000*%
%TD*%
%TA.AperFunction,SMDPad,CuDef*%
%ADD12R,0.900000X1.700000*%
%TD*%
%TA.AperFunction,SMDPad,CuDef*%
%ADD13RotRect,2.600000X2.600000X355.000000*%
%TD*%
%TA.AperFunction,ComponentPad*%
%ADD14C,1.600000*%
%TD*%
%TA.AperFunction,SMDPad,CuDef*%
%ADD15FreePoly0,90.000000*%
%TD*%
%TA.AperFunction,SMDPad,CuDef*%
%ADD16FreePoly0,270.000000*%
%TD*%
%TA.AperFunction,ComponentPad*%
%ADD17R,1.600000X1.600000*%
%TD*%
%TA.AperFunction,SMDPad,CuDef*%
%ADD18FreePoly1,90.000000*%
%TD*%
%TA.AperFunction,SMDPad,CuDef*%
%ADD19FreePoly1,270.000000*%
%TD*%
%TA.AperFunction,SMDPad,CuDef*%
%ADD20FreePoly2,270.000000*%
%TD*%
%TA.AperFunction,ComponentPad*%
%ADD21C,0.800000*%
%TD*%
%TA.AperFunction,SMDPad,CuDef*%
%ADD22FreePoly3,270.000000*%
%TD*%
%TA.AperFunction,SMDPad,CuDef*%
%ADD23FreePoly4,90.000000*%
%TD*%
%TA.AperFunction,SMDPad,CuDef*%
%ADD24FreePoly3,90.000000*%
%TD*%
%TA.AperFunction,SMDPad,CuDef*%
%ADD25R,1.000000X0.800000*%
%TD*%
%TA.AperFunction,SMDPad,CuDef*%
%ADD26R,0.700000X1.500000*%
%TD*%
%TA.AperFunction,ViaPad*%
%ADD27C,0.800000*%
%TD*%
%TA.AperFunction,Conductor*%
%ADD28C,0.250000*%
%TD*%
G04 APERTURE END LIST*
D10*
%TO.P,,1*%
%TO.N,pos*%
X102250000Y39350000D03*
%TO.P,,2*%
%TO.N,GND*%
X103750000Y39350000D03*
%TD*%
D11*
%TO.P,S1,1*%
%TO.N,matrix_pinky_bottom*%
X3275000Y5950000D03*
%TO.P,S1,2*%
%TO.N,GND*%
X-8275000Y3750000D03*
%TD*%
%TO.P,S2,1*%
%TO.N,matrix_pinky_home*%
X3275000Y22950000D03*
%TO.P,S2,2*%
%TO.N,GND*%
X-8275000Y20750000D03*
%TD*%
%TO.P,S15,1*%
%TO.N,matrix_inner_top*%
X79275000Y49300000D03*
%TO.P,S15,2*%
%TO.N,GND*%
X67725000Y47100000D03*
%TD*%
%TO.P,S5,1*%
%TO.N,matrix_ring_home*%
X22275000Y34850000D03*
%TO.P,S5,2*%
%TO.N,GND*%
X10725000Y32650000D03*
%TD*%
%TO.P,S12,1*%
%TO.N,matrix_index_top*%
X60275000Y51850000D03*
%TO.P,S12,2*%
%TO.N,GND*%
X48725000Y49650000D03*
%TD*%
%TO.P,S14,1*%
%TO.N,matrix_inner_home*%
X79275000Y32300000D03*
%TO.P,S14,2*%
%TO.N,GND*%
X67725000Y30100000D03*
%TD*%
%TO.P,S11,1*%
%TO.N,matrix_index_home*%
X60275000Y34850000D03*
%TO.P,S11,2*%
%TO.N,GND*%
X48725000Y32650000D03*
%TD*%
%TO.P,S6,1*%
%TO.N,matrix_ring_top*%
X22275000Y51850000D03*
%TO.P,S6,2*%
%TO.N,GND*%
X10725000Y49650000D03*
%TD*%
D12*
%TO.P,,1*%
%TO.N,RST*%
X88000000Y36650000D03*
%TO.P,,2*%
%TO.N,GND*%
X88000000Y40050000D03*
%TD*%
D11*
%TO.P,S7,1*%
%TO.N,matrix_middle_bottom*%
X41275000Y22100000D03*
%TO.P,S7,2*%
%TO.N,GND*%
X29725000Y19900000D03*
%TD*%
D13*
%TO.P,S17,1*%
%TO.N,thumbs_home*%
X77908813Y-5364036D03*
%TO.P,S17,2*%
%TO.N,GND*%
X66211022Y-6549015D03*
%TD*%
%TO.P,S18,1*%
%TO.N,thumbs_far*%
X96836513Y-7019995D03*
%TO.P,S18,2*%
%TO.N,GND*%
X85138722Y-8204974D03*
%TD*%
D14*
%TO.P,MCU1,*%
%TO.N,*%
X103620000Y13040000D03*
X88380000Y18120000D03*
X103620000Y18120000D03*
D15*
X90158000Y23200000D03*
D16*
X101842000Y15580000D03*
D17*
X88380000Y30820000D03*
D14*
X103620000Y28280000D03*
D18*
X89650000Y30820000D03*
D19*
X102350000Y23200000D03*
X102350000Y25740000D03*
D18*
X89650000Y13040000D03*
X89650000Y7960000D03*
D14*
X103620000Y2880000D03*
D18*
X89650000Y15580000D03*
D19*
X102350000Y7960000D03*
D14*
X103620000Y5420000D03*
D15*
X90158000Y30820000D03*
D14*
X88380000Y13040000D03*
D18*
X89650000Y23200000D03*
D14*
X88380000Y10500000D03*
D18*
X89650000Y25740000D03*
D19*
X102350000Y2880000D03*
D14*
X103620000Y15580000D03*
D19*
X102350000Y13040000D03*
D15*
X90158000Y20660000D03*
D14*
X103620000Y25740000D03*
X103620000Y7960000D03*
D16*
X101842000Y18120000D03*
D14*
X88380000Y30820000D03*
D19*
X102350000Y5420000D03*
D14*
X88380000Y5420000D03*
D15*
X90158000Y13040000D03*
D16*
X101842000Y7960000D03*
D19*
X102350000Y30820000D03*
D15*
X90158000Y25740000D03*
D18*
X89650000Y20660000D03*
D16*
X101842000Y28280000D03*
D14*
X88380000Y25740000D03*
X103620000Y20660000D03*
D15*
X90158000Y10500000D03*
D14*
X88380000Y7960000D03*
D18*
X89650000Y10500000D03*
D16*
X101842000Y2880000D03*
D14*
X88380000Y2880000D03*
D15*
X90158000Y7960000D03*
D14*
X103620000Y30820000D03*
X88380000Y20660000D03*
D18*
X89650000Y5420000D03*
X89650000Y18120000D03*
D14*
X103620000Y23200000D03*
X88380000Y23200000D03*
D15*
X90158000Y18120000D03*
D19*
X102350000Y20660000D03*
X102350000Y28280000D03*
D15*
X90158000Y5420000D03*
D16*
X101842000Y20660000D03*
D19*
X102350000Y15580000D03*
D14*
X88380000Y28280000D03*
D16*
X101842000Y25740000D03*
D15*
X90158000Y28280000D03*
D18*
X89650000Y28280000D03*
D16*
X101842000Y10500000D03*
X101842000Y13040000D03*
D15*
X90158000Y15580000D03*
D19*
X102350000Y10500000D03*
D14*
X88380000Y15580000D03*
D16*
X101842000Y5420000D03*
X101842000Y30820000D03*
X101842000Y23200000D03*
D18*
X89650000Y2880000D03*
D19*
X102350000Y18120000D03*
D14*
X103620000Y10500000D03*
D15*
X90158000Y2880000D03*
D20*
%TO.P,MCU1,1*%
%TO.N,RAW*%
X96762000Y30820000D03*
D21*
X96762000Y30820000D03*
D22*
X100826000Y30820000D03*
D20*
%TO.P,MCU1,2*%
%TO.N,GND*%
X96762000Y28280000D03*
D21*
X96762000Y28280000D03*
D22*
X100826000Y28280000D03*
D21*
%TO.P,MCU1,3*%
%TO.N,RST*%
X96762000Y25740000D03*
D22*
X100826000Y25740000D03*
D20*
X96762000Y25740000D03*
D22*
%TO.P,MCU1,4*%
%TO.N,VCC*%
X100826000Y23200000D03*
D20*
X96762000Y23200000D03*
D21*
X96762000Y23200000D03*
%TO.P,MCU1,5*%
%TO.N,matrix_ring_top*%
X96762000Y20660000D03*
D20*
X96762000Y20660000D03*
D22*
X100826000Y20660000D03*
%TO.P,MCU1,6*%
%TO.N,matrix_pinky_home*%
X100826000Y18120000D03*
D20*
X96762000Y18120000D03*
D21*
X96762000Y18120000D03*
%TO.P,MCU1,7*%
%TO.N,matrix_middle_home*%
X96762000Y15580000D03*
D20*
X96762000Y15580000D03*
D22*
X100826000Y15580000D03*
D20*
%TO.P,MCU1,8*%
%TO.N,matrix_inner_home*%
X96762000Y13040000D03*
D22*
X100826000Y13040000D03*
D21*
X96762000Y13040000D03*
D22*
%TO.P,MCU1,9*%
%TO.N,matrix_ring_bottom*%
X100826000Y10500000D03*
D21*
X96762000Y10500000D03*
D20*
X96762000Y10500000D03*
%TO.P,MCU1,10*%
%TO.N,matrix_index_bottom*%
X96762000Y7960000D03*
D22*
X100826000Y7960000D03*
D21*
X96762000Y7960000D03*
D20*
%TO.P,MCU1,11*%
%TO.N,thumbs_home*%
X96762000Y5420000D03*
D21*
X96762000Y5420000D03*
D22*
X100826000Y5420000D03*
%TO.P,MCU1,12*%
%TO.N,thumbs_far*%
X100826000Y2880000D03*
D21*
X96762000Y2880000D03*
D20*
X96762000Y2880000D03*
D23*
%TO.P,MCU1,13*%
%TO.N,thumbs_near*%
X95238000Y2880000D03*
D21*
X95238000Y2880000D03*
D24*
X91174000Y2880000D03*
%TO.P,MCU1,14*%
%TO.N,matrix_inner_bottom*%
X91174000Y5420000D03*
D23*
X95238000Y5420000D03*
D21*
X95238000Y5420000D03*
D23*
%TO.P,MCU1,15*%
%TO.N,matrix_middle_bottom*%
X95238000Y7960000D03*
D24*
X91174000Y7960000D03*
D21*
X95238000Y7960000D03*
%TO.P,MCU1,16*%
%TO.N,matrix_pinky_bottom*%
X95238000Y10500000D03*
D24*
X91174000Y10500000D03*
D23*
X95238000Y10500000D03*
D21*
%TO.P,MCU1,17*%
%TO.N,matrix_index_home*%
X95238000Y13040000D03*
D23*
X95238000Y13040000D03*
D24*
X91174000Y13040000D03*
D23*
%TO.P,MCU1,18*%
%TO.N,matrix_ring_home*%
X95238000Y15580000D03*
D24*
X91174000Y15580000D03*
D21*
X95238000Y15580000D03*
D23*
%TO.P,MCU1,19*%
%TO.N,matrix_pinky_top*%
X95238000Y18120000D03*
D21*
X95238000Y18120000D03*
D24*
X91174000Y18120000D03*
D23*
%TO.P,MCU1,20*%
%TO.N,matrix_middle_top*%
X95238000Y20660000D03*
D21*
X95238000Y20660000D03*
D24*
X91174000Y20660000D03*
%TO.P,MCU1,21*%
%TO.N,GND*%
X91174000Y23200000D03*
D21*
X95238000Y23200000D03*
D23*
X95238000Y23200000D03*
D24*
%TO.P,MCU1,22*%
X91174000Y25740000D03*
D23*
X95238000Y25740000D03*
D21*
X95238000Y25740000D03*
D24*
%TO.P,MCU1,23*%
%TO.N,matrix_index_top*%
X91174000Y28280000D03*
D23*
X95238000Y28280000D03*
D21*
X95238000Y28280000D03*
%TO.P,MCU1,24*%
%TO.N,matrix_inner_top*%
X95238000Y30820000D03*
D24*
X91174000Y30820000D03*
D23*
X95238000Y30820000D03*
%TD*%
D25*
%TO.P,,*%
%TO.N,*%
X92350000Y38570000D03*
X99650000Y40780000D03*
X99650000Y38570000D03*
X92350000Y40780000D03*
D26*
%TO.P,,1*%
%TO.N,pos*%
X98250000Y37920000D03*
%TO.P,,2*%
%TO.N,RAW*%
X95250000Y37920000D03*
%TO.P,,3*%
%TO.N,N/C*%
X93750000Y37920000D03*
%TD*%
D11*
%TO.P,S4,1*%
%TO.N,matrix_ring_bottom*%
X22275000Y17850000D03*
%TO.P,S4,2*%
%TO.N,GND*%
X10725000Y15650000D03*
%TD*%
%TO.P,S3,1*%
%TO.N,matrix_pinky_top*%
X3275000Y39950000D03*
%TO.P,S3,2*%
%TO.N,GND*%
X-8275000Y37750000D03*
%TD*%
%TO.P,S8,1*%
%TO.N,matrix_middle_home*%
X41275000Y39100000D03*
%TO.P,S8,2*%
%TO.N,GND*%
X29725000Y36900000D03*
%TD*%
%TO.P,S13,1*%
%TO.N,matrix_inner_bottom*%
X79275000Y15300000D03*
%TO.P,S13,2*%
%TO.N,GND*%
X67725000Y13100000D03*
%TD*%
%TO.P,S9,1*%
%TO.N,matrix_middle_top*%
X41275000Y56100000D03*
%TO.P,S9,2*%
%TO.N,GND*%
X29725000Y53900000D03*
%TD*%
%TO.P,S10,1*%
%TO.N,matrix_index_bottom*%
X60275000Y17850000D03*
%TO.P,S10,2*%
%TO.N,GND*%
X48725000Y15650000D03*
%TD*%
D13*
%TO.P,S16,1*%
%TO.N,thumbs_near*%
X58981114Y-3708077D03*
%TO.P,S16,2*%
%TO.N,GND*%
X47283323Y-4893056D03*
%TD*%
D27*
%TO.N,matrix_middle_home*%
X87189910Y16586898D03*
X81930000Y21405500D03*
%TO.N,matrix_pinky_top*%
X61472300Y25912300D03*
%TO.N,matrix_middle_bottom*%
X77960000Y4900000D03*
%TO.N,matrix_index_bottom*%
X85580000Y6850000D03*
X77659514Y5853265D03*
%TO.N,matrix_inner_bottom*%
X82310000Y6600000D03*
X79100000Y6600000D03*
%TO.N,matrix_middle_bottom*%
X75710000Y3850000D03*
%TO.N,matrix_ring_bottom*%
X75750000Y2650000D03*
%TO.N,matrix_middle_home*%
X79710000Y23610000D03*
X87189910Y16586898D03*
%TO.N,matrix_pinky_top*%
X83820500Y22860500D03*
%TO.N,matrix_pinky_home*%
X65320000Y22130000D03*
%TO.N,matrix_pinky_bottom*%
X0Y2794000D03*
%TO.N,matrix_pinky_home*%
X0Y19812000D03*
%TO.N,matrix_pinky_top*%
X0Y36830000D03*
%TO.N,matrix_ring_bottom*%
X19050000Y14732000D03*
%TO.N,matrix_ring_home*%
X19050000Y31496000D03*
%TO.N,matrix_ring_top*%
X19304000Y48768000D03*
%TO.N,matrix_middle_bottom*%
X38100000Y18796000D03*
%TO.N,matrix_middle_home*%
X38100000Y36068000D03*
%TO.N,matrix_middle_top*%
X38100000Y52832000D03*
%TO.N,matrix_index_bottom*%
X57150000Y14732000D03*
%TO.N,matrix_index_home*%
X57150000Y31750000D03*
%TO.N,matrix_index_top*%
X57150000Y48768000D03*
%TO.N,matrix_inner_bottom*%
X75946000Y12192000D03*
%TO.N,matrix_inner_home*%
X76200000Y29210000D03*
%TO.N,matrix_inner_top*%
X76200000Y46228000D03*
%TO.N,thumbs_near*%
X55372000Y-6858000D03*
%TO.N,thumbs_home*%
X74422000Y-8382000D03*
%TO.N,thumbs_far*%
X93218000Y-9906000D03*
%TO.N,RST*%
X88138000Y38354000D03*
%TD*%
D28*
%TO.N,matrix_index_bottom*%
X76128854Y5608854D02*
X76104814Y5584814D01*
X76329762Y5809762D02*
X76325181Y5805181D01*
X76290840Y5770840D02*
X76272524Y5752524D01*
X70333930Y2620000D02*
X70306046Y2620000D01*
X76260504Y5740504D02*
X76254780Y5734780D01*
X76250202Y5730202D02*
X76249058Y5729058D01*
X67559525Y2620000D02*
X67492453Y2620000D01*
X70807949Y2620000D02*
X70780066Y2620000D01*
X76314306Y5794306D02*
X76313162Y5793162D01*
X70738241Y2620000D02*
X70626707Y2620000D01*
X67216065Y2620000D02*
X66730362Y2620000D01*
X70626707Y2620000D02*
X70515173Y2620000D01*
X76080201Y5560201D02*
X76006936Y5486936D01*
X70515173Y2620000D02*
X70403639Y2620000D01*
X68828222Y2620000D02*
X68800339Y2620000D01*
X76247340Y5727340D02*
X76242760Y5722760D01*
X76233600Y5713600D02*
X76229021Y5709021D01*
X76219862Y5699862D02*
X76215283Y5695283D01*
X76325181Y5805181D02*
X76320602Y5800602D01*
X76313162Y5793162D02*
X76312018Y5792018D01*
X70361814Y2620000D02*
X70333930Y2620000D01*
X65937198Y2620000D02*
X65736362Y2620000D01*
X66689105Y2620000D02*
X66120888Y2620000D01*
X76308584Y5788584D02*
X76302860Y5782860D01*
X68409970Y2620000D02*
X68326319Y2620000D01*
X70082977Y2620000D02*
X69943558Y2620000D01*
X76336059Y5816059D02*
X76334914Y5814914D01*
X69190706Y2620000D02*
X69051289Y2620000D01*
X76302860Y5782860D02*
X76297136Y5777136D01*
X67492453Y2620000D02*
X67425381Y2620000D01*
X68800339Y2620000D02*
X68772456Y2620000D01*
X76242760Y5722760D02*
X76238179Y5718179D01*
X68228727Y2620000D02*
X67949892Y2620000D01*
X68730631Y2620000D02*
X68619097Y2620000D01*
X68619097Y2620000D02*
X68507563Y2620000D01*
X67626597Y2620000D02*
X67559525Y2620000D01*
X68493621Y2620000D02*
X68409970Y2620000D01*
X65736362Y2620000D02*
X65535526Y2620000D01*
X76266228Y5746228D02*
X76260504Y5740504D01*
X76215283Y5695283D02*
X76210704Y5690704D01*
X76201546Y5681546D02*
X76178651Y5658651D01*
X76167776Y5647776D02*
X76166631Y5646631D01*
X76333769Y5813769D02*
X76332624Y5812624D01*
X76320602Y5800602D02*
X76316023Y5796023D01*
X65393472Y2620000D02*
X65231824Y2620000D01*
X69051289Y2620000D02*
X68911872Y2620000D01*
X76166631Y5646631D02*
X76165486Y5645486D01*
X76332624Y5812624D02*
X76331479Y5811479D01*
X69790200Y2620000D02*
X69344065Y2620000D01*
X76251346Y5731346D02*
X76250202Y5730202D01*
X70891600Y2620000D02*
X70863716Y2620000D01*
X76238179Y5718179D02*
X76233600Y5713600D01*
X76152894Y5632894D02*
X76128854Y5608854D01*
X70222396Y2620000D02*
X70082977Y2620000D01*
X70835832Y2620000D02*
X70807949Y2620000D01*
%TO.N,matrix_middle_bottom*%
X65442778Y2170000D02*
X65392951Y2170000D01*
X69777709Y2170000D02*
X69528575Y2170000D01*
X64844856Y2170000D02*
X63798493Y2170000D01*
X61476610Y2170000D02*
X58696181Y2170000D01*
X72817146Y2170000D02*
X72767319Y2170000D01*
X71372167Y2170000D02*
X71123033Y2170000D01*
X65492605Y2170000D02*
X65442778Y2170000D01*
X72543098Y2170000D02*
X72343789Y2170000D01*
X67560417Y2170000D02*
X67361110Y2170000D01*
X63798493Y2170000D02*
X62752130Y2170000D01*
X67759724Y2170000D02*
X67560417Y2170000D01*
X71621301Y2170000D02*
X71372167Y2170000D01*
X68556952Y2170000D02*
X68357645Y2170000D01*
X68756259Y2170000D02*
X68556952Y2170000D01*
X68357645Y2170000D02*
X68158338Y2170000D01*
X69080133Y2170000D02*
X69030306Y2170000D01*
X68955566Y2170000D02*
X68756259Y2170000D01*
X69129960Y2170000D02*
X69080133Y2170000D01*
X70848985Y2170000D02*
X70051756Y2170000D01*
X71820608Y2170000D02*
X71770781Y2170000D01*
X66962496Y2170000D02*
X65965960Y2170000D01*
X71870435Y2170000D02*
X71820608Y2170000D01*
X72717492Y2170000D02*
X72667665Y2170000D01*
X72667665Y2170000D02*
X72617838Y2170000D01*
X72144482Y2170000D02*
X71945175Y2170000D01*
X72343789Y2170000D02*
X72144482Y2170000D01*
X69528575Y2170000D02*
X69279441Y2170000D01*
%TO.N,matrix_ring_bottom*%
X67309998Y1720000D02*
G75*
G02*
X67309998Y1720000I0J0D01*
G01*
X67221477Y1720000D02*
X67309998Y1720000D01*
X67309998Y1720000D02*
X67221477Y1720000D01*
X67221477Y1720000D02*
X67132956Y1720000D01*
X66116296Y1720000D02*
X65011115Y1720000D01*
X66923052Y1720000D02*
X66414722Y1720000D01*
X64988985Y1720000D02*
X63839544Y1720000D01*
X61153714Y1720000D02*
X59407421Y1720000D01*
X57937424Y1720000D02*
X53251136Y1720000D01*
X63817414Y1720000D02*
X62623712Y1720000D01*
X53251136Y1720000D02*
X48564848Y1720000D01*
X62623712Y1720000D02*
X61430010Y1720000D01*
%TO.N,GND*%
X67725000Y47413250D02*
G75*
G02*
X67725000Y47413250I0J0D01*
G01*
X9770786Y43416263D02*
G75*
G03*
X10730000Y45732009I-2315746J2315747D01*
G01*
X85459991Y41219991D02*
G75*
G02*
X84290000Y44044629I2824609J2824609D01*
G01*
X79015040Y51490016D02*
G75*
G02*
X82745000Y49945000I-40J-5275016D01*
G01*
X67724996Y47875000D02*
G75*
G02*
X68273007Y49198007I1871004J0D01*
G01*
X84290016Y46215040D02*
G75*
G03*
X82745000Y49945000I-5275016J-40D01*
G01*
X-5278792Y40746207D02*
G75*
G02*
X-1431036Y42340000I3847760J-3847766D01*
G01*
X87315000Y40049989D02*
G75*
G02*
X86145631Y40534368I0J1653711D01*
G01*
X7255223Y42339996D02*
G75*
G03*
X9712261Y43357738I-3J3474774D01*
G01*
X69145005Y50069995D02*
G75*
G02*
X72573183Y51490000I3428195J-3428195D01*
G01*
X103462675Y39637318D02*
X103499046Y39600949D01*
X103426307Y39673687D02*
X103433580Y39666414D01*
X103840127Y39259865D02*
X103857628Y39242364D01*
X103857628Y39242364D02*
X103875129Y39224863D01*
X104517674Y38582322D02*
X104538513Y38561485D01*
X103309924Y39790073D02*
X103317197Y39782798D01*
X104281488Y38818505D02*
X104316273Y38783722D01*
X103966246Y39133747D02*
X104015030Y39084963D01*
X103575421Y39524571D02*
X103691803Y39408189D01*
X104316273Y38783722D02*
X104351057Y38748938D01*
X103808188Y39291805D02*
X103835315Y39264678D01*
X103781061Y39318932D02*
X103808188Y39291805D01*
X103433580Y39666414D02*
X103440853Y39659140D01*
X104104286Y38995706D02*
X104234016Y38865978D01*
X103499046Y39600949D02*
X103535415Y39564578D01*
X104363745Y38736250D02*
X104423906Y38676089D01*
X103328108Y39771888D02*
X103357204Y39742791D01*
X103386301Y39713696D02*
X103415396Y39684599D01*
X103302650Y39797347D02*
X103309924Y39790073D01*
X103727681Y39372311D02*
X103772310Y39327683D01*
X103897444Y39202549D02*
X103959573Y39140420D01*
X104470203Y38629793D02*
X104502635Y38597361D01*
X103357204Y39742791D02*
X103386301Y39713696D01*
X103288103Y39811895D02*
X103295376Y39804621D01*
X104015030Y39084963D02*
X104063814Y39036179D01*
X104437771Y38662225D02*
X104470203Y38629793D01*
X10727501Y47094579D02*
G75*
G02*
X10725000Y47100613I5999J6021D01*
G01*
X9770786Y43416263D02*
X9712261Y43357738D01*
X10725000Y47100613D02*
X10725000Y49650000D01*
X10730000Y45732009D02*
X10730000Y47088542D01*
X10730040Y47088542D02*
G75*
G03*
X10727500Y47094578I-8540J-42D01*
G01*
X-1431036Y42340000D02*
X7255223Y42340000D01*
X-5278792Y40746207D02*
X-8275000Y37750000D01*
X84290000Y44044629D02*
X84290000Y46215040D01*
X67725000Y47413250D02*
X67725000Y47875000D01*
X85459999Y41219999D02*
X86145631Y40534368D01*
X79015040Y51490000D02*
X72573183Y51490000D01*
X68273007Y49198007D02*
X69145000Y50070000D01*
X88000000Y40050000D02*
X87315000Y40050000D01*
%TO.N,matrix_index_bottom*%
X76249058Y5729058D02*
X76247340Y5727340D01*
X68828222Y2620000D02*
X68911872Y2620000D01*
X65535526Y2620000D02*
X65393472Y2620000D01*
X70863716Y2620000D02*
X70835832Y2620000D01*
X76314306Y5794306D02*
X76316023Y5796023D01*
X70780066Y2620000D02*
X70738241Y2620000D01*
X76104814Y5584814D02*
X76080201Y5560201D01*
X76290840Y5770840D02*
X76297136Y5777136D01*
X70403639Y2620000D02*
X70361814Y2620000D01*
X70306046Y2620000D02*
X70222396Y2620000D01*
X69190706Y2620000D02*
X69344065Y2620000D01*
X76254780Y5734780D02*
X76251346Y5731346D01*
X68772456Y2620000D02*
X68730631Y2620000D01*
X65937198Y2620000D02*
X66120888Y2620000D01*
X66730362Y2620000D02*
X66689105Y2620000D01*
X68507563Y2620000D02*
X68493621Y2620000D01*
X68326319Y2620000D02*
X68228727Y2620000D01*
X76334914Y5814914D02*
X76333769Y5813769D01*
X76229021Y5709021D02*
X76219862Y5699862D01*
X76312018Y5792018D02*
X76308584Y5788584D01*
X76210704Y5690704D02*
X76201546Y5681546D01*
X76178651Y5658651D02*
X76167776Y5647776D01*
X69943558Y2620000D02*
X69790200Y2620000D01*
X76272524Y5752524D02*
X76266228Y5746228D01*
X76329762Y5809762D02*
X76331479Y5811479D01*
X76165486Y5645486D02*
X76152894Y5632894D01*
%TO.N,matrix_middle_bottom*%
X67361110Y2170000D02*
X66962496Y2170000D01*
X71870435Y2170000D02*
X71945175Y2170000D01*
X71123033Y2170000D02*
X70848985Y2170000D01*
X61476610Y2170000D02*
X62752130Y2170000D01*
X65492605Y2170000D02*
X65965960Y2170000D01*
X65392951Y2170000D02*
X64844856Y2170000D01*
X72543098Y2170000D02*
X72617838Y2170000D01*
X69777709Y2170000D02*
X70051756Y2170000D01*
X71621301Y2170000D02*
X71770781Y2170000D01*
X67759724Y2170000D02*
X68158338Y2170000D01*
X69030306Y2170000D02*
X68955566Y2170000D01*
X72767319Y2170000D02*
X72717492Y2170000D01*
X69129960Y2170000D02*
X69279441Y2170000D01*
%TO.N,matrix_ring_bottom*%
X67354259Y1720000D02*
G75*
G02*
X67354259Y1720000I0J0D01*
G01*
X67309998Y1720000D02*
X67354259Y1720000D01*
X67309998Y1720000D02*
X67354259Y1720000D01*
X66116296Y1720000D02*
X66414722Y1720000D01*
X63839544Y1720000D02*
X63817414Y1720000D01*
X59407421Y1720000D02*
X57937424Y1720000D01*
%TO.N,GND*%
X103691803Y39408189D02*
X103727681Y39372311D01*
X104104286Y38995706D02*
X104063814Y39036179D01*
X104517674Y38582322D02*
X104502635Y38597361D01*
X104281488Y38818505D02*
X104234016Y38865978D01*
X103966246Y39133747D02*
X103959573Y39140420D01*
X103302650Y39797347D02*
X103295376Y39804621D01*
X103462675Y39637318D02*
X103440853Y39659140D01*
X104423906Y38676089D02*
X104437771Y38662225D01*
X103317197Y39782798D02*
X103328108Y39771888D01*
X103875129Y39224863D02*
X103897444Y39202549D01*
X103575421Y39524571D02*
X103535415Y39564578D01*
X104351057Y38748938D02*
X104363745Y38736250D01*
X103840127Y39259865D02*
X103835315Y39264678D01*
X103426307Y39673687D02*
X103415396Y39684599D01*
%TO.N,matrix_index_bottom*%
X67949892Y2620000D02*
X67626597Y2620000D01*
X67216065Y2620000D02*
X67425381Y2620000D01*
%TO.N,matrix_ring_bottom*%
X67398520Y1720000D02*
G75*
G02*
X67398520Y1720000I0J0D01*
G01*
X67398520Y1720000D02*
X67354259Y1720000D01*
X67398520Y1720000D02*
X67354259Y1720000D01*
X61153714Y1720000D02*
X61430010Y1720000D01*
X65011115Y1720000D02*
X64988985Y1720000D01*
%TO.N,GND*%
X103781061Y39318932D02*
X103772310Y39327683D01*
%TO.N,matrix_ring_bottom*%
X67442781Y1720000D02*
G75*
G02*
X67442781Y1720000I0J0D01*
G01*
X67398520Y1720000D02*
X67442781Y1720000D01*
X67398520Y1720000D02*
X67442781Y1720000D01*
X71907767Y1720001D02*
G75*
G02*
X70824716Y1720001I-541526J1072021823D01*
G01*
X67132956Y1720000D02*
X66923052Y1720000D01*
X67442781Y1720000D02*
X70824716Y1720000D01*
X67442781Y1720000D02*
X71907767Y1720000D01*
%TO.N,thumbs_home*%
X77908813Y-5388264D02*
G75*
G02*
X77908813Y-5388264I0J0D01*
G01*
%TO.N,matrix_index_bottom*%
X70905542Y2620000D02*
X70891600Y2620000D01*
%TO.N,matrix_middle_bottom*%
X57305967Y2170000D02*
X64966856Y2170000D01*
%TO.N,matrix_ring_bottom*%
X70824716Y1720000D02*
X74162390Y1720000D01*
%TO.N,matrix_middle_bottom*%
X58696181Y2170000D02*
X57305967Y2170000D01*
%TO.N,matrix_ring_bottom*%
X71907767Y1720000D02*
X74162390Y1720000D01*
%TO.N,matrix_pinky_home*%
X90060369Y16994992D02*
G75*
G02*
X86212612Y18588792I31J5441608D01*
G01*
X84265188Y20536197D02*
G75*
G03*
X80417442Y22130000I-3847788J-3847797D01*
G01*
%TO.N,matrix_middle_home*%
X63293285Y25216698D02*
G75*
G03*
X59445537Y26810499I-3847785J-3847798D01*
G01*
%TO.N,RST*%
X94443197Y32640087D02*
G75*
G02*
X96037000Y28792341I-3847797J-3847787D01*
G01*
%TO.N,GND*%
X40396035Y23975010D02*
G75*
G02*
X44243791Y22381208I-35J-5441610D01*
G01*
%TO.N,matrix_ring_home*%
X90167972Y14454995D02*
G75*
G02*
X86320216Y16048793I28J5441605D01*
G01*
%TO.N,matrix_index_bottom*%
X60271500Y17850000D02*
X60275000Y17850000D01*
%TO.N,matrix_ring_top*%
X22235757Y51699753D02*
G75*
G03*
X22275000Y51794500I-94757J94747D01*
G01*
%TO.N,matrix_pinky_home*%
X3233627Y22791641D02*
G75*
G03*
X3275000Y22891500I-99827J99859D01*
G01*
%TO.N,thumbs_far*%
X96799260Y2842747D02*
G75*
G02*
X96836513Y2752798I-89960J-89947D01*
G01*
%TO.N,pos*%
X98287490Y37882490D02*
G75*
G03*
X98378033Y37845000I90510J90510D01*
G01*
%TO.N,thumbs_far*%
X96470259Y-7019913D02*
G75*
G03*
X96836513Y-6653741I41J366213D01*
G01*
%TO.N,matrix_middle_bottom*%
X41275004Y22035500D02*
G75*
G02*
X41229390Y21925392I-155704J0D01*
G01*
%TO.N,matrix_middle_top*%
X41274988Y56053500D02*
G75*
G02*
X41242119Y55974119I-112288J0D01*
G01*
%TO.N,matrix_index_bottom*%
X60265515Y17847535D02*
G75*
G02*
X60271500Y17850000I5985J-6035D01*
G01*
%TO.N,matrix_inner_home*%
X79269695Y32279697D02*
G75*
G03*
X79275000Y32292500I-12795J12803D01*
G01*
%TO.N,thumbs_near*%
X59143450Y-3545716D02*
G75*
G02*
X58751518Y-3708077I-391950J391916D01*
G01*
%TO.N,matrix_inner_top*%
X79273500Y49300006D02*
G75*
G03*
X79270939Y49298939I0J-3606D01*
G01*
%TO.N,thumbs_near*%
X58359559Y-3870410D02*
G75*
G02*
X58751518Y-3708077I391941J-391990D01*
G01*
%TO.N,thumbs_home*%
X77884585Y-5364087D02*
G75*
G02*
X77908813Y-5388264I15J-24213D01*
G01*
X77884585Y-5364087D02*
G75*
G02*
X77908813Y-5388264I15J-24213D01*
G01*
X77674388Y-5364032D02*
G75*
G03*
X77274201Y-5529800I12J-565968D01*
G01*
%TO.N,thumbs_far*%
X96470259Y-7019963D02*
G75*
G03*
X95845025Y-7278976I41J-884237D01*
G01*
%TO.N,matrix_pinky_bottom*%
X3215500Y5949984D02*
G75*
G03*
X3113927Y5907927I0J-143684D01*
G01*
%TO.N,GND*%
X48725017Y16775000D02*
G75*
G03*
X49520495Y16445495I465983J0D01*
G01*
X10139500Y15650000D02*
G75*
G03*
X10725000Y16235500I0J585500D01*
G01*
X48725017Y33775000D02*
G75*
G03*
X49520495Y33445495I465983J0D01*
G01*
%TO.N,matrix_inner_home*%
X79275000Y32292500D02*
X79275000Y32300000D01*
%TO.N,matrix_inner_top*%
X91174000Y31037000D02*
X91174000Y30820000D01*
X79273500Y49300000D02*
X79275000Y49300000D01*
%TO.N,thumbs_near*%
X60010002Y-2679187D02*
X59143462Y-3545728D01*
%TO.N,thumbs_home*%
X77884585Y-5364036D02*
X77674388Y-5364036D01*
X77908813Y-5388264D02*
X77908813Y-6165187D01*
X77908813Y-5388264D02*
X77908813Y-5412492D01*
%TO.N,thumbs_far*%
X96799256Y2842743D02*
X96762000Y2880000D01*
%TO.N,pos*%
X98287500Y37882500D02*
X98250000Y37920000D01*
%TO.N,matrix_middle_top*%
X41275000Y56053500D02*
X41275000Y56100000D01*
%TO.N,matrix_middle_bottom*%
X41275000Y22035500D02*
X41275000Y22100000D01*
%TO.N,matrix_pinky_bottom*%
X3215500Y5950000D02*
X3275000Y5950000D01*
%TO.N,GND*%
X67725000Y30875000D02*
X67725000Y30100000D01*
X67725000Y13875000D02*
X67725000Y13100000D01*
%TO.N,matrix_pinky_home*%
X3275000Y22891500D02*
X3275000Y22950000D01*
%TO.N,matrix_ring_top*%
X22275000Y51794500D02*
X22275000Y51850000D01*
%TO.N,GND*%
X67725000Y47413250D02*
X67725000Y47726500D01*
%TO.N,matrix_middle_home*%
X63306206Y25203792D02*
X63293293Y25216706D01*
X59445537Y26810499D02*
X50233464Y26810499D01*
X81930000Y21405500D02*
X81930000Y21387750D01*
%TO.N,matrix_pinky_home*%
X80417442Y22130000D02*
X65320000Y22130000D01*
X84265198Y20536207D02*
X86212612Y18588792D01*
X94841504Y16995000D02*
X90060369Y16995000D01*
%TO.N,matrix_ring_home*%
X86182801Y16186207D02*
X86320215Y16048792D01*
X93317504Y14455000D02*
X90167972Y14455000D01*
%TO.N,GND*%
X47929504Y18695495D02*
X44243791Y22381208D01*
X40396035Y23975001D02*
X36053964Y23975001D01*
%TO.N,RST*%
X91293608Y35789696D02*
X94443207Y32640097D01*
X96037000Y28792341D02*
X96037000Y26977652D01*
X96399485Y26102485D02*
G75*
G02*
X96037000Y26977652I875115J875115D01*
G01*
X89216652Y36650024D02*
G75*
G02*
X91293608Y35789696I-52J-2937324D01*
G01*
%TO.N,matrix_middle_home*%
X50233464Y26810460D02*
G75*
G02*
X46385709Y28404292I36J5441540D01*
G01*
X63306215Y25203801D02*
G75*
G03*
X67153963Y23610000I3847785J3847799D01*
G01*
X81930020Y21387750D02*
G75*
G03*
X81942551Y21357448I42780J-50D01*
G01*
%TO.N,matrix_ring_home*%
X82335045Y17780016D02*
G75*
G02*
X86182801Y16186207I-45J-5441616D01*
G01*
X94675499Y15017501D02*
G75*
G02*
X93317504Y14455000I-1357999J1357999D01*
G01*
%TO.N,matrix_pinky_home*%
X96199499Y17557501D02*
G75*
G02*
X94841504Y16995000I-1357999J1357999D01*
G01*
%TO.N,GND*%
X48724996Y16775000D02*
G75*
G03*
X47929504Y18695495I-2715996J0D01*
G01*
X36053964Y23975010D02*
G75*
G03*
X32206209Y22381207I36J-5441610D01*
G01*
%TO.N,matrix_middle_home*%
X67153963Y23610000D02*
X79710000Y23610000D01*
X46385708Y28404291D02*
X39950014Y34839985D01*
%TO.N,matrix_ring_home*%
X82335045Y17780000D02*
X68293963Y17780000D01*
%TO.N,GND*%
X29725000Y19900000D02*
X32206208Y22381208D01*
%TO.N,RST*%
X89216652Y36650000D02*
X88000000Y36650000D01*
%TO.N,matrix_middle_home*%
X38985499Y35239508D02*
G75*
G02*
X39950014Y34839985I1J-1364008D01*
G01*
%TO.N,matrix_ring_home*%
X68293963Y17779960D02*
G75*
G02*
X64446208Y19373793I37J5441540D01*
G01*
%TO.N,matrix_middle_home*%
X38647126Y35239501D02*
X38985499Y35239501D01*
%TO.N,matrix_ring_home*%
X64446207Y19373792D02*
X60013792Y23806207D01*
%TO.N,matrix_middle_home*%
X38647126Y35239511D02*
G75*
G02*
X38260249Y35399750I-26J547089D01*
G01*
%TO.N,matrix_ring_home*%
X56166036Y25400010D02*
G75*
G02*
X60013792Y23806207I-36J-5441610D01*
G01*
X28423464Y25400000D02*
X56166036Y25400000D01*
X24575706Y26993790D02*
G75*
G03*
X28423464Y25400000I3847754J3847760D01*
G01*
X20435363Y31134137D02*
X24575708Y26993792D01*
X19561750Y31496027D02*
G75*
G02*
X20435363Y31134137I-50J-1235527D01*
G01*
%TO.N,GND*%
X88000000Y40050000D02*
X93353264Y40050000D01*
%TO.N,pos*%
X101497499Y38597501D02*
G75*
G02*
X99680804Y37845000I-1816699J1816699D01*
G01*
%TO.N,RST*%
X87999993Y38118419D02*
G75*
G02*
X88069001Y38284999I235607J-19D01*
G01*
%TO.N,RAW*%
X96518758Y31751247D02*
G75*
G02*
X96762000Y31164000I-587258J-587247D01*
G01*
X96005987Y32263987D02*
G75*
G02*
X95250000Y34089145I1825113J1825113D01*
G01*
%TO.N,thumbs_near*%
X60010011Y-2679196D02*
G75*
G02*
X62493960Y-1650298I2483989J-2484004D01*
G01*
X88453737Y-1650310D02*
G75*
G03*
X92301493Y-56506I-37J5441610D01*
G01*
%TO.N,matrix_inner_top*%
X91020561Y31407446D02*
G75*
G02*
X91174000Y31037000I-370461J-370446D01*
G01*
%TO.N,matrix_inner_bottom*%
X78501502Y11593502D02*
G75*
G03*
X77056589Y12192000I-1444902J-1444902D01*
G01*
X78501502Y11593502D02*
G75*
G02*
X79100000Y10148589I-1444902J-1444902D01*
G01*
X90611499Y4857501D02*
G75*
G02*
X89253504Y4295000I-1357999J1357999D01*
G01*
X83462506Y5447506D02*
G75*
G03*
X86244881Y4295000I2782394J2782394D01*
G01*
X76245141Y12270129D02*
G75*
G02*
X76056500Y12192000I-188641J188671D01*
G01*
%TO.N,matrix_index_top*%
X89152785Y29463994D02*
G75*
G02*
X90582000Y28872000I15J-2021194D01*
G01*
X57171500Y48767999D02*
G75*
G03*
X57208202Y48783202I0J51901D01*
G01*
X67063433Y41108560D02*
G75*
G02*
X63215678Y42702323I-33J5441540D01*
G01*
X77579255Y39514730D02*
G75*
G03*
X73731506Y41108530I-3847755J-3847730D01*
G01*
X88810000Y29464008D02*
G75*
G02*
X86795613Y30298386I0J2848792D01*
G01*
%TO.N,matrix_index_home*%
X57183843Y31758833D02*
G75*
G02*
X57162500Y31750000I-21343J21367D01*
G01*
%TO.N,matrix_index_bottom*%
X74719988Y4200012D02*
G75*
G02*
X70905542Y2620000I-3814488J3814488D01*
G01*
X96199499Y7397501D02*
G75*
G02*
X94841504Y6835000I-1357999J1357999D01*
G01*
X59089488Y8950462D02*
G75*
G03*
X60683293Y5102705I5441612J38D01*
G01*
X58119761Y13762260D02*
G75*
G02*
X59089501Y11421064I-2341161J-2341160D01*
G01*
X61762396Y4023609D02*
G75*
G03*
X65151000Y2620000I3388604J3388591D01*
G01*
X76425071Y5853287D02*
G75*
G03*
X76336632Y5816632I29J-125087D01*
G01*
X85587498Y6842498D02*
G75*
G03*
X85605606Y6835000I18102J18102D01*
G01*
X65151000Y2620000D02*
X65231824Y2620000D01*
X76336632Y5816632D02*
X76336059Y5816059D01*
%TO.N,matrix_middle_top*%
X85036440Y30823363D02*
G75*
G02*
X86614000Y26953535I-3957740J-3869863D01*
G01*
X38677853Y52239481D02*
G75*
G02*
X38269249Y52408750I47J577919D01*
G01*
X40259042Y51646777D02*
G75*
G03*
X39173362Y52239501I-1085642J-697877D01*
G01*
X50992446Y40640027D02*
G75*
G02*
X47399362Y42393566I-46J4557873D01*
G01*
X38099998Y52705000D02*
G75*
G03*
X38189802Y52488197I306602J0D01*
G01*
X87375991Y22605991D02*
G75*
G02*
X86614000Y24445630I1839609J1839609D01*
G01*
X87483212Y22498773D02*
G75*
G03*
X89064000Y21844000I1580788J1580827D01*
G01*
X89152785Y21843994D02*
G75*
G02*
X90582000Y21252000I15J-2021194D01*
G01*
X73186572Y40639984D02*
G75*
G02*
X77012012Y39030214I28J-5350184D01*
G01*
X40259003Y51646752D02*
G75*
G03*
X41073542Y50498523I12953397J8325948D01*
G01*
%TO.N,matrix_middle_home*%
X38260241Y35399742D02*
G75*
G02*
X38100000Y35786627I386859J386858D01*
G01*
X86544512Y16755463D02*
G75*
G03*
X86951506Y16586898I406988J407037D01*
G01*
X38171500Y36067996D02*
G75*
G03*
X38293557Y36118559I0J172604D01*
G01*
%TO.N,matrix_middle_bottom*%
X72842060Y2170017D02*
G75*
G03*
X74870000Y3010000I40J2867883D01*
G01*
X38263002Y18796007D02*
G75*
G02*
X38541263Y18680740I-2J-393507D01*
G01*
X57305967Y2169962D02*
G75*
G02*
X53458211Y3763792I33J5441538D01*
G01*
%TO.N,matrix_ring_top*%
X87931798Y19332000D02*
G75*
G03*
X87898000Y19318000I2J-47800D01*
G01*
X53433567Y37591991D02*
G75*
G02*
X49585810Y39185792I33J5441609D01*
G01*
X78809785Y35998200D02*
G75*
G03*
X74962036Y37592000I-3847785J-3847800D01*
G01*
X86106015Y22339235D02*
G75*
G03*
X86995000Y20193000I3035185J-35D01*
G01*
X87870001Y19318001D02*
G75*
G03*
X87897999Y19318001I13999J13999D01*
G01*
X43539338Y42978313D02*
G75*
G02*
X47387094Y41384509I-38J-5441613D01*
G01*
X86106010Y26448036D02*
G75*
G03*
X84512207Y30295792I-5441610J-36D01*
G01*
X94494962Y19332016D02*
G75*
G03*
X96098000Y19996000I38J2266984D01*
G01*
X27347661Y42978302D02*
G75*
G02*
X23499905Y44572094I-1J5441548D01*
G01*
%TO.N,matrix_ring_home*%
X19049996Y31560500D02*
G75*
G02*
X19095609Y31670607I155704J0D01*
G01*
%TO.N,matrix_ring_bottom*%
X74162390Y1720004D02*
G75*
G03*
X75285000Y2185000I10J1587596D01*
G01*
X19103500Y14732012D02*
G75*
G03*
X19194830Y14769830I0J129188D01*
G01*
X24039607Y6636394D02*
G75*
G02*
X22445814Y10484149I3847753J3847756D01*
G01*
X20038499Y14731983D02*
G75*
G02*
X21725972Y14033025I1J-2386483D01*
G01*
X31209963Y1719960D02*
G75*
G02*
X27362208Y3313793I37J5441540D01*
G01*
X22445822Y12309929D02*
G75*
G03*
X21736406Y14022592I-2422122J-29D01*
G01*
%TO.N,matrix_pinky_top*%
X62998449Y24386149D02*
G75*
G03*
X66682902Y22860000I3684451J3684451D01*
G01*
X209800Y36884800D02*
G75*
G02*
X77500Y36830000I-132300J132300D01*
G01*
X83820211Y22860283D02*
G75*
G02*
X83819646Y22860000I-611J517D01*
G01*
%TO.N,matrix_pinky_home*%
X343801Y19901803D02*
G75*
G02*
X127000Y19812000I-216801J216797D01*
G01*
%TO.N,GND*%
X2031210Y31056204D02*
G75*
G02*
X5878963Y32650000I3847760J-3847754D01*
G01*
X-6704384Y-2262986D02*
G75*
G02*
X-8275000Y1528814I3791801J3791802D01*
G01*
X-1820351Y-4893055D02*
G75*
G02*
X-5668107Y-3299263I4J5441558D01*
G01*
X63884785Y35490200D02*
G75*
G03*
X60037036Y37084000I-3847785J-3847800D01*
G01*
X102416636Y40175024D02*
G75*
G02*
X103284467Y39815532I-36J-1227324D01*
G01*
X84226859Y-13914595D02*
G75*
G02*
X82025409Y-14826458I-2201459J2201495D01*
G01*
X13381210Y35306204D02*
G75*
G02*
X17228963Y36900000I3847760J-3847754D01*
G01*
X42690484Y40934503D02*
G75*
G03*
X38842734Y42528302I-3847784J-3847803D01*
G01*
X99789724Y39770010D02*
G75*
G02*
X98902500Y40137501I-24J1254690D01*
G01*
X105113150Y29929148D02*
G75*
G03*
X105347865Y30495803I-566650J566652D01*
G01*
X13381210Y52306204D02*
G75*
G02*
X17228963Y53900000I3847760J-3847754D01*
G01*
X11139016Y17235006D02*
G75*
G03*
X10725000Y16235500I999484J-999506D01*
G01*
X67176989Y32198004D02*
G75*
G02*
X67725000Y30875000I-1322989J-1323004D01*
G01*
X67176989Y15198004D02*
G75*
G02*
X67725000Y13875000I-1322989J-1323004D01*
G01*
X63455526Y-13170516D02*
G75*
G03*
X65403956Y-12363433I-26J2755516D01*
G01*
X33759515Y40934503D02*
G75*
G02*
X37607265Y42528302I3847785J-3847803D01*
G01*
X101533213Y28987219D02*
G75*
G02*
X103240588Y29694433I1707387J-1707419D01*
G01*
X47283311Y-10704313D02*
G75*
G03*
X47644661Y-11576661I1233689J13D01*
G01*
X47371490Y54831812D02*
G75*
G02*
X48725000Y51564151I-3267660J-3267662D01*
G01*
X85064607Y-13076820D02*
G75*
G03*
X85138722Y-12897920I-178907J178920D01*
G01*
X48724996Y33775000D02*
G75*
G03*
X47929504Y35695495I-2715996J0D01*
G01*
X29971997Y58928003D02*
G75*
G02*
X30585210Y59182000I613203J-613203D01*
G01*
X105113151Y29929147D02*
G75*
G02*
X104546494Y29694433I-566651J566653D01*
G01*
X101705793Y39972480D02*
G75*
G02*
X102194651Y40175000I488907J-488880D01*
G01*
X59214036Y54610010D02*
G75*
G02*
X63061792Y53016207I-36J-5441610D01*
G01*
X65403960Y-12363437D02*
G75*
G03*
X66211022Y-10415003I-1948460J1948437D01*
G01*
X67018093Y-12363428D02*
G75*
G02*
X66211022Y-10415003I1948407J1948428D01*
G01*
X104548954Y38551089D02*
G75*
G02*
X105347865Y36622273I-1928854J-1928789D01*
G01*
X52091215Y53016199D02*
G75*
G02*
X55938963Y54610000I3847785J-3847799D01*
G01*
X48514143Y-11992049D02*
G75*
G02*
X47644661Y-11576661I152957J1437849D01*
G01*
X57261182Y-12922754D02*
G75*
G03*
X61931036Y-13170499I4669918J43889454D01*
G01*
X101705780Y39972493D02*
G75*
G02*
X101216894Y39770000I-488880J488907D01*
G01*
X52759515Y19684503D02*
G75*
G02*
X56607265Y21278302I3847785J-3847803D01*
G01*
X29725020Y55445050D02*
G75*
G03*
X29721499Y55453499I-12020J-50D01*
G01*
X51565215Y35490199D02*
G75*
G02*
X55412963Y37084000I3847785J-3847799D01*
G01*
X93902509Y40277490D02*
G75*
G02*
X93353264Y40050000I-549209J549210D01*
G01*
X93902489Y40277510D02*
G75*
G02*
X94451734Y40505001I549211J-549210D01*
G01*
X40767339Y59182012D02*
G75*
G02*
X44615095Y57588207I-39J-5441612D01*
G01*
X29718021Y55461949D02*
G75*
G03*
X29721500Y55453500I11879J-49D01*
G01*
X98015274Y40504989D02*
G75*
G02*
X98902499Y40137500I26J-1254689D01*
G01*
X67281997Y48796002D02*
G75*
G02*
X67725000Y47726500I-1069497J-1069502D01*
G01*
X15981181Y19900007D02*
G75*
G03*
X12264500Y18360500I19J-5256207D01*
G01*
X71735076Y-14826472D02*
G75*
G02*
X67887320Y-13232665I24J5441572D01*
G01*
X5878963Y15650004D02*
G75*
G03*
X2031207Y14056207I7J-5441554D01*
G01*
X29718005Y58314789D02*
G75*
G02*
X29972001Y58927999I867195J11D01*
G01*
X62690484Y19684503D02*
G75*
G03*
X58842734Y21278302I-3847784J-3847803D01*
G01*
%TO.N,matrix_pinky_bottom*%
X1414698Y2032001D02*
G75*
G03*
X3254327Y1270000I1839632J1839629D01*
G01*
X90611499Y9937501D02*
G75*
G02*
X89253504Y9375000I-1357999J1357999D01*
G01*
X326348Y2793996D02*
G75*
G02*
X883459Y2563235I2J-787876D01*
G01*
X77183784Y2863800D02*
G75*
G02*
X73336036Y1270000I-3847784J3847800D01*
G01*
X85948963Y9375010D02*
G75*
G03*
X82101208Y7781206I37J-5441610D01*
G01*
%TO.N,GND*%
X98015274Y40505001D02*
X94451734Y40505001D01*
X101216894Y39770000D02*
X99789724Y39770000D01*
X102194651Y40175000D02*
X102416636Y40175000D01*
X103284467Y39815532D02*
X103288103Y39811895D01*
%TO.N,matrix_index_bottom*%
X85580000Y6850000D02*
X85587500Y6842500D01*
X85605606Y6835000D02*
X94841504Y6835000D01*
X96199500Y7397500D02*
X96762000Y7960000D01*
%TO.N,matrix_inner_bottom*%
X82310000Y6600000D02*
X83462500Y5447500D01*
X86244881Y4295000D02*
X89253504Y4295000D01*
X90611500Y4857500D02*
X91174000Y5420000D01*
%TO.N,matrix_index_bottom*%
X76006936Y5486936D02*
X74720000Y4200000D01*
X77659514Y5853265D02*
X76425071Y5853265D01*
%TO.N,matrix_inner_bottom*%
X77056589Y12192000D02*
X75946000Y12192000D01*
X79100000Y10148589D02*
X79100000Y6600000D01*
%TO.N,matrix_middle_bottom*%
X72817146Y2170000D02*
X72842060Y2170000D01*
X74870000Y3010000D02*
X75710000Y3850000D01*
%TO.N,matrix_ring_bottom*%
X75285000Y2185000D02*
X75750000Y2650000D01*
%TO.N,matrix_pinky_bottom*%
X883460Y2563236D02*
X1414696Y2031999D01*
X3254327Y1270000D02*
X73336036Y1270000D01*
X82101207Y7781207D02*
X77183792Y2863792D01*
X89253504Y9375000D02*
X85948963Y9375000D01*
X0Y2794000D02*
X326348Y2794000D01*
X90611500Y9937500D02*
X91174000Y10500000D01*
%TO.N,matrix_middle_home*%
X38100000Y35786627D02*
X38100000Y36068000D01*
X86544524Y16755475D02*
X81942551Y21357448D01*
X86951506Y16586898D02*
X87189910Y16586898D01*
%TO.N,matrix_pinky_home*%
X96199500Y17557500D02*
X96762000Y18120000D01*
%TO.N,matrix_pinky_top*%
X83819646Y22860000D02*
X66682902Y22860000D01*
X83820500Y22860500D02*
X83820250Y22860250D01*
X61472300Y25912300D02*
X62998450Y24386150D01*
%TO.N,matrix_ring_home*%
X19561750Y31496000D02*
X19050000Y31496000D01*
X94675500Y15017500D02*
X95238000Y15580000D01*
%TO.N,matrix_pinky_bottom*%
X3113927Y5907927D02*
X0Y2794000D01*
%TO.N,GND*%
X48725000Y49650000D02*
X52091207Y53016207D01*
X103240588Y29694433D02*
X104546494Y29694433D01*
X84226853Y-13914589D02*
X85064615Y-13076828D01*
X2031207Y14056207D02*
X-8275000Y3750000D01*
X38842734Y42528302D02*
X37607265Y42528302D01*
X44615095Y57588207D02*
X47371490Y54831812D01*
X62690490Y19684509D02*
X67176992Y15198007D01*
X13381207Y35306207D02*
X10725000Y32650000D01*
X59214036Y54610000D02*
X55938963Y54610000D01*
X55412963Y37084000D02*
X60037036Y37084000D01*
X51565207Y35490207D02*
X49520495Y33445495D01*
X47283323Y-10704313D02*
X47283323Y-4893056D01*
X12264500Y18360500D02*
X11139011Y17235011D01*
X104538513Y38561485D02*
X104548932Y38551067D01*
X13381207Y52306207D02*
X10725000Y49650000D01*
X82025409Y-14826458D02*
X71735076Y-14826458D01*
X5878963Y32650000D02*
X10725000Y32650000D01*
X101533216Y28987216D02*
X100826000Y28280000D01*
X97469500Y27572500D02*
X96762000Y28280000D01*
X29725000Y36900000D02*
X33759509Y40934509D01*
X48725000Y49650000D02*
X48725000Y51564151D01*
X85138722Y-12897920D02*
X85138722Y-8204974D01*
X57261181Y-12922759D02*
X48514141Y-11992066D01*
X66211022Y-10415003D02*
X66211022Y-6549015D01*
X-5668107Y-3299263D02*
X-6704384Y-2262986D01*
X49520495Y16445495D02*
X52759509Y19684509D01*
X17228963Y53900000D02*
X29725000Y53900000D01*
X29718000Y55461949D02*
X29718000Y58314789D01*
X-8275000Y3750000D02*
X-8275000Y1528814D01*
X67887320Y-13232665D02*
X67018088Y-12363433D01*
X63061792Y53016207D02*
X67281997Y48796002D01*
X47929504Y35695495D02*
X42690490Y40934509D01*
X29725000Y19900000D02*
X15981181Y19900000D01*
X10139500Y15650000D02*
X5878963Y15650000D01*
X105347865Y30495803D02*
X105347865Y36622273D01*
X-8275000Y3750000D02*
X-8275000Y20750000D01*
X30585210Y59182000D02*
X40767339Y59182000D01*
X67176992Y32198007D02*
X63884792Y35490207D01*
X17228963Y36900000D02*
X29725000Y36900000D01*
X2031207Y31056207D02*
X-8275000Y20750000D01*
X61931036Y-13170499D02*
X63455526Y-13170499D01*
X-1820351Y-4893056D02*
X47283323Y-4893056D01*
X-8275000Y20750000D02*
X-8275000Y37750000D01*
X29725000Y53900000D02*
X29725000Y55445050D01*
X58842734Y21278302D02*
X56607265Y21278302D01*
%TO.N,matrix_pinky_home*%
X127000Y19812000D02*
X0Y19812000D01*
X343802Y19901802D02*
X3233634Y22791634D01*
%TO.N,matrix_pinky_top*%
X77500Y36830000D02*
X0Y36830000D01*
X209800Y36884800D02*
X3275000Y39950000D01*
%TO.N,matrix_ring_bottom*%
X48564848Y1720000D02*
X31209963Y1720000D01*
X22445814Y10484149D02*
X22445814Y12309929D01*
X20038499Y14732000D02*
X19050000Y14732000D01*
X19050000Y14732000D02*
X19103500Y14732000D01*
X24039606Y6636393D02*
X27362207Y3313792D01*
X21725972Y14033025D02*
X21736406Y14022592D01*
X19194830Y14769830D02*
X22275000Y17850000D01*
%TO.N,matrix_ring_home*%
X19095608Y31670608D02*
X22275000Y34850000D01*
X19050000Y31496000D02*
X19050000Y31560500D01*
%TO.N,matrix_ring_top*%
X23499905Y44572094D02*
X19304000Y48768000D01*
X86106000Y22339235D02*
X86106000Y26448036D01*
X22235755Y51699755D02*
X19304000Y48768000D01*
X27347661Y42978302D02*
X43539338Y42978302D01*
X87870000Y19318000D02*
X86995000Y20193000D01*
X74962036Y37592000D02*
X53433567Y37592000D01*
X96098000Y19996000D02*
X96762000Y20660000D01*
X87931798Y19332000D02*
X94494962Y19332000D01*
X84512207Y30295792D02*
X78809792Y35998207D01*
X49585810Y39185792D02*
X47387094Y41384509D01*
%TO.N,matrix_middle_bottom*%
X38100000Y18796000D02*
X41229391Y21925391D01*
X38100000Y18796000D02*
X38263002Y18796000D01*
X38541263Y18680740D02*
X53458211Y3763792D01*
%TO.N,matrix_middle_home*%
X38171500Y36068000D02*
X38100000Y36068000D01*
X38293558Y36118558D02*
X41275000Y39100000D01*
%TO.N,matrix_middle_top*%
X89152785Y21844000D02*
X89064000Y21844000D01*
X87375999Y22605999D02*
X87483219Y22498780D01*
X77012012Y39030214D02*
X85036465Y30823387D01*
X86614000Y24445630D02*
X86614000Y26953535D01*
X90582000Y21252000D02*
X91174000Y20660000D01*
X47399362Y42393566D02*
X41073542Y50498523D01*
X39173362Y52239501D02*
X38677853Y52239501D01*
X50992446Y40640000D02*
X73186572Y40640000D01*
X38100000Y52832000D02*
X38100000Y52705000D01*
X38189802Y52488197D02*
X38269249Y52408750D01*
X38100000Y52832000D02*
X41242119Y55974119D01*
%TO.N,matrix_index_bottom*%
X57150000Y14732000D02*
X60265525Y17847525D01*
X59089501Y8950462D02*
X59089501Y11421064D01*
X57150000Y14732000D02*
X58119750Y13762249D01*
X60683293Y5102705D02*
X61762393Y4023606D01*
%TO.N,matrix_index_home*%
X57162500Y31750000D02*
X57150000Y31750000D01*
X57183838Y31758838D02*
X60275000Y34850000D01*
%TO.N,matrix_index_top*%
X90582000Y28872000D02*
X91174000Y28280000D01*
X63215677Y42702322D02*
X57150000Y48768000D01*
X57150000Y48768000D02*
X57171500Y48768000D01*
X57208202Y48783202D02*
X60275000Y51850000D01*
X67063433Y41108530D02*
X73731506Y41108530D01*
X86795613Y30298386D02*
X77579262Y39514737D01*
X89152785Y29464000D02*
X88810000Y29464000D01*
%TO.N,matrix_inner_bottom*%
X75946000Y12192000D02*
X76056500Y12192000D01*
X76245135Y12270135D02*
X79275000Y15300000D01*
%TO.N,matrix_inner_home*%
X76200000Y29210000D02*
X79269696Y32279696D01*
%TO.N,matrix_inner_top*%
X76200000Y46228000D02*
X79270939Y49298939D01*
X76200000Y46228000D02*
X91020557Y31407442D01*
%TO.N,thumbs_near*%
X62493960Y-1650298D02*
X88453737Y-1650298D01*
X58359574Y-3870425D02*
X55372000Y-6858000D01*
X92301493Y-56506D02*
X95238000Y2880000D01*
%TO.N,thumbs_home*%
X77274200Y-5529799D02*
X74422000Y-8382000D01*
%TO.N,thumbs_far*%
X93218000Y-9906000D02*
X95845024Y-7278975D01*
X96836513Y-6653741D02*
X96836513Y2752798D01*
%TO.N,RAW*%
X96762000Y31164000D02*
X96762000Y30820000D01*
X95250000Y34089145D02*
X95250000Y37920000D01*
X96006000Y32264000D02*
X96518755Y31751244D01*
%TO.N,RST*%
X88069000Y38285000D02*
X88138000Y38354000D01*
X96399500Y26102500D02*
X96762000Y25740000D01*
X88000000Y38118419D02*
X88000000Y36650000D01*
%TO.N,pos*%
X98378033Y37845000D02*
X99680804Y37845000D01*
X101497500Y38597500D02*
X102250000Y39350000D01*
%TD*%
%TA.AperFunction,Conductor*%
%TO.N,GND*%
G36*
X68461891Y49547240D02*
G01*
X68622915Y49386216D01*
X68626342Y49377943D01*
X68623646Y49370472D01*
X68596713Y49338011D01*
X68468324Y49183271D01*
X68380461Y49000504D01*
X68355304Y48826205D01*
X68355434Y48825355D01*
X68355434Y48825352D01*
X68361773Y48783895D01*
X68381298Y48656206D01*
X68381523Y48655622D01*
X68381524Y48655620D01*
X68429417Y48531574D01*
X68446883Y48486336D01*
X68540503Y48312426D01*
X68650600Y48130307D01*
X68723139Y48007641D01*
X68765436Y47936114D01*
X68765773Y47935504D01*
X68873715Y47725303D01*
X68874211Y47724201D01*
X68961011Y47501125D01*
X68960817Y47492172D01*
X68957290Y47487646D01*
X67642787Y46465282D01*
X67634153Y46462908D01*
X67626368Y46467335D01*
X67625260Y46469050D01*
X67498371Y46709077D01*
X66805762Y48019238D01*
X67002537Y48212886D01*
X67172703Y48374562D01*
X67323571Y48512920D01*
X67462456Y48636614D01*
X67596672Y48754298D01*
X67630335Y48783895D01*
X67631429Y48784857D01*
X67631431Y48784858D01*
X67733531Y48874626D01*
X67733539Y48874633D01*
X67880315Y49006222D01*
X67880389Y49006290D01*
X68044435Y49157828D01*
X68233107Y49338011D01*
X68445405Y49547300D01*
X68453702Y49550667D01*
X68461891Y49547240D01*
G37*
%TD.AperFunction*%
%TD*%
%TA.AperFunction,Conductor*%
%TO.N,GND*%
G36*
X103052582Y40150004D02*
G01*
X103052581Y40150000D01*
X103052601Y40149996D01*
X103168301Y40103630D01*
X103168307Y40103624D01*
X103168308Y40103627D01*
X103267745Y40063710D01*
X103355694Y40028566D01*
X103355729Y40028552D01*
X103437077Y39996462D01*
X103437085Y39996459D01*
X103437100Y39996453D01*
X103516650Y39965728D01*
X103516695Y39965711D01*
X103599352Y39934627D01*
X103599399Y39934610D01*
X103599409Y39934606D01*
X103689911Y39901498D01*
X103793209Y39864626D01*
X103801416Y39861753D01*
X103906412Y39824995D01*
X103913088Y39819027D01*
X103914244Y39814181D01*
X103918921Y39574993D01*
X103926777Y39173225D01*
X103400131Y39183517D01*
X103286192Y39185744D01*
X103277988Y39189332D01*
X103275225Y39194046D01*
X103245095Y39293367D01*
X103244901Y39294089D01*
X103221419Y39394133D01*
X103221342Y39394482D01*
X103202381Y39487994D01*
X103183582Y39574809D01*
X103183581Y39574813D01*
X103183542Y39574993D01*
X103160387Y39655597D01*
X103128447Y39730077D01*
X103083253Y39798706D01*
X103059699Y39822309D01*
X103020726Y39861363D01*
X103020721Y39861367D01*
X103020336Y39861753D01*
X102935226Y39919492D01*
X102833395Y39967507D01*
X102827374Y39974135D01*
X102827511Y39982408D01*
X102833091Y39996459D01*
X102911404Y40193656D01*
X102917642Y40200080D01*
X102926608Y40200206D01*
X103052582Y40150004D01*
G37*
%TD.AperFunction*%
%TD*%
%TA.AperFunction,Conductor*%
%TO.N,GND*%
G36*
X11765428Y49218083D02*
G01*
X11889029Y49089553D01*
X11892294Y49081214D01*
X11890844Y49075798D01*
X11758651Y48835792D01*
X11758030Y48834789D01*
X11757756Y48834392D01*
X11617204Y48631166D01*
X11616643Y48630420D01*
X11475382Y48457445D01*
X11475084Y48457095D01*
X11337780Y48302133D01*
X11209079Y48152767D01*
X11208952Y48152595D01*
X11093880Y47996876D01*
X11093876Y47996870D01*
X11093653Y47996568D01*
X11093467Y47996233D01*
X10996385Y47821594D01*
X10996016Y47820931D01*
X10920684Y47613253D01*
X10872173Y47360929D01*
X10872152Y47360545D01*
X10855613Y47062407D01*
X10851733Y47054336D01*
X10843931Y47051355D01*
X10616061Y47051355D01*
X10607788Y47054782D01*
X10604379Y47062398D01*
X10604379Y47062407D01*
X10587620Y47360545D01*
X10587592Y47361047D01*
X10587592Y47361050D01*
X10587570Y47361435D01*
X10538360Y47613955D01*
X10461991Y47821594D01*
X10363081Y47997029D01*
X10362863Y47997320D01*
X10362859Y47997326D01*
X10246388Y48152756D01*
X10246252Y48152938D01*
X10116122Y48302001D01*
X9977479Y48456708D01*
X9977166Y48457071D01*
X9834744Y48629930D01*
X9834169Y48630689D01*
X9833838Y48631166D01*
X9788146Y48696853D01*
X9692476Y48834392D01*
X9691838Y48835419D01*
X9559167Y49075795D01*
X9558169Y49084694D01*
X9560977Y49089559D01*
X10276455Y49833568D01*
X10277986Y49835160D01*
X10725000Y50300000D01*
X11765428Y49218083D01*
G37*
%TD.AperFunction*%
%TD*%
%TA.AperFunction,Conductor*%
%TO.N,GND*%
G36*
X-6524162Y39661972D02*
G01*
X-6363027Y39500838D01*
X-6359600Y39492565D01*
X-6362576Y39484770D01*
X-6561251Y39262446D01*
X-6704420Y39050033D01*
X-6704615Y39049611D01*
X-6704618Y39049606D01*
X-6737927Y38977585D01*
X-6796887Y38850101D01*
X-6850824Y38656976D01*
X-6878404Y38464983D01*
X-6891800Y38268447D01*
X-6891802Y38268403D01*
X-6903171Y38061952D01*
X-6903207Y38061468D01*
X-6924685Y37839519D01*
X-6924815Y37838577D01*
X-6968504Y37595425D01*
X-6968779Y37594248D01*
X-7044607Y37331655D01*
X-7050195Y37324657D01*
X-7055617Y37323204D01*
X-8734619Y37290381D01*
X-8719540Y38061692D01*
X-8701796Y38969382D01*
X-8698209Y38977585D01*
X-8693346Y38980393D01*
X-8430750Y39056220D01*
X-8429576Y39056495D01*
X-8186420Y39100184D01*
X-8185483Y39100314D01*
X-8121774Y39106479D01*
X-7963531Y39121792D01*
X-7963047Y39121828D01*
X-7874592Y39126699D01*
X-7756553Y39133199D01*
X-7756514Y39133202D01*
X-7756490Y39133203D01*
X-7560236Y39146579D01*
X-7560016Y39146594D01*
X-7368023Y39174174D01*
X-7367668Y39174273D01*
X-7367664Y39174274D01*
X-7175345Y39227986D01*
X-7175343Y39227987D01*
X-7174898Y39228111D01*
X-7100659Y39262446D01*
X-6975394Y39320380D01*
X-6975389Y39320383D01*
X-6974967Y39320578D01*
X-6762553Y39463748D01*
X-6540230Y39662423D01*
X-6531779Y39665381D01*
X-6524162Y39661972D01*
G37*
%TD.AperFunction*%
%TD*%
%TA.AperFunction,Conductor*%
%TO.N,GND*%
G36*
X87809889Y40449192D02*
G01*
X87958468Y40306311D01*
X88225000Y40050000D01*
X87858750Y39697795D01*
X87809693Y39650619D01*
X87801354Y39647354D01*
X87796537Y39648496D01*
X87693396Y39697795D01*
X87597903Y39741711D01*
X87512907Y39778557D01*
X87512841Y39778583D01*
X87512830Y39778588D01*
X87434045Y39810101D01*
X87434024Y39810109D01*
X87433944Y39810141D01*
X87405327Y39820543D01*
X87356642Y39838239D01*
X87356638Y39838240D01*
X87356551Y39838272D01*
X87276266Y39864759D01*
X87276217Y39864774D01*
X87276198Y39864780D01*
X87188625Y39891410D01*
X87089165Y39920034D01*
X86973423Y39952440D01*
X86848213Y39987297D01*
X86841163Y39992817D01*
X86840083Y40001713D01*
X86901121Y40220460D01*
X86906645Y40227507D01*
X86915028Y40228713D01*
X87028116Y40202526D01*
X87134651Y40189952D01*
X87227443Y40191722D01*
X87227876Y40191797D01*
X87227877Y40191797D01*
X87247712Y40195229D01*
X87310202Y40206041D01*
X87310596Y40206170D01*
X87310603Y40206172D01*
X87358547Y40221899D01*
X87386639Y40231114D01*
X87460463Y40265148D01*
X87535386Y40306347D01*
X87615118Y40352919D01*
X87703153Y40402945D01*
X87703561Y40403167D01*
X87796407Y40451153D01*
X87805330Y40451907D01*
X87809889Y40449192D01*
G37*
%TD.AperFunction*%
%TD*%
%TA.AperFunction,Conductor*%
%TO.N,GND*%
G36*
X103919996Y39519995D02*
G01*
X104006385Y39518305D01*
X104213853Y39514247D01*
X104222057Y39510659D01*
X104224804Y39506000D01*
X104252591Y39415978D01*
X104252790Y39415251D01*
X104273714Y39327835D01*
X104273822Y39327335D01*
X104289203Y39247728D01*
X104302668Y39173799D01*
X104317846Y39103546D01*
X104338417Y39034716D01*
X104368057Y38965057D01*
X104410446Y38892317D01*
X104410652Y38892044D01*
X104410653Y38892042D01*
X104460277Y38826172D01*
X104469262Y38814245D01*
X104469450Y38814041D01*
X104540573Y38736848D01*
X104543658Y38728442D01*
X104540241Y38720647D01*
X104379349Y38559755D01*
X104371076Y38556328D01*
X104363148Y38559423D01*
X104285954Y38630546D01*
X104285944Y38630554D01*
X104285749Y38630734D01*
X104285530Y38630899D01*
X104285524Y38630904D01*
X104207951Y38689343D01*
X104207949Y38689344D01*
X104207676Y38689550D01*
X104171047Y38710895D01*
X104135243Y38731760D01*
X104135237Y38731763D01*
X104134935Y38731939D01*
X104065276Y38761580D01*
X104064963Y38761673D01*
X104064959Y38761675D01*
X103996652Y38782088D01*
X103996445Y38782150D01*
X103943949Y38793492D01*
X103926303Y38797305D01*
X103926292Y38797307D01*
X103926191Y38797329D01*
X103852262Y38810794D01*
X103772677Y38826173D01*
X103772176Y38826280D01*
X103684723Y38847214D01*
X103683996Y38847414D01*
X103593989Y38875199D01*
X103587095Y38880913D01*
X103585742Y38886149D01*
X103582833Y39035033D01*
X103573226Y39526778D01*
X103919996Y39519995D01*
G37*
%TD.AperFunction*%
%TD*%
%TA.AperFunction,Conductor*%
%TO.N,thumbs_near*%
G36*
X61024538Y-1838942D02*
G01*
X61030736Y-1845018D01*
X61122626Y-2053394D01*
X61122829Y-2062347D01*
X61117431Y-2068436D01*
X61002753Y-2129638D01*
X60858849Y-2206438D01*
X60858845Y-2206441D01*
X60858359Y-2206700D01*
X60816898Y-2240241D01*
X60665791Y-2362481D01*
X60665789Y-2362483D01*
X60665265Y-2362907D01*
X60664852Y-2363441D01*
X60664850Y-2363443D01*
X60534549Y-2531904D01*
X60534546Y-2531908D01*
X60534129Y-2532448D01*
X60451357Y-2715824D01*
X60403355Y-2913537D01*
X60376530Y-3126088D01*
X60376521Y-3126195D01*
X60376520Y-3126204D01*
X60357296Y-3353875D01*
X60357275Y-3354097D01*
X60332074Y-3597318D01*
X60331967Y-3598093D01*
X60287275Y-3857201D01*
X60287010Y-3858365D01*
X60211471Y-4126349D01*
X60205928Y-4133382D01*
X60200440Y-4134873D01*
X59325419Y-4151979D01*
X58521496Y-4167696D01*
X58541558Y-3141369D01*
X58541855Y-3126204D01*
X58554321Y-2488460D01*
X58557909Y-2480256D01*
X58562478Y-2477538D01*
X58852556Y-2385433D01*
X58853200Y-2385248D01*
X59011011Y-2344919D01*
X59111098Y-2319342D01*
X59111702Y-2319205D01*
X59192451Y-2303141D01*
X59340457Y-2273698D01*
X59340908Y-2273617D01*
X59442436Y-2257524D01*
X59551443Y-2240247D01*
X59551520Y-2240235D01*
X59754444Y-2210795D01*
X59960279Y-2177071D01*
X60131313Y-2141021D01*
X60179479Y-2130869D01*
X60179482Y-2130868D01*
X60179673Y-2130828D01*
X60271210Y-2105656D01*
X60423140Y-2063877D01*
X60423154Y-2063873D01*
X60423320Y-2063827D01*
X60701909Y-1967825D01*
X60702030Y-1967775D01*
X60702044Y-1967770D01*
X60839824Y-1911148D01*
X61015585Y-1838917D01*
X61024538Y-1838942D01*
G37*
%TD.AperFunction*%
%TD*%
%TA.AperFunction,Conductor*%
%TO.N,matrix_pinky_home*%
G36*
X65501809Y22486119D02*
G01*
X65564005Y22453736D01*
X65564534Y22453443D01*
X65623938Y22418503D01*
X65624214Y22418333D01*
X65676809Y22385118D01*
X65676811Y22385115D01*
X65676812Y22385116D01*
X65725640Y22354261D01*
X65773647Y22326476D01*
X65773849Y22326379D01*
X65773855Y22326376D01*
X65804233Y22311817D01*
X65823935Y22302374D01*
X65879610Y22282564D01*
X65879931Y22282490D01*
X65879929Y22282490D01*
X65943475Y22267728D01*
X65943478Y22267728D01*
X65943777Y22267658D01*
X65944086Y22267620D01*
X65944090Y22267619D01*
X65988113Y22262162D01*
X66019538Y22258266D01*
X66075541Y22256244D01*
X66098722Y22255407D01*
X66106866Y22251684D01*
X66110000Y22243715D01*
X66110000Y22016285D01*
X66106573Y22008012D01*
X66098722Y22004593D01*
X66066068Y22003413D01*
X66019538Y22001733D01*
X65988113Y21997837D01*
X65944090Y21992380D01*
X65944086Y21992379D01*
X65943777Y21992341D01*
X65943478Y21992271D01*
X65943475Y21992271D01*
X65905442Y21983436D01*
X65879610Y21977435D01*
X65823935Y21957625D01*
X65823660Y21957493D01*
X65773855Y21933623D01*
X65773849Y21933620D01*
X65773647Y21933523D01*
X65725640Y21905738D01*
X65676812Y21874883D01*
X65624214Y21841666D01*
X65623938Y21841496D01*
X65573260Y21811688D01*
X65564534Y21806556D01*
X65564005Y21806263D01*
X65501809Y21773881D01*
X65492889Y21773100D01*
X65488297Y21775826D01*
X65128769Y22121567D01*
X65125181Y22129771D01*
X65128769Y22138433D01*
X65249984Y22255000D01*
X65488297Y22484174D01*
X65496635Y22487439D01*
X65501809Y22486119D01*
G37*
%TD.AperFunction*%
%TD*%
%TA.AperFunction,Conductor*%
%TO.N,GND*%
G36*
X48444660Y18237894D02*
G01*
X48612657Y17971078D01*
X48768003Y17743893D01*
X48768069Y17743804D01*
X48768077Y17743793D01*
X48830800Y17659427D01*
X48908753Y17554574D01*
X49039090Y17391626D01*
X49163197Y17243551D01*
X49257377Y17131904D01*
X49285180Y17098944D01*
X49285317Y17098779D01*
X49329605Y17044283D01*
X49329606Y17044283D01*
X49409458Y16946027D01*
X49539979Y16773585D01*
X49681005Y16570026D01*
X49836719Y16323854D01*
X48913320Y15203047D01*
X48906049Y15194221D01*
X48754408Y15010162D01*
X48746503Y15005956D01*
X48737938Y15008572D01*
X48737215Y15009220D01*
X48736248Y15010162D01*
X47776071Y15945195D01*
X47543322Y16171850D01*
X47539786Y16180077D01*
X47541148Y16185713D01*
X47580037Y16259047D01*
X47660712Y16411176D01*
X47661415Y16412335D01*
X47802277Y16616081D01*
X47802794Y16616771D01*
X47929388Y16773585D01*
X47950272Y16799455D01*
X47950435Y16799652D01*
X48093256Y16968635D01*
X48093272Y16968654D01*
X48093339Y16968734D01*
X48220342Y17131618D01*
X48320188Y17295814D01*
X48381715Y17468937D01*
X48393758Y17658604D01*
X48345154Y17872434D01*
X48344854Y17873045D01*
X48344853Y17873049D01*
X48229450Y18108433D01*
X48228885Y18117369D01*
X48233890Y18123588D01*
X48428694Y18241665D01*
X48437546Y18243023D01*
X48444660Y18237894D01*
G37*
%TD.AperFunction*%
%TD*%
%TA.AperFunction,Conductor*%
%TO.N,matrix_middle_home*%
G36*
X79541702Y23964175D02*
G01*
X79780016Y23735000D01*
X79901231Y23618433D01*
X79904819Y23610229D01*
X79901231Y23601567D01*
X79541703Y23255826D01*
X79533364Y23252561D01*
X79528191Y23253881D01*
X79465994Y23286263D01*
X79465465Y23286556D01*
X79456739Y23291688D01*
X79406061Y23321496D01*
X79405785Y23321666D01*
X79353190Y23354881D01*
X79353188Y23354884D01*
X79353187Y23354883D01*
X79304437Y23385689D01*
X79304427Y23385695D01*
X79304359Y23385738D01*
X79256352Y23413523D01*
X79256150Y23413620D01*
X79256144Y23413623D01*
X79206339Y23437493D01*
X79206064Y23437625D01*
X79150389Y23457435D01*
X79124557Y23463436D01*
X79086524Y23472271D01*
X79086521Y23472271D01*
X79086222Y23472341D01*
X79085913Y23472379D01*
X79085909Y23472380D01*
X79041886Y23477837D01*
X79010461Y23481733D01*
X78964212Y23483403D01*
X78931278Y23484593D01*
X78923134Y23488316D01*
X78920000Y23496285D01*
X78920000Y23723715D01*
X78923427Y23731988D01*
X78931278Y23735407D01*
X78954870Y23736259D01*
X79010461Y23738266D01*
X79041886Y23742162D01*
X79085909Y23747619D01*
X79085913Y23747620D01*
X79086222Y23747658D01*
X79086521Y23747728D01*
X79086524Y23747728D01*
X79150070Y23762490D01*
X79150068Y23762490D01*
X79150389Y23762564D01*
X79206064Y23782374D01*
X79225766Y23791817D01*
X79256144Y23806376D01*
X79256150Y23806379D01*
X79256352Y23806476D01*
X79304359Y23834261D01*
X79353187Y23865116D01*
X79405785Y23898333D01*
X79406061Y23898503D01*
X79465465Y23933443D01*
X79465994Y23933736D01*
X79528191Y23966119D01*
X79537112Y23966900D01*
X79541702Y23964175D01*
G37*
%TD.AperFunction*%
%TD*%
%TA.AperFunction,Conductor*%
%TO.N,GND*%
G36*
X31475838Y21811973D02*
G01*
X31636973Y21650838D01*
X31640400Y21642565D01*
X31637425Y21634770D01*
X31438748Y21412446D01*
X31379320Y21324275D01*
X31329439Y21250268D01*
X31295579Y21200032D01*
X31295384Y21199610D01*
X31295381Y21199605D01*
X31258278Y21119381D01*
X31203112Y21000101D01*
X31202988Y20999656D01*
X31202987Y20999654D01*
X31186019Y20938897D01*
X31149175Y20806976D01*
X31121595Y20614983D01*
X31108199Y20418447D01*
X31108197Y20418403D01*
X31096828Y20211952D01*
X31096792Y20211468D01*
X31075314Y19989519D01*
X31075184Y19988577D01*
X31031495Y19745425D01*
X31031220Y19744248D01*
X30955393Y19481655D01*
X30949805Y19474657D01*
X30944383Y19473204D01*
X29910160Y19452986D01*
X29265381Y19440381D01*
X29294675Y20938897D01*
X29298204Y21119382D01*
X29301791Y21127585D01*
X29306654Y21130393D01*
X29569249Y21206220D01*
X29570423Y21206495D01*
X29813579Y21250184D01*
X29814516Y21250314D01*
X29878225Y21256479D01*
X30036468Y21271792D01*
X30036952Y21271828D01*
X30125398Y21276699D01*
X30243447Y21283199D01*
X30243486Y21283202D01*
X30243510Y21283203D01*
X30439763Y21296580D01*
X30439983Y21296595D01*
X30631976Y21324175D01*
X30632331Y21324274D01*
X30632335Y21324275D01*
X30824654Y21377987D01*
X30824656Y21377988D01*
X30825101Y21378112D01*
X30899338Y21412446D01*
X31024605Y21470381D01*
X31024610Y21470384D01*
X31025032Y21470579D01*
X31237446Y21613748D01*
X31459770Y21812424D01*
X31468221Y21815382D01*
X31475838Y21811973D01*
G37*
%TD.AperFunction*%
%TD*%
%TA.AperFunction,Conductor*%
%TO.N,RST*%
G36*
X88275965Y37013020D02*
G01*
X88330176Y36980176D01*
X88331384Y36979444D01*
X88343592Y36972048D01*
X88343988Y36971796D01*
X88403166Y36932611D01*
X88403239Y36932563D01*
X88457955Y36895747D01*
X88457997Y36895721D01*
X88458015Y36895709D01*
X88511370Y36862435D01*
X88511377Y36862431D01*
X88511563Y36862315D01*
X88567692Y36833098D01*
X88629971Y36808927D01*
X88630319Y36808839D01*
X88630321Y36808838D01*
X88701706Y36790714D01*
X88702029Y36790632D01*
X88759238Y36782877D01*
X88787214Y36779084D01*
X88787219Y36779084D01*
X88787496Y36779046D01*
X88878762Y36775444D01*
X88886893Y36771693D01*
X88890000Y36763753D01*
X88890000Y36536247D01*
X88886573Y36527974D01*
X88878763Y36524556D01*
X88787496Y36520953D01*
X88787222Y36520916D01*
X88787212Y36520915D01*
X88743229Y36514952D01*
X88702029Y36509367D01*
X88701706Y36509285D01*
X88630321Y36491161D01*
X88630319Y36491160D01*
X88629971Y36491072D01*
X88567692Y36466901D01*
X88511563Y36437684D01*
X88511377Y36437568D01*
X88511370Y36437564D01*
X88458015Y36404290D01*
X88457997Y36404278D01*
X88457955Y36404252D01*
X88457896Y36404212D01*
X88403269Y36367456D01*
X88403197Y36367408D01*
X88343989Y36328203D01*
X88343592Y36327951D01*
X88276259Y36287157D01*
X88275645Y36286811D01*
X88203620Y36248929D01*
X88194704Y36248111D01*
X88190067Y36250850D01*
X88004311Y36429483D01*
X87782021Y36643248D01*
X87778433Y36651452D01*
X87778841Y36653505D01*
X87778787Y36653642D01*
X88196150Y37055000D01*
X88275965Y37013020D01*
G37*
%TD.AperFunction*%
%TD*%
%TA.AperFunction,Conductor*%
%TO.N,GND*%
G36*
X88203621Y40451070D02*
G01*
X88275642Y40413190D01*
X88276259Y40412842D01*
X88343592Y40372048D01*
X88343988Y40371796D01*
X88403166Y40332611D01*
X88403239Y40332563D01*
X88457955Y40295747D01*
X88457997Y40295721D01*
X88458015Y40295709D01*
X88511370Y40262435D01*
X88511377Y40262431D01*
X88511563Y40262315D01*
X88567692Y40233098D01*
X88629971Y40208927D01*
X88630319Y40208839D01*
X88630321Y40208838D01*
X88701706Y40190714D01*
X88702029Y40190632D01*
X88759238Y40182877D01*
X88787214Y40179084D01*
X88787219Y40179084D01*
X88787496Y40179046D01*
X88878762Y40175444D01*
X88886893Y40171693D01*
X88890000Y40163753D01*
X88890000Y39936247D01*
X88886573Y39927974D01*
X88878763Y39924556D01*
X88787496Y39920953D01*
X88787222Y39920916D01*
X88787212Y39920915D01*
X88743229Y39914952D01*
X88702029Y39909367D01*
X88701706Y39909285D01*
X88630321Y39891161D01*
X88630319Y39891160D01*
X88629971Y39891072D01*
X88567692Y39866901D01*
X88511563Y39837684D01*
X88511377Y39837568D01*
X88511370Y39837564D01*
X88458015Y39804290D01*
X88457997Y39804278D01*
X88457955Y39804252D01*
X88457896Y39804212D01*
X88403269Y39767456D01*
X88403197Y39767408D01*
X88343989Y39728203D01*
X88343592Y39727951D01*
X88276259Y39687157D01*
X88275645Y39686811D01*
X88203620Y39648929D01*
X88194704Y39648111D01*
X88190067Y39650850D01*
X87775000Y40050000D01*
X88000000Y40266372D01*
X88030547Y40295747D01*
X88190064Y40449148D01*
X88198404Y40452413D01*
X88203621Y40451070D01*
G37*
%TD.AperFunction*%
%TD*%
%TA.AperFunction,Conductor*%
%TO.N,matrix_middle_home*%
G36*
X38477609Y35936049D02*
G01*
X38465132Y35897975D01*
X38453579Y35862720D01*
X38432701Y35786910D01*
X38417016Y35710902D01*
X38408566Y35636979D01*
X38408570Y35636611D01*
X38408570Y35636604D01*
X38409133Y35589495D01*
X38409396Y35567426D01*
X38421546Y35504525D01*
X38447060Y35450562D01*
X38487980Y35407819D01*
X38546348Y35378581D01*
X38613954Y35366902D01*
X38621522Y35362118D01*
X38623644Y35354741D01*
X38617399Y35239743D01*
X38611386Y35129017D01*
X38607515Y35120941D01*
X38599069Y35117968D01*
X38597383Y35118183D01*
X38513466Y35135157D01*
X38509705Y35136629D01*
X38441228Y35178288D01*
X38438305Y35180813D01*
X38389410Y35239743D01*
X38387943Y35241994D01*
X38352327Y35313442D01*
X38351788Y35314704D01*
X38323607Y35393088D01*
X38323536Y35393292D01*
X38296879Y35471977D01*
X38296800Y35472211D01*
X38265292Y35545211D01*
X38250123Y35566917D01*
X38223215Y35605418D01*
X38222644Y35606235D01*
X38162451Y35649342D01*
X38135012Y35655619D01*
X38087380Y35666514D01*
X38080079Y35671699D01*
X38078289Y35677895D01*
X38077775Y35928474D01*
X38077081Y36266682D01*
X38477609Y35936049D01*
G37*
%TD.AperFunction*%
%TD*%
%TA.AperFunction,Conductor*%
%TO.N,matrix_middle_home*%
G36*
X87070071Y16964921D02*
G01*
X87074396Y16961482D01*
X87379275Y16569140D01*
X87381645Y16560505D01*
X87377215Y16552722D01*
X87375503Y16551617D01*
X86914534Y16308002D01*
X86905618Y16307166D01*
X86900971Y16309900D01*
X86847633Y16361028D01*
X86794348Y16407633D01*
X86745406Y16446731D01*
X86699001Y16481181D01*
X86653327Y16513846D01*
X86653286Y16513876D01*
X86606695Y16547501D01*
X86606468Y16547669D01*
X86601267Y16551617D01*
X86557119Y16585130D01*
X86556794Y16585386D01*
X86502817Y16629581D01*
X86502450Y16629895D01*
X86442020Y16683686D01*
X86441677Y16684003D01*
X86381308Y16742222D01*
X86377732Y16750432D01*
X86381157Y16758917D01*
X86541886Y16919646D01*
X86550159Y16923073D01*
X86557727Y16920297D01*
X86603107Y16881815D01*
X86653934Y16854304D01*
X86654652Y16854125D01*
X86654656Y16854124D01*
X86685561Y16846442D01*
X86702892Y16842134D01*
X86750885Y16842708D01*
X86759264Y16844582D01*
X86798414Y16853336D01*
X86798418Y16853337D01*
X86798815Y16853426D01*
X86821922Y16862079D01*
X86847389Y16871615D01*
X86847394Y16871617D01*
X86847586Y16871689D01*
X86869623Y16881815D01*
X86898070Y16894886D01*
X86898121Y16894910D01*
X86951131Y16920395D01*
X86951432Y16920534D01*
X86966518Y16927267D01*
X87007618Y16945609D01*
X87008341Y16945904D01*
X87061124Y16965286D01*
X87070071Y16964921D01*
G37*
%TD.AperFunction*%
%TD*%
%TA.AperFunction,Conductor*%
%TO.N,matrix_middle_home*%
G36*
X87070071Y16964921D02*
G01*
X87074396Y16961482D01*
X87379275Y16569140D01*
X87381645Y16560505D01*
X87377215Y16552722D01*
X87375503Y16551617D01*
X86914534Y16308002D01*
X86905618Y16307166D01*
X86900971Y16309900D01*
X86847633Y16361028D01*
X86794348Y16407633D01*
X86745406Y16446731D01*
X86699001Y16481181D01*
X86653327Y16513846D01*
X86653286Y16513876D01*
X86606695Y16547501D01*
X86606468Y16547669D01*
X86601267Y16551617D01*
X86557119Y16585130D01*
X86556794Y16585386D01*
X86502817Y16629581D01*
X86502450Y16629895D01*
X86442020Y16683686D01*
X86441677Y16684003D01*
X86381308Y16742222D01*
X86377732Y16750432D01*
X86381157Y16758917D01*
X86541886Y16919646D01*
X86550159Y16923073D01*
X86557727Y16920297D01*
X86603107Y16881815D01*
X86653934Y16854304D01*
X86654652Y16854125D01*
X86654656Y16854124D01*
X86685561Y16846442D01*
X86702892Y16842134D01*
X86750885Y16842708D01*
X86759264Y16844582D01*
X86798414Y16853336D01*
X86798418Y16853337D01*
X86798815Y16853426D01*
X86821922Y16862079D01*
X86847389Y16871615D01*
X86847394Y16871617D01*
X86847586Y16871689D01*
X86869623Y16881815D01*
X86898070Y16894886D01*
X86898121Y16894910D01*
X86951131Y16920395D01*
X86951432Y16920534D01*
X86966518Y16927267D01*
X87007618Y16945609D01*
X87008341Y16945904D01*
X87061124Y16965286D01*
X87070071Y16964921D01*
G37*
%TD.AperFunction*%
%TD*%
%TA.AperFunction,Conductor*%
%TO.N,matrix_middle_bottom*%
G36*
X38443498Y19016424D02*
G01*
X38493972Y18961169D01*
X38537092Y18911004D01*
X38541268Y18905902D01*
X38575689Y18863852D01*
X38612592Y18817639D01*
X38650630Y18770292D01*
X38692632Y18719734D01*
X38741429Y18663892D01*
X38741460Y18663859D01*
X38741472Y18663845D01*
X38749347Y18655326D01*
X38799849Y18600692D01*
X38799890Y18600650D01*
X38862651Y18536330D01*
X38865976Y18528015D01*
X38862550Y18519886D01*
X38701706Y18359042D01*
X38693433Y18355615D01*
X38685706Y18358530D01*
X38638716Y18399874D01*
X38638324Y18400122D01*
X38638321Y18400124D01*
X38587215Y18432424D01*
X38587214Y18432424D01*
X38586737Y18432726D01*
X38568067Y18439985D01*
X38537473Y18451880D01*
X38537470Y18451881D01*
X38536914Y18452097D01*
X38536322Y18452196D01*
X38488683Y18460159D01*
X38488678Y18460159D01*
X38488154Y18460247D01*
X38439364Y18459434D01*
X38389451Y18451920D01*
X38389244Y18451872D01*
X38389236Y18451871D01*
X38337410Y18439985D01*
X38337375Y18439976D01*
X38337321Y18439964D01*
X38337222Y18439939D01*
X38337223Y18439939D01*
X38282006Y18425857D01*
X38281791Y18425804D01*
X38222339Y18411834D01*
X38221730Y18411708D01*
X38165031Y18401534D01*
X38156283Y18403446D01*
X38152677Y18407478D01*
X37915360Y18845881D01*
X37914435Y18854788D01*
X37920680Y18862043D01*
X37960916Y18880918D01*
X38382842Y19078842D01*
X38443498Y19016424D01*
G37*
%TD.AperFunction*%
%TD*%
%TA.AperFunction,Conductor*%
%TO.N,GND*%
G36*
X11723209Y17979924D02*
G01*
X11884332Y17818801D01*
X11887759Y17810528D01*
X11884980Y17802958D01*
X11851876Y17763941D01*
X11726015Y17615601D01*
X11725725Y17615061D01*
X11638138Y17452098D01*
X11627564Y17432425D01*
X11586032Y17257358D01*
X11590846Y17086108D01*
X11631437Y16914383D01*
X11697232Y16737892D01*
X11772891Y16563350D01*
X11777628Y16552421D01*
X11777662Y16552342D01*
X11862027Y16353741D01*
X11862266Y16353131D01*
X11939948Y16137425D01*
X11940276Y16136356D01*
X11998898Y15906817D01*
X11997625Y15897953D01*
X11993639Y15893924D01*
X10558684Y15021638D01*
X9805762Y16569238D01*
X9953283Y16707221D01*
X9953287Y16707224D01*
X10017962Y16767718D01*
X10018610Y16768281D01*
X10210493Y16923001D01*
X10211181Y16923515D01*
X10388807Y17046382D01*
X10389394Y17046763D01*
X10558643Y17149449D01*
X10558960Y17149634D01*
X10725576Y17243702D01*
X10725583Y17243706D01*
X10895030Y17340587D01*
X10895156Y17340659D01*
X10895241Y17340712D01*
X10895261Y17340724D01*
X11073071Y17451894D01*
X11073073Y17451895D01*
X11073218Y17451986D01*
X11265449Y17589259D01*
X11265609Y17589391D01*
X11265617Y17589397D01*
X11477399Y17763941D01*
X11477539Y17764056D01*
X11573988Y17854929D01*
X11706913Y17980167D01*
X11715284Y17983346D01*
X11723209Y17979924D01*
G37*
%TD.AperFunction*%
%TD*%
%TA.AperFunction,Conductor*%
%TO.N,GND*%
G36*
X67004592Y32547302D02*
G01*
X67216890Y32338013D01*
X67405562Y32157830D01*
X67569608Y32006292D01*
X67569682Y32006224D01*
X67716459Y31874634D01*
X67716467Y31874627D01*
X67853326Y31754299D01*
X67987474Y31636675D01*
X67987542Y31636615D01*
X68126368Y31512973D01*
X68126494Y31512859D01*
X68277221Y31374630D01*
X68277372Y31374489D01*
X68447383Y31212960D01*
X68447531Y31212817D01*
X68638031Y31025346D01*
X68641524Y31017101D01*
X68640168Y31011539D01*
X67824740Y29469050D01*
X67817844Y29463337D01*
X67808928Y29464174D01*
X67807213Y29465282D01*
X67802369Y29469050D01*
X66492710Y30487646D01*
X66488283Y30495431D01*
X66488989Y30501125D01*
X66575788Y30724201D01*
X66576284Y30725303D01*
X66684226Y30935505D01*
X66684563Y30936115D01*
X66733718Y31019238D01*
X66799398Y31130308D01*
X66909419Y31312301D01*
X66909422Y31312306D01*
X66909495Y31312427D01*
X67003114Y31486337D01*
X67068700Y31656207D01*
X67068795Y31656828D01*
X67094563Y31825354D01*
X67094563Y31825357D01*
X67094693Y31826207D01*
X67069536Y32000506D01*
X66981672Y32183273D01*
X66826351Y32370474D01*
X66823705Y32379029D01*
X66827082Y32386218D01*
X66988106Y32547242D01*
X66996379Y32550669D01*
X67004592Y32547302D01*
G37*
%TD.AperFunction*%
%TD*%
%TA.AperFunction,Conductor*%
%TO.N,GND*%
G36*
X67004592Y15547302D02*
G01*
X67216890Y15338013D01*
X67405562Y15157830D01*
X67569608Y15006292D01*
X67569682Y15006224D01*
X67716459Y14874634D01*
X67716467Y14874627D01*
X67853326Y14754299D01*
X67987474Y14636675D01*
X67987542Y14636615D01*
X68126368Y14512973D01*
X68126494Y14512859D01*
X68277221Y14374630D01*
X68277372Y14374489D01*
X68447383Y14212960D01*
X68447531Y14212817D01*
X68638031Y14025346D01*
X68641524Y14017101D01*
X68640168Y14011539D01*
X67824740Y12469050D01*
X67817844Y12463337D01*
X67808928Y12464174D01*
X67807213Y12465282D01*
X67802369Y12469050D01*
X66492710Y13487646D01*
X66488283Y13495431D01*
X66488989Y13501125D01*
X66575788Y13724201D01*
X66576284Y13725303D01*
X66684226Y13935505D01*
X66684563Y13936115D01*
X66733718Y14019238D01*
X66799398Y14130308D01*
X66909419Y14312301D01*
X66909422Y14312306D01*
X66909495Y14312427D01*
X67003114Y14486337D01*
X67068700Y14656207D01*
X67068795Y14656828D01*
X67094563Y14825354D01*
X67094563Y14825357D01*
X67094693Y14826207D01*
X67069536Y15000506D01*
X66981672Y15183273D01*
X66826351Y15370474D01*
X66823705Y15379029D01*
X66827082Y15386218D01*
X66988106Y15547242D01*
X66996379Y15550669D01*
X67004592Y15547302D01*
G37*
%TD.AperFunction*%
%TD*%
%TA.AperFunction,Conductor*%
%TO.N,GND*%
G36*
X48444660Y35237894D02*
G01*
X48612657Y34971078D01*
X48768003Y34743893D01*
X48768069Y34743804D01*
X48768077Y34743793D01*
X48830800Y34659427D01*
X48908753Y34554574D01*
X49039090Y34391626D01*
X49163197Y34243551D01*
X49257377Y34131904D01*
X49285180Y34098944D01*
X49285317Y34098779D01*
X49329605Y34044283D01*
X49329606Y34044283D01*
X49409458Y33946027D01*
X49539979Y33773585D01*
X49681005Y33570026D01*
X49836719Y33323854D01*
X48913320Y32203047D01*
X48906049Y32194221D01*
X48754408Y32010162D01*
X48746503Y32005956D01*
X48737938Y32008572D01*
X48737215Y32009220D01*
X48736248Y32010162D01*
X47776071Y32945195D01*
X47543322Y33171850D01*
X47539786Y33180077D01*
X47541148Y33185713D01*
X47580037Y33259047D01*
X47660712Y33411176D01*
X47661415Y33412335D01*
X47802277Y33616081D01*
X47802794Y33616771D01*
X47929388Y33773585D01*
X47950272Y33799455D01*
X47950435Y33799652D01*
X48093256Y33968635D01*
X48093272Y33968654D01*
X48093339Y33968734D01*
X48220342Y34131618D01*
X48320188Y34295814D01*
X48381715Y34468937D01*
X48393758Y34658604D01*
X48345154Y34872434D01*
X48344854Y34873045D01*
X48344853Y34873049D01*
X48229450Y35108433D01*
X48228885Y35117369D01*
X48233890Y35123588D01*
X48428694Y35241665D01*
X48437546Y35243023D01*
X48444660Y35237894D01*
G37*
%TD.AperFunction*%
%TD*%
%TA.AperFunction,Conductor*%
%TO.N,GND*%
G36*
X66797353Y49457827D02*
G01*
X67023162Y49243056D01*
X67230385Y49066894D01*
X67416778Y48926275D01*
X67588365Y48810271D01*
X67751168Y48707956D01*
X67911211Y48608401D01*
X68074516Y48500679D01*
X68247107Y48373863D01*
X68435006Y48217025D01*
X68644238Y48019238D01*
X68015662Y46755288D01*
X68015076Y46754111D01*
X68015076Y46754110D01*
X67992681Y46709077D01*
X67905440Y46533651D01*
X67878088Y46478652D01*
X67871336Y46472770D01*
X67862402Y46473386D01*
X67861235Y46474053D01*
X67750339Y46546144D01*
X67750340Y46546144D01*
X66464317Y47382167D01*
X66459249Y47389549D01*
X66459452Y47395216D01*
X66524966Y47622513D01*
X66525322Y47623559D01*
X66609768Y47837468D01*
X66610016Y47838049D01*
X66689431Y48010725D01*
X66700694Y48035216D01*
X66701206Y48036310D01*
X66745660Y48131396D01*
X66786919Y48219646D01*
X66857922Y48395269D01*
X66903066Y48566301D01*
X66911713Y48736964D01*
X66873227Y48911474D01*
X66776972Y49094050D01*
X66776571Y49094525D01*
X66776568Y49094529D01*
X66619254Y49280696D01*
X66616532Y49289227D01*
X66619918Y49296521D01*
X66781018Y49457621D01*
X66789291Y49461048D01*
X66797353Y49457827D01*
G37*
%TD.AperFunction*%
%TD*%
%TA.AperFunction,Conductor*%
%TO.N,matrix_pinky_bottom*%
G36*
X299619Y3074510D02*
G01*
X361938Y3035983D01*
X418275Y3003979D01*
X461542Y2981061D01*
X463202Y2980182D01*
X463203Y2980181D01*
X470999Y2976052D01*
X471054Y2976023D01*
X522660Y2949660D01*
X522697Y2949641D01*
X575531Y2922411D01*
X575739Y2922301D01*
X632123Y2891788D01*
X632397Y2891635D01*
X691005Y2857560D01*
X694898Y2855296D01*
X695241Y2855088D01*
X766227Y2810488D01*
X766553Y2810276D01*
X838888Y2761409D01*
X843825Y2753938D01*
X841933Y2745019D01*
X711845Y2558585D01*
X704301Y2553761D01*
X696354Y2555174D01*
X640666Y2587662D01*
X640664Y2587663D01*
X640148Y2587964D01*
X639578Y2588155D01*
X639576Y2588156D01*
X615469Y2596236D01*
X581114Y2607752D01*
X580387Y2607806D01*
X580384Y2607807D01*
X548293Y2610206D01*
X527017Y2611797D01*
X526296Y2611669D01*
X476884Y2602898D01*
X476880Y2602897D01*
X476306Y2602795D01*
X475758Y2602578D01*
X427783Y2583583D01*
X427780Y2583582D01*
X427430Y2583443D01*
X378835Y2556435D01*
X378679Y2556335D01*
X378674Y2556332D01*
X328972Y2524469D01*
X276507Y2490383D01*
X276095Y2490127D01*
X219633Y2456685D01*
X218793Y2456233D01*
X163991Y2429550D01*
X155052Y2429009D01*
X150350Y2432049D01*
X127583Y2456233D01*
X-58781Y2654195D01*
X-58782Y2654195D01*
X-190738Y2794363D01*
X-193913Y2802734D01*
X-190238Y2810900D01*
X-189190Y2811776D01*
X-187638Y2812927D01*
X228894Y3122035D01*
X299619Y3074510D01*
G37*
%TD.AperFunction*%
%TD*%
%TA.AperFunction,Conductor*%
%TO.N,matrix_index_bottom*%
G36*
X85774837Y7199185D02*
G01*
X85834492Y7165464D01*
X85836565Y7164292D01*
X85837024Y7164019D01*
X85896121Y7126958D01*
X85896276Y7126857D01*
X85948823Y7092073D01*
X85997744Y7060181D01*
X86046035Y7031755D01*
X86046262Y7031646D01*
X86046267Y7031643D01*
X86073522Y7018517D01*
X86096769Y7007322D01*
X86097066Y7007217D01*
X86152707Y6987515D01*
X86152714Y6987513D01*
X86153019Y6987405D01*
X86190511Y6978804D01*
X86217571Y6972596D01*
X86217576Y6972595D01*
X86217860Y6972530D01*
X86294364Y6963219D01*
X86294617Y6963210D01*
X86294618Y6963210D01*
X86374319Y6960398D01*
X86382466Y6956681D01*
X86385606Y6948705D01*
X86385606Y6721312D01*
X86382179Y6713039D01*
X86374300Y6709619D01*
X86313011Y6707553D01*
X86291761Y6706837D01*
X86213040Y6697750D01*
X86212775Y6697693D01*
X86212770Y6697692D01*
X86176597Y6689890D01*
X86146219Y6683338D01*
X86088075Y6664203D01*
X86073049Y6657570D01*
X86035574Y6641027D01*
X86035561Y6641021D01*
X86035385Y6640943D01*
X86035219Y6640855D01*
X86035211Y6640851D01*
X85985017Y6614210D01*
X85984925Y6614161D01*
X85984818Y6614099D01*
X85984814Y6614097D01*
X85933489Y6584464D01*
X85933474Y6584455D01*
X85877965Y6552518D01*
X85877648Y6552342D01*
X85814960Y6518814D01*
X85814442Y6518553D01*
X85748518Y6487389D01*
X85739574Y6486952D01*
X85735104Y6489838D01*
X85388589Y6848640D01*
X85385307Y6856971D01*
X85389212Y6865494D01*
X85548202Y7007459D01*
X85761289Y7197727D01*
X85769742Y7200681D01*
X85774837Y7199185D01*
G37*
%TD.AperFunction*%
%TD*%
%TA.AperFunction,Conductor*%
%TO.N,matrix_index_bottom*%
G36*
X96219629Y7617235D02*
G01*
X96223598Y7612972D01*
X96235725Y7590673D01*
X96236092Y7590181D01*
X96236236Y7590015D01*
X96236238Y7590012D01*
X96284483Y7534238D01*
X96284492Y7534228D01*
X96284616Y7534085D01*
X96434543Y7384158D01*
X96437970Y7375885D01*
X96434543Y7367612D01*
X96432412Y7365927D01*
X96431654Y7365460D01*
X96356932Y7315404D01*
X96356895Y7315378D01*
X96276935Y7259504D01*
X96186933Y7196247D01*
X96186841Y7196183D01*
X96082102Y7124051D01*
X96081941Y7123942D01*
X95967385Y7047830D01*
X95958597Y7046106D01*
X95951105Y7051191D01*
X95856685Y7196215D01*
X95827351Y7241272D01*
X95825709Y7250074D01*
X95830496Y7257275D01*
X95914463Y7315404D01*
X95936084Y7330372D01*
X95992670Y7375885D01*
X96028647Y7404822D01*
X96028651Y7404825D01*
X96028853Y7404988D01*
X96102879Y7476879D01*
X96161591Y7548278D01*
X96183279Y7582154D01*
X96203467Y7613689D01*
X96210814Y7618809D01*
X96219629Y7617235D01*
G37*
%TD.AperFunction*%
%TD*%
%TA.AperFunction,Conductor*%
%TO.N,matrix_inner_bottom*%
G36*
X82679443Y6731434D02*
G01*
X82687647Y6727846D01*
X82690373Y6723253D01*
X82711457Y6656367D01*
X82711617Y6655811D01*
X82728900Y6589155D01*
X82728987Y6588797D01*
X82742699Y6528089D01*
X82742698Y6528089D01*
X82742700Y6528085D01*
X82755407Y6471745D01*
X82769706Y6418153D01*
X82769783Y6417934D01*
X82769784Y6417931D01*
X82788118Y6365844D01*
X82788121Y6365836D01*
X82788222Y6365550D01*
X82813583Y6312175D01*
X82813756Y6311897D01*
X82813760Y6311890D01*
X82848251Y6256525D01*
X82848415Y6256262D01*
X82848601Y6256024D01*
X82848604Y6256019D01*
X82895195Y6196243D01*
X82895201Y6196236D01*
X82895346Y6196050D01*
X82909336Y6181012D01*
X82949315Y6138037D01*
X82952441Y6129646D01*
X82949022Y6121795D01*
X82788204Y5960977D01*
X82779931Y5957550D01*
X82771964Y5960683D01*
X82713949Y6014653D01*
X82713763Y6014798D01*
X82713756Y6014804D01*
X82653980Y6061395D01*
X82653975Y6061398D01*
X82653737Y6061584D01*
X82653474Y6061748D01*
X82598109Y6096239D01*
X82598102Y6096243D01*
X82597824Y6096416D01*
X82544449Y6121777D01*
X82544163Y6121878D01*
X82544155Y6121881D01*
X82492068Y6140215D01*
X82492065Y6140216D01*
X82491846Y6140293D01*
X82438254Y6154592D01*
X82381914Y6167299D01*
X82381910Y6167302D01*
X82381910Y6167300D01*
X82321202Y6181012D01*
X82320843Y6181100D01*
X82254218Y6198375D01*
X82253637Y6198541D01*
X82186746Y6219627D01*
X82179886Y6225383D01*
X82178566Y6230557D01*
X82168817Y6729256D01*
X82172082Y6737595D01*
X82180744Y6741183D01*
X82679443Y6731434D01*
G37*
%TD.AperFunction*%
%TD*%
%TA.AperFunction,Conductor*%
%TO.N,matrix_index_bottom*%
G36*
X77491216Y6207440D02*
G01*
X77729530Y5978265D01*
X77850745Y5861698D01*
X77854333Y5853494D01*
X77850745Y5844832D01*
X77491217Y5499091D01*
X77482878Y5495826D01*
X77477705Y5497146D01*
X77415508Y5529528D01*
X77414979Y5529821D01*
X77406253Y5534953D01*
X77355575Y5564761D01*
X77355299Y5564931D01*
X77302704Y5598146D01*
X77302702Y5598149D01*
X77302701Y5598148D01*
X77253951Y5628954D01*
X77253941Y5628960D01*
X77253873Y5629003D01*
X77205866Y5656788D01*
X77205664Y5656885D01*
X77205658Y5656888D01*
X77155853Y5680758D01*
X77155578Y5680890D01*
X77099903Y5700700D01*
X77074071Y5706701D01*
X77036038Y5715536D01*
X77036035Y5715536D01*
X77035736Y5715606D01*
X77035427Y5715644D01*
X77035423Y5715645D01*
X76991400Y5721102D01*
X76959975Y5724998D01*
X76913726Y5726668D01*
X76880792Y5727858D01*
X76872648Y5731581D01*
X76869514Y5739550D01*
X76869514Y5966980D01*
X76872941Y5975253D01*
X76880792Y5978672D01*
X76904384Y5979524D01*
X76959975Y5981531D01*
X76991400Y5985427D01*
X77035423Y5990884D01*
X77035427Y5990885D01*
X77035736Y5990923D01*
X77036035Y5990993D01*
X77036038Y5990993D01*
X77099584Y6005755D01*
X77099582Y6005755D01*
X77099903Y6005829D01*
X77155578Y6025639D01*
X77175280Y6035082D01*
X77205658Y6049641D01*
X77205664Y6049644D01*
X77205866Y6049741D01*
X77253873Y6077526D01*
X77302701Y6108381D01*
X77355299Y6141598D01*
X77355575Y6141768D01*
X77414979Y6176708D01*
X77415508Y6177001D01*
X77477705Y6209384D01*
X77486626Y6210165D01*
X77491216Y6207440D01*
G37*
%TD.AperFunction*%
%TD*%
%TA.AperFunction,Conductor*%
%TO.N,matrix_inner_bottom*%
G36*
X76190274Y12515596D02*
G01*
X76250058Y12480432D01*
X76302812Y12447116D01*
X76351640Y12416261D01*
X76399647Y12388476D01*
X76449935Y12364374D01*
X76505610Y12344564D01*
X76569777Y12329658D01*
X76570082Y12329620D01*
X76570083Y12329620D01*
X76594061Y12326648D01*
X76645538Y12320266D01*
X76701541Y12318244D01*
X76724722Y12317407D01*
X76732866Y12313684D01*
X76736000Y12305715D01*
X76736000Y12078285D01*
X76732573Y12070012D01*
X76724722Y12066593D01*
X76692068Y12065413D01*
X76645538Y12063733D01*
X76614113Y12059837D01*
X76570090Y12054380D01*
X76570086Y12054379D01*
X76569777Y12054341D01*
X76569478Y12054271D01*
X76569475Y12054271D01*
X76531442Y12045436D01*
X76505610Y12039435D01*
X76449935Y12019625D01*
X76449660Y12019493D01*
X76399855Y11995623D01*
X76399849Y11995620D01*
X76399647Y11995523D01*
X76351640Y11967738D01*
X76302812Y11936883D01*
X76250214Y11903666D01*
X76249938Y11903496D01*
X76199260Y11873688D01*
X76190534Y11868556D01*
X76190005Y11868263D01*
X76127809Y11835881D01*
X76118889Y11835100D01*
X76114297Y11837826D01*
X75870588Y12072190D01*
X75870587Y12072190D01*
X75869758Y12072988D01*
X75869757Y12072988D01*
X75754769Y12183567D01*
X75751181Y12191771D01*
X75754769Y12200433D01*
X75829228Y12272037D01*
X76120355Y12552000D01*
X76190274Y12515596D01*
G37*
%TD.AperFunction*%
%TD*%
%TA.AperFunction,Conductor*%
%TO.N,matrix_inner_bottom*%
G36*
X79221988Y7386573D02*
G01*
X79225407Y7378722D01*
X79228266Y7299538D01*
X79237658Y7223777D01*
X79252564Y7159610D01*
X79272374Y7103935D01*
X79296476Y7053647D01*
X79324261Y7005640D01*
X79324304Y7005572D01*
X79324310Y7005562D01*
X79355116Y6956812D01*
X79355118Y6956809D01*
X79388320Y6904236D01*
X79388513Y6903921D01*
X79423443Y6844534D01*
X79423736Y6844005D01*
X79456119Y6781809D01*
X79456900Y6772889D01*
X79454175Y6768298D01*
X79108433Y6408769D01*
X79100229Y6405181D01*
X79091567Y6408769D01*
X78745826Y6768297D01*
X78742561Y6776636D01*
X78743881Y6781810D01*
X78776263Y6844005D01*
X78776556Y6844534D01*
X78811486Y6903921D01*
X78811679Y6904236D01*
X78844881Y6956809D01*
X78844884Y6956811D01*
X78844883Y6956812D01*
X78875689Y7005562D01*
X78875695Y7005572D01*
X78875738Y7005640D01*
X78903523Y7053647D01*
X78927625Y7103935D01*
X78947435Y7159610D01*
X78962341Y7223777D01*
X78971733Y7299538D01*
X78974593Y7378722D01*
X78978316Y7386866D01*
X78986285Y7390000D01*
X79213715Y7390000D01*
X79221988Y7386573D01*
G37*
%TD.AperFunction*%
%TD*%
%TA.AperFunction,Conductor*%
%TO.N,matrix_middle_bottom*%
G36*
X75847595Y3987918D02*
G01*
X75851183Y3979256D01*
X75841434Y3480557D01*
X75837846Y3472353D01*
X75833254Y3469627D01*
X75766362Y3448541D01*
X75765781Y3448375D01*
X75699156Y3431100D01*
X75698797Y3431012D01*
X75638089Y3417300D01*
X75638089Y3417301D01*
X75638085Y3417299D01*
X75581745Y3404592D01*
X75528153Y3390293D01*
X75527934Y3390216D01*
X75527931Y3390215D01*
X75475844Y3371881D01*
X75475836Y3371878D01*
X75475550Y3371777D01*
X75422175Y3346416D01*
X75421897Y3346243D01*
X75421890Y3346239D01*
X75366525Y3311748D01*
X75366262Y3311584D01*
X75366024Y3311398D01*
X75366019Y3311395D01*
X75306243Y3264804D01*
X75306236Y3264798D01*
X75306050Y3264653D01*
X75278812Y3239314D01*
X75248037Y3210685D01*
X75239646Y3207559D01*
X75231795Y3210978D01*
X75070978Y3371795D01*
X75067551Y3380068D01*
X75070685Y3388037D01*
X75110745Y3431100D01*
X75124653Y3446050D01*
X75124798Y3446236D01*
X75124804Y3446243D01*
X75171395Y3506019D01*
X75171398Y3506024D01*
X75171584Y3506262D01*
X75171748Y3506525D01*
X75206239Y3561890D01*
X75206243Y3561897D01*
X75206416Y3562175D01*
X75231777Y3615550D01*
X75231878Y3615836D01*
X75231881Y3615844D01*
X75250215Y3667931D01*
X75250216Y3667934D01*
X75250293Y3668153D01*
X75264592Y3721745D01*
X75277299Y3778085D01*
X75277302Y3778089D01*
X75277300Y3778089D01*
X75291012Y3838797D01*
X75291100Y3839156D01*
X75308375Y3905781D01*
X75308541Y3906362D01*
X75329627Y3973254D01*
X75335383Y3980114D01*
X75340557Y3981434D01*
X75839256Y3991183D01*
X75847595Y3987918D01*
G37*
%TD.AperFunction*%
%TD*%
%TA.AperFunction,Conductor*%
%TO.N,matrix_ring_bottom*%
G36*
X75887595Y2787918D02*
G01*
X75891183Y2779256D01*
X75881512Y2284554D01*
X75877924Y2276350D01*
X75875531Y2274575D01*
X75853927Y2262477D01*
X75852174Y2261677D01*
X75786448Y2238007D01*
X75774963Y2233871D01*
X75774924Y2233856D01*
X75774906Y2233849D01*
X75684621Y2198399D01*
X75684594Y2198388D01*
X75684536Y2198365D01*
X75684467Y2198335D01*
X75684455Y2198330D01*
X75605894Y2164152D01*
X75605879Y2164145D01*
X75605826Y2164122D01*
X75534670Y2129634D01*
X75534571Y2129581D01*
X75466973Y2093426D01*
X75466951Y2093414D01*
X75466905Y2093389D01*
X75398369Y2053878D01*
X75372889Y2038518D01*
X75324899Y2009588D01*
X75324858Y2009563D01*
X75324826Y2009544D01*
X75271734Y1977022D01*
X75269673Y1976022D01*
X75015334Y1882191D01*
X75006386Y1882543D01*
X75001210Y1887219D01*
X74911861Y2038518D01*
X74910604Y2047384D01*
X74915606Y2054307D01*
X75006539Y2112793D01*
X75006545Y2112797D01*
X75006770Y2112942D01*
X75086514Y2175603D01*
X75086747Y2175835D01*
X75086752Y2175840D01*
X75148419Y2237410D01*
X75148698Y2237689D01*
X75196652Y2300688D01*
X75233710Y2366090D01*
X75263202Y2435384D01*
X75288461Y2510060D01*
X75312817Y2591606D01*
X75339569Y2681393D01*
X75339653Y2681661D01*
X75369574Y2773364D01*
X75375398Y2780166D01*
X75380466Y2781432D01*
X75736135Y2788385D01*
X75879256Y2791183D01*
X75887595Y2787918D01*
G37*
%TD.AperFunction*%
%TD*%
%TA.AperFunction,Conductor*%
%TO.N,matrix_middle_home*%
G36*
X82049424Y21534806D02*
G01*
X82052518Y21534122D01*
X82329756Y21431842D01*
X82336331Y21425763D01*
X82337170Y21423202D01*
X82348223Y21368970D01*
X82348274Y21368707D01*
X82359339Y21307270D01*
X82370137Y21250415D01*
X82383140Y21196472D01*
X82400837Y21143669D01*
X82425716Y21090235D01*
X82460266Y21034398D01*
X82506978Y20974389D01*
X82560654Y20916698D01*
X82563779Y20908307D01*
X82560360Y20900456D01*
X82399564Y20739660D01*
X82391291Y20736233D01*
X82383299Y20739388D01*
X82383009Y20739660D01*
X82322570Y20796189D01*
X82260174Y20845799D01*
X82202515Y20883248D01*
X82202255Y20883381D01*
X82202250Y20883384D01*
X82147993Y20911162D01*
X82147991Y20911163D01*
X82147735Y20911294D01*
X82147474Y20911398D01*
X82147465Y20911402D01*
X82116853Y20923588D01*
X82093977Y20932694D01*
X82093793Y20932753D01*
X82093782Y20932757D01*
X82039478Y20950178D01*
X82039455Y20950185D01*
X82039383Y20950208D01*
X81982094Y20966592D01*
X81977593Y20967903D01*
X81920454Y20984546D01*
X81920078Y20984662D01*
X81852289Y21006910D01*
X81851723Y21007112D01*
X81783317Y21033525D01*
X81776834Y21039701D01*
X81775843Y21044938D01*
X81777792Y21090551D01*
X81795836Y21513016D01*
X81797129Y21543286D01*
X81800905Y21551406D01*
X81809774Y21554448D01*
X82049424Y21534806D01*
G37*
%TD.AperFunction*%
%TD*%
%TA.AperFunction,Conductor*%
%TO.N,matrix_pinky_home*%
G36*
X96219629Y17777235D02*
G01*
X96223598Y17772972D01*
X96235725Y17750673D01*
X96236092Y17750181D01*
X96236236Y17750015D01*
X96236238Y17750012D01*
X96284483Y17694238D01*
X96284492Y17694228D01*
X96284616Y17694085D01*
X96434543Y17544158D01*
X96437970Y17535885D01*
X96434543Y17527612D01*
X96432412Y17525927D01*
X96431654Y17525460D01*
X96356932Y17475404D01*
X96356895Y17475378D01*
X96276935Y17419504D01*
X96186933Y17356247D01*
X96186841Y17356183D01*
X96082102Y17284051D01*
X96081941Y17283942D01*
X95967385Y17207830D01*
X95958597Y17206106D01*
X95951105Y17211191D01*
X95856685Y17356215D01*
X95827351Y17401272D01*
X95825709Y17410074D01*
X95830496Y17417275D01*
X95914463Y17475404D01*
X95936084Y17490372D01*
X95992670Y17535885D01*
X96028647Y17564822D01*
X96028651Y17564825D01*
X96028853Y17564988D01*
X96102879Y17636879D01*
X96161591Y17708278D01*
X96183279Y17742154D01*
X96203467Y17773689D01*
X96210814Y17778809D01*
X96219629Y17777235D01*
G37*
%TD.AperFunction*%
%TD*%
%TA.AperFunction,Conductor*%
%TO.N,matrix_pinky_top*%
G36*
X83651748Y23214459D02*
G01*
X83683748Y23183765D01*
X83887534Y22988295D01*
X84011718Y22869178D01*
X84015316Y22860978D01*
X84011740Y22852311D01*
X83652655Y22506111D01*
X83644320Y22502836D01*
X83639145Y22504149D01*
X83635364Y22506111D01*
X83576786Y22536507D01*
X83576276Y22536788D01*
X83516721Y22571697D01*
X83516407Y22571889D01*
X83463712Y22605049D01*
X83463710Y22605052D01*
X83463709Y22605051D01*
X83414866Y22635804D01*
X83414763Y22635869D01*
X83366646Y22663619D01*
X83316246Y22687690D01*
X83315956Y22687793D01*
X83260767Y22707364D01*
X83260762Y22707365D01*
X83260456Y22707474D01*
X83260137Y22707548D01*
X83260133Y22707549D01*
X83223755Y22715971D01*
X83196165Y22722359D01*
X83195874Y22722395D01*
X83120519Y22731707D01*
X83120510Y22731708D01*
X83120265Y22731738D01*
X83120011Y22731747D01*
X83120000Y22731748D01*
X83040925Y22734594D01*
X83032781Y22738316D01*
X83029646Y22746286D01*
X83029646Y22973714D01*
X83033073Y22981987D01*
X83040925Y22985406D01*
X83119909Y22988252D01*
X83119919Y22988253D01*
X83120174Y22988262D01*
X83195997Y22997647D01*
X83260218Y23012546D01*
X83315943Y23032352D01*
X83316211Y23032480D01*
X83316215Y23032482D01*
X83338219Y23043022D01*
X83366274Y23056460D01*
X83414317Y23084262D01*
X83463175Y23115151D01*
X83515773Y23148407D01*
X83516084Y23148598D01*
X83575511Y23183622D01*
X83575999Y23183893D01*
X83638236Y23216387D01*
X83647154Y23217178D01*
X83651748Y23214459D01*
G37*
%TD.AperFunction*%
%TD*%
%TA.AperFunction,Conductor*%
%TO.N,matrix_pinky_top*%
G36*
X61408616Y26052201D02*
G01*
X61498884Y26050437D01*
X61503551Y26049364D01*
X61670987Y25972175D01*
X61767747Y25927568D01*
X61768566Y25927151D01*
X61897774Y25854790D01*
X61903469Y25847161D01*
X61904999Y25840389D01*
X61917707Y25784045D01*
X61932006Y25730453D01*
X61932083Y25730234D01*
X61932084Y25730231D01*
X61950418Y25678144D01*
X61950421Y25678136D01*
X61950522Y25677850D01*
X61975883Y25624475D01*
X61976056Y25624197D01*
X61976060Y25624190D01*
X62010551Y25568825D01*
X62010715Y25568562D01*
X62010901Y25568324D01*
X62010904Y25568319D01*
X62057495Y25508543D01*
X62057501Y25508536D01*
X62057646Y25508350D01*
X62071636Y25493312D01*
X62111615Y25450337D01*
X62114741Y25441946D01*
X62111322Y25434095D01*
X61950504Y25273277D01*
X61942231Y25269850D01*
X61934264Y25272983D01*
X61876249Y25326953D01*
X61876063Y25327098D01*
X61876056Y25327104D01*
X61816280Y25373695D01*
X61816275Y25373698D01*
X61816037Y25373884D01*
X61815774Y25374048D01*
X61760409Y25408539D01*
X61760402Y25408543D01*
X61760124Y25408716D01*
X61706749Y25434077D01*
X61706463Y25434178D01*
X61706455Y25434181D01*
X61654368Y25452515D01*
X61654365Y25452516D01*
X61654146Y25452593D01*
X61600554Y25466892D01*
X61544214Y25479599D01*
X61544210Y25479602D01*
X61544210Y25479600D01*
X61483502Y25493312D01*
X61483143Y25493400D01*
X61416518Y25510675D01*
X61415937Y25510841D01*
X61349046Y25531927D01*
X61342186Y25537683D01*
X61340866Y25542857D01*
X61331117Y26041556D01*
X61334382Y26049895D01*
X61343044Y26053483D01*
X61408616Y26052201D01*
G37*
%TD.AperFunction*%
%TD*%
%TA.AperFunction,Conductor*%
%TO.N,matrix_ring_home*%
G36*
X19312748Y31813498D02*
G01*
X19389111Y31777602D01*
X19457008Y31746829D01*
X19491237Y31732086D01*
X19519938Y31719724D01*
X19519977Y31719708D01*
X19520002Y31719697D01*
X19520036Y31719683D01*
X19520075Y31719667D01*
X19553847Y31705988D01*
X19581657Y31694723D01*
X19645536Y31670425D01*
X19690927Y31654067D01*
X19715133Y31645343D01*
X19715152Y31645336D01*
X19715203Y31645318D01*
X19794221Y31617922D01*
X19886154Y31586753D01*
X19983479Y31554054D01*
X19990230Y31548171D01*
X19990845Y31539241D01*
X19923012Y31337115D01*
X19918559Y31323847D01*
X19912678Y31317094D01*
X19904331Y31316298D01*
X19865270Y31327171D01*
X19821325Y31339403D01*
X19821321Y31339404D01*
X19820954Y31339506D01*
X19797813Y31342834D01*
X19740179Y31351123D01*
X19740174Y31351123D01*
X19739724Y31351188D01*
X19668604Y31350144D01*
X19668111Y31350051D01*
X19668108Y31350051D01*
X19605324Y31338242D01*
X19605323Y31338242D01*
X19604862Y31338155D01*
X19545765Y31317000D01*
X19488582Y31288457D01*
X19430582Y31254307D01*
X19430564Y31254296D01*
X19430539Y31254281D01*
X19393999Y31231734D01*
X19369088Y31216363D01*
X19368947Y31216278D01*
X19305928Y31179089D01*
X19301466Y31176456D01*
X19300954Y31176170D01*
X19231821Y31139916D01*
X19222902Y31139109D01*
X19218277Y31141845D01*
X19065819Y31288457D01*
X19009274Y31342834D01*
X18921844Y31426911D01*
X18921843Y31426913D01*
X18858769Y31487567D01*
X18855181Y31495771D01*
X18858769Y31504433D01*
X19224355Y31856000D01*
X19312748Y31813498D01*
G37*
%TD.AperFunction*%
%TD*%
%TA.AperFunction,Conductor*%
%TO.N,matrix_ring_home*%
G36*
X94688390Y15225927D02*
G01*
X94690355Y15224346D01*
X94810034Y15104667D01*
X94810302Y15104456D01*
X94810309Y15104450D01*
X94905318Y15029735D01*
X94905320Y15029734D01*
X94905920Y15029262D01*
X94906621Y15028962D01*
X94906624Y15028960D01*
X94928137Y15019748D01*
X94934393Y15013341D01*
X94934286Y15004387D01*
X94929671Y14999033D01*
X94907654Y14985460D01*
X94907592Y14985419D01*
X94907574Y14985407D01*
X94855468Y14950501D01*
X94832932Y14935404D01*
X94832895Y14935378D01*
X94752935Y14879504D01*
X94662933Y14816247D01*
X94662841Y14816183D01*
X94558102Y14744051D01*
X94557941Y14743942D01*
X94443385Y14667830D01*
X94434597Y14666106D01*
X94427105Y14671191D01*
X94332685Y14816215D01*
X94303351Y14861272D01*
X94301709Y14870074D01*
X94306496Y14877275D01*
X94390463Y14935404D01*
X94412084Y14950372D01*
X94479240Y15004387D01*
X94504647Y15024822D01*
X94504651Y15024825D01*
X94504853Y15024988D01*
X94578879Y15096879D01*
X94637591Y15168278D01*
X94637777Y15168568D01*
X94672228Y15222381D01*
X94679575Y15227501D01*
X94688390Y15225927D01*
G37*
%TD.AperFunction*%
%TD*%
%TA.AperFunction,Conductor*%
%TO.N,matrix_pinky_bottom*%
G36*
X478205Y3433022D02*
G01*
X639022Y3272205D01*
X642449Y3263932D01*
X639315Y3255963D01*
X623914Y3239407D01*
X585346Y3197949D01*
X585201Y3197763D01*
X585195Y3197756D01*
X564845Y3171647D01*
X538415Y3137737D01*
X538252Y3137476D01*
X538251Y3137474D01*
X503760Y3082109D01*
X503756Y3082102D01*
X503583Y3081824D01*
X478222Y3028449D01*
X478121Y3028163D01*
X478118Y3028155D01*
X468872Y3001885D01*
X459706Y2975846D01*
X445407Y2922254D01*
X432699Y2865910D01*
X418953Y2805050D01*
X401545Y2737911D01*
X377846Y2662730D01*
X-58781Y2654195D01*
X-61257Y2654147D01*
X-61258Y2654147D01*
X-129256Y2652817D01*
X-137595Y2656082D01*
X-141183Y2664744D01*
X-139880Y2731410D01*
X-135099Y2975991D01*
X-131434Y3163443D01*
X-127846Y3171647D01*
X-123253Y3174373D01*
X-56367Y3195457D01*
X-55787Y3195623D01*
X10843Y3212899D01*
X11202Y3212987D01*
X71910Y3226699D01*
X71910Y3226698D01*
X71914Y3226700D01*
X128254Y3239407D01*
X181846Y3253706D01*
X182068Y3253784D01*
X234155Y3272118D01*
X234163Y3272121D01*
X234449Y3272222D01*
X287824Y3297583D01*
X288102Y3297756D01*
X288109Y3297760D01*
X343474Y3332251D01*
X343476Y3332252D01*
X343737Y3332415D01*
X343975Y3332601D01*
X343980Y3332604D01*
X403756Y3379195D01*
X403763Y3379201D01*
X403949Y3379346D01*
X431318Y3404807D01*
X461963Y3433315D01*
X470354Y3436441D01*
X478205Y3433022D01*
G37*
%TD.AperFunction*%
%TD*%
%TA.AperFunction,Conductor*%
%TO.N,matrix_pinky_bottom*%
G36*
X2463875Y6437455D02*
G01*
X3751115Y6379605D01*
X3759226Y6375810D01*
X3762249Y6366935D01*
X3635058Y4856395D01*
X3633012Y4850708D01*
X3511717Y4675862D01*
X3504638Y4671109D01*
X3439100Y4656568D01*
X3349352Y4636655D01*
X3348234Y4636464D01*
X3211428Y4619901D01*
X3104249Y4606926D01*
X3103391Y4606854D01*
X3038778Y4603822D01*
X2881183Y4596427D01*
X2880854Y4596417D01*
X2674660Y4593489D01*
X2610311Y4591160D01*
X2479331Y4586419D01*
X2479320Y4586418D01*
X2479068Y4586409D01*
X2478816Y4586379D01*
X2478807Y4586378D01*
X2288934Y4563549D01*
X2288930Y4563548D01*
X2288529Y4563500D01*
X2097340Y4513087D01*
X2096897Y4512886D01*
X2096894Y4512885D01*
X1900233Y4423692D01*
X1900230Y4423691D01*
X1899797Y4423494D01*
X1899404Y4423231D01*
X1899401Y4423229D01*
X1810477Y4363641D01*
X1690196Y4283042D01*
X1689899Y4282777D01*
X1689894Y4282773D01*
X1471081Y4087420D01*
X1462627Y4084467D01*
X1455016Y4087875D01*
X1293891Y4249000D01*
X1290464Y4257273D01*
X1293452Y4265082D01*
X1498005Y4493225D01*
X1646737Y4710676D01*
X1744886Y4914905D01*
X1805089Y5111633D01*
X1805148Y5111963D01*
X1805150Y5111971D01*
X1839946Y5306386D01*
X1839946Y5306388D01*
X1839981Y5306582D01*
X1862198Y5505470D01*
X1884348Y5713754D01*
X1884419Y5714299D01*
X1919072Y5937449D01*
X1919269Y5938437D01*
X1979010Y6182386D01*
X1979366Y6183566D01*
X2074109Y6446728D01*
X2080135Y6453351D01*
X2085642Y6454453D01*
X2463875Y6437455D01*
G37*
%TD.AperFunction*%
%TD*%
%TA.AperFunction,Conductor*%
%TO.N,GND*%
G36*
X50475838Y51561973D02*
G01*
X50636973Y51400838D01*
X50640400Y51392565D01*
X50637425Y51384770D01*
X50438748Y51162446D01*
X50343961Y51021814D01*
X50329439Y51000268D01*
X50295579Y50950032D01*
X50295384Y50949610D01*
X50295381Y50949605D01*
X50262265Y50878001D01*
X50203112Y50750101D01*
X50149175Y50556976D01*
X50121595Y50364983D01*
X50108199Y50168447D01*
X50108197Y50168403D01*
X50096828Y49961952D01*
X50096792Y49961468D01*
X50075314Y49739519D01*
X50075184Y49738577D01*
X50031495Y49495425D01*
X50031220Y49494248D01*
X49955393Y49231655D01*
X49949805Y49224657D01*
X49944383Y49223204D01*
X48920394Y49203186D01*
X48338775Y49191816D01*
X48277546Y49190619D01*
X48269207Y49193884D01*
X48265619Y49202546D01*
X48270845Y49469890D01*
X48298372Y50878001D01*
X48569830Y50956388D01*
X48814045Y51000268D01*
X49036692Y51021814D01*
X49243447Y51033199D01*
X49439983Y51046595D01*
X49452492Y51048392D01*
X49631976Y51074175D01*
X49632331Y51074274D01*
X49632335Y51074275D01*
X49824654Y51127987D01*
X49824656Y51127988D01*
X49825101Y51128112D01*
X49899338Y51162446D01*
X50024605Y51220381D01*
X50024610Y51220384D01*
X50025032Y51220579D01*
X50237446Y51363748D01*
X50459770Y51562424D01*
X50468221Y51565382D01*
X50475838Y51561973D01*
G37*
%TD.AperFunction*%
%TD*%
%TA.AperFunction,Conductor*%
%TO.N,GND*%
G36*
X-6524162Y5661973D02*
G01*
X-6363027Y5500838D01*
X-6359600Y5492565D01*
X-6362576Y5484770D01*
X-6561251Y5262446D01*
X-6656038Y5121814D01*
X-6670560Y5100268D01*
X-6704420Y5050032D01*
X-6704615Y5049610D01*
X-6704618Y5049605D01*
X-6737734Y4978001D01*
X-6796887Y4850101D01*
X-6850824Y4656976D01*
X-6878404Y4464983D01*
X-6891800Y4268447D01*
X-6891802Y4268403D01*
X-6903171Y4061952D01*
X-6903207Y4061468D01*
X-6924685Y3839519D01*
X-6924815Y3838577D01*
X-6968504Y3595425D01*
X-6968779Y3594248D01*
X-7044607Y3331655D01*
X-7050195Y3324657D01*
X-7055617Y3323204D01*
X-8734619Y3290381D01*
X-8701628Y4978001D01*
X-8430169Y5056388D01*
X-8185954Y5100268D01*
X-7963307Y5121814D01*
X-7756552Y5133199D01*
X-7700476Y5137021D01*
X-7698714Y5137141D01*
X-7560236Y5146580D01*
X-7560016Y5146595D01*
X-7368023Y5174175D01*
X-7367668Y5174274D01*
X-7367664Y5174275D01*
X-7175345Y5227987D01*
X-7175343Y5227988D01*
X-7174898Y5228112D01*
X-7100661Y5262446D01*
X-6975394Y5320381D01*
X-6975389Y5320384D01*
X-6974967Y5320579D01*
X-6762553Y5463748D01*
X-6540230Y5662424D01*
X-6531779Y5665382D01*
X-6524162Y5661973D01*
G37*
%TD.AperFunction*%
%TD*%
%TA.AperFunction,Conductor*%
%TO.N,GND*%
G36*
X12475838Y34561973D02*
G01*
X12636973Y34400838D01*
X12640400Y34392565D01*
X12637425Y34384770D01*
X12438748Y34162446D01*
X12379320Y34074275D01*
X12329439Y34000268D01*
X12295579Y33950032D01*
X12295384Y33949610D01*
X12295381Y33949605D01*
X12258278Y33869381D01*
X12203112Y33750101D01*
X12202988Y33749656D01*
X12202987Y33749654D01*
X12186019Y33688897D01*
X12149175Y33556976D01*
X12121595Y33364983D01*
X12108199Y33168447D01*
X12108197Y33168403D01*
X12096828Y32961952D01*
X12096792Y32961468D01*
X12075314Y32739519D01*
X12075184Y32738577D01*
X12031495Y32495425D01*
X12031220Y32494248D01*
X11955393Y32231655D01*
X11949805Y32224657D01*
X11944383Y32223204D01*
X10910160Y32202986D01*
X10265381Y32190381D01*
X10294675Y33688897D01*
X10298204Y33869382D01*
X10301791Y33877585D01*
X10306654Y33880393D01*
X10569249Y33956220D01*
X10570423Y33956495D01*
X10813579Y34000184D01*
X10814516Y34000314D01*
X10878225Y34006479D01*
X11036468Y34021792D01*
X11036952Y34021828D01*
X11125398Y34026699D01*
X11243447Y34033199D01*
X11243486Y34033202D01*
X11243510Y34033203D01*
X11439763Y34046580D01*
X11439983Y34046595D01*
X11631976Y34074175D01*
X11632331Y34074274D01*
X11632335Y34074275D01*
X11824654Y34127987D01*
X11824656Y34127988D01*
X11825101Y34128112D01*
X11899338Y34162446D01*
X12024605Y34220381D01*
X12024610Y34220384D01*
X12025032Y34220579D01*
X12237446Y34363748D01*
X12459770Y34562424D01*
X12468221Y34565382D01*
X12475838Y34561973D01*
G37*
%TD.AperFunction*%
%TD*%
%TA.AperFunction,Conductor*%
%TO.N,GND*%
G36*
X50486450Y34572575D02*
G01*
X50647575Y34411450D01*
X50651002Y34403177D01*
X50648022Y34395376D01*
X50447965Y34171761D01*
X50447747Y34171440D01*
X50447747Y34171439D01*
X50373510Y34061758D01*
X50303459Y33958263D01*
X50303267Y33957851D01*
X50303265Y33957848D01*
X50267126Y33880411D01*
X50209716Y33757396D01*
X50209589Y33756950D01*
X50209587Y33756944D01*
X50154678Y33563798D01*
X50154572Y33563425D01*
X50125860Y33370619D01*
X50125844Y33370396D01*
X50111415Y33173242D01*
X50111413Y33173206D01*
X50099088Y32965815D01*
X50099051Y32965343D01*
X50076712Y32742307D01*
X50076581Y32741380D01*
X50032139Y32496956D01*
X50031867Y32495795D01*
X49955397Y32231648D01*
X49949804Y32224655D01*
X49944387Y32223204D01*
X49489160Y32214304D01*
X48381945Y32192660D01*
X48277546Y32190619D01*
X48269207Y32193884D01*
X48265619Y32202546D01*
X48270673Y32461074D01*
X48270673Y32461075D01*
X48298372Y33878001D01*
X48571361Y33957031D01*
X48816847Y34001666D01*
X49040563Y34024073D01*
X49248242Y34036415D01*
X49331073Y34042477D01*
X49445619Y34050860D01*
X49445842Y34050893D01*
X49445849Y34050894D01*
X49528860Y34063256D01*
X49638425Y34079572D01*
X49638798Y34079678D01*
X49831944Y34134587D01*
X49831950Y34134589D01*
X49832396Y34134716D01*
X49912389Y34172048D01*
X50032848Y34228265D01*
X50032851Y34228267D01*
X50033263Y34228459D01*
X50246761Y34372965D01*
X50470376Y34573022D01*
X50478827Y34575984D01*
X50486450Y34572575D01*
G37*
%TD.AperFunction*%
%TD*%
%TA.AperFunction,Conductor*%
%TO.N,GND*%
G36*
X47291756Y-4251825D02*
G01*
X47921987Y-4907188D01*
X48447346Y-5453497D01*
X48450611Y-5461836D01*
X48449157Y-5467260D01*
X48317094Y-5706559D01*
X48316456Y-5707586D01*
X48226200Y-5837381D01*
X48175415Y-5910413D01*
X48174841Y-5911171D01*
X48033086Y-6083301D01*
X48032769Y-6083669D01*
X47894795Y-6237723D01*
X47765295Y-6386168D01*
X47649037Y-6541429D01*
X47550617Y-6716129D01*
X47474627Y-6922886D01*
X47425665Y-7174321D01*
X47425643Y-7174713D01*
X47408943Y-7472012D01*
X47405057Y-7480080D01*
X47397261Y-7483056D01*
X47169385Y-7483056D01*
X47161112Y-7479629D01*
X47157703Y-7472012D01*
X47141002Y-7174713D01*
X47140980Y-7174321D01*
X47092018Y-6922886D01*
X47016028Y-6716129D01*
X46917608Y-6541429D01*
X46801350Y-6386168D01*
X46671850Y-6237723D01*
X46533876Y-6083669D01*
X46533559Y-6083301D01*
X46391804Y-5911171D01*
X46391230Y-5910413D01*
X46249844Y-5707090D01*
X46113323Y-5459712D01*
X47270870Y-4256006D01*
X47274891Y-4251825D01*
X47283093Y-4248237D01*
X47291756Y-4251825D01*
G37*
%TD.AperFunction*%
%TD*%
%TA.AperFunction,Conductor*%
%TO.N,GND*%
G36*
X12475838Y51561973D02*
G01*
X12636973Y51400838D01*
X12640400Y51392565D01*
X12637425Y51384770D01*
X12438748Y51162446D01*
X12379320Y51074275D01*
X12329439Y51000268D01*
X12295579Y50950032D01*
X12295384Y50949610D01*
X12295381Y50949605D01*
X12258278Y50869381D01*
X12203112Y50750101D01*
X12149175Y50556976D01*
X12121595Y50364983D01*
X12108199Y50168447D01*
X12108197Y50168403D01*
X12096828Y49961952D01*
X12096792Y49961468D01*
X12075314Y49739519D01*
X12075184Y49738577D01*
X12031495Y49495425D01*
X12031220Y49494248D01*
X11955393Y49231655D01*
X11949805Y49224657D01*
X11944383Y49223204D01*
X10265381Y49190381D01*
X10280460Y49961692D01*
X10298204Y50869382D01*
X10301791Y50877585D01*
X10306654Y50880393D01*
X10569249Y50956220D01*
X10570423Y50956495D01*
X10813579Y51000184D01*
X10814516Y51000314D01*
X10878225Y51006479D01*
X11036468Y51021792D01*
X11036952Y51021828D01*
X11125398Y51026699D01*
X11243447Y51033199D01*
X11243486Y51033202D01*
X11243510Y51033203D01*
X11439763Y51046580D01*
X11439983Y51046595D01*
X11631976Y51074175D01*
X11632331Y51074274D01*
X11632335Y51074275D01*
X11824654Y51127987D01*
X11824656Y51127988D01*
X11825101Y51128112D01*
X11899338Y51162446D01*
X12024605Y51220381D01*
X12024610Y51220384D01*
X12025032Y51220579D01*
X12237446Y51363748D01*
X12459770Y51562424D01*
X12468221Y51565382D01*
X12475838Y51561973D01*
G37*
%TD.AperFunction*%
%TD*%
%TA.AperFunction,Conductor*%
%TO.N,GND*%
G36*
X10164559Y33814023D02*
G01*
X10292996Y33690511D01*
X10292997Y33690511D01*
X11375000Y32650000D01*
X10910160Y32202986D01*
X10908568Y32201455D01*
X10164559Y31485977D01*
X10156220Y31482712D01*
X10150796Y31484166D01*
X9911496Y31616228D01*
X9910469Y31616866D01*
X9873310Y31642705D01*
X9707635Y31757912D01*
X9706890Y31758476D01*
X9534754Y31900236D01*
X9534386Y31900553D01*
X9380374Y32038489D01*
X9380332Y32038527D01*
X9231887Y32168027D01*
X9076626Y32284285D01*
X8901926Y32382705D01*
X8695169Y32458695D01*
X8560811Y32484859D01*
X8444125Y32507581D01*
X8444123Y32507581D01*
X8443734Y32507657D01*
X8428613Y32508506D01*
X8146044Y32524380D01*
X8137976Y32528266D01*
X8135000Y32536062D01*
X8135000Y32763938D01*
X8138427Y32772211D01*
X8146044Y32775620D01*
X8443342Y32792320D01*
X8443734Y32792342D01*
X8444123Y32792418D01*
X8444125Y32792418D01*
X8560811Y32815140D01*
X8695169Y32841304D01*
X8901926Y32917294D01*
X9076626Y33015714D01*
X9231887Y33131972D01*
X9232050Y33132114D01*
X9380281Y33261427D01*
X9380306Y33261450D01*
X9380332Y33261472D01*
X9534386Y33399446D01*
X9534754Y33399763D01*
X9573041Y33431294D01*
X9706890Y33541523D01*
X9707635Y33542087D01*
X9910469Y33683133D01*
X9911496Y33683771D01*
X10150796Y33815834D01*
X10159695Y33816831D01*
X10164559Y33814023D01*
G37*
%TD.AperFunction*%
%TD*%
%TA.AperFunction,Conductor*%
%TO.N,GND*%
G36*
X31475838Y38811973D02*
G01*
X31636973Y38650838D01*
X31640400Y38642565D01*
X31637425Y38634770D01*
X31438748Y38412446D01*
X31379320Y38324275D01*
X31329439Y38250268D01*
X31295579Y38200032D01*
X31295384Y38199610D01*
X31295381Y38199605D01*
X31258278Y38119381D01*
X31203112Y38000101D01*
X31202988Y37999656D01*
X31202987Y37999654D01*
X31186019Y37938897D01*
X31149175Y37806976D01*
X31121595Y37614983D01*
X31108199Y37418447D01*
X31108197Y37418403D01*
X31096828Y37211952D01*
X31096792Y37211468D01*
X31075314Y36989519D01*
X31075184Y36988577D01*
X31031495Y36745425D01*
X31031220Y36744248D01*
X30955393Y36481655D01*
X30949805Y36474657D01*
X30944383Y36473204D01*
X29910160Y36452986D01*
X29265381Y36440381D01*
X29294675Y37938897D01*
X29298204Y38119382D01*
X29301791Y38127585D01*
X29306654Y38130393D01*
X29569249Y38206220D01*
X29570423Y38206495D01*
X29813579Y38250184D01*
X29814516Y38250314D01*
X29878225Y38256479D01*
X30036468Y38271792D01*
X30036952Y38271828D01*
X30125398Y38276699D01*
X30243447Y38283199D01*
X30243486Y38283202D01*
X30243510Y38283203D01*
X30439763Y38296580D01*
X30439983Y38296595D01*
X30631976Y38324175D01*
X30632331Y38324274D01*
X30632335Y38324275D01*
X30824654Y38377987D01*
X30824656Y38377988D01*
X30825101Y38378112D01*
X30899338Y38412446D01*
X31024605Y38470381D01*
X31024610Y38470384D01*
X31025032Y38470579D01*
X31237446Y38613748D01*
X31459770Y38812424D01*
X31468221Y38815382D01*
X31475838Y38811973D01*
G37*
%TD.AperFunction*%
%TD*%
%TA.AperFunction,Conductor*%
%TO.N,GND*%
G36*
X48661271Y52877582D02*
G01*
X48666807Y52870765D01*
X48781583Y52496183D01*
X48781609Y52496108D01*
X48781618Y52496081D01*
X48893339Y52175973D01*
X48893378Y52175862D01*
X49001619Y51906259D01*
X49109106Y51672819D01*
X49218639Y51460991D01*
X49333018Y51256220D01*
X49455043Y51043954D01*
X49587516Y50809640D01*
X49733234Y50538725D01*
X49895000Y50216656D01*
X48920394Y49203186D01*
X48733433Y49008769D01*
X48725229Y49005181D01*
X48716567Y49008769D01*
X48538512Y49193925D01*
X48538511Y49193925D01*
X48270891Y49472217D01*
X48270891Y49472218D01*
X48269277Y49473896D01*
X48269277Y49473897D01*
X47560915Y50210506D01*
X47557650Y50218845D01*
X47559048Y50224167D01*
X47718285Y50519646D01*
X47718730Y50520401D01*
X47751249Y50571224D01*
X47885360Y50780819D01*
X47885630Y50781222D01*
X48048316Y51011921D01*
X48048323Y51011916D01*
X48048331Y51011942D01*
X48199238Y51224919D01*
X48219068Y51256229D01*
X48330378Y51431985D01*
X48330555Y51432264D01*
X48330695Y51432551D01*
X48330699Y51432559D01*
X48434349Y51645760D01*
X48434349Y51645761D01*
X48434557Y51646188D01*
X48503538Y51878926D01*
X48529787Y52142713D01*
X48529747Y52143225D01*
X48505631Y52449369D01*
X48505630Y52449374D01*
X48505598Y52449783D01*
X48425707Y52801604D01*
X48427217Y52810431D01*
X48433869Y52815435D01*
X48652372Y52878577D01*
X48661271Y52877582D01*
G37*
%TD.AperFunction*%
%TD*%
%TA.AperFunction,Conductor*%
%TO.N,GND*%
G36*
X85147155Y-7563743D02*
G01*
X86302745Y-8765415D01*
X86306010Y-8773754D01*
X86304556Y-8779178D01*
X86172493Y-9018477D01*
X86171855Y-9019504D01*
X86030814Y-9222331D01*
X86030240Y-9223089D01*
X85888485Y-9395219D01*
X85888168Y-9395587D01*
X85750194Y-9549641D01*
X85620694Y-9698086D01*
X85504436Y-9853347D01*
X85406016Y-10028047D01*
X85330026Y-10234804D01*
X85281064Y-10486239D01*
X85281042Y-10486631D01*
X85264342Y-10783930D01*
X85260456Y-10791998D01*
X85252660Y-10794974D01*
X85024784Y-10794974D01*
X85016511Y-10791547D01*
X85013102Y-10783930D01*
X84996401Y-10486631D01*
X84996379Y-10486239D01*
X84947417Y-10234804D01*
X84871427Y-10028047D01*
X84773007Y-9853347D01*
X84656749Y-9698086D01*
X84527249Y-9549641D01*
X84389275Y-9395587D01*
X84388958Y-9395219D01*
X84247203Y-9223089D01*
X84246629Y-9222331D01*
X84105588Y-9019504D01*
X84104950Y-9018477D01*
X83972888Y-8779178D01*
X83971891Y-8770279D01*
X83974699Y-8765415D01*
X85130289Y-7563743D01*
X85138493Y-7560155D01*
X85147155Y-7563743D01*
G37*
%TD.AperFunction*%
%TD*%
%TA.AperFunction,Conductor*%
%TO.N,GND*%
G36*
X66219455Y-5907784D02*
G01*
X67375045Y-7109456D01*
X67378310Y-7117795D01*
X67376856Y-7123219D01*
X67244793Y-7362518D01*
X67244155Y-7363545D01*
X67103114Y-7566372D01*
X67102540Y-7567130D01*
X66960785Y-7739260D01*
X66960468Y-7739628D01*
X66822494Y-7893682D01*
X66692994Y-8042127D01*
X66576736Y-8197388D01*
X66478316Y-8372088D01*
X66402326Y-8578845D01*
X66353364Y-8830280D01*
X66353342Y-8830672D01*
X66336642Y-9127971D01*
X66332756Y-9136039D01*
X66324960Y-9139015D01*
X66097084Y-9139015D01*
X66088811Y-9135588D01*
X66085402Y-9127971D01*
X66068701Y-8830672D01*
X66068679Y-8830280D01*
X66019717Y-8578845D01*
X65943727Y-8372088D01*
X65845307Y-8197388D01*
X65729049Y-8042127D01*
X65599549Y-7893682D01*
X65461575Y-7739628D01*
X65461258Y-7739260D01*
X65319503Y-7567130D01*
X65318929Y-7566372D01*
X65177888Y-7363545D01*
X65177250Y-7362518D01*
X65045188Y-7123219D01*
X65044191Y-7114320D01*
X65046999Y-7109456D01*
X66202589Y-5907784D01*
X66210793Y-5904196D01*
X66219455Y-5907784D01*
G37*
%TD.AperFunction*%
%TD*%
%TA.AperFunction,Conductor*%
%TO.N,GND*%
G36*
X50486450Y17572575D02*
G01*
X50647575Y17411450D01*
X50651002Y17403177D01*
X50648022Y17395376D01*
X50447965Y17171761D01*
X50447747Y17171440D01*
X50447747Y17171439D01*
X50373510Y17061758D01*
X50303459Y16958263D01*
X50303267Y16957851D01*
X50303265Y16957848D01*
X50267126Y16880411D01*
X50209716Y16757396D01*
X50209589Y16756950D01*
X50209587Y16756944D01*
X50154678Y16563798D01*
X50154572Y16563425D01*
X50125860Y16370619D01*
X50125844Y16370396D01*
X50111415Y16173242D01*
X50111413Y16173206D01*
X50099088Y15965815D01*
X50099051Y15965343D01*
X50076712Y15742307D01*
X50076581Y15741380D01*
X50032139Y15496956D01*
X50031867Y15495795D01*
X49955397Y15231648D01*
X49949804Y15224655D01*
X49944387Y15223204D01*
X49489160Y15214304D01*
X48381945Y15192660D01*
X48277546Y15190619D01*
X48269207Y15193884D01*
X48265619Y15202546D01*
X48270673Y15461074D01*
X48270673Y15461075D01*
X48298372Y16878001D01*
X48571361Y16957031D01*
X48816847Y17001666D01*
X49040563Y17024073D01*
X49248242Y17036415D01*
X49331073Y17042477D01*
X49445619Y17050860D01*
X49445842Y17050893D01*
X49445849Y17050894D01*
X49528860Y17063256D01*
X49638425Y17079572D01*
X49638798Y17079678D01*
X49831944Y17134587D01*
X49831950Y17134589D01*
X49832396Y17134716D01*
X49912389Y17172048D01*
X50032848Y17228265D01*
X50032851Y17228267D01*
X50033263Y17228459D01*
X50246761Y17372965D01*
X50470376Y17573022D01*
X50478827Y17575984D01*
X50486450Y17572575D01*
G37*
%TD.AperFunction*%
%TD*%
%TA.AperFunction,Conductor*%
%TO.N,GND*%
G36*
X30363728Y53910840D02*
G01*
X30366230Y53908434D01*
X30369819Y53900230D01*
X30366231Y53891567D01*
X29710868Y53261336D01*
X29164559Y52735977D01*
X29156220Y52732712D01*
X29150796Y52734166D01*
X28911496Y52866228D01*
X28910469Y52866866D01*
X28873310Y52892705D01*
X28707635Y53007912D01*
X28706890Y53008476D01*
X28534754Y53150236D01*
X28534386Y53150553D01*
X28380374Y53288489D01*
X28380332Y53288527D01*
X28231887Y53418027D01*
X28076626Y53534285D01*
X27901926Y53632705D01*
X27695169Y53708695D01*
X27560811Y53734859D01*
X27444125Y53757581D01*
X27444123Y53757581D01*
X27443734Y53757657D01*
X27428613Y53758506D01*
X27146044Y53774380D01*
X27137976Y53778266D01*
X27135000Y53786062D01*
X27135000Y54013938D01*
X27138427Y54022211D01*
X27146044Y54025620D01*
X27443342Y54042320D01*
X27443734Y54042342D01*
X27444123Y54042418D01*
X27444125Y54042418D01*
X27560811Y54065140D01*
X27695169Y54091304D01*
X27901926Y54167294D01*
X28076626Y54265714D01*
X28231887Y54381972D01*
X28232050Y54382114D01*
X28380281Y54511427D01*
X28380306Y54511450D01*
X28380332Y54511472D01*
X28534386Y54649446D01*
X28534754Y54649763D01*
X28573041Y54681294D01*
X28706890Y54791523D01*
X28707635Y54792087D01*
X28779653Y54842166D01*
X28779654Y54842167D01*
X28910965Y54933478D01*
X29158344Y55070000D01*
X30363728Y53910840D01*
G37*
%TD.AperFunction*%
%TD*%
%TA.AperFunction,Conductor*%
%TO.N,GND*%
G36*
X-7236103Y3319675D02*
G01*
X-7234572Y3318083D01*
X-7110860Y3189438D01*
X-7107595Y3181099D01*
X-7108946Y3175867D01*
X-7283121Y2845858D01*
X-7283459Y2845261D01*
X-7459408Y2554573D01*
X-7459590Y2554282D01*
X-7627040Y2296274D01*
X-7779206Y2057571D01*
X-7909355Y1824690D01*
X-7909473Y1824410D01*
X-7909477Y1824402D01*
X-7919830Y1799847D01*
X-8010829Y1584028D01*
X-8076972Y1321983D01*
X-8101127Y1024951D01*
X-8076637Y679330D01*
X-8076568Y678975D01*
X-8076567Y678971D01*
X-7998986Y282448D01*
X-8000760Y273670D01*
X-8007658Y268843D01*
X-8228301Y214281D01*
X-8237154Y215622D01*
X-8242436Y222706D01*
X-8254381Y268843D01*
X-8350044Y638319D01*
X-8361883Y679330D01*
X-8453016Y995004D01*
X-8453044Y995101D01*
X-8552187Y1297310D01*
X-8561643Y1322457D01*
X-8651071Y1560261D01*
X-8651125Y1560405D01*
X-8661038Y1583589D01*
X-8753472Y1799755D01*
X-8753511Y1799847D01*
X-8862998Y2031094D01*
X-8983237Y2269608D01*
X-9117860Y2530803D01*
X-9117883Y2530848D01*
X-9270560Y2830223D01*
X-9270627Y2830356D01*
X-9441360Y3175976D01*
X-9441952Y3184911D01*
X-9439303Y3189268D01*
X-8901688Y3748321D01*
X-8901688Y3748322D01*
X-8275000Y4400000D01*
X-7236103Y3319675D01*
G37*
%TD.AperFunction*%
%TD*%
%TA.AperFunction,Conductor*%
%TO.N,GND*%
G36*
X29164559Y21064023D02*
G01*
X29292996Y20940511D01*
X29292997Y20940511D01*
X30375000Y19900000D01*
X29910160Y19452986D01*
X29908568Y19451455D01*
X29164559Y18735977D01*
X29156220Y18732712D01*
X29150796Y18734166D01*
X28911496Y18866228D01*
X28910469Y18866866D01*
X28873310Y18892705D01*
X28707635Y19007912D01*
X28706890Y19008476D01*
X28534754Y19150236D01*
X28534386Y19150553D01*
X28380374Y19288489D01*
X28380332Y19288527D01*
X28231887Y19418027D01*
X28076626Y19534285D01*
X27901926Y19632705D01*
X27695169Y19708695D01*
X27560811Y19734859D01*
X27444125Y19757581D01*
X27444123Y19757581D01*
X27443734Y19757657D01*
X27428613Y19758506D01*
X27146044Y19774380D01*
X27137976Y19778266D01*
X27135000Y19786062D01*
X27135000Y20013938D01*
X27138427Y20022211D01*
X27146044Y20025620D01*
X27443342Y20042320D01*
X27443734Y20042342D01*
X27444123Y20042418D01*
X27444125Y20042418D01*
X27560811Y20065140D01*
X27695169Y20091304D01*
X27901926Y20167294D01*
X28076626Y20265714D01*
X28231887Y20381972D01*
X28232050Y20382114D01*
X28380281Y20511427D01*
X28380306Y20511450D01*
X28380332Y20511472D01*
X28534386Y20649446D01*
X28534754Y20649763D01*
X28573041Y20681294D01*
X28706890Y20791523D01*
X28707635Y20792087D01*
X28910469Y20933133D01*
X28911496Y20933771D01*
X29150796Y21065834D01*
X29159695Y21066831D01*
X29164559Y21064023D01*
G37*
%TD.AperFunction*%
%TD*%
%TA.AperFunction,Conductor*%
%TO.N,GND*%
G36*
X11375000Y15650000D02*
G01*
X10995501Y15285054D01*
X10164554Y14485972D01*
X10156215Y14482707D01*
X10150800Y14484157D01*
X9909886Y14616889D01*
X9908891Y14617507D01*
X9704559Y14758944D01*
X9703816Y14759504D01*
X9530290Y14901403D01*
X9529946Y14901696D01*
X9374533Y15039633D01*
X9374456Y15039700D01*
X9224815Y15168889D01*
X9224653Y15169029D01*
X9067970Y15285054D01*
X8950144Y15350692D01*
X8892181Y15382982D01*
X8892177Y15382984D01*
X8891771Y15383210D01*
X8683398Y15458951D01*
X8536696Y15487213D01*
X8430579Y15507656D01*
X8430574Y15507657D01*
X8430193Y15507730D01*
X8429800Y15507752D01*
X8429799Y15507752D01*
X8130551Y15524386D01*
X8122480Y15528267D01*
X8119500Y15536068D01*
X8119500Y15763932D01*
X8122927Y15772205D01*
X8130551Y15775614D01*
X8429799Y15792247D01*
X8429800Y15792247D01*
X8430193Y15792269D01*
X8430574Y15792342D01*
X8430579Y15792343D01*
X8536696Y15812786D01*
X8683398Y15841048D01*
X8891771Y15916789D01*
X8892177Y15917015D01*
X8892181Y15917017D01*
X9067641Y16014762D01*
X9067970Y16014945D01*
X9224653Y16130970D01*
X9374478Y16260318D01*
X9374533Y16260366D01*
X9529946Y16398303D01*
X9530290Y16398596D01*
X9703821Y16540498D01*
X9704563Y16541058D01*
X9908891Y16682492D01*
X9909886Y16683110D01*
X9933786Y16696278D01*
X9952125Y16706381D01*
X9952128Y16706383D01*
X10158344Y16820000D01*
X11375000Y15650000D01*
G37*
%TD.AperFunction*%
%TD*%
%TA.AperFunction,Conductor*%
%TO.N,GND*%
G36*
X-8152789Y6336573D02*
G01*
X-8149380Y6328956D01*
X-8132657Y6031265D01*
X-8083695Y5779830D01*
X-8007705Y5573073D01*
X-7909285Y5398373D01*
X-7793027Y5243112D01*
X-7792887Y5242952D01*
X-7792885Y5242949D01*
X-7702023Y5138795D01*
X-7663527Y5094667D01*
X-7525380Y4940420D01*
X-7383180Y4767749D01*
X-7241521Y4564034D01*
X-7105000Y4316656D01*
X-8275000Y3100000D01*
X-9002283Y3856285D01*
X-9439023Y4310441D01*
X-9442288Y4318780D01*
X-9440834Y4324204D01*
X-9308771Y4563503D01*
X-9308133Y4564530D01*
X-9167092Y4767357D01*
X-9166518Y4768115D01*
X-9024763Y4940245D01*
X-9024446Y4940613D01*
X-8886510Y5094625D01*
X-8886472Y5094667D01*
X-8871824Y5111457D01*
X-8757114Y5242949D01*
X-8757112Y5242952D01*
X-8756972Y5243112D01*
X-8640714Y5398373D01*
X-8542294Y5573073D01*
X-8466304Y5779830D01*
X-8417342Y6031265D01*
X-8400620Y6328956D01*
X-8396734Y6337024D01*
X-8388938Y6340000D01*
X-8161062Y6340000D01*
X-8152789Y6336573D01*
G37*
%TD.AperFunction*%
%TD*%
%TA.AperFunction,Conductor*%
%TO.N,GND*%
G36*
X-7234572Y20318083D02*
G01*
X-7110977Y20189559D01*
X-7107712Y20181220D01*
X-7109166Y20175796D01*
X-7241228Y19936496D01*
X-7241866Y19935469D01*
X-7382907Y19732642D01*
X-7383481Y19731884D01*
X-7525236Y19559754D01*
X-7525553Y19559386D01*
X-7663527Y19405332D01*
X-7793027Y19256887D01*
X-7909285Y19101626D01*
X-8007705Y18926926D01*
X-8083695Y18720169D01*
X-8132657Y18468734D01*
X-8132679Y18468342D01*
X-8149380Y18171044D01*
X-8153266Y18162976D01*
X-8161062Y18160000D01*
X-8388938Y18160000D01*
X-8397211Y18163427D01*
X-8400620Y18171044D01*
X-8417320Y18468342D01*
X-8417342Y18468734D01*
X-8466304Y18720169D01*
X-8542294Y18926926D01*
X-8640714Y19101626D01*
X-8756972Y19256887D01*
X-8886472Y19405332D01*
X-9024446Y19559386D01*
X-9024763Y19559754D01*
X-9166518Y19731884D01*
X-9167092Y19732642D01*
X-9308133Y19935469D01*
X-9308771Y19936496D01*
X-9440834Y20175796D01*
X-9441831Y20184695D01*
X-9439023Y20189559D01*
X-8901688Y20748321D01*
X-8901688Y20748322D01*
X-8275000Y21400000D01*
X-7234572Y20318083D01*
G37*
%TD.AperFunction*%
%TD*%
%TA.AperFunction,Conductor*%
%TO.N,GND*%
G36*
X29164559Y38064023D02*
G01*
X29292996Y37940511D01*
X29292997Y37940511D01*
X30375000Y36900000D01*
X29910160Y36452986D01*
X29908568Y36451455D01*
X29164559Y35735977D01*
X29156220Y35732712D01*
X29150796Y35734166D01*
X28911496Y35866228D01*
X28910469Y35866866D01*
X28873310Y35892705D01*
X28707635Y36007912D01*
X28706890Y36008476D01*
X28534754Y36150236D01*
X28534386Y36150553D01*
X28380374Y36288489D01*
X28380332Y36288527D01*
X28231887Y36418027D01*
X28076626Y36534285D01*
X27901926Y36632705D01*
X27695169Y36708695D01*
X27560811Y36734859D01*
X27444125Y36757581D01*
X27444123Y36757581D01*
X27443734Y36757657D01*
X27428613Y36758506D01*
X27146044Y36774380D01*
X27137976Y36778266D01*
X27135000Y36786062D01*
X27135000Y37013938D01*
X27138427Y37022211D01*
X27146044Y37025620D01*
X27443342Y37042320D01*
X27443734Y37042342D01*
X27444123Y37042418D01*
X27444125Y37042418D01*
X27560811Y37065140D01*
X27695169Y37091304D01*
X27901926Y37167294D01*
X28076626Y37265714D01*
X28231887Y37381972D01*
X28232050Y37382114D01*
X28380281Y37511427D01*
X28380306Y37511450D01*
X28380332Y37511472D01*
X28534386Y37649446D01*
X28534754Y37649763D01*
X28573041Y37681294D01*
X28706890Y37791523D01*
X28707635Y37792087D01*
X28910469Y37933133D01*
X28911496Y37933771D01*
X29150796Y38065834D01*
X29159695Y38066831D01*
X29164559Y38064023D01*
G37*
%TD.AperFunction*%
%TD*%
%TA.AperFunction,Conductor*%
%TO.N,GND*%
G36*
X-6524162Y22661973D02*
G01*
X-6363027Y22500838D01*
X-6359600Y22492565D01*
X-6362576Y22484770D01*
X-6561251Y22262446D01*
X-6656038Y22121814D01*
X-6670560Y22100268D01*
X-6704420Y22050032D01*
X-6704615Y22049610D01*
X-6704618Y22049605D01*
X-6737734Y21978001D01*
X-6796887Y21850101D01*
X-6850824Y21656976D01*
X-6878404Y21464983D01*
X-6891800Y21268447D01*
X-6891802Y21268403D01*
X-6903171Y21061952D01*
X-6903207Y21061468D01*
X-6924685Y20839519D01*
X-6924815Y20838577D01*
X-6968504Y20595425D01*
X-6968779Y20594248D01*
X-7044607Y20331655D01*
X-7050195Y20324657D01*
X-7055617Y20323204D01*
X-8734619Y20290381D01*
X-8701628Y21978001D01*
X-8430169Y22056388D01*
X-8185954Y22100268D01*
X-7963307Y22121814D01*
X-7756552Y22133199D01*
X-7700476Y22137021D01*
X-7698714Y22137141D01*
X-7560236Y22146580D01*
X-7560016Y22146595D01*
X-7368023Y22174175D01*
X-7367668Y22174274D01*
X-7367664Y22174275D01*
X-7175345Y22227987D01*
X-7175343Y22227988D01*
X-7174898Y22228112D01*
X-7100661Y22262446D01*
X-6975394Y22320381D01*
X-6975389Y22320384D01*
X-6974967Y22320579D01*
X-6762553Y22463748D01*
X-6540230Y22662424D01*
X-6531779Y22665382D01*
X-6524162Y22661973D01*
G37*
%TD.AperFunction*%
%TD*%
%TA.AperFunction,Conductor*%
%TO.N,GND*%
G36*
X46722883Y-3729033D02*
G01*
X47806239Y-4770845D01*
X47924554Y-4884623D01*
X47928142Y-4892827D01*
X47924553Y-4901489D01*
X46716667Y-6063056D01*
X46469288Y-5926534D01*
X46265958Y-5785143D01*
X46265213Y-5784579D01*
X46093077Y-5642819D01*
X46092709Y-5642502D01*
X45938697Y-5504566D01*
X45938655Y-5504528D01*
X45790210Y-5375028D01*
X45634949Y-5258770D01*
X45460249Y-5160350D01*
X45253492Y-5084360D01*
X45119134Y-5058196D01*
X45002448Y-5035474D01*
X45002446Y-5035474D01*
X45002057Y-5035398D01*
X44986488Y-5034523D01*
X44704367Y-5018676D01*
X44696299Y-5014790D01*
X44693323Y-5006994D01*
X44693323Y-4779118D01*
X44696750Y-4770845D01*
X44704367Y-4767436D01*
X45001665Y-4750735D01*
X45002057Y-4750713D01*
X45002446Y-4750637D01*
X45002448Y-4750637D01*
X45119134Y-4727915D01*
X45253492Y-4701751D01*
X45460249Y-4625761D01*
X45634949Y-4527341D01*
X45790210Y-4411083D01*
X45790373Y-4410941D01*
X45938604Y-4281628D01*
X45938629Y-4281605D01*
X45938655Y-4281583D01*
X46092709Y-4143609D01*
X46093077Y-4143292D01*
X46131364Y-4111761D01*
X46265213Y-4001532D01*
X46265958Y-4000968D01*
X46468792Y-3859922D01*
X46469819Y-3859284D01*
X46709119Y-3727222D01*
X46718018Y-3726225D01*
X46722883Y-3729033D01*
G37*
%TD.AperFunction*%
%TD*%
%TA.AperFunction,Conductor*%
%TO.N,GND*%
G36*
X-8152789Y23336573D02*
G01*
X-8149380Y23328956D01*
X-8132657Y23031265D01*
X-8083695Y22779830D01*
X-8007705Y22573073D01*
X-7909285Y22398373D01*
X-7793027Y22243112D01*
X-7792887Y22242952D01*
X-7792885Y22242949D01*
X-7702023Y22138795D01*
X-7663527Y22094667D01*
X-7525380Y21940420D01*
X-7383180Y21767749D01*
X-7241521Y21564034D01*
X-7105000Y21316656D01*
X-8275000Y20100000D01*
X-9002283Y20856285D01*
X-9439023Y21310441D01*
X-9442288Y21318780D01*
X-9440834Y21324204D01*
X-9308771Y21563503D01*
X-9308133Y21564530D01*
X-9167092Y21767357D01*
X-9166518Y21768115D01*
X-9024763Y21940245D01*
X-9024446Y21940613D01*
X-8886510Y22094625D01*
X-8886472Y22094667D01*
X-8871824Y22111457D01*
X-8757114Y22242949D01*
X-8757112Y22242952D01*
X-8756972Y22243112D01*
X-8640714Y22398373D01*
X-8542294Y22573073D01*
X-8466304Y22779830D01*
X-8417342Y23031265D01*
X-8400620Y23328956D01*
X-8396734Y23337024D01*
X-8388938Y23340000D01*
X-8161062Y23340000D01*
X-8152789Y23336573D01*
G37*
%TD.AperFunction*%
%TD*%
%TA.AperFunction,Conductor*%
%TO.N,GND*%
G36*
X-7234572Y37318083D02*
G01*
X-7110977Y37189559D01*
X-7107712Y37181220D01*
X-7109166Y37175796D01*
X-7241228Y36936496D01*
X-7241866Y36935469D01*
X-7382907Y36732642D01*
X-7383481Y36731884D01*
X-7525236Y36559754D01*
X-7525553Y36559386D01*
X-7663527Y36405332D01*
X-7793027Y36256887D01*
X-7909285Y36101626D01*
X-8007705Y35926926D01*
X-8083695Y35720169D01*
X-8132657Y35468734D01*
X-8132679Y35468342D01*
X-8149380Y35171044D01*
X-8153266Y35162976D01*
X-8161062Y35160000D01*
X-8388938Y35160000D01*
X-8397211Y35163427D01*
X-8400620Y35171044D01*
X-8417320Y35468342D01*
X-8417342Y35468734D01*
X-8466304Y35720169D01*
X-8542294Y35926926D01*
X-8640714Y36101626D01*
X-8756972Y36256887D01*
X-8886472Y36405332D01*
X-9024446Y36559386D01*
X-9024763Y36559754D01*
X-9166518Y36731884D01*
X-9167092Y36732642D01*
X-9308133Y36935469D01*
X-9308771Y36936496D01*
X-9440834Y37175796D01*
X-9441831Y37184695D01*
X-9439023Y37189559D01*
X-8723545Y37933568D01*
X-8722014Y37935160D01*
X-8275000Y38400000D01*
X-7234572Y37318083D01*
G37*
%TD.AperFunction*%
%TD*%
%TA.AperFunction,Conductor*%
%TO.N,GND*%
G36*
X29840214Y56494701D02*
G01*
X29843622Y56487087D01*
X29860483Y56188011D01*
X29860560Y56187617D01*
X29909731Y55936059D01*
X29909838Y55935510D01*
X29986423Y55727933D01*
X30085596Y55552589D01*
X30202714Y55396785D01*
X30202862Y55396616D01*
X30333134Y55247830D01*
X30472036Y55093230D01*
X30472356Y55092860D01*
X30615013Y54920063D01*
X30615589Y54919304D01*
X30757444Y54715633D01*
X30758084Y54714604D01*
X30890369Y54475042D01*
X30890831Y54474206D01*
X30891831Y54465307D01*
X30889022Y54460440D01*
X30877875Y54448848D01*
X29735840Y53261272D01*
X29733433Y53258769D01*
X29725229Y53255181D01*
X29716566Y53258770D01*
X29714160Y53261272D01*
X28555000Y54466656D01*
X28691515Y54714599D01*
X28832495Y54918647D01*
X28833036Y54919368D01*
X28974062Y55092322D01*
X28974365Y55092679D01*
X28978127Y55096933D01*
X29111401Y55247645D01*
X29239820Y55397025D01*
X29354974Y55553234D01*
X29451625Y55727527D01*
X29452140Y55728455D01*
X29452141Y55728456D01*
X29452365Y55728861D01*
X29527498Y55936494D01*
X29575664Y56187617D01*
X29575802Y56188338D01*
X29575802Y56188342D01*
X29575875Y56188720D01*
X29592388Y56487076D01*
X29596267Y56495146D01*
X29604070Y56498128D01*
X29831941Y56498128D01*
X29840214Y56494701D01*
G37*
%TD.AperFunction*%
%TD*%
%TA.AperFunction,Conductor*%
%TO.N,matrix_pinky_home*%
G36*
X588576Y20307565D02*
G01*
X749391Y20146750D01*
X752818Y20138477D01*
X749596Y20130414D01*
X684101Y20061547D01*
X625624Y19992817D01*
X578605Y19930688D01*
X578521Y19930565D01*
X578512Y19930552D01*
X557463Y19899594D01*
X539622Y19873357D01*
X539580Y19873290D01*
X539569Y19873274D01*
X505252Y19819022D01*
X472148Y19765997D01*
X471994Y19765757D01*
X436819Y19712355D01*
X436493Y19711886D01*
X395816Y19656241D01*
X395373Y19655673D01*
X345718Y19595861D01*
X345228Y19595306D01*
X288618Y19535282D01*
X280448Y19531615D01*
X275200Y19532688D01*
X138444Y19595861D01*
X-178136Y19742101D01*
X-184210Y19748682D01*
X-183634Y19758075D01*
X44563Y20201700D01*
X51394Y20207489D01*
X56559Y20207939D01*
X113914Y20200064D01*
X114088Y20200039D01*
X150351Y20194504D01*
X173703Y20190939D01*
X173758Y20190931D01*
X201195Y20187167D01*
X228599Y20183407D01*
X279923Y20179128D01*
X328886Y20179774D01*
X329281Y20179834D01*
X329283Y20179834D01*
X376226Y20186948D01*
X376230Y20186949D01*
X376699Y20187020D01*
X377149Y20187166D01*
X377154Y20187167D01*
X416941Y20200064D01*
X424574Y20202538D01*
X473722Y20228001D01*
X525354Y20265084D01*
X572428Y20307944D01*
X580851Y20310979D01*
X588576Y20307565D01*
G37*
%TD.AperFunction*%
%TD*%
%TA.AperFunction,Conductor*%
%TO.N,matrix_pinky_home*%
G36*
X3700933Y23434118D02*
G01*
X3705063Y23425702D01*
X3760903Y22155927D01*
X3767753Y22000158D01*
X3764586Y21991627D01*
X3660872Y21881375D01*
X3635792Y21854714D01*
X3519628Y21687265D01*
X3497012Y21654664D01*
X3490168Y21649965D01*
X3262678Y21594560D01*
X3261688Y21594364D01*
X3038692Y21560054D01*
X3038133Y21559982D01*
X2830017Y21538157D01*
X2631272Y21516245D01*
X2631079Y21516211D01*
X2631081Y21516211D01*
X2436823Y21481708D01*
X2436820Y21481707D01*
X2436475Y21481646D01*
X2436146Y21481546D01*
X2436139Y21481544D01*
X2240337Y21421857D01*
X2239914Y21421728D01*
X2035879Y21323863D01*
X1818658Y21175418D01*
X1818377Y21175166D01*
X1590790Y20971159D01*
X1582342Y20968188D01*
X1574707Y20971598D01*
X1413581Y21132724D01*
X1410154Y21140997D01*
X1413126Y21148788D01*
X1608313Y21367447D01*
X1608314Y21367448D01*
X1608586Y21367753D01*
X1737351Y21560012D01*
X1748612Y21576825D01*
X1748613Y21576827D01*
X1748881Y21577227D01*
X1756646Y21594364D01*
X1838130Y21774210D01*
X1838130Y21774211D01*
X1838332Y21774656D01*
X1888626Y21965737D01*
X1911445Y22156164D01*
X1918476Y22351634D01*
X1921401Y22557675D01*
X1921412Y22558041D01*
X1931889Y22780057D01*
X1931962Y22780918D01*
X1961611Y23024681D01*
X1961805Y23025812D01*
X2020531Y23289448D01*
X2025675Y23296778D01*
X2030981Y23298564D01*
X3692405Y23436847D01*
X3700933Y23434118D01*
G37*
%TD.AperFunction*%
%TD*%
%TA.AperFunction,Conductor*%
%TO.N,matrix_pinky_top*%
G36*
X553612Y37389515D02*
G01*
X714420Y37228707D01*
X717847Y37220434D01*
X714662Y37212411D01*
X653124Y37147128D01*
X598911Y37081135D01*
X556635Y37020825D01*
X523115Y36964328D01*
X495171Y36909777D01*
X495133Y36909697D01*
X495132Y36909694D01*
X469623Y36855301D01*
X443369Y36799197D01*
X443214Y36798878D01*
X413125Y36739353D01*
X412841Y36738827D01*
X409197Y36732455D01*
X375735Y36673943D01*
X375364Y36673337D01*
X332406Y36607798D01*
X325005Y36602757D01*
X319654Y36602894D01*
X-162830Y36729370D01*
X-169964Y36734783D01*
X-171056Y36744095D01*
X-25797Y37221338D01*
X-20110Y37228255D01*
X-15035Y37229623D01*
X35879Y37231497D01*
X48213Y37231951D01*
X48572Y37231959D01*
X112860Y37232350D01*
X112898Y37232350D01*
X126367Y37232388D01*
X171509Y37232515D01*
X171641Y37232520D01*
X171653Y37232520D01*
X225637Y37234472D01*
X225642Y37234472D01*
X225853Y37234480D01*
X226050Y37234502D01*
X226062Y37234503D01*
X257877Y37238076D01*
X277393Y37240268D01*
X280846Y37241068D01*
X327222Y37251810D01*
X327226Y37251811D01*
X327635Y37251906D01*
X378080Y37271418D01*
X378449Y37271626D01*
X378453Y37271628D01*
X429907Y37300646D01*
X429909Y37300647D01*
X430233Y37300830D01*
X485597Y37342166D01*
X503228Y37358391D01*
X537416Y37389851D01*
X545825Y37392932D01*
X553612Y37389515D01*
G37*
%TD.AperFunction*%
%TD*%
%TA.AperFunction,Conductor*%
%TO.N,matrix_pinky_top*%
G36*
X3730793Y40406116D02*
G01*
X3734381Y40397454D01*
X3705763Y38933507D01*
X3702587Y38925719D01*
X3635792Y38854714D01*
X3519628Y38687265D01*
X3506539Y38668397D01*
X3500173Y38663826D01*
X3450833Y38649578D01*
X3430751Y38643779D01*
X3429576Y38643504D01*
X3186422Y38599815D01*
X3185483Y38599685D01*
X3121774Y38593520D01*
X2963531Y38578207D01*
X2963047Y38578171D01*
X2874601Y38573300D01*
X2756552Y38566800D01*
X2756513Y38566797D01*
X2756489Y38566796D01*
X2560236Y38553419D01*
X2560016Y38553404D01*
X2368023Y38525824D01*
X2367668Y38525725D01*
X2367664Y38525724D01*
X2175345Y38472012D01*
X2175343Y38472011D01*
X2174898Y38471887D01*
X2174475Y38471691D01*
X2174474Y38471691D01*
X1975394Y38379618D01*
X1975389Y38379615D01*
X1974967Y38379420D01*
X1762553Y38236251D01*
X1540230Y38037576D01*
X1531779Y38034618D01*
X1524162Y38038027D01*
X1363027Y38199162D01*
X1359600Y38207435D01*
X1362575Y38215230D01*
X1561251Y38437553D01*
X1661534Y38586339D01*
X1704158Y38649578D01*
X1704159Y38649580D01*
X1704420Y38649967D01*
X1704615Y38650389D01*
X1704618Y38650394D01*
X1796691Y38849474D01*
X1796691Y38849475D01*
X1796887Y38849898D01*
X1797012Y38850345D01*
X1850724Y39042664D01*
X1850725Y39042668D01*
X1850824Y39043023D01*
X1878404Y39235016D01*
X1891800Y39431552D01*
X1903171Y39638047D01*
X1903207Y39638531D01*
X1924685Y39860480D01*
X1924815Y39861422D01*
X1968504Y40104574D01*
X1968779Y40105751D01*
X2044607Y40368345D01*
X2050195Y40375343D01*
X2055617Y40376796D01*
X3258814Y40400318D01*
X3722454Y40409381D01*
X3730793Y40406116D01*
G37*
%TD.AperFunction*%
%TD*%
%TA.AperFunction,Conductor*%
%TO.N,matrix_ring_bottom*%
G36*
X19294274Y15055596D02*
G01*
X19354058Y15020432D01*
X19406812Y14987116D01*
X19455640Y14956261D01*
X19503647Y14928476D01*
X19553935Y14904374D01*
X19563518Y14900964D01*
X19609610Y14884564D01*
X19609931Y14884490D01*
X19609929Y14884490D01*
X19673475Y14869728D01*
X19673478Y14869728D01*
X19673777Y14869658D01*
X19674086Y14869620D01*
X19674090Y14869619D01*
X19718113Y14864162D01*
X19749538Y14860266D01*
X19805541Y14858244D01*
X19828722Y14857407D01*
X19836866Y14853684D01*
X19840000Y14845715D01*
X19840000Y14618285D01*
X19836573Y14610012D01*
X19828722Y14606593D01*
X19796068Y14605413D01*
X19749538Y14603733D01*
X19729364Y14601232D01*
X19674090Y14594380D01*
X19674086Y14594379D01*
X19673777Y14594341D01*
X19673478Y14594271D01*
X19673475Y14594271D01*
X19635442Y14585436D01*
X19609610Y14579435D01*
X19553935Y14559625D01*
X19553660Y14559493D01*
X19503855Y14535623D01*
X19503849Y14535620D01*
X19503647Y14535523D01*
X19455640Y14507738D01*
X19406812Y14476883D01*
X19354214Y14443666D01*
X19353938Y14443496D01*
X19303260Y14413688D01*
X19294534Y14408556D01*
X19294005Y14408263D01*
X19231809Y14375881D01*
X19222889Y14375100D01*
X19218297Y14377826D01*
X19054434Y14535405D01*
X18897446Y14686373D01*
X18897446Y14686374D01*
X18858769Y14723567D01*
X18855181Y14731771D01*
X18858769Y14740433D01*
X19224355Y15092000D01*
X19294274Y15055596D01*
G37*
%TD.AperFunction*%
%TD*%
%TA.AperFunction,Conductor*%
%TO.N,matrix_ring_bottom*%
G36*
X19588160Y15324021D02*
G01*
X19748955Y15163226D01*
X19752382Y15154953D01*
X19749205Y15146937D01*
X19711258Y15106587D01*
X19689236Y15083172D01*
X19636575Y15018388D01*
X19595982Y14958946D01*
X19564446Y14902946D01*
X19538956Y14848483D01*
X19516501Y14793656D01*
X19494068Y14736562D01*
X19468646Y14675300D01*
X19437223Y14607966D01*
X19396789Y14532659D01*
X18896712Y14617359D01*
X18889127Y14622120D01*
X18887215Y14631298D01*
X18930685Y14838415D01*
X18982053Y15083172D01*
X18989679Y15119505D01*
X18994732Y15126897D01*
X18999688Y15128712D01*
X19025865Y15131960D01*
X19065734Y15136908D01*
X19066137Y15136951D01*
X19101087Y15140003D01*
X19132609Y15142756D01*
X19132737Y15142766D01*
X19192985Y15147361D01*
X19193006Y15147363D01*
X19193099Y15147370D01*
X19248992Y15152989D01*
X19249169Y15153019D01*
X19249180Y15153020D01*
X19301651Y15161780D01*
X19301653Y15161780D01*
X19301950Y15161830D01*
X19353616Y15176112D01*
X19353970Y15176261D01*
X19353975Y15176263D01*
X19405276Y15197900D01*
X19405632Y15198050D01*
X19405965Y15198246D01*
X19459339Y15229685D01*
X19459347Y15229691D01*
X19459640Y15229863D01*
X19517282Y15273767D01*
X19542928Y15297494D01*
X19571941Y15324336D01*
X19580341Y15327439D01*
X19588160Y15324021D01*
G37*
%TD.AperFunction*%
%TD*%
%TA.AperFunction,Conductor*%
%TO.N,matrix_ring_bottom*%
G36*
X22730793Y18306116D02*
G01*
X22734381Y18297454D01*
X22705763Y16833507D01*
X22702587Y16825719D01*
X22635792Y16754714D01*
X22519628Y16587265D01*
X22506539Y16568397D01*
X22500173Y16563826D01*
X22450833Y16549578D01*
X22430751Y16543779D01*
X22429576Y16543504D01*
X22186422Y16499815D01*
X22185483Y16499685D01*
X22121774Y16493520D01*
X21963531Y16478207D01*
X21963047Y16478171D01*
X21874601Y16473300D01*
X21756552Y16466800D01*
X21756513Y16466797D01*
X21756489Y16466796D01*
X21560236Y16453419D01*
X21560016Y16453404D01*
X21368023Y16425824D01*
X21367668Y16425725D01*
X21367664Y16425724D01*
X21175345Y16372012D01*
X21175343Y16372011D01*
X21174898Y16371887D01*
X21174475Y16371691D01*
X21174474Y16371691D01*
X20975394Y16279618D01*
X20975389Y16279615D01*
X20974967Y16279420D01*
X20762553Y16136251D01*
X20540230Y15937576D01*
X20531779Y15934618D01*
X20524162Y15938027D01*
X20363027Y16099162D01*
X20359600Y16107435D01*
X20362575Y16115230D01*
X20561251Y16337553D01*
X20661534Y16486339D01*
X20704158Y16549578D01*
X20704159Y16549580D01*
X20704420Y16549967D01*
X20704615Y16550389D01*
X20704618Y16550394D01*
X20796691Y16749474D01*
X20796691Y16749475D01*
X20796887Y16749898D01*
X20797012Y16750345D01*
X20850724Y16942664D01*
X20850725Y16942668D01*
X20850824Y16943023D01*
X20878404Y17135016D01*
X20891800Y17331552D01*
X20903171Y17538047D01*
X20903207Y17538531D01*
X20924685Y17760480D01*
X20924815Y17761422D01*
X20968504Y18004574D01*
X20968779Y18005751D01*
X21044607Y18268345D01*
X21050195Y18275343D01*
X21055617Y18276796D01*
X22258814Y18300318D01*
X22722454Y18309381D01*
X22730793Y18306116D01*
G37*
%TD.AperFunction*%
%TD*%
%TA.AperFunction,Conductor*%
%TO.N,matrix_ring_home*%
G36*
X19467796Y32203515D02*
G01*
X19628594Y32042717D01*
X19632021Y32034444D01*
X19628918Y32026507D01*
X19579462Y31972939D01*
X19579304Y31972731D01*
X19579299Y31972724D01*
X19554932Y31940477D01*
X19536554Y31916156D01*
X19536381Y31915856D01*
X19536379Y31915854D01*
X19514852Y31878661D01*
X19505690Y31862832D01*
X19505539Y31862461D01*
X19494469Y31835278D01*
X19484735Y31811377D01*
X19471556Y31760203D01*
X19464022Y31707721D01*
X19460000Y31652344D01*
X19457357Y31592483D01*
X19453960Y31526550D01*
X19447677Y31452957D01*
X19009274Y31342834D01*
X18955759Y31329391D01*
X18946901Y31330699D01*
X18941459Y31338333D01*
X18923474Y31423968D01*
X18888332Y31591301D01*
X18838941Y31826477D01*
X18840594Y31835278D01*
X18844459Y31838967D01*
X18911393Y31878336D01*
X18911985Y31878661D01*
X18978114Y31912586D01*
X18978603Y31912823D01*
X19039051Y31940366D01*
X19039303Y31940477D01*
X19095927Y31964681D01*
X19095993Y31964709D01*
X19096019Y31964720D01*
X19150611Y31988612D01*
X19150632Y31988622D01*
X19150740Y31988669D01*
X19150849Y31988722D01*
X19150859Y31988727D01*
X19205126Y32015297D01*
X19205306Y32015385D01*
X19238254Y32034444D01*
X19261387Y32047825D01*
X19261394Y32047830D01*
X19261592Y32047944D01*
X19321498Y32089432D01*
X19386923Y32142937D01*
X19451501Y32203759D01*
X19459873Y32206937D01*
X19467796Y32203515D01*
G37*
%TD.AperFunction*%
%TD*%
%TA.AperFunction,Conductor*%
%TO.N,matrix_ring_home*%
G36*
X22730793Y35306116D02*
G01*
X22734381Y35297454D01*
X22705763Y33833507D01*
X22702587Y33825719D01*
X22635792Y33754714D01*
X22519628Y33587265D01*
X22506539Y33568397D01*
X22500173Y33563826D01*
X22450833Y33549578D01*
X22430751Y33543779D01*
X22429576Y33543504D01*
X22186422Y33499815D01*
X22185483Y33499685D01*
X22121774Y33493520D01*
X21963531Y33478207D01*
X21963047Y33478171D01*
X21874601Y33473300D01*
X21756552Y33466800D01*
X21756513Y33466797D01*
X21756489Y33466796D01*
X21560236Y33453419D01*
X21560016Y33453404D01*
X21368023Y33425824D01*
X21367668Y33425725D01*
X21367664Y33425724D01*
X21175345Y33372012D01*
X21175343Y33372011D01*
X21174898Y33371887D01*
X21174475Y33371691D01*
X21174474Y33371691D01*
X20975394Y33279618D01*
X20975389Y33279615D01*
X20974967Y33279420D01*
X20762553Y33136251D01*
X20540230Y32937576D01*
X20531779Y32934618D01*
X20524162Y32938027D01*
X20363027Y33099162D01*
X20359600Y33107435D01*
X20362575Y33115230D01*
X20561251Y33337553D01*
X20661534Y33486339D01*
X20704158Y33549578D01*
X20704159Y33549580D01*
X20704420Y33549967D01*
X20704615Y33550389D01*
X20704618Y33550394D01*
X20796691Y33749474D01*
X20796691Y33749475D01*
X20796887Y33749898D01*
X20797012Y33750345D01*
X20850724Y33942664D01*
X20850725Y33942668D01*
X20850824Y33943023D01*
X20878404Y34135016D01*
X20891800Y34331552D01*
X20903171Y34538047D01*
X20903207Y34538531D01*
X20924685Y34760480D01*
X20924815Y34761422D01*
X20968504Y35004574D01*
X20968779Y35005751D01*
X21044607Y35268345D01*
X21050195Y35275343D01*
X21055617Y35276796D01*
X22258814Y35300318D01*
X22722454Y35309381D01*
X22730793Y35306116D01*
G37*
%TD.AperFunction*%
%TD*%
%TA.AperFunction,Conductor*%
%TO.N,matrix_ring_top*%
G36*
X19681846Y48899270D02*
G01*
X19705545Y48824088D01*
X19720088Y48768000D01*
X19720462Y48766557D01*
X19722905Y48757133D01*
X19722992Y48756775D01*
X19736699Y48696089D01*
X19736698Y48696089D01*
X19736700Y48696085D01*
X19749407Y48639745D01*
X19763706Y48586153D01*
X19763783Y48585934D01*
X19763784Y48585931D01*
X19782118Y48533844D01*
X19782121Y48533836D01*
X19782222Y48533550D01*
X19807583Y48480175D01*
X19807756Y48479897D01*
X19807760Y48479890D01*
X19842251Y48424525D01*
X19842415Y48424262D01*
X19842601Y48424024D01*
X19842604Y48424019D01*
X19889195Y48364243D01*
X19889201Y48364236D01*
X19889346Y48364050D01*
X19903336Y48349012D01*
X19943315Y48306037D01*
X19946441Y48297646D01*
X19943022Y48289795D01*
X19782204Y48128977D01*
X19773931Y48125550D01*
X19765964Y48128683D01*
X19707949Y48182653D01*
X19707763Y48182798D01*
X19707756Y48182804D01*
X19647980Y48229395D01*
X19647975Y48229398D01*
X19647737Y48229584D01*
X19647474Y48229748D01*
X19592109Y48264239D01*
X19592102Y48264243D01*
X19591824Y48264416D01*
X19538449Y48289777D01*
X19538163Y48289878D01*
X19538155Y48289881D01*
X19486068Y48308215D01*
X19486065Y48308216D01*
X19485846Y48308293D01*
X19432254Y48322592D01*
X19375914Y48335299D01*
X19375910Y48335302D01*
X19375910Y48335300D01*
X19315202Y48349012D01*
X19314843Y48349100D01*
X19248218Y48366375D01*
X19247637Y48366541D01*
X19180746Y48387627D01*
X19173886Y48393383D01*
X19172566Y48398557D01*
X19169921Y48533844D01*
X19165316Y48769443D01*
X19162764Y48899964D01*
X19166029Y48908303D01*
X19166966Y48908929D01*
X19167142Y48909332D01*
X19681846Y48899270D01*
G37*
%TD.AperFunction*%
%TD*%
%TA.AperFunction,Conductor*%
%TO.N,matrix_ring_top*%
G36*
X19782205Y49407022D02*
G01*
X19943022Y49246205D01*
X19946449Y49237932D01*
X19943315Y49229963D01*
X19927914Y49213407D01*
X19889346Y49171949D01*
X19889201Y49171763D01*
X19889195Y49171756D01*
X19868845Y49145647D01*
X19842415Y49111737D01*
X19842252Y49111476D01*
X19842251Y49111474D01*
X19807760Y49056109D01*
X19807756Y49056102D01*
X19807583Y49055824D01*
X19782222Y49002449D01*
X19782121Y49002163D01*
X19782118Y49002155D01*
X19763784Y48950068D01*
X19763706Y48949846D01*
X19749407Y48896254D01*
X19749376Y48896116D01*
X19736700Y48839914D01*
X19736697Y48839910D01*
X19736699Y48839910D01*
X19722992Y48779224D01*
X19722905Y48778866D01*
X19705545Y48711911D01*
X19681846Y48636730D01*
X19167142Y48626668D01*
X19166250Y48628708D01*
X19163741Y48631121D01*
X19162764Y48636036D01*
X19165342Y48767898D01*
X19165342Y48767920D01*
X19168106Y48909313D01*
X19172566Y49137443D01*
X19176154Y49145647D01*
X19180747Y49148373D01*
X19247637Y49169458D01*
X19248217Y49169624D01*
X19314843Y49186899D01*
X19315202Y49186987D01*
X19375910Y49200699D01*
X19375910Y49200698D01*
X19375914Y49200700D01*
X19432254Y49213407D01*
X19485846Y49227706D01*
X19486068Y49227784D01*
X19538155Y49246118D01*
X19538163Y49246121D01*
X19538449Y49246222D01*
X19591824Y49271583D01*
X19592102Y49271756D01*
X19592109Y49271760D01*
X19647474Y49306251D01*
X19647476Y49306252D01*
X19647737Y49306415D01*
X19647975Y49306601D01*
X19647980Y49306604D01*
X19707756Y49353195D01*
X19707763Y49353201D01*
X19707949Y49353346D01*
X19735318Y49378807D01*
X19765963Y49407315D01*
X19774354Y49410441D01*
X19782205Y49407022D01*
G37*
%TD.AperFunction*%
%TD*%
%TA.AperFunction,Conductor*%
%TO.N,matrix_ring_top*%
G36*
X22702565Y52332678D02*
G01*
X22706666Y52324248D01*
X22764614Y50896780D01*
X22761446Y50888289D01*
X22635792Y50754714D01*
X22519628Y50587265D01*
X22497243Y50554997D01*
X22490368Y50550292D01*
X22374372Y50522385D01*
X22258033Y50494396D01*
X22257049Y50494203D01*
X22033859Y50460378D01*
X22033307Y50460308D01*
X21825073Y50438823D01*
X21626450Y50417150D01*
X21626446Y50417149D01*
X21626268Y50417130D01*
X21538054Y50401519D01*
X21431806Y50382716D01*
X21431803Y50382715D01*
X21431451Y50382653D01*
X21234898Y50322787D01*
X21234503Y50322598D01*
X21234499Y50322596D01*
X21031290Y50225123D01*
X21030886Y50224929D01*
X20813691Y50076472D01*
X20813412Y50076222D01*
X20813407Y50076218D01*
X20585840Y49872209D01*
X20577392Y49869238D01*
X20569757Y49872648D01*
X20408632Y50033773D01*
X20405205Y50042046D01*
X20408177Y50049837D01*
X20604112Y50269269D01*
X20744846Y50479143D01*
X20834725Y50676919D01*
X20885460Y50868305D01*
X20908760Y51059009D01*
X20916334Y51254739D01*
X20919891Y51461005D01*
X20919904Y51461393D01*
X20931127Y51683680D01*
X20931203Y51684543D01*
X20961738Y51928592D01*
X20961936Y51929722D01*
X21021684Y52193680D01*
X21026852Y52200992D01*
X21032164Y52202760D01*
X22694046Y52335436D01*
X22702565Y52332678D01*
G37*
%TD.AperFunction*%
%TD*%
%TA.AperFunction,Conductor*%
%TO.N,matrix_middle_bottom*%
G36*
X38578205Y19435022D02*
G01*
X38739022Y19274205D01*
X38742449Y19265932D01*
X38739315Y19257963D01*
X38723914Y19241407D01*
X38685346Y19199949D01*
X38685201Y19199763D01*
X38685195Y19199756D01*
X38664845Y19173647D01*
X38638415Y19139737D01*
X38638252Y19139476D01*
X38638251Y19139474D01*
X38603760Y19084109D01*
X38603756Y19084102D01*
X38603583Y19083824D01*
X38578222Y19030449D01*
X38578121Y19030163D01*
X38578118Y19030155D01*
X38559784Y18978068D01*
X38559706Y18977846D01*
X38545407Y18924254D01*
X38532699Y18867910D01*
X38518953Y18807050D01*
X38501545Y18739911D01*
X38477846Y18664730D01*
X37993342Y18655259D01*
X37970744Y18654817D01*
X37962405Y18658082D01*
X37958817Y18666744D01*
X37960120Y18733410D01*
X37968566Y19165443D01*
X37972154Y19173647D01*
X37976747Y19176373D01*
X38043637Y19197458D01*
X38044217Y19197624D01*
X38110843Y19214899D01*
X38111202Y19214987D01*
X38171910Y19228699D01*
X38171910Y19228698D01*
X38171914Y19228700D01*
X38228254Y19241407D01*
X38281846Y19255706D01*
X38282068Y19255784D01*
X38334155Y19274118D01*
X38334163Y19274121D01*
X38334449Y19274222D01*
X38387824Y19299583D01*
X38388102Y19299756D01*
X38388109Y19299760D01*
X38443474Y19334251D01*
X38443476Y19334252D01*
X38443737Y19334415D01*
X38443975Y19334601D01*
X38443980Y19334604D01*
X38503756Y19381195D01*
X38503763Y19381201D01*
X38503949Y19381346D01*
X38531318Y19406807D01*
X38561963Y19435315D01*
X38570354Y19438441D01*
X38578205Y19435022D01*
G37*
%TD.AperFunction*%
%TD*%
%TA.AperFunction,Conductor*%
%TO.N,matrix_middle_bottom*%
G36*
X41697898Y22586772D02*
G01*
X41702081Y22578381D01*
X41773525Y21156371D01*
X41770362Y21147767D01*
X41731218Y21106155D01*
X41635792Y21004714D01*
X41573870Y20915454D01*
X41496316Y20803661D01*
X41489546Y20798981D01*
X41269594Y20743875D01*
X41268617Y20743674D01*
X41045334Y20707844D01*
X41044772Y20707767D01*
X40836314Y20684630D01*
X40637200Y20661581D01*
X40637017Y20661548D01*
X40637006Y20661546D01*
X40524320Y20640995D01*
X40441971Y20625977D01*
X40244900Y20565147D01*
X40040261Y20466421D01*
X39822326Y20317126D01*
X39822045Y20316874D01*
X39593618Y20111991D01*
X39585171Y20109018D01*
X39577533Y20112428D01*
X39416410Y20273551D01*
X39412983Y20281824D01*
X39415955Y20289616D01*
X39611160Y20508266D01*
X39611430Y20508568D01*
X39751759Y20718027D01*
X39841211Y20915454D01*
X39841338Y20915936D01*
X39891320Y21106155D01*
X39891321Y21106160D01*
X39891425Y21106556D01*
X39914033Y21297042D01*
X39920673Y21492620D01*
X39922978Y21698808D01*
X39922988Y21699181D01*
X39932570Y21921460D01*
X39932638Y21922310D01*
X39961068Y22166416D01*
X39961254Y22167538D01*
X40018432Y22431601D01*
X40023532Y22438962D01*
X40028824Y22440778D01*
X41689353Y22589447D01*
X41697898Y22586772D01*
G37*
%TD.AperFunction*%
%TD*%
%TA.AperFunction,Conductor*%
%TO.N,matrix_middle_home*%
G36*
X38651518Y36637409D02*
G01*
X38812320Y36476607D01*
X38815747Y36468334D01*
X38812561Y36460310D01*
X38751246Y36395259D01*
X38697252Y36329460D01*
X38655233Y36269287D01*
X38622056Y36212847D01*
X38594587Y36158247D01*
X38569692Y36103597D01*
X38569687Y36103586D01*
X38544305Y36047156D01*
X38544173Y36046872D01*
X38515209Y35986829D01*
X38514949Y35986322D01*
X38479276Y35920728D01*
X38478930Y35920133D01*
X38465504Y35898573D01*
X38465502Y35898570D01*
X38433166Y35846641D01*
X38077770Y35930801D01*
X37939615Y35963517D01*
X37932355Y35968757D01*
X37931041Y35978040D01*
X38064878Y36458607D01*
X38070399Y36465657D01*
X38075444Y36467147D01*
X38120361Y36469857D01*
X38139787Y36471029D01*
X38140136Y36471044D01*
X38164901Y36471745D01*
X38205210Y36472884D01*
X38205269Y36472886D01*
X38264637Y36474266D01*
X38264689Y36474269D01*
X38264694Y36474269D01*
X38307683Y36476607D01*
X38319598Y36477255D01*
X38319794Y36477280D01*
X38319804Y36477281D01*
X38371376Y36483889D01*
X38371380Y36483890D01*
X38371702Y36483931D01*
X38422496Y36496373D01*
X38473532Y36516658D01*
X38526357Y36546864D01*
X38582522Y36589069D01*
X38635316Y36637738D01*
X38643720Y36640826D01*
X38651518Y36637409D01*
G37*
%TD.AperFunction*%
%TD*%
%TA.AperFunction,Conductor*%
%TO.N,matrix_middle_home*%
G36*
X41730793Y39556116D02*
G01*
X41734381Y39547454D01*
X41705763Y38083507D01*
X41702587Y38075719D01*
X41635792Y38004714D01*
X41519628Y37837265D01*
X41506539Y37818397D01*
X41500173Y37813826D01*
X41450833Y37799578D01*
X41430751Y37793779D01*
X41429576Y37793504D01*
X41186422Y37749815D01*
X41185483Y37749685D01*
X41121774Y37743520D01*
X40963531Y37728207D01*
X40963047Y37728171D01*
X40874601Y37723300D01*
X40756552Y37716800D01*
X40756513Y37716797D01*
X40756489Y37716796D01*
X40560236Y37703419D01*
X40560016Y37703404D01*
X40368023Y37675824D01*
X40367668Y37675725D01*
X40367664Y37675724D01*
X40175345Y37622012D01*
X40175343Y37622011D01*
X40174898Y37621887D01*
X40174475Y37621691D01*
X40174474Y37621691D01*
X39975394Y37529618D01*
X39975389Y37529615D01*
X39974967Y37529420D01*
X39762553Y37386251D01*
X39540230Y37187576D01*
X39531779Y37184618D01*
X39524162Y37188027D01*
X39363027Y37349162D01*
X39359600Y37357435D01*
X39362575Y37365230D01*
X39561251Y37587553D01*
X39661534Y37736339D01*
X39704158Y37799578D01*
X39704159Y37799580D01*
X39704420Y37799967D01*
X39704615Y37800389D01*
X39704618Y37800394D01*
X39796691Y37999474D01*
X39796691Y37999475D01*
X39796887Y37999898D01*
X39797012Y38000345D01*
X39850724Y38192664D01*
X39850725Y38192668D01*
X39850824Y38193023D01*
X39878404Y38385016D01*
X39891800Y38581552D01*
X39903171Y38788047D01*
X39903207Y38788531D01*
X39924685Y39010480D01*
X39924815Y39011422D01*
X39968504Y39254574D01*
X39968779Y39255751D01*
X40044607Y39518345D01*
X40050195Y39525343D01*
X40055617Y39526796D01*
X41258814Y39550318D01*
X41722454Y39559381D01*
X41730793Y39556116D01*
G37*
%TD.AperFunction*%
%TD*%
%TA.AperFunction,Conductor*%
%TO.N,matrix_middle_top*%
G36*
X38497066Y52783648D02*
G01*
X38491972Y52745544D01*
X38491972Y52745543D01*
X38491905Y52745039D01*
X38489521Y52727207D01*
X38489515Y52727166D01*
X38485151Y52695369D01*
X38481755Y52670621D01*
X38475636Y52615169D01*
X38473030Y52562135D01*
X38475804Y52512799D01*
X38485825Y52468443D01*
X38504960Y52430348D01*
X38535076Y52399796D01*
X38547243Y52393643D01*
X38577337Y52378424D01*
X38577340Y52378423D01*
X38578040Y52378069D01*
X38625402Y52368527D01*
X38632835Y52363533D01*
X38634740Y52355968D01*
X38627369Y52277153D01*
X38613627Y52130229D01*
X38609445Y52122311D01*
X38600888Y52119670D01*
X38599895Y52119806D01*
X38528737Y52132681D01*
X38526561Y52133297D01*
X38461012Y52158919D01*
X38458983Y52159949D01*
X38406256Y52193588D01*
X38404770Y52194713D01*
X38360678Y52233959D01*
X38359887Y52234733D01*
X38320464Y52277153D01*
X38320338Y52277291D01*
X38282011Y52319876D01*
X38281992Y52319896D01*
X38281863Y52320039D01*
X38281713Y52320185D01*
X38241101Y52359588D01*
X38241096Y52359592D01*
X38240787Y52359892D01*
X38193204Y52393999D01*
X38135173Y52419551D01*
X38071757Y52431974D01*
X38064298Y52436928D01*
X38062320Y52442908D01*
X38061154Y52467805D01*
X38054248Y52615169D01*
X38051650Y52670621D01*
X38050739Y52690054D01*
X38050630Y52692378D01*
X38035220Y53021218D01*
X38497066Y52783648D01*
G37*
%TD.AperFunction*%
%TD*%
%TA.AperFunction,Conductor*%
%TO.N,matrix_middle_top*%
G36*
X38578205Y53471022D02*
G01*
X38739022Y53310205D01*
X38742449Y53301932D01*
X38739315Y53293963D01*
X38723914Y53277407D01*
X38685346Y53235949D01*
X38685201Y53235763D01*
X38685195Y53235756D01*
X38664845Y53209647D01*
X38638415Y53175737D01*
X38638252Y53175476D01*
X38638251Y53175474D01*
X38603760Y53120109D01*
X38603756Y53120102D01*
X38603583Y53119824D01*
X38578222Y53066449D01*
X38578121Y53066163D01*
X38578118Y53066155D01*
X38559784Y53014068D01*
X38559706Y53013846D01*
X38545407Y52960254D01*
X38545376Y52960116D01*
X38532700Y52903914D01*
X38532697Y52903910D01*
X38532699Y52903910D01*
X38518987Y52843202D01*
X38518899Y52842843D01*
X38501624Y52776218D01*
X38501458Y52775638D01*
X38492125Y52746030D01*
X38492123Y52746022D01*
X38477846Y52700730D01*
X37989617Y52691186D01*
X37970744Y52690817D01*
X37962405Y52694082D01*
X37958817Y52702744D01*
X37968566Y53201443D01*
X37972154Y53209647D01*
X37976747Y53212373D01*
X38043637Y53233458D01*
X38044217Y53233624D01*
X38110843Y53250899D01*
X38111202Y53250987D01*
X38171910Y53264699D01*
X38171910Y53264698D01*
X38171914Y53264700D01*
X38228254Y53277407D01*
X38281846Y53291706D01*
X38282068Y53291784D01*
X38334155Y53310118D01*
X38334163Y53310121D01*
X38334449Y53310222D01*
X38387824Y53335583D01*
X38388102Y53335756D01*
X38388109Y53335760D01*
X38443474Y53370251D01*
X38443476Y53370252D01*
X38443737Y53370415D01*
X38443975Y53370601D01*
X38443980Y53370604D01*
X38503756Y53417195D01*
X38503763Y53417201D01*
X38503949Y53417346D01*
X38531318Y53442807D01*
X38561963Y53471315D01*
X38570354Y53474441D01*
X38578205Y53471022D01*
G37*
%TD.AperFunction*%
%TD*%
%TA.AperFunction,Conductor*%
%TO.N,matrix_middle_top*%
G36*
X41707210Y56578524D02*
G01*
X41711230Y56570054D01*
X41737399Y55723675D01*
X41755537Y55137014D01*
X41752365Y55128635D01*
X41635792Y55004714D01*
X41629252Y54995286D01*
X41498123Y54806266D01*
X41492317Y54801871D01*
X41491569Y54801614D01*
X41490393Y54801277D01*
X41246413Y54744997D01*
X41245436Y54744815D01*
X41071342Y54719976D01*
X41022366Y54712989D01*
X41021832Y54712925D01*
X40813817Y54693079D01*
X40615330Y54672729D01*
X40420929Y54639364D01*
X40224896Y54580450D01*
X40021512Y54483448D01*
X40021149Y54483201D01*
X40021143Y54483197D01*
X39805377Y54336040D01*
X39805056Y54335821D01*
X39758375Y54293993D01*
X39578061Y54132426D01*
X39569612Y54129458D01*
X39561980Y54132867D01*
X39400854Y54293993D01*
X39397427Y54302266D01*
X39400400Y54310059D01*
X39596803Y54529980D01*
X39630550Y54580258D01*
X39737687Y54739881D01*
X39737688Y54739882D01*
X39737954Y54740279D01*
X39828270Y54938414D01*
X39879537Y55130093D01*
X39903540Y55321021D01*
X39912062Y55516907D01*
X39916885Y55723271D01*
X39916902Y55723675D01*
X39929780Y55945926D01*
X39929863Y55946801D01*
X39962519Y56190797D01*
X39962729Y56191935D01*
X40025065Y56455774D01*
X40030303Y56463038D01*
X40035634Y56464755D01*
X41698718Y56581363D01*
X41707210Y56578524D01*
G37*
%TD.AperFunction*%
%TD*%
%TA.AperFunction,Conductor*%
%TO.N,matrix_index_bottom*%
G36*
X57628205Y15371022D02*
G01*
X57789022Y15210205D01*
X57792449Y15201932D01*
X57789315Y15193963D01*
X57773914Y15177407D01*
X57735346Y15135949D01*
X57735201Y15135763D01*
X57735195Y15135756D01*
X57714845Y15109647D01*
X57688415Y15075737D01*
X57688252Y15075476D01*
X57688251Y15075474D01*
X57653760Y15020109D01*
X57653756Y15020102D01*
X57653583Y15019824D01*
X57628222Y14966449D01*
X57628121Y14966163D01*
X57628118Y14966155D01*
X57609784Y14914068D01*
X57609706Y14913846D01*
X57595407Y14860254D01*
X57595376Y14860116D01*
X57582700Y14803914D01*
X57582697Y14803910D01*
X57582699Y14803910D01*
X57568992Y14743224D01*
X57568905Y14742866D01*
X57551545Y14675911D01*
X57527846Y14600730D01*
X57013142Y14590668D01*
X57012250Y14592708D01*
X57009741Y14595121D01*
X57008764Y14600036D01*
X57011342Y14731898D01*
X57011342Y14731920D01*
X57014106Y14873313D01*
X57018566Y15101443D01*
X57022154Y15109647D01*
X57026747Y15112373D01*
X57093637Y15133458D01*
X57094217Y15133624D01*
X57160843Y15150899D01*
X57161202Y15150987D01*
X57221910Y15164699D01*
X57221910Y15164698D01*
X57221914Y15164700D01*
X57278254Y15177407D01*
X57331846Y15191706D01*
X57332068Y15191784D01*
X57384155Y15210118D01*
X57384163Y15210121D01*
X57384449Y15210222D01*
X57437824Y15235583D01*
X57438102Y15235756D01*
X57438109Y15235760D01*
X57493474Y15270251D01*
X57493476Y15270252D01*
X57493737Y15270415D01*
X57493975Y15270601D01*
X57493980Y15270604D01*
X57553756Y15317195D01*
X57553763Y15317201D01*
X57553949Y15317346D01*
X57581318Y15342807D01*
X57611963Y15371315D01*
X57620354Y15374441D01*
X57628205Y15371022D01*
G37*
%TD.AperFunction*%
%TD*%
%TA.AperFunction,Conductor*%
%TO.N,matrix_index_bottom*%
G36*
X60732529Y18304375D02*
G01*
X60736084Y18295700D01*
X60701823Y16829275D01*
X60698650Y16821534D01*
X60635792Y16754714D01*
X60632516Y16749991D01*
X60506932Y16568965D01*
X60500527Y16564382D01*
X60446375Y16548942D01*
X60425162Y16542894D01*
X60424004Y16542628D01*
X60314501Y16523219D01*
X60180138Y16499404D01*
X60179208Y16499277D01*
X60100666Y16491777D01*
X59956665Y16478026D01*
X59956232Y16477994D01*
X59749252Y16466647D01*
X59749163Y16466641D01*
X59749165Y16466641D01*
X59552559Y16453120D01*
X59552557Y16453120D01*
X59552342Y16453105D01*
X59552143Y16453076D01*
X59552132Y16453075D01*
X59422822Y16434338D01*
X59360024Y16425238D01*
X59359656Y16425135D01*
X59359653Y16425134D01*
X59167040Y16371035D01*
X59166588Y16370908D01*
X58966329Y16277973D01*
X58965949Y16277716D01*
X58965943Y16277713D01*
X58870266Y16213110D01*
X58753538Y16134294D01*
X58530755Y15935105D01*
X58522305Y15932145D01*
X58514685Y15935554D01*
X58353555Y16096684D01*
X58350128Y16104957D01*
X58353107Y16112756D01*
X58552561Y16335780D01*
X58552824Y16336074D01*
X58641095Y16466647D01*
X58696729Y16548942D01*
X58696732Y16548948D01*
X58696992Y16549332D01*
X58790430Y16749991D01*
X58845336Y16943759D01*
X58873906Y17136343D01*
X58888339Y17333452D01*
X58900817Y17540569D01*
X58900855Y17541034D01*
X58923531Y17763609D01*
X58923665Y17764546D01*
X58968672Y18008424D01*
X58968951Y18009594D01*
X59046209Y18273036D01*
X59051825Y18280010D01*
X59057250Y18281442D01*
X60724204Y18307672D01*
X60732529Y18304375D01*
G37*
%TD.AperFunction*%
%TD*%
%TA.AperFunction,Conductor*%
%TO.N,matrix_index_bottom*%
G36*
X57527846Y14863270D02*
G01*
X57551545Y14788089D01*
X57566088Y14732000D01*
X57566462Y14730557D01*
X57568907Y14721126D01*
X57568994Y14720768D01*
X57582698Y14660090D01*
X57582697Y14660090D01*
X57582698Y14660087D01*
X57595407Y14603745D01*
X57609706Y14550153D01*
X57609783Y14549934D01*
X57609784Y14549931D01*
X57628118Y14497844D01*
X57628121Y14497836D01*
X57628222Y14497550D01*
X57653582Y14444175D01*
X57653755Y14443897D01*
X57653759Y14443890D01*
X57688250Y14388525D01*
X57688414Y14388262D01*
X57688600Y14388024D01*
X57688603Y14388019D01*
X57735194Y14328243D01*
X57735200Y14328236D01*
X57735345Y14328050D01*
X57749335Y14313012D01*
X57789314Y14270037D01*
X57792440Y14261646D01*
X57789021Y14253795D01*
X57628204Y14092977D01*
X57619931Y14089550D01*
X57611964Y14092683D01*
X57553949Y14146653D01*
X57553763Y14146798D01*
X57553756Y14146804D01*
X57524959Y14169248D01*
X57493737Y14193584D01*
X57437825Y14228416D01*
X57437533Y14228555D01*
X57437527Y14228558D01*
X57411991Y14240691D01*
X57384449Y14253777D01*
X57384163Y14253878D01*
X57384155Y14253881D01*
X57332068Y14272215D01*
X57332065Y14272216D01*
X57331846Y14272293D01*
X57278254Y14286592D01*
X57221914Y14299299D01*
X57221910Y14299302D01*
X57221910Y14299300D01*
X57161202Y14313012D01*
X57160843Y14313100D01*
X57094218Y14330375D01*
X57093637Y14330541D01*
X57026746Y14351627D01*
X57019886Y14357383D01*
X57018566Y14362557D01*
X57015921Y14497844D01*
X57011316Y14733443D01*
X57008764Y14863964D01*
X57012029Y14872303D01*
X57012966Y14872929D01*
X57013142Y14873332D01*
X57527846Y14863270D01*
G37*
%TD.AperFunction*%
%TD*%
%TA.AperFunction,Conductor*%
%TO.N,matrix_index_home*%
G36*
X57647902Y32383717D02*
G01*
X57808703Y32222916D01*
X57812130Y32214643D01*
X57808981Y32206659D01*
X57752910Y32146628D01*
X57703997Y32084788D01*
X57667236Y32027567D01*
X57639909Y31973128D01*
X57619294Y31919638D01*
X57619231Y31919431D01*
X57619229Y31919426D01*
X57602698Y31865351D01*
X57602692Y31865328D01*
X57602671Y31865261D01*
X57587318Y31808162D01*
X57587313Y31808163D01*
X57587308Y31808124D01*
X57570571Y31746703D01*
X57570464Y31746333D01*
X57549635Y31678747D01*
X57549444Y31678179D01*
X57524566Y31610072D01*
X57518508Y31603476D01*
X57513288Y31602390D01*
X57014638Y31614659D01*
X57006452Y31618288D01*
X57003250Y31627100D01*
X57014796Y31808124D01*
X57034999Y32124901D01*
X57038945Y32132939D01*
X57043631Y32135453D01*
X57111315Y32153692D01*
X57111843Y32153821D01*
X57179258Y32168664D01*
X57179546Y32168724D01*
X57240834Y32180611D01*
X57297474Y32192001D01*
X57297484Y32192003D01*
X57297602Y32192027D01*
X57351493Y32205474D01*
X57351718Y32205551D01*
X57351729Y32205554D01*
X57403961Y32223372D01*
X57403964Y32223373D01*
X57404283Y32223482D01*
X57404582Y32223623D01*
X57404586Y32223624D01*
X57457442Y32248437D01*
X57457747Y32248580D01*
X57513658Y32283296D01*
X57513898Y32283483D01*
X57573603Y32330012D01*
X57573610Y32330018D01*
X57573791Y32330159D01*
X57631345Y32383717D01*
X57631659Y32384009D01*
X57640050Y32387136D01*
X57647902Y32383717D01*
G37*
%TD.AperFunction*%
%TD*%
%TA.AperFunction,Conductor*%
%TO.N,matrix_index_home*%
G36*
X60730793Y35306116D02*
G01*
X60734381Y35297454D01*
X60705763Y33833507D01*
X60702587Y33825719D01*
X60635792Y33754714D01*
X60519628Y33587265D01*
X60506539Y33568397D01*
X60500173Y33563826D01*
X60450833Y33549578D01*
X60430751Y33543779D01*
X60429576Y33543504D01*
X60186422Y33499815D01*
X60185483Y33499685D01*
X60121774Y33493520D01*
X59963531Y33478207D01*
X59963047Y33478171D01*
X59874601Y33473300D01*
X59756552Y33466800D01*
X59756513Y33466797D01*
X59756489Y33466796D01*
X59560236Y33453419D01*
X59560016Y33453404D01*
X59368023Y33425824D01*
X59367668Y33425725D01*
X59367664Y33425724D01*
X59175345Y33372012D01*
X59175343Y33372011D01*
X59174898Y33371887D01*
X59174475Y33371691D01*
X59174474Y33371691D01*
X58975394Y33279618D01*
X58975389Y33279615D01*
X58974967Y33279420D01*
X58762553Y33136251D01*
X58540230Y32937576D01*
X58531779Y32934618D01*
X58524162Y32938027D01*
X58363027Y33099162D01*
X58359600Y33107435D01*
X58362575Y33115230D01*
X58561251Y33337553D01*
X58661534Y33486339D01*
X58704158Y33549578D01*
X58704159Y33549580D01*
X58704420Y33549967D01*
X58704615Y33550389D01*
X58704618Y33550394D01*
X58796691Y33749474D01*
X58796691Y33749475D01*
X58796887Y33749898D01*
X58797012Y33750345D01*
X58850724Y33942664D01*
X58850725Y33942668D01*
X58850824Y33943023D01*
X58878404Y34135016D01*
X58891800Y34331552D01*
X58903171Y34538047D01*
X58903207Y34538531D01*
X58924685Y34760480D01*
X58924815Y34761422D01*
X58968504Y35004574D01*
X58968779Y35005751D01*
X59044607Y35268345D01*
X59050195Y35275343D01*
X59055617Y35276796D01*
X60258814Y35300318D01*
X60722454Y35309381D01*
X60730793Y35306116D01*
G37*
%TD.AperFunction*%
%TD*%
%TA.AperFunction,Conductor*%
%TO.N,matrix_index_top*%
G36*
X57021869Y48909161D02*
G01*
X57527846Y48899270D01*
X57551545Y48824088D01*
X57568953Y48756949D01*
X57570209Y48751388D01*
X57570566Y48749807D01*
X57582699Y48696089D01*
X57582698Y48696089D01*
X57582700Y48696085D01*
X57595407Y48639745D01*
X57609706Y48586153D01*
X57609783Y48585934D01*
X57609784Y48585931D01*
X57628118Y48533844D01*
X57628121Y48533836D01*
X57628222Y48533550D01*
X57653583Y48480175D01*
X57653756Y48479897D01*
X57653760Y48479890D01*
X57688251Y48424525D01*
X57688415Y48424262D01*
X57688601Y48424024D01*
X57688604Y48424019D01*
X57735195Y48364243D01*
X57735201Y48364236D01*
X57735346Y48364050D01*
X57749336Y48349012D01*
X57789315Y48306037D01*
X57792441Y48297646D01*
X57789022Y48289795D01*
X57628204Y48128977D01*
X57619931Y48125550D01*
X57611964Y48128683D01*
X57553949Y48182653D01*
X57553763Y48182798D01*
X57553756Y48182804D01*
X57493980Y48229395D01*
X57493975Y48229398D01*
X57493737Y48229584D01*
X57493474Y48229748D01*
X57438109Y48264239D01*
X57438102Y48264243D01*
X57437824Y48264416D01*
X57384449Y48289777D01*
X57384163Y48289878D01*
X57384155Y48289881D01*
X57332068Y48308215D01*
X57332065Y48308216D01*
X57331846Y48308293D01*
X57278254Y48322592D01*
X57221914Y48335299D01*
X57221910Y48335302D01*
X57221910Y48335300D01*
X57161202Y48349012D01*
X57160843Y48349100D01*
X57094218Y48366375D01*
X57093637Y48366541D01*
X57026746Y48387627D01*
X57019886Y48393383D01*
X57018566Y48398557D01*
X57014903Y48585931D01*
X57013909Y48636777D01*
X57008817Y48897256D01*
X57012082Y48905595D01*
X57020742Y48909183D01*
X57021869Y48909161D01*
G37*
%TD.AperFunction*%
%TD*%
%TA.AperFunction,Conductor*%
%TO.N,matrix_index_top*%
G36*
X57658121Y49393942D02*
G01*
X57818917Y49233146D01*
X57822344Y49224873D01*
X57819187Y49216879D01*
X57777881Y49172735D01*
X57762120Y49155891D01*
X57712261Y49093291D01*
X57674556Y49035482D01*
X57646217Y48980602D01*
X57646124Y48980371D01*
X57646119Y48980361D01*
X57624531Y48926966D01*
X57624460Y48926790D01*
X57624404Y48926619D01*
X57624399Y48926606D01*
X57618668Y48909183D01*
X57606497Y48872184D01*
X57589543Y48814923D01*
X57576798Y48772892D01*
X57570870Y48753344D01*
X57570744Y48752955D01*
X57547514Y48684992D01*
X57516867Y48608600D01*
X57010461Y48636970D01*
X57002393Y48640854D01*
X56999469Y48649762D01*
X57004351Y48700968D01*
X57024197Y48909116D01*
X57031035Y48980834D01*
X57046814Y49146329D01*
X57051010Y49154240D01*
X57055763Y49156604D01*
X57123379Y49172627D01*
X57123884Y49172735D01*
X57191336Y49185608D01*
X57191586Y49185653D01*
X57252867Y49195971D01*
X57309480Y49206138D01*
X57309493Y49206141D01*
X57309595Y49206159D01*
X57309707Y49206185D01*
X57363146Y49218598D01*
X57363152Y49218600D01*
X57363403Y49218658D01*
X57416049Y49235928D01*
X57469290Y49260430D01*
X57524881Y49294622D01*
X57584580Y49340965D01*
X57584771Y49341143D01*
X57584788Y49341157D01*
X57641882Y49394238D01*
X57650274Y49397361D01*
X57658121Y49393942D01*
G37*
%TD.AperFunction*%
%TD*%
%TA.AperFunction,Conductor*%
%TO.N,matrix_index_top*%
G36*
X60730793Y52306116D02*
G01*
X60734381Y52297454D01*
X60705763Y50833507D01*
X60702587Y50825719D01*
X60635792Y50754714D01*
X60519628Y50587265D01*
X60506539Y50568397D01*
X60500173Y50563826D01*
X60450833Y50549578D01*
X60430751Y50543779D01*
X60429576Y50543504D01*
X60186422Y50499815D01*
X60185483Y50499685D01*
X60121774Y50493520D01*
X59963531Y50478207D01*
X59963047Y50478171D01*
X59874601Y50473300D01*
X59756552Y50466800D01*
X59756513Y50466797D01*
X59756489Y50466796D01*
X59560236Y50453419D01*
X59560016Y50453404D01*
X59368023Y50425824D01*
X59367668Y50425725D01*
X59367664Y50425724D01*
X59175345Y50372012D01*
X59175343Y50372011D01*
X59174898Y50371887D01*
X59174475Y50371691D01*
X59174474Y50371691D01*
X58975394Y50279618D01*
X58975389Y50279615D01*
X58974967Y50279420D01*
X58762553Y50136251D01*
X58540230Y49937576D01*
X58531779Y49934618D01*
X58524162Y49938027D01*
X58363027Y50099162D01*
X58359600Y50107435D01*
X58362575Y50115230D01*
X58561251Y50337553D01*
X58661534Y50486339D01*
X58704158Y50549578D01*
X58704159Y50549580D01*
X58704420Y50549967D01*
X58704615Y50550389D01*
X58704618Y50550394D01*
X58796691Y50749474D01*
X58796691Y50749475D01*
X58796887Y50749898D01*
X58797012Y50750345D01*
X58850724Y50942664D01*
X58850725Y50942668D01*
X58850824Y50943023D01*
X58878404Y51135016D01*
X58891800Y51331552D01*
X58903171Y51538047D01*
X58903207Y51538531D01*
X58924685Y51760480D01*
X58924815Y51761422D01*
X58968504Y52004574D01*
X58968779Y52005751D01*
X59044607Y52268345D01*
X59050195Y52275343D01*
X59055617Y52276796D01*
X60258814Y52300318D01*
X60722454Y52309381D01*
X60730793Y52306116D01*
G37*
%TD.AperFunction*%
%TD*%
%TA.AperFunction,Conductor*%
%TO.N,matrix_inner_bottom*%
G36*
X76525281Y12711236D02*
G01*
X76686091Y12550426D01*
X76689518Y12542153D01*
X76686309Y12534103D01*
X76621878Y12466145D01*
X76564650Y12398068D01*
X76519100Y12336297D01*
X76481865Y12278994D01*
X76449582Y12224319D01*
X76418886Y12170433D01*
X76386416Y12115496D01*
X76348808Y12057669D01*
X76302698Y11995112D01*
X76244724Y11925986D01*
X75869759Y12072987D01*
X75869758Y12072988D01*
X75772517Y12111110D01*
X75766065Y12117320D01*
X75766069Y12126696D01*
X75779311Y12156937D01*
X75779311Y12156938D01*
X75780244Y12159069D01*
X75966174Y12583701D01*
X75972632Y12589905D01*
X75977784Y12590674D01*
X76037676Y12586092D01*
X76037915Y12586071D01*
X76099532Y12580084D01*
X76099533Y12580084D01*
X76156073Y12575099D01*
X76156199Y12575094D01*
X76156211Y12575093D01*
X76208466Y12572932D01*
X76208732Y12572921D01*
X76209001Y12572934D01*
X76209002Y12572934D01*
X76258448Y12575323D01*
X76258453Y12575324D01*
X76258834Y12575342D01*
X76307704Y12584153D01*
X76308134Y12584302D01*
X76308137Y12584303D01*
X76356229Y12600995D01*
X76356667Y12601147D01*
X76407049Y12628117D01*
X76460175Y12666852D01*
X76509114Y12711598D01*
X76517531Y12714651D01*
X76525281Y12711236D01*
G37*
%TD.AperFunction*%
%TD*%
%TA.AperFunction,Conductor*%
%TO.N,matrix_inner_bottom*%
G36*
X79730793Y15756116D02*
G01*
X79734381Y15747454D01*
X79705763Y14283507D01*
X79702587Y14275719D01*
X79635792Y14204714D01*
X79519628Y14037265D01*
X79506539Y14018397D01*
X79500173Y14013826D01*
X79450833Y13999578D01*
X79430751Y13993779D01*
X79429576Y13993504D01*
X79186422Y13949815D01*
X79185483Y13949685D01*
X79121774Y13943520D01*
X78963531Y13928207D01*
X78963047Y13928171D01*
X78874601Y13923300D01*
X78756552Y13916800D01*
X78756513Y13916797D01*
X78756489Y13916796D01*
X78560236Y13903419D01*
X78560016Y13903404D01*
X78368023Y13875824D01*
X78367668Y13875725D01*
X78367664Y13875724D01*
X78175345Y13822012D01*
X78175343Y13822011D01*
X78174898Y13821887D01*
X78174475Y13821691D01*
X78174474Y13821691D01*
X77975394Y13729618D01*
X77975389Y13729615D01*
X77974967Y13729420D01*
X77762553Y13586251D01*
X77540230Y13387576D01*
X77531779Y13384618D01*
X77524162Y13388027D01*
X77363027Y13549162D01*
X77359600Y13557435D01*
X77362575Y13565230D01*
X77561251Y13787553D01*
X77661534Y13936339D01*
X77704158Y13999578D01*
X77704159Y13999580D01*
X77704420Y13999967D01*
X77704615Y14000389D01*
X77704618Y14000394D01*
X77796691Y14199474D01*
X77796691Y14199475D01*
X77796887Y14199898D01*
X77797012Y14200345D01*
X77850724Y14392664D01*
X77850725Y14392668D01*
X77850824Y14393023D01*
X77878404Y14585016D01*
X77891800Y14781552D01*
X77903171Y14988047D01*
X77903207Y14988531D01*
X77924685Y15210480D01*
X77924815Y15211422D01*
X77968504Y15454574D01*
X77968779Y15455751D01*
X78044607Y15718345D01*
X78050195Y15725343D01*
X78055617Y15726796D01*
X79258814Y15750318D01*
X79722454Y15759381D01*
X79730793Y15756116D01*
G37*
%TD.AperFunction*%
%TD*%
%TA.AperFunction,Conductor*%
%TO.N,matrix_inner_home*%
G36*
X76678205Y29849022D02*
G01*
X76839022Y29688205D01*
X76842449Y29679932D01*
X76839315Y29671963D01*
X76823914Y29655407D01*
X76785346Y29613949D01*
X76785201Y29613763D01*
X76785195Y29613756D01*
X76764845Y29587647D01*
X76738415Y29553737D01*
X76738252Y29553476D01*
X76738251Y29553474D01*
X76703760Y29498109D01*
X76703756Y29498102D01*
X76703583Y29497824D01*
X76678222Y29444449D01*
X76678121Y29444163D01*
X76678118Y29444155D01*
X76659784Y29392068D01*
X76659706Y29391846D01*
X76645407Y29338254D01*
X76645376Y29338116D01*
X76632700Y29281914D01*
X76632697Y29281910D01*
X76632699Y29281910D01*
X76618987Y29221202D01*
X76618899Y29220843D01*
X76601624Y29154217D01*
X76601458Y29153637D01*
X76580373Y29086747D01*
X76574617Y29079886D01*
X76569443Y29078566D01*
X76070744Y29068817D01*
X76062405Y29072082D01*
X76058817Y29080744D01*
X76068566Y29579443D01*
X76072154Y29587647D01*
X76076747Y29590373D01*
X76143637Y29611458D01*
X76144217Y29611624D01*
X76210843Y29628899D01*
X76211202Y29628987D01*
X76271910Y29642699D01*
X76271910Y29642698D01*
X76271914Y29642700D01*
X76328254Y29655407D01*
X76381846Y29669706D01*
X76382068Y29669784D01*
X76434155Y29688118D01*
X76434163Y29688121D01*
X76434449Y29688222D01*
X76487824Y29713583D01*
X76488102Y29713756D01*
X76488109Y29713760D01*
X76543474Y29748251D01*
X76543476Y29748252D01*
X76543737Y29748415D01*
X76543975Y29748601D01*
X76543980Y29748604D01*
X76603756Y29795195D01*
X76603763Y29795201D01*
X76603949Y29795346D01*
X76631318Y29820807D01*
X76661963Y29849315D01*
X76670354Y29852441D01*
X76678205Y29849022D01*
G37*
%TD.AperFunction*%
%TD*%
%TA.AperFunction,Conductor*%
%TO.N,matrix_inner_home*%
G36*
X79727080Y32759797D02*
G01*
X79730738Y32751164D01*
X79724410Y32198013D01*
X79714051Y31292412D01*
X79710874Y31284529D01*
X79635792Y31204714D01*
X79629252Y31195286D01*
X79505316Y31016636D01*
X79499048Y31012093D01*
X79438901Y30994148D01*
X79437741Y30993866D01*
X79245689Y30957362D01*
X79193053Y30947357D01*
X79192127Y30947220D01*
X79099499Y30937245D01*
X78968805Y30923172D01*
X78968324Y30923131D01*
X78760589Y30909390D01*
X78760578Y30909389D01*
X78562823Y30893769D01*
X78562620Y30893738D01*
X78562613Y30893737D01*
X78369941Y30864120D01*
X78369937Y30864119D01*
X78369572Y30864063D01*
X78175078Y30808048D01*
X77973595Y30713499D01*
X77759378Y30568191D01*
X77759093Y30567936D01*
X77759088Y30567932D01*
X77534927Y30367285D01*
X77526477Y30364321D01*
X77518851Y30367730D01*
X77357728Y30528853D01*
X77354301Y30537126D01*
X77357281Y30544927D01*
X77556803Y30767951D01*
X77556805Y30767953D01*
X77557064Y30768243D01*
X77584082Y30808176D01*
X77678187Y30947269D01*
X77701330Y30981475D01*
X77707103Y30993866D01*
X77794605Y31181695D01*
X77794605Y31181696D01*
X77794802Y31182118D01*
X77849584Y31375917D01*
X77877780Y31568616D01*
X77891492Y31765959D01*
X77902813Y31973476D01*
X77902846Y31973917D01*
X77923839Y32197098D01*
X77923962Y32198013D01*
X77966663Y32442710D01*
X77966925Y32443864D01*
X78041250Y32708364D01*
X78046787Y32715402D01*
X78052190Y32716895D01*
X78523194Y32729924D01*
X79718716Y32762994D01*
X79727080Y32759797D01*
G37*
%TD.AperFunction*%
%TD*%
%TA.AperFunction,Conductor*%
%TO.N,matrix_inner_top*%
G36*
X76678205Y46867022D02*
G01*
X76839022Y46706205D01*
X76842449Y46697932D01*
X76839315Y46689963D01*
X76823914Y46673407D01*
X76785346Y46631949D01*
X76785201Y46631763D01*
X76785195Y46631756D01*
X76764845Y46605647D01*
X76738415Y46571737D01*
X76738252Y46571476D01*
X76738251Y46571474D01*
X76703760Y46516109D01*
X76703756Y46516102D01*
X76703583Y46515824D01*
X76678222Y46462449D01*
X76678121Y46462163D01*
X76678118Y46462155D01*
X76659784Y46410068D01*
X76659706Y46409846D01*
X76645407Y46356254D01*
X76645376Y46356116D01*
X76632700Y46299914D01*
X76632697Y46299910D01*
X76632699Y46299910D01*
X76618992Y46239224D01*
X76618905Y46238866D01*
X76601545Y46171911D01*
X76577846Y46096730D01*
X76063142Y46086668D01*
X76062250Y46088708D01*
X76059741Y46091121D01*
X76058764Y46096036D01*
X76061342Y46227898D01*
X76061342Y46227920D01*
X76064106Y46369313D01*
X76068566Y46597443D01*
X76072154Y46605647D01*
X76076747Y46608373D01*
X76143637Y46629458D01*
X76144217Y46629624D01*
X76210843Y46646899D01*
X76211202Y46646987D01*
X76271910Y46660699D01*
X76271910Y46660698D01*
X76271914Y46660700D01*
X76328254Y46673407D01*
X76381846Y46687706D01*
X76382068Y46687784D01*
X76434155Y46706118D01*
X76434163Y46706121D01*
X76434449Y46706222D01*
X76487824Y46731583D01*
X76488102Y46731756D01*
X76488109Y46731760D01*
X76543474Y46766251D01*
X76543476Y46766252D01*
X76543737Y46766415D01*
X76543975Y46766601D01*
X76543980Y46766604D01*
X76603756Y46813195D01*
X76603763Y46813201D01*
X76603949Y46813346D01*
X76631318Y46838807D01*
X76661963Y46867315D01*
X76670354Y46870441D01*
X76678205Y46867022D01*
G37*
%TD.AperFunction*%
%TD*%
%TA.AperFunction,Conductor*%
%TO.N,matrix_inner_top*%
G36*
X79731541Y49755369D02*
G01*
X79735114Y49746701D01*
X79704071Y48281691D01*
X79700896Y48273922D01*
X79635792Y48204714D01*
X79506709Y48018642D01*
X79500329Y48014068D01*
X79428359Y47993399D01*
X79427185Y47993126D01*
X79183711Y47949634D01*
X79182784Y47949508D01*
X79118273Y47943300D01*
X78960600Y47928129D01*
X78960121Y47928093D01*
X78753446Y47916735D01*
X78753418Y47916733D01*
X78651593Y47909766D01*
X78556939Y47903289D01*
X78556933Y47903288D01*
X78556723Y47903274D01*
X78364591Y47875571D01*
X78171334Y47821466D01*
X78170911Y47821270D01*
X78170908Y47821269D01*
X78103337Y47789972D01*
X77971263Y47728799D01*
X77758688Y47585411D01*
X77725697Y47555922D01*
X77536170Y47386517D01*
X77527718Y47383558D01*
X77520100Y47386967D01*
X77358968Y47548099D01*
X77355541Y47556372D01*
X77358518Y47564170D01*
X77505684Y47728799D01*
X77557639Y47786919D01*
X77701237Y47999696D01*
X77794120Y48199940D01*
X77848472Y48393341D01*
X77876476Y48585588D01*
X77890316Y48782371D01*
X77902162Y48989143D01*
X77902200Y48989626D01*
X77924190Y49211831D01*
X77924322Y49212771D01*
X77968574Y49456225D01*
X77968850Y49457399D01*
X78045294Y49720363D01*
X78050894Y49727351D01*
X78056320Y49728795D01*
X79723208Y49758647D01*
X79731541Y49755369D01*
G37*
%TD.AperFunction*%
%TD*%
%TA.AperFunction,Conductor*%
%TO.N,matrix_inner_top*%
G36*
X76577846Y46359270D02*
G01*
X76601545Y46284088D01*
X76616088Y46228000D01*
X76616462Y46226557D01*
X76618905Y46217133D01*
X76618992Y46216775D01*
X76632699Y46156089D01*
X76632698Y46156089D01*
X76632700Y46156085D01*
X76645407Y46099745D01*
X76659706Y46046153D01*
X76659783Y46045934D01*
X76659784Y46045931D01*
X76678118Y45993844D01*
X76678121Y45993836D01*
X76678222Y45993550D01*
X76703583Y45940175D01*
X76703756Y45939897D01*
X76703760Y45939890D01*
X76738251Y45884525D01*
X76738415Y45884262D01*
X76738601Y45884024D01*
X76738604Y45884019D01*
X76785195Y45824243D01*
X76785201Y45824236D01*
X76785346Y45824050D01*
X76799336Y45809012D01*
X76839315Y45766037D01*
X76842441Y45757646D01*
X76839022Y45749795D01*
X76678204Y45588977D01*
X76669931Y45585550D01*
X76661964Y45588683D01*
X76603949Y45642653D01*
X76603763Y45642798D01*
X76603756Y45642804D01*
X76543980Y45689395D01*
X76543975Y45689398D01*
X76543737Y45689584D01*
X76543474Y45689748D01*
X76488109Y45724239D01*
X76488102Y45724243D01*
X76487824Y45724416D01*
X76434449Y45749777D01*
X76434163Y45749878D01*
X76434155Y45749881D01*
X76382068Y45768215D01*
X76382065Y45768216D01*
X76381846Y45768293D01*
X76328254Y45782592D01*
X76271914Y45795299D01*
X76271910Y45795302D01*
X76271910Y45795300D01*
X76211202Y45809012D01*
X76210843Y45809100D01*
X76144218Y45826375D01*
X76143637Y45826541D01*
X76076746Y45847627D01*
X76069886Y45853383D01*
X76068566Y45858557D01*
X76065921Y45993844D01*
X76061316Y46229443D01*
X76058764Y46359964D01*
X76062029Y46368303D01*
X76062966Y46368929D01*
X76063142Y46369332D01*
X76577846Y46359270D01*
G37*
%TD.AperFunction*%
%TD*%
%TA.AperFunction,Conductor*%
%TO.N,thumbs_near*%
G36*
X55850204Y-6218977D02*
G01*
X56011022Y-6379795D01*
X56014449Y-6388068D01*
X56011315Y-6396037D01*
X55984551Y-6424807D01*
X55957346Y-6454050D01*
X55957201Y-6454236D01*
X55957195Y-6454243D01*
X55930450Y-6488557D01*
X55910415Y-6514262D01*
X55910252Y-6514523D01*
X55910251Y-6514525D01*
X55875760Y-6569890D01*
X55875756Y-6569897D01*
X55875583Y-6570175D01*
X55850222Y-6623550D01*
X55850121Y-6623836D01*
X55850118Y-6623844D01*
X55831784Y-6675931D01*
X55831706Y-6676153D01*
X55817407Y-6729745D01*
X55817376Y-6729883D01*
X55804700Y-6786085D01*
X55804697Y-6786089D01*
X55804699Y-6786089D01*
X55790987Y-6846797D01*
X55790906Y-6847130D01*
X55773617Y-6913811D01*
X55773457Y-6914367D01*
X55752373Y-6981253D01*
X55746617Y-6988114D01*
X55741443Y-6989434D01*
X55242744Y-6999183D01*
X55234405Y-6995918D01*
X55230817Y-6987256D01*
X55240566Y-6488557D01*
X55244154Y-6480353D01*
X55248746Y-6477627D01*
X55315637Y-6456541D01*
X55316218Y-6456375D01*
X55382843Y-6439100D01*
X55383202Y-6439012D01*
X55443910Y-6425300D01*
X55443910Y-6425301D01*
X55443914Y-6425299D01*
X55500254Y-6412592D01*
X55553846Y-6398293D01*
X55554068Y-6398215D01*
X55606155Y-6379881D01*
X55606163Y-6379878D01*
X55606449Y-6379777D01*
X55659824Y-6354416D01*
X55660102Y-6354243D01*
X55660109Y-6354239D01*
X55715474Y-6319748D01*
X55715476Y-6319747D01*
X55715737Y-6319584D01*
X55715975Y-6319398D01*
X55715980Y-6319395D01*
X55775756Y-6272804D01*
X55775763Y-6272798D01*
X55775949Y-6272653D01*
X55833964Y-6218683D01*
X55842353Y-6215558D01*
X55850204Y-6218977D01*
G37*
%TD.AperFunction*%
%TD*%
%TA.AperFunction,Conductor*%
%TO.N,thumbs_near*%
G36*
X59540616Y-3377235D02*
G01*
X59325029Y-4153381D01*
X59325029Y-4153382D01*
X59091161Y-4995344D01*
X59085645Y-5002399D01*
X59080303Y-5003905D01*
X58825881Y-5012892D01*
X58824911Y-5012885D01*
X58690369Y-5006270D01*
X58589137Y-5001293D01*
X58588502Y-5001244D01*
X58475962Y-4989542D01*
X58373847Y-4978924D01*
X58373824Y-4978921D01*
X58215944Y-4960755D01*
X58175244Y-4956072D01*
X58175241Y-4956072D01*
X58175113Y-4956057D01*
X57987340Y-4942894D01*
X57987040Y-4942905D01*
X57987032Y-4942905D01*
X57805674Y-4949630D01*
X57805668Y-4949631D01*
X57805201Y-4949648D01*
X57623382Y-4986532D01*
X57436565Y-5063759D01*
X57239436Y-5191543D01*
X57239104Y-5191837D01*
X57239103Y-5191838D01*
X57034923Y-5372791D01*
X57026459Y-5375714D01*
X57018890Y-5372308D01*
X56857759Y-5211176D01*
X56854332Y-5202903D01*
X56857342Y-5195069D01*
X57032046Y-5001293D01*
X57073424Y-4955398D01*
X57233624Y-4727660D01*
X57233801Y-4727319D01*
X57233805Y-4727313D01*
X57344185Y-4515076D01*
X57344188Y-4515069D01*
X57344355Y-4514748D01*
X57419467Y-4311303D01*
X57472812Y-4111967D01*
X57518217Y-3911489D01*
X57518272Y-3911258D01*
X57569507Y-3704596D01*
X57569735Y-3703798D01*
X57640573Y-3485612D01*
X57641004Y-3484485D01*
X57745284Y-3249161D01*
X57745894Y-3247974D01*
X57893461Y-2996837D01*
X57900606Y-2991440D01*
X57906234Y-2991377D01*
X59540616Y-3377235D01*
G37*
%TD.AperFunction*%
%TD*%
%TA.AperFunction,Conductor*%
%TO.N,thumbs_home*%
G36*
X74900204Y-7742977D02*
G01*
X75061022Y-7903795D01*
X75064449Y-7912068D01*
X75061315Y-7920037D01*
X75034551Y-7948807D01*
X75007346Y-7978050D01*
X75007201Y-7978236D01*
X75007195Y-7978243D01*
X74980450Y-8012557D01*
X74960415Y-8038262D01*
X74960252Y-8038523D01*
X74960251Y-8038525D01*
X74925760Y-8093890D01*
X74925756Y-8093897D01*
X74925583Y-8094175D01*
X74900222Y-8147550D01*
X74900121Y-8147836D01*
X74900118Y-8147844D01*
X74881784Y-8199931D01*
X74881706Y-8200153D01*
X74867407Y-8253745D01*
X74867376Y-8253883D01*
X74854700Y-8310085D01*
X74854697Y-8310089D01*
X74854699Y-8310089D01*
X74840987Y-8370797D01*
X74840906Y-8371130D01*
X74823617Y-8437811D01*
X74823457Y-8438367D01*
X74802373Y-8505253D01*
X74796617Y-8512114D01*
X74791443Y-8513434D01*
X74292744Y-8523183D01*
X74284405Y-8519918D01*
X74280817Y-8511256D01*
X74290566Y-8012557D01*
X74294154Y-8004353D01*
X74298746Y-8001627D01*
X74365637Y-7980541D01*
X74366218Y-7980375D01*
X74432843Y-7963100D01*
X74433202Y-7963012D01*
X74493910Y-7949300D01*
X74493910Y-7949301D01*
X74493914Y-7949299D01*
X74550254Y-7936592D01*
X74603846Y-7922293D01*
X74604068Y-7922215D01*
X74656155Y-7903881D01*
X74656163Y-7903878D01*
X74656449Y-7903777D01*
X74709824Y-7878416D01*
X74710102Y-7878243D01*
X74710109Y-7878239D01*
X74765474Y-7843748D01*
X74765476Y-7843747D01*
X74765737Y-7843584D01*
X74765975Y-7843398D01*
X74765980Y-7843395D01*
X74825756Y-7796804D01*
X74825763Y-7796798D01*
X74825949Y-7796653D01*
X74883964Y-7742683D01*
X74892353Y-7739558D01*
X74900204Y-7742977D01*
G37*
%TD.AperFunction*%
%TD*%
%TA.AperFunction,Conductor*%
%TO.N,thumbs_home*%
G36*
X78458050Y-5032997D02*
G01*
X78465289Y-5038267D01*
X78466565Y-5047556D01*
X78012757Y-6651813D01*
X78007208Y-6658841D01*
X78001859Y-6660322D01*
X77747449Y-6668163D01*
X77746490Y-6668153D01*
X77510676Y-6655644D01*
X77510060Y-6655593D01*
X77355532Y-6639031D01*
X77295476Y-6632594D01*
X77295357Y-6632581D01*
X77199549Y-6621320D01*
X77096645Y-6609225D01*
X77044827Y-6605500D01*
X76909175Y-6595749D01*
X76909168Y-6595749D01*
X76908864Y-6595727D01*
X76908554Y-6595738D01*
X76908547Y-6595738D01*
X76782770Y-6600257D01*
X76726725Y-6602270D01*
X76726260Y-6602364D01*
X76545471Y-6638919D01*
X76545469Y-6638920D01*
X76544918Y-6639031D01*
X76544399Y-6639245D01*
X76544397Y-6639246D01*
X76474356Y-6668178D01*
X76358132Y-6716187D01*
X76161054Y-6843918D01*
X76160724Y-6844211D01*
X76160722Y-6844212D01*
X75956620Y-7025094D01*
X75948156Y-7028017D01*
X75940587Y-7024611D01*
X75779458Y-6863481D01*
X75776031Y-6855208D01*
X75779043Y-6847372D01*
X75947995Y-6660058D01*
X75995695Y-6607174D01*
X76156490Y-6378996D01*
X76267861Y-6165730D01*
X76343680Y-5962015D01*
X76397822Y-5762494D01*
X76444130Y-5561935D01*
X76444186Y-5561704D01*
X76496466Y-5354999D01*
X76496699Y-5354199D01*
X76568730Y-5136076D01*
X76569167Y-5134951D01*
X76674817Y-4899772D01*
X76675432Y-4898589D01*
X76824543Y-4647648D01*
X76831715Y-4642287D01*
X76837343Y-4642251D01*
X78458050Y-5032997D01*
G37*
%TD.AperFunction*%
%TD*%
%TA.AperFunction,Conductor*%
%TO.N,thumbs_far*%
G36*
X93696204Y-9266977D02*
G01*
X93857022Y-9427795D01*
X93860449Y-9436068D01*
X93857315Y-9444037D01*
X93830551Y-9472807D01*
X93803346Y-9502050D01*
X93803201Y-9502236D01*
X93803195Y-9502243D01*
X93776450Y-9536557D01*
X93756415Y-9562262D01*
X93756252Y-9562523D01*
X93756251Y-9562525D01*
X93721760Y-9617890D01*
X93721756Y-9617897D01*
X93721583Y-9618175D01*
X93696222Y-9671550D01*
X93696121Y-9671836D01*
X93696118Y-9671844D01*
X93677784Y-9723931D01*
X93677706Y-9724153D01*
X93663407Y-9777745D01*
X93663376Y-9777883D01*
X93650700Y-9834085D01*
X93650697Y-9834089D01*
X93650699Y-9834089D01*
X93636987Y-9894797D01*
X93636906Y-9895130D01*
X93619617Y-9961811D01*
X93619457Y-9962367D01*
X93598373Y-10029253D01*
X93592617Y-10036114D01*
X93587443Y-10037434D01*
X93088744Y-10047183D01*
X93080405Y-10043918D01*
X93076817Y-10035256D01*
X93086566Y-9536557D01*
X93090154Y-9528353D01*
X93094746Y-9525627D01*
X93161637Y-9504541D01*
X93162218Y-9504375D01*
X93228843Y-9487100D01*
X93229202Y-9487012D01*
X93289910Y-9473300D01*
X93289910Y-9473301D01*
X93289914Y-9473299D01*
X93346254Y-9460592D01*
X93399846Y-9446293D01*
X93400068Y-9446215D01*
X93452155Y-9427881D01*
X93452163Y-9427878D01*
X93452449Y-9427777D01*
X93505824Y-9402416D01*
X93506102Y-9402243D01*
X93506109Y-9402239D01*
X93561474Y-9367748D01*
X93561476Y-9367747D01*
X93561737Y-9367584D01*
X93561975Y-9367398D01*
X93561980Y-9367395D01*
X93621756Y-9320804D01*
X93621763Y-9320798D01*
X93621949Y-9320653D01*
X93679964Y-9266683D01*
X93688353Y-9263558D01*
X93696204Y-9266977D01*
G37*
%TD.AperFunction*%
%TD*%
%TA.AperFunction,Conductor*%
%TO.N,thumbs_far*%
G36*
X97441066Y-6781217D02*
G01*
X97214401Y-7277038D01*
X97058157Y-7618816D01*
X96742823Y-8308596D01*
X96736266Y-8314696D01*
X96730808Y-8315351D01*
X96629938Y-8303420D01*
X96493395Y-8287269D01*
X96492593Y-8287145D01*
X96270935Y-8244839D01*
X96270509Y-8244749D01*
X96067842Y-8198087D01*
X96067824Y-8198083D01*
X96012853Y-8185811D01*
X95879738Y-8156094D01*
X95879729Y-8156092D01*
X95879571Y-8156057D01*
X95879412Y-8156032D01*
X95879403Y-8156030D01*
X95701640Y-8127768D01*
X95701634Y-8127767D01*
X95701279Y-8127711D01*
X95700917Y-8127699D01*
X95700916Y-8127699D01*
X95673739Y-8126807D01*
X95528254Y-8122034D01*
X95527724Y-8122114D01*
X95527722Y-8122114D01*
X95402073Y-8141045D01*
X95355804Y-8148016D01*
X95179236Y-8214646D01*
X95178742Y-8214956D01*
X94994253Y-8330662D01*
X94994250Y-8330664D01*
X94993855Y-8330912D01*
X94993505Y-8331220D01*
X94993502Y-8331222D01*
X94803211Y-8498559D01*
X94794736Y-8501449D01*
X94787212Y-8498046D01*
X94626068Y-8336901D01*
X94622641Y-8328628D01*
X94625668Y-8320776D01*
X94850044Y-8072998D01*
X95019388Y-7837737D01*
X95140859Y-7618550D01*
X95140978Y-7618270D01*
X95229008Y-7410927D01*
X95229013Y-7410914D01*
X95229086Y-7410742D01*
X95295154Y-7219868D01*
X95298701Y-7209619D01*
X95298701Y-7209618D01*
X95364259Y-7010716D01*
X95364427Y-7010243D01*
X95440428Y-6809153D01*
X95440846Y-6808180D01*
X95448745Y-6791908D01*
X95465391Y-6757613D01*
X95541886Y-6600022D01*
X95542554Y-6598830D01*
X95683277Y-6378675D01*
X95684102Y-6377540D01*
X95756827Y-6289195D01*
X95879675Y-6139962D01*
X97441066Y-6781217D01*
G37*
%TD.AperFunction*%
%TD*%
%TA.AperFunction,Conductor*%
%TO.N,thumbs_far*%
G36*
X96958718Y-4417168D02*
G01*
X96962127Y-4424792D01*
X96978779Y-4724530D01*
X97027549Y-4977820D01*
X97027702Y-4978242D01*
X97027704Y-4978248D01*
X97103117Y-5185833D01*
X97103120Y-5185839D01*
X97103277Y-5186272D01*
X97201421Y-5362544D01*
X97317435Y-5519296D01*
X97446775Y-5669188D01*
X97446824Y-5669243D01*
X97584735Y-5824696D01*
X97585042Y-5825056D01*
X97726963Y-5998668D01*
X97727525Y-5999415D01*
X97868969Y-6203802D01*
X97869596Y-6204814D01*
X98001892Y-6444950D01*
X98002356Y-6445793D01*
X98003346Y-6454693D01*
X98000541Y-6459549D01*
X97215085Y-7276326D01*
X97215083Y-7276328D01*
X96836513Y-7669995D01*
X95666513Y-6453339D01*
X95803429Y-6204814D01*
X95804056Y-6203802D01*
X95945500Y-5999415D01*
X95946062Y-5998668D01*
X96087983Y-5825056D01*
X96088290Y-5824696D01*
X96226201Y-5669243D01*
X96226250Y-5669188D01*
X96355590Y-5519296D01*
X96471604Y-5362544D01*
X96569748Y-5186272D01*
X96569905Y-5185839D01*
X96569908Y-5185833D01*
X96645321Y-4978248D01*
X96645323Y-4978242D01*
X96645476Y-4977820D01*
X96694246Y-4724530D01*
X96710899Y-4424792D01*
X96714780Y-4416722D01*
X96722581Y-4413741D01*
X96950445Y-4413741D01*
X96958718Y-4417168D01*
G37*
%TD.AperFunction*%
%TD*%
%TA.AperFunction,Conductor*%
%TO.N,RAW*%
G36*
X95258433Y38086231D02*
G01*
X95559208Y37773462D01*
X95562473Y37765123D01*
X95561182Y37760006D01*
X95534288Y37707647D01*
X95534088Y37707276D01*
X95515737Y37674807D01*
X95505004Y37655816D01*
X95504885Y37655612D01*
X95477717Y37609732D01*
X95477694Y37609693D01*
X95452798Y37566768D01*
X95430658Y37524371D01*
X95420421Y37500413D01*
X95411779Y37480189D01*
X95411776Y37480180D01*
X95411665Y37479921D01*
X95396211Y37430839D01*
X95384688Y37374545D01*
X95377487Y37308459D01*
X95377480Y37308235D01*
X95375359Y37241329D01*
X95371672Y37233169D01*
X95363665Y37230000D01*
X95136335Y37230000D01*
X95128062Y37233427D01*
X95124641Y37241329D01*
X95122519Y37308235D01*
X95122512Y37308459D01*
X95115311Y37374545D01*
X95103788Y37430839D01*
X95088334Y37479921D01*
X95088223Y37480180D01*
X95088220Y37480189D01*
X95079578Y37500413D01*
X95069341Y37524371D01*
X95047201Y37566768D01*
X95022305Y37609693D01*
X95022282Y37609732D01*
X94995114Y37655612D01*
X94994995Y37655816D01*
X94965922Y37707257D01*
X94965701Y37707668D01*
X94938818Y37760006D01*
X94938086Y37768931D01*
X94940792Y37773462D01*
X95241567Y38086231D01*
X95249771Y38089819D01*
X95258433Y38086231D01*
G37*
%TD.AperFunction*%
%TD*%
%TA.AperFunction,Conductor*%
%TO.N,RST*%
G36*
X96284199Y26471810D02*
G01*
X96316494Y26414664D01*
X96326847Y26396344D01*
X96376114Y26330557D01*
X96394192Y26312999D01*
X96414096Y26293667D01*
X96417643Y26285445D01*
X96414337Y26277122D01*
X96411544Y26275002D01*
X96409201Y26273726D01*
X96399040Y26266138D01*
X96399575Y26265421D01*
X96396756Y26262286D01*
X96377952Y26248210D01*
X96377088Y26247563D01*
X96373189Y26245700D01*
X96372645Y26246428D01*
X96370784Y26245038D01*
X96370783Y26245038D01*
X96350767Y26230091D01*
X96350762Y26230087D01*
X96350437Y26229844D01*
X96350146Y26229554D01*
X96350137Y26229546D01*
X96342042Y26221474D01*
X96340793Y26220393D01*
X96336774Y26217384D01*
X96334034Y26215333D01*
X96316767Y26198066D01*
X96317232Y26197601D01*
X96315491Y26194998D01*
X96294129Y26173696D01*
X96291637Y26172034D01*
X96291186Y26172485D01*
X96286667Y26167966D01*
X96286456Y26167698D01*
X96286442Y26167682D01*
X96280867Y26160593D01*
X96279932Y26159541D01*
X96259134Y26138801D01*
X96247078Y26126780D01*
X96246675Y26126045D01*
X96230974Y26097405D01*
X96229912Y26095796D01*
X96216688Y26078981D01*
X96208880Y26074597D01*
X96200258Y26077017D01*
X96196907Y26081227D01*
X96185677Y26105062D01*
X96185640Y26105141D01*
X96174836Y26127371D01*
X96149047Y26180430D01*
X96105980Y26267526D01*
X96074762Y26330239D01*
X96060180Y26359532D01*
X96059561Y26368464D01*
X96065437Y26375217D01*
X96268796Y26476526D01*
X96277729Y26477148D01*
X96284199Y26471810D01*
G37*
%TD.AperFunction*%
%TD*%
%TA.AperFunction,Conductor*%
%TO.N,RST*%
G36*
X88211869Y38530588D02*
G01*
X88378237Y38151684D01*
X88412433Y38073802D01*
X88412621Y38064849D01*
X88409680Y38060523D01*
X88372111Y38025650D01*
X88365332Y38019358D01*
X88365130Y38019175D01*
X88318497Y37978011D01*
X88275978Y37940182D01*
X88238004Y37903472D01*
X88237841Y37903285D01*
X88237834Y37903278D01*
X88205165Y37865870D01*
X88204920Y37865589D01*
X88204715Y37865284D01*
X88204713Y37865282D01*
X88177319Y37824609D01*
X88177316Y37824604D01*
X88177073Y37824243D01*
X88154811Y37777143D01*
X88138480Y37722000D01*
X88128428Y37656522D01*
X88128414Y37656214D01*
X88128414Y37656209D01*
X88125491Y37589606D01*
X88121704Y37581491D01*
X88113802Y37578419D01*
X87886372Y37578419D01*
X87878099Y37581846D01*
X87874677Y37589786D01*
X87872076Y37681178D01*
X87872071Y37681364D01*
X87868284Y37722000D01*
X87864004Y37767922D01*
X87864003Y37767933D01*
X87863986Y37768111D01*
X87862574Y37776708D01*
X87851831Y37842082D01*
X87851797Y37842289D01*
X87836557Y37907527D01*
X87819317Y37967456D01*
X87801131Y38025705D01*
X87783113Y38085692D01*
X87782992Y38086125D01*
X87766209Y38151355D01*
X87766059Y38152017D01*
X87751481Y38226301D01*
X87751360Y38227041D01*
X87741044Y38306152D01*
X87743373Y38314799D01*
X87747527Y38318186D01*
X87871090Y38378305D01*
X88196037Y38536405D01*
X88204975Y38536943D01*
X88211869Y38530588D01*
G37*
%TD.AperFunction*%
%TD*%
%TA.AperFunction,Conductor*%
%TO.N,RST*%
G36*
X88122026Y37536573D02*
G01*
X88125444Y37528762D01*
X88129046Y37437496D01*
X88140632Y37352029D01*
X88158927Y37279971D01*
X88183098Y37217692D01*
X88212315Y37161563D01*
X88212431Y37161377D01*
X88212435Y37161370D01*
X88245709Y37108015D01*
X88245721Y37107997D01*
X88245747Y37107955D01*
X88245787Y37107896D01*
X88282515Y37053311D01*
X88282563Y37053239D01*
X88321796Y36993989D01*
X88322046Y36993594D01*
X88363020Y36925965D01*
X88405000Y36846150D01*
X88004311Y36429483D01*
X88003643Y36428788D01*
X88002256Y36429331D01*
X87997416Y36429236D01*
X87993248Y36432021D01*
X87779483Y36654311D01*
X87600851Y36840066D01*
X87597586Y36848404D01*
X87598929Y36853621D01*
X87600302Y36856230D01*
X87636811Y36925645D01*
X87637157Y36926259D01*
X87677951Y36993592D01*
X87678203Y36993988D01*
X87717388Y37053166D01*
X87717436Y37053239D01*
X87754212Y37107896D01*
X87754252Y37107955D01*
X87754278Y37107997D01*
X87754290Y37108015D01*
X87787564Y37161370D01*
X87787568Y37161377D01*
X87787684Y37161563D01*
X87816901Y37217692D01*
X87841072Y37279971D01*
X87859367Y37352029D01*
X87870953Y37437496D01*
X87874556Y37528763D01*
X87878307Y37536893D01*
X87886247Y37540000D01*
X88113753Y37540000D01*
X88122026Y37536573D01*
G37*
%TD.AperFunction*%
%TD*%
%TA.AperFunction,Conductor*%
%TO.N,pos*%
G36*
X98471947Y38190570D02*
G01*
X98514806Y38155879D01*
X98514963Y38155749D01*
X98558170Y38119127D01*
X98597544Y38085944D01*
X98635203Y38056483D01*
X98673341Y38030960D01*
X98714152Y38009591D01*
X98759833Y37992595D01*
X98812576Y37980186D01*
X98874578Y37972582D01*
X98936744Y37970397D01*
X98944892Y37966681D01*
X98948033Y37958704D01*
X98948033Y37731405D01*
X98944606Y37723132D01*
X98936632Y37719709D01*
X98861313Y37717784D01*
X98861304Y37717783D01*
X98861129Y37717779D01*
X98787745Y37711481D01*
X98724928Y37701654D01*
X98724715Y37701605D01*
X98724712Y37701604D01*
X98669909Y37688887D01*
X98669905Y37688886D01*
X98669720Y37688843D01*
X98619167Y37673594D01*
X98570312Y37656456D01*
X98520202Y37637974D01*
X98466072Y37618762D01*
X98465709Y37618640D01*
X98404643Y37599244D01*
X98404153Y37599100D01*
X98380009Y37592616D01*
X98340850Y37582099D01*
X98331971Y37583263D01*
X98328111Y37586863D01*
X98085724Y37946774D01*
X98083945Y37955551D01*
X98089276Y37963261D01*
X98458435Y38191428D01*
X98467274Y38192863D01*
X98471947Y38190570D01*
G37*
%TD.AperFunction*%
%TD*%
%TA.AperFunction,Conductor*%
%TO.N,pos*%
G36*
X102422950Y39523273D02*
G01*
X102426538Y39514611D01*
X102424638Y39417430D01*
X102414515Y38899553D01*
X102414253Y38886160D01*
X102410665Y38877956D01*
X102405991Y38875206D01*
X102317417Y38848004D01*
X102316681Y38847804D01*
X102269858Y38836816D01*
X102230427Y38827563D01*
X102229891Y38827451D01*
X102151375Y38812867D01*
X102151225Y38812840D01*
X102078196Y38800252D01*
X102078083Y38800229D01*
X102078073Y38800227D01*
X102008930Y38786071D01*
X102008923Y38786069D01*
X102008697Y38786023D01*
X101975734Y38776564D01*
X101940931Y38766578D01*
X101940926Y38766576D01*
X101940601Y38766483D01*
X101940289Y38766354D01*
X101940281Y38766351D01*
X101873509Y38738694D01*
X101871713Y38737950D01*
X101831705Y38715012D01*
X101800146Y38696919D01*
X101800141Y38696916D01*
X101799838Y38696742D01*
X101722782Y38639179D01*
X101722570Y38638984D01*
X101722565Y38638980D01*
X101646612Y38569168D01*
X101638201Y38566092D01*
X101630421Y38569509D01*
X101469509Y38730421D01*
X101466082Y38738694D01*
X101469168Y38746612D01*
X101538980Y38822565D01*
X101538984Y38822570D01*
X101539179Y38822782D01*
X101596742Y38899838D01*
X101637950Y38971713D01*
X101638095Y38972063D01*
X101666351Y39040281D01*
X101666354Y39040289D01*
X101666483Y39040601D01*
X101686023Y39108697D01*
X101700252Y39178196D01*
X101712840Y39251225D01*
X101712867Y39251375D01*
X101727451Y39329891D01*
X101727563Y39330427D01*
X101747801Y39416668D01*
X101748008Y39417430D01*
X101775205Y39505990D01*
X101780909Y39512892D01*
X101786158Y39514253D01*
X102233646Y39523000D01*
X102414611Y39526538D01*
X102422950Y39523273D01*
G37*
%TD.AperFunction*%
%TD*%
M02*
