0
SECTION
2
HEADER
9
$INSUNITS
70
4
0
ENDSEC
0
SECTION
2
TABLES
0
TABLE
2
LTYPE
0
LTYPE
72
65
70
64
2
CONTINUOUS
3
______
73
0
40
0
0
ENDTAB
0
TABLE
2
LAYER
0
ENDTAB
0
ENDSEC
0
SECTION
2
ENTITIES
0
LINE
8
0
10
8.75
20
25.25
11
-8.75
21
25.25
0
LINE
8
0
10
-8.75
20
25.25
11
-8.75
21
8.75
0
LINE
8
0
10
-8.75
20
8.75
11
8.75
21
8.75
0
LINE
8
0
10
8.75
20
8.75
11
8.75
21
25.25
0
LINE
8
0
10
8.75
20
42.25
11
-8.75
21
42.25
0
LINE
8
0
10
-8.75
20
42.25
11
-8.75
21
25.75
0
LINE
8
0
10
-8.75
20
25.75
11
8.75
21
25.75
0
LINE
8
0
10
8.75
20
25.75
11
8.75
21
42.25
0
LINE
8
0
10
8.75
20
59.25
11
-8.75
21
59.25
0
LINE
8
0
10
-8.75
20
59.25
11
-8.75
21
42.75
0
LINE
8
0
10
-8.75
20
42.75
11
8.75
21
42.75
0
LINE
8
0
10
8.75
20
42.75
11
8.75
21
59.25
0
LINE
8
0
10
27.75
20
25.25
11
10.25
21
25.25
0
LINE
8
0
10
10.25
20
25.25
11
10.25
21
8.75
0
LINE
8
0
10
10.25
20
8.75
11
27.75
21
8.75
0
LINE
8
0
10
27.75
20
8.75
11
27.75
21
25.25
0
LINE
8
0
10
27.75
20
42.25
11
10.25
21
42.25
0
LINE
8
0
10
10.25
20
42.25
11
10.25
21
25.75
0
LINE
8
0
10
10.25
20
25.75
11
27.75
21
25.75
0
LINE
8
0
10
27.75
20
25.75
11
27.75
21
42.25
0
LINE
8
0
10
27.75
20
59.25
11
10.25
21
59.25
0
LINE
8
0
10
10.25
20
59.25
11
10.25
21
42.75
0
LINE
8
0
10
10.25
20
42.75
11
27.75
21
42.75
0
LINE
8
0
10
27.75
20
42.75
11
27.75
21
59.25
0
LINE
8
0
10
46.75
20
25.25
11
29.25
21
25.25
0
LINE
8
0
10
29.25
20
25.25
11
29.25
21
8.75
0
LINE
8
0
10
29.25
20
8.75
11
46.75
21
8.75
0
LINE
8
0
10
46.75
20
8.75
11
46.75
21
25.25
0
LINE
8
0
10
46.75
20
42.25
11
29.25
21
42.25
0
LINE
8
0
10
29.25
20
42.25
11
29.25
21
25.75
0
LINE
8
0
10
29.25
20
25.75
11
46.75
21
25.75
0
LINE
8
0
10
46.75
20
25.75
11
46.75
21
42.25
0
LINE
8
0
10
46.75
20
59.25
11
29.25
21
59.25
0
LINE
8
0
10
29.25
20
59.25
11
29.25
21
42.75
0
LINE
8
0
10
29.25
20
42.75
11
46.75
21
42.75
0
LINE
8
0
10
46.75
20
42.75
11
46.75
21
59.25
0
LINE
8
0
10
65.75
20
8.25
11
48.25
21
8.25
0
LINE
8
0
10
48.25
20
8.25
11
48.25
21
-8.25
0
LINE
8
0
10
48.25
20
-8.25
11
65.75
21
-8.25
0
LINE
8
0
10
65.75
20
-8.25
11
65.75
21
8.25
0
LINE
8
0
10
65.75
20
25.25
11
48.25
21
25.25
0
LINE
8
0
10
48.25
20
25.25
11
48.25
21
8.75
0
LINE
8
0
10
48.25
20
8.75
11
65.75
21
8.75
0
LINE
8
0
10
65.75
20
8.75
11
65.75
21
25.25
0
LINE
8
0
10
65.75
20
42.25
11
48.25
21
42.25
0
LINE
8
0
10
48.25
20
42.25
11
48.25
21
25.75
0
LINE
8
0
10
48.25
20
25.75
11
65.75
21
25.75
0
LINE
8
0
10
65.75
20
25.75
11
65.75
21
42.25
0
LINE
8
0
10
65.75
20
59.25
11
48.25
21
59.25
0
LINE
8
0
10
48.25
20
59.25
11
48.25
21
42.75
0
LINE
8
0
10
48.25
20
42.75
11
65.75
21
42.75
0
LINE
8
0
10
65.75
20
42.75
11
65.75
21
59.25
0
LINE
8
0
10
84.75
20
8.25
11
67.25
21
8.25
0
LINE
8
0
10
67.25
20
8.25
11
67.25
21
-8.25
0
LINE
8
0
10
67.25
20
-8.25
11
84.75
21
-8.25
0
LINE
8
0
10
84.75
20
-8.25
11
84.75
21
8.25
0
LINE
8
0
10
84.75
20
25.25
11
67.25
21
25.25
0
LINE
8
0
10
67.25
20
25.25
11
67.25
21
8.75
0
LINE
8
0
10
67.25
20
8.75
11
84.75
21
8.75
0
LINE
8
0
10
84.75
20
8.75
11
84.75
21
25.25
0
LINE
8
0
10
84.75
20
42.25
11
67.25
21
42.25
0
LINE
8
0
10
67.25
20
42.25
11
67.25
21
25.75
0
LINE
8
0
10
67.25
20
25.75
11
84.75
21
25.75
0
LINE
8
0
10
84.75
20
25.75
11
84.75
21
42.25
0
LINE
8
0
10
84.75
20
59.25
11
67.25
21
59.25
0
LINE
8
0
10
67.25
20
59.25
11
67.25
21
42.75
0
LINE
8
0
10
67.25
20
42.75
11
84.75
21
42.75
0
LINE
8
0
10
84.75
20
42.75
11
84.75
21
59.25
0
ENDSEC
0
EOF